<svg width="133" height="38" viewBox="0 0 133 38" fill="none" xmlns="http://www.w3.org/2000/svg">
<path d="M50.1556 7.60222C51.3196 7.74622 52.2076 8.14222 52.8196 8.79022C53.4316 9.43822 53.7376 10.2482 53.7376 11.2202C53.7376 11.9522 53.5516 12.6182 53.1796 13.2182C52.8076 13.8182 52.2436 14.2982 51.4876 14.6582C50.7436 15.0062 49.8316 15.1802 48.7516 15.1802C47.8516 15.1802 46.9816 15.0542 46.1416 14.8022C45.3136 14.5382 44.6056 14.1782 44.0176 13.7222L45.0256 11.9042C45.4816 12.2882 46.0336 12.5942 46.6816 12.8222C47.3416 13.0382 48.0196 13.1462 48.7156 13.1462C49.5436 13.1462 50.1916 12.9782 50.6596 12.6422C51.1396 12.2942 51.3796 11.8262 51.3796 11.2382C51.3796 10.6502 51.1516 10.1942 50.6956 9.87021C50.2516 9.53421 49.5676 9.36622 48.6436 9.36622H47.4916V7.76422L50.3536 4.36222H44.6296V2.40021H53.2156V3.96621L50.1556 7.60222Z" fill="#001427"/>
<path d="M69.7647 4.38021H63.5188L63.5368 15.0002H61.2327V2.40021H69.7827L69.7647 4.38021Z" fill="#001427"/>
<path d="M76.1346 15.1802C74.8506 15.1802 73.6926 14.9042 72.6606 14.3522C71.6286 13.7882 70.8186 13.0142 70.2306 12.0302C69.6426 11.0342 69.3486 9.92422 69.3486 8.70022C69.3486 7.47622 69.6426 6.37222 70.2306 5.38821C70.8186 4.39221 71.6286 3.61821 72.6606 3.06621C73.6926 2.50221 74.8506 2.22021 76.1346 2.22021C77.4186 2.22021 78.5766 2.50221 79.6086 3.06621C80.6406 3.61821 81.4506 4.38621 82.0386 5.37021C82.6266 6.35422 82.9206 7.46422 82.9206 8.70022C82.9206 9.93622 82.6266 11.0462 82.0386 12.0302C81.4506 13.0142 80.6406 13.7882 79.6086 14.3522C78.5766 14.9042 77.4186 15.1802 76.1346 15.1802ZM76.1346 13.1282C76.9746 13.1282 77.7306 12.9422 78.4026 12.5702C79.0746 12.1862 79.6026 11.6582 79.9866 10.9862C80.3706 10.3022 80.5626 9.54022 80.5626 8.70022C80.5626 7.86022 80.3706 7.10422 79.9866 6.43222C79.6026 5.74821 79.0746 5.22021 78.4026 4.84822C77.7306 4.46422 76.9746 4.27222 76.1346 4.27222C75.2946 4.27222 74.5386 4.46422 73.8666 4.84822C73.1946 5.22021 72.6666 5.74821 72.2826 6.43222C71.8986 7.10422 71.7066 7.86022 71.7066 8.70022C71.7066 9.54022 71.8986 10.3022 72.2826 10.9862C72.6666 11.6582 73.1946 12.1862 73.8666 12.5702C74.5386 12.9422 75.2946 13.1282 76.1346 13.1282Z" fill="#001427"/>
<path d="M97.6482 13.0202V17.6822H95.4882V15.0002H85.8222V17.6822H83.6442L83.6622 13.0202H84.2022C84.9942 12.9842 85.5462 12.4022 85.8582 11.2742C86.1822 10.1342 86.3802 8.50822 86.4522 6.39622L86.5962 2.40021H95.8302V13.0202H97.6482ZM88.5042 6.61222C88.4442 8.24422 88.3122 9.60622 88.1082 10.6982C87.9042 11.7782 87.5802 12.5522 87.1362 13.0202H93.5262V4.38021H88.5942L88.5042 6.61222Z" fill="#001427"/>
<path d="M108.291 12.0842H101.991L100.749 15.0002H98.3374L104.007 2.40021H106.311L111.999 15.0002H109.551L108.291 12.0842ZM107.517 10.2482L105.141 4.74021L102.783 10.2482H107.517Z" fill="#001427"/>
<path d="M40.6 22H133L115.4 38H23L40.6 22Z" fill="#DC0000"/>
<path d="M51.1093 26.6441H46.7893L46.8013 34.0001H45.6133V25.6001H51.1213L51.1093 26.6441Z" fill="white"/>
<path d="M56.417 31.9001H51.953L51.029 34.0001H49.793L53.597 25.6001H54.785L58.601 34.0001H57.341L56.417 31.9001ZM55.997 30.9401L54.185 26.8241L52.373 30.9401H55.997Z" fill="white"/>
<path d="M63.3268 25.6001C64.4148 25.6001 65.2708 25.8601 65.8948 26.3801C66.5188 26.9001 66.8308 27.6161 66.8308 28.5281C66.8308 29.4401 66.5188 30.1561 65.8948 30.6761C65.2708 31.1961 64.4148 31.4561 63.3268 31.4561H61.2508V34.0001H60.0508V25.6001H63.3268ZM63.2908 30.4121C64.0508 30.4121 64.6308 30.2521 65.0308 29.9321C65.4308 29.6041 65.6308 29.1361 65.6308 28.5281C65.6308 27.9201 65.4308 27.4561 65.0308 27.1361C64.6308 26.8081 64.0508 26.6441 63.2908 26.6441H61.2508V30.4121H63.2908Z" fill="white"/>
<path d="M73.5381 31.9001H69.0741L68.1501 34.0001H66.9141L70.7181 25.6001H71.9061L75.7221 34.0001H74.4621L73.5381 31.9001ZM73.1181 30.9401L71.3061 26.8241L69.4941 30.9401H73.1181Z" fill="white"/>
<path d="M84.3959 25.6001V34.0001H83.1959V30.2561H78.3719V34.0001H77.1719V25.6001H78.3719V29.2121H83.1959V25.6001H84.3959Z" fill="white"/>
<path d="M92.7876 26.6441H89.9076V34.0001H88.7316V26.6441H85.8636V25.6001H92.7876V26.6441Z" fill="white"/>
<path d="M94.2461 25.6001H95.4341V32.0801L100.402 25.6001H101.506V34.0001H100.33V27.5321L95.3501 34.0001H94.2461V25.6001Z" fill="white"/>
<path d="M104.125 25.6001H105.313V32.0801L110.281 25.6001H111.385V34.0001H110.209V27.5321L105.229 34.0001H104.125V25.6001Z" fill="white"/>
<path d="M16.0005 31.1353C15.9266 31.1353 15.854 31.1164 15.7895 31.0803C8.27251 26.8723 3.78516 20.1082 3.78516 12.9813V6.1943C3.78511 6.13471 3.79738 6.07576 3.82119 6.02114C3.845 5.96652 3.87985 5.91741 3.92353 5.87689C3.96711 5.8361 4.01876 5.8049 4.07515 5.78531C4.13153 5.76572 4.1914 5.75817 4.25089 5.76316C9.2671 6.15235 12.9955 4.60554 15.6537 1.03884C15.6957 0.98776 15.7485 0.946622 15.8084 0.918379C15.8682 0.890136 15.9335 0.875488 15.9996 0.875488C16.0658 0.875488 16.1311 0.890136 16.1909 0.918379C16.2507 0.946622 16.3036 0.98776 16.3456 1.03884C19.0059 4.60554 22.7395 6.15149 27.7501 5.76316C27.8097 5.75856 27.8695 5.76634 27.9259 5.78601C27.9822 5.80567 28.0339 5.83679 28.0777 5.87742C28.1214 5.91804 28.1563 5.96728 28.1801 6.02204C28.2039 6.0768 28.216 6.13589 28.2159 6.19559V12.9813C28.1815 16.6096 27.0741 20.1465 25.0332 23.1465C22.7578 26.4483 19.7354 29.1664 16.2115 31.0799C16.1471 31.1161 16.0744 31.1352 16.0005 31.1353ZM4.65002 6.65657V12.9813C4.65002 19.7225 8.88786 26.1463 16.0005 30.206C19.3166 28.3695 22.1619 25.7892 24.3127 22.6678C26.2592 19.8096 27.3164 16.4392 27.351 12.9813V6.65657C22.4645 6.929 18.7382 5.40251 16.0005 2.0036C13.2636 5.40165 9.54127 6.929 4.65002 6.65657Z" fill="#001427"/>
<path d="M16.0005 28.1148C15.9184 28.1148 15.838 28.0914 15.7687 28.0473C9.80116 24.2532 6.37976 18.7617 6.37976 12.9814V8.82182C6.37959 8.71113 6.42187 8.6046 6.49789 8.52415C6.57391 8.4437 6.67789 8.39547 6.7884 8.38938C10.0883 8.28484 13.2465 7.02374 15.7108 4.82657C15.7902 4.75486 15.8935 4.71516 16.0005 4.71516C16.1075 4.71516 16.2108 4.75486 16.2902 4.82657C18.7542 7.02346 21.9119 8.28454 25.2113 8.38938C25.3218 8.39547 25.4258 8.4437 25.5018 8.52415C25.5779 8.6046 25.6201 8.71113 25.62 8.82182V12.9805C25.585 16.0977 24.6285 19.1349 22.871 21.7096C21.1198 24.2582 18.8593 26.4161 16.2323 28.0473C16.163 28.0914 16.0826 28.1148 16.0005 28.1148ZM7.24462 9.22787V12.9814C7.24462 18.3868 10.4316 23.5427 16.0005 27.1682C18.4294 25.6237 20.5217 23.6049 22.1519 21.2326C23.8149 18.7997 24.7212 15.9291 24.7564 12.9822V9.22873C21.5347 9.04161 18.4613 7.81124 16.0005 5.72344C13.5396 7.81093 10.4662 9.04099 7.24462 9.22787Z" fill="#001427"/>
<path d="M14.1738 19.0757C14.0592 19.0756 13.9492 19.0301 13.8681 18.949L11.3704 16.4512C11.2916 16.3697 11.248 16.2604 11.249 16.1471C11.25 16.0337 11.2955 15.9252 11.3756 15.845C11.4558 15.7649 11.5643 15.7194 11.6777 15.7184C11.791 15.7174 11.9003 15.761 11.9818 15.8398L14.1738 18.0326L20.019 12.1866C20.1004 12.1055 20.2106 12.0601 20.3255 12.0603C20.4404 12.0605 20.5505 12.1063 20.6316 12.1877C20.7127 12.269 20.7581 12.3793 20.7579 12.4942C20.7577 12.609 20.7119 12.7191 20.6305 12.8002L14.4796 18.949C14.3985 19.0301 14.2885 19.0756 14.1738 19.0757Z" fill="#001427"/>
</svg>
