<svg width="133" height="38" viewBox="0 0 133 38" fill="none" xmlns="http://www.w3.org/2000/svg">
<path d="M53.9176 13.02V15H44.6296V13.434L49.6336 8.68197C50.1976 8.14197 50.5756 7.67397 50.7676 7.27797C50.9716 6.86997 51.0736 6.46797 51.0736 6.07197C51.0736 5.48397 50.8756 5.03397 50.4796 4.72197C50.0836 4.40997 49.5016 4.25397 48.7336 4.25397C47.4496 4.25397 46.4656 4.69197 45.7816 5.56797L44.1436 4.30797C44.6356 3.64797 45.2956 3.13797 46.1236 2.77797C46.9636 2.40597 47.8996 2.21997 48.9316 2.21997C50.2996 2.21997 51.3916 2.54397 52.2076 3.19197C53.0236 3.83997 53.4316 4.72197 53.4316 5.83797C53.4316 6.52197 53.2876 7.16397 52.9996 7.76397C52.7116 8.36397 52.1596 9.04797 51.3436 9.81597L47.9776 13.02H53.9176Z" fill="#001427"/>
<path d="M69.7647 4.37997H63.5187L63.5367 15H61.2327V2.39997H69.7827L69.7647 4.37997Z" fill="#001427"/>
<path d="M76.1346 15.18C74.8506 15.18 73.6926 14.904 72.6606 14.352C71.6286 13.788 70.8186 13.014 70.2306 12.03C69.6426 11.034 69.3486 9.92397 69.3486 8.69997C69.3486 7.47597 69.6426 6.37197 70.2306 5.38797C70.8186 4.39197 71.6286 3.61797 72.6606 3.06597C73.6926 2.50197 74.8506 2.21997 76.1346 2.21997C77.4186 2.21997 78.5766 2.50197 79.6086 3.06597C80.6406 3.61797 81.4506 4.38597 82.0386 5.36997C82.6266 6.35397 82.9206 7.46397 82.9206 8.69997C82.9206 9.93597 82.6266 11.046 82.0386 12.03C81.4506 13.014 80.6406 13.788 79.6086 14.352C78.5766 14.904 77.4186 15.18 76.1346 15.18ZM76.1346 13.128C76.9746 13.128 77.7306 12.942 78.4026 12.57C79.0746 12.186 79.6026 11.658 79.9866 10.986C80.3706 10.302 80.5626 9.53997 80.5626 8.69997C80.5626 7.85997 80.3706 7.10397 79.9866 6.43197C79.6026 5.74797 79.0746 5.21997 78.4026 4.84797C77.7306 4.46397 76.9746 4.27197 76.1346 4.27197C75.2946 4.27197 74.5386 4.46397 73.8666 4.84797C73.1946 5.21997 72.6666 5.74797 72.2826 6.43197C71.8986 7.10397 71.7066 7.85997 71.7066 8.69997C71.7066 9.53997 71.8986 10.302 72.2826 10.986C72.6666 11.658 73.1946 12.186 73.8666 12.57C74.5386 12.942 75.2946 13.128 76.1346 13.128Z" fill="#001427"/>
<path d="M97.6481 13.02V17.682H95.4881V15H85.8221V17.682H83.6441L83.6621 13.02H84.2021C84.9941 12.984 85.5461 12.402 85.8581 11.274C86.1821 10.134 86.3801 8.50797 86.4521 6.39597L86.5961 2.39997H95.8301V13.02H97.6481ZM88.5041 6.61197C88.4441 8.24397 88.3121 9.60597 88.1081 10.698C87.9041 11.778 87.5801 12.552 87.1361 13.02H93.5261V4.37997H88.5941L88.5041 6.61197Z" fill="#001427"/>
<path d="M108.291 12.084H101.991L100.749 15H98.3373L104.007 2.39997H106.311L111.999 15H109.551L108.291 12.084ZM107.517 10.248L105.141 4.73997L102.783 10.248H107.517Z" fill="#001427"/>
<path d="M40.6 22H133L115.4 38H23L40.6 22Z" fill="#DC0000"/>
<path d="M51.1083 26.6439H46.7883L46.8003 33.9999H45.6123V25.5999H51.1203L51.1083 26.6439Z" fill="white"/>
<path d="M56.4161 31.8999H51.9521L51.0281 33.9999H49.7921L53.5961 25.5999H54.7841L58.6001 33.9999H57.3401L56.4161 31.8999ZM55.9961 30.9399L54.1841 26.8239L52.3721 30.9399H55.9961Z" fill="white"/>
<path d="M63.3258 25.5999C64.4138 25.5999 65.2698 25.8599 65.8938 26.3799C66.5178 26.8999 66.8298 27.6159 66.8298 28.5279C66.8298 29.4399 66.5178 30.1559 65.8938 30.6759C65.2698 31.1959 64.4138 31.4559 63.3258 31.4559H61.2498V33.9999H60.0498V25.5999H63.3258ZM63.2898 30.4119C64.0498 30.4119 64.6298 30.2519 65.0298 29.9319C65.4298 29.6039 65.6298 29.1359 65.6298 28.5279C65.6298 27.9199 65.4298 27.4559 65.0298 27.1359C64.6298 26.8079 64.0498 26.6439 63.2898 26.6439H61.2498V30.4119H63.2898Z" fill="white"/>
<path d="M73.5371 31.8999H69.0731L68.1491 33.9999H66.9131L70.7171 25.5999H71.9051L75.7211 33.9999H74.4611L73.5371 31.8999ZM73.1171 30.9399L71.3051 26.8239L69.4931 30.9399H73.1171Z" fill="white"/>
<path d="M84.3949 25.5999V33.9999H83.1949V30.2559H78.3709V33.9999H77.1709V25.5999H78.3709V29.2119H83.1949V25.5999H84.3949Z" fill="white"/>
<path d="M92.7866 26.6439H89.9067V33.9999H88.7306V26.6439H85.8626V25.5999H92.7866V26.6439Z" fill="white"/>
<path d="M94.2451 25.5999H95.4331V32.0799L100.401 25.5999H101.505V33.9999H100.329V27.5319L95.3491 33.9999H94.2451V25.5999Z" fill="white"/>
<path d="M104.124 25.5999H105.312V32.0799L110.28 25.5999H111.384V33.9999H110.208V27.5319L105.228 33.9999H104.124V25.5999Z" fill="white"/>
<path d="M15.9995 31.1353C15.9257 31.1353 15.853 31.1164 15.7885 31.0803C8.27153 26.8723 3.78418 20.1082 3.78418 12.9813V6.1943C3.78413 6.13471 3.7964 6.07576 3.82021 6.02114C3.84403 5.96652 3.87887 5.91741 3.92256 5.87689C3.96614 5.8361 4.01779 5.8049 4.07417 5.78531C4.13056 5.76572 4.19043 5.75817 4.24991 5.76316C9.26613 6.15235 12.9946 4.60554 15.6527 1.03884C15.6948 0.98776 15.7476 0.946622 15.8074 0.918379C15.8672 0.890136 15.9325 0.875488 15.9987 0.875488C16.0648 0.875488 16.1301 0.890136 16.19 0.918379C16.2498 0.946622 16.3026 0.98776 16.3446 1.03884C19.0049 4.60554 22.7386 6.15149 27.7492 5.76316C27.8087 5.75856 27.8685 5.76634 27.9249 5.78601C27.9813 5.80567 28.0329 5.83679 28.0767 5.87742C28.1204 5.91804 28.1553 5.96728 28.1791 6.02204C28.2029 6.0768 28.2151 6.13589 28.2149 6.19559V12.9813C28.1805 16.6096 27.0731 20.1465 25.0322 23.1465C22.7568 26.4483 19.7344 29.1664 16.2106 31.0799C16.1461 31.1161 16.0735 31.1352 15.9995 31.1353ZM4.64904 6.65657V12.9813C4.64904 19.7225 8.88688 26.1463 15.9995 30.206C19.3157 28.3695 22.1609 25.7892 24.3118 22.6678C26.2583 19.8096 27.3154 16.4392 27.35 12.9813V6.65657C22.4635 6.929 18.7373 5.40251 15.9995 2.0036C13.2627 5.40165 9.54029 6.929 4.64904 6.65657Z" fill="#001427"/>
<path d="M15.9995 28.1148C15.9174 28.1148 15.837 28.0914 15.7678 28.0473C9.80018 24.2532 6.37878 18.7617 6.37878 12.9814V8.82182C6.37861 8.71113 6.42089 8.6046 6.49691 8.52415C6.57294 8.4437 6.67691 8.39547 6.78743 8.38938C10.0873 8.28484 13.2455 7.02374 15.7098 4.82657C15.7893 4.75486 15.8925 4.71516 15.9995 4.71516C16.1066 4.71516 16.2098 4.75486 16.2893 4.82657C18.7532 7.02346 21.9109 8.28454 25.2103 8.38938C25.3209 8.39547 25.4248 8.4437 25.5009 8.52415C25.5769 8.6046 25.6192 8.71113 25.619 8.82182V12.9805C25.584 16.0977 24.6275 19.1349 22.87 21.7096C21.1188 24.2582 18.8584 26.4161 16.2313 28.0473C16.162 28.0914 16.0816 28.1148 15.9995 28.1148ZM7.24364 9.22787V12.9814C7.24364 18.3868 10.4307 23.5427 15.9995 27.1682C18.4285 25.6237 20.5207 23.6049 22.1509 21.2326C23.814 18.7997 24.7202 15.9291 24.7554 12.9822V9.22873C21.5337 9.04161 18.4604 7.81124 15.9995 5.72344C13.5386 7.81093 10.4653 9.04099 7.24364 9.22787Z" fill="#001427"/>
<path d="M14.1729 19.0757C14.0582 19.0756 13.9482 19.0301 13.8671 18.949L11.3694 16.4512C11.2906 16.3697 11.247 16.2604 11.248 16.1471C11.249 16.0337 11.2945 15.9252 11.3747 15.845C11.4548 15.7649 11.5633 15.7194 11.6767 15.7184C11.7901 15.7174 11.8993 15.761 11.9809 15.8398L14.1729 18.0326L20.0181 12.1866C20.0994 12.1055 20.2097 12.0601 20.3245 12.0603C20.4394 12.0605 20.5495 12.1063 20.6306 12.1877C20.7117 12.269 20.7571 12.3793 20.7569 12.4942C20.7567 12.609 20.7109 12.7191 20.6295 12.8002L14.4786 18.949C14.3975 19.0301 14.2875 19.0756 14.1729 19.0757Z" fill="#001427"/>
</svg>
