<svg width="133" height="38" viewBox="0 0 133 38" fill="none" xmlns="http://www.w3.org/2000/svg">
<path d="M57.1476 2.39997V15H54.8076V4.36197H52.1436V2.39997H57.1476Z" fill="#001427"/>
<path d="M74.1436 4.37997H67.8976L67.9156 15H65.6116V2.39997H74.1616L74.1436 4.37997Z" fill="#001427"/>
<path d="M80.5135 15.18C79.2295 15.18 78.0715 14.904 77.0395 14.352C76.0075 13.788 75.1975 13.014 74.6095 12.03C74.0215 11.034 73.7275 9.92397 73.7275 8.69997C73.7275 7.47597 74.0215 6.37197 74.6095 5.38797C75.1975 4.39197 76.0075 3.61797 77.0395 3.06597C78.0715 2.50197 79.2295 2.21997 80.5135 2.21997C81.7975 2.21997 82.9555 2.50197 83.9875 3.06597C85.0195 3.61797 85.8295 4.38597 86.4175 5.36997C87.0055 6.35397 87.2995 7.46397 87.2995 8.69997C87.2995 9.93597 87.0055 11.046 86.4175 12.03C85.8295 13.014 85.0195 13.788 83.9875 14.352C82.9555 14.904 81.7975 15.18 80.5135 15.18ZM80.5135 13.128C81.3535 13.128 82.1095 12.942 82.7815 12.57C83.4535 12.186 83.9815 11.658 84.3655 10.986C84.7495 10.302 84.9415 9.53997 84.9415 8.69997C84.9415 7.85997 84.7495 7.10397 84.3655 6.43197C83.9815 5.74797 83.4535 5.21997 82.7815 4.84797C82.1095 4.46397 81.3535 4.27197 80.5135 4.27197C79.6735 4.27197 78.9175 4.46397 78.2455 4.84797C77.5735 5.21997 77.0455 5.74797 76.6615 6.43197C76.2775 7.10397 76.0855 7.85997 76.0855 8.69997C76.0855 9.53997 76.2775 10.302 76.6615 10.986C77.0455 11.658 77.5735 12.186 78.2455 12.57C78.9175 12.942 79.6735 13.128 80.5135 13.128Z" fill="#001427"/>
<path d="M102.027 13.02V17.682H99.867V15H90.201V17.682H88.023L88.041 13.02H88.581C89.373 12.984 89.925 12.402 90.237 11.274C90.561 10.134 90.759 8.50797 90.831 6.39597L90.975 2.39997H100.209V13.02H102.027ZM92.883 6.61197C92.823 8.24397 92.691 9.60597 92.487 10.698C92.283 11.778 91.959 12.552 91.515 13.02H97.905V4.37997H92.973L92.883 6.61197Z" fill="#001427"/>
<path d="M40.6 22H133L115.4 38H23L40.6 22Z" fill="#DC0000"/>
<path d="M51.1083 26.6439H46.7883L46.8003 33.9999H45.6123V25.5999H51.1203L51.1083 26.6439Z" fill="white"/>
<path d="M56.4161 31.8999H51.9521L51.0281 33.9999H49.7921L53.5961 25.5999H54.7841L58.6001 33.9999H57.3401L56.4161 31.8999ZM55.9961 30.9399L54.1841 26.8239L52.3721 30.9399H55.9961Z" fill="white"/>
<path d="M63.3258 25.5999C64.4138 25.5999 65.2698 25.8599 65.8938 26.3799C66.5178 26.8999 66.8298 27.6159 66.8298 28.5279C66.8298 29.4399 66.5178 30.1559 65.8938 30.6759C65.2698 31.1959 64.4138 31.4559 63.3258 31.4559H61.2498V33.9999H60.0498V25.5999H63.3258ZM63.2898 30.4119C64.0498 30.4119 64.6298 30.2519 65.0298 29.9319C65.4298 29.6039 65.6298 29.1359 65.6298 28.5279C65.6298 27.9199 65.4298 27.4559 65.0298 27.1359C64.6298 26.8079 64.0498 26.6439 63.2898 26.6439H61.2498V30.4119H63.2898Z" fill="white"/>
<path d="M73.5371 31.8999H69.0731L68.1491 33.9999H66.9131L70.7171 25.5999H71.9051L75.7211 33.9999H74.4611L73.5371 31.8999ZM73.1171 30.9399L71.3051 26.8239L69.4931 30.9399H73.1171Z" fill="white"/>
<path d="M84.3949 25.5999V33.9999H83.1949V30.2559H78.3709V33.9999H77.1709V25.5999H78.3709V29.2119H83.1949V25.5999H84.3949Z" fill="white"/>
<path d="M92.7866 26.6439H89.9067V33.9999H88.7306V26.6439H85.8626V25.5999H92.7866V26.6439Z" fill="white"/>
<path d="M94.2451 25.5999H95.4331V32.0799L100.401 25.5999H101.505V33.9999H100.329V27.5319L95.3491 33.9999H94.2451V25.5999Z" fill="white"/>
<path d="M104.124 25.5999H105.312V32.0799L110.28 25.5999H111.384V33.9999H110.208V27.5319L105.228 33.9999H104.124V25.5999Z" fill="white"/>
<path d="M15.9995 31.1353C15.9257 31.1353 15.853 31.1164 15.7885 31.0803C8.27153 26.8723 3.78418 20.1082 3.78418 12.9813V6.1943C3.78413 6.13471 3.7964 6.07576 3.82021 6.02114C3.84403 5.96652 3.87887 5.91741 3.92256 5.87689C3.96614 5.8361 4.01779 5.8049 4.07417 5.78531C4.13056 5.76572 4.19043 5.75817 4.24991 5.76316C9.26613 6.15235 12.9946 4.60554 15.6527 1.03884C15.6948 0.98776 15.7476 0.946622 15.8074 0.918379C15.8672 0.890136 15.9325 0.875488 15.9987 0.875488C16.0648 0.875488 16.1301 0.890136 16.19 0.918379C16.2498 0.946622 16.3026 0.98776 16.3446 1.03884C19.0049 4.60554 22.7386 6.15149 27.7492 5.76316C27.8087 5.75856 27.8685 5.76634 27.9249 5.78601C27.9813 5.80567 28.0329 5.83679 28.0767 5.87742C28.1204 5.91804 28.1553 5.96728 28.1791 6.02204C28.2029 6.0768 28.2151 6.13589 28.2149 6.19559V12.9813C28.1805 16.6096 27.0731 20.1465 25.0322 23.1465C22.7568 26.4483 19.7344 29.1664 16.2106 31.0799C16.1461 31.1161 16.0735 31.1352 15.9995 31.1353ZM4.64904 6.65657V12.9813C4.64904 19.7225 8.88688 26.1463 15.9995 30.206C19.3157 28.3695 22.1609 25.7892 24.3118 22.6678C26.2583 19.8096 27.3154 16.4392 27.35 12.9813V6.65657C22.4635 6.929 18.7373 5.40251 15.9995 2.0036C13.2627 5.40165 9.54029 6.929 4.64904 6.65657Z" fill="#001427"/>
<path d="M15.9995 28.1148C15.9174 28.1148 15.837 28.0914 15.7678 28.0473C9.80018 24.2532 6.37878 18.7617 6.37878 12.9814V8.82182C6.37861 8.71113 6.42089 8.6046 6.49691 8.52415C6.57294 8.4437 6.67691 8.39547 6.78743 8.38938C10.0873 8.28484 13.2455 7.02374 15.7098 4.82657C15.7893 4.75486 15.8925 4.71516 15.9995 4.71516C16.1066 4.71516 16.2098 4.75486 16.2893 4.82657C18.7532 7.02346 21.9109 8.28454 25.2103 8.38938C25.3209 8.39547 25.4248 8.4437 25.5009 8.52415C25.5769 8.6046 25.6192 8.71113 25.619 8.82182V12.9805C25.584 16.0977 24.6275 19.1349 22.87 21.7096C21.1188 24.2582 18.8584 26.4161 16.2313 28.0473C16.162 28.0914 16.0816 28.1148 15.9995 28.1148ZM7.24364 9.22787V12.9814C7.24364 18.3868 10.4307 23.5427 15.9995 27.1682C18.4285 25.6237 20.5207 23.6049 22.1509 21.2326C23.814 18.7997 24.7202 15.9291 24.7554 12.9822V9.22873C21.5337 9.04161 18.4604 7.81124 15.9995 5.72344C13.5386 7.81093 10.4653 9.04099 7.24364 9.22787Z" fill="#001427"/>
<path d="M14.1729 19.0757C14.0582 19.0756 13.9482 19.0301 13.8671 18.949L11.3694 16.4512C11.2906 16.3697 11.247 16.2604 11.248 16.1471C11.249 16.0337 11.2945 15.9252 11.3747 15.845C11.4548 15.7649 11.5633 15.7194 11.6767 15.7184C11.7901 15.7174 11.8993 15.761 11.9809 15.8398L14.1729 18.0326L20.0181 12.1866C20.0994 12.1055 20.2097 12.0601 20.3245 12.0603C20.4394 12.0605 20.5495 12.1063 20.6306 12.1877C20.7117 12.269 20.7571 12.3793 20.7569 12.4942C20.7567 12.609 20.7109 12.7191 20.6295 12.8002L14.4786 18.949C14.3975 19.0301 14.2875 19.0756 14.1729 19.0757Z" fill="#001427"/>
</svg>
