<svg width="16" height="12" fill="none" xmlns="http://www.w3.org/2000/svg"><path d="M3.06 5.143h12.003c.416 0 .744.208.88.557.213.548-.195 1.134-.804 1.157H3.041c.033.035.054.058.076.079l3.702 3.57c.282.272.37.59.228.95-.212.542-.921.717-1.384.35a1.415 1.415 0 01-.107-.095L.3 6.643C-.1 6.258-.1 5.744.297 5.361L5.57.276c.385-.371.957-.367 1.311.006a.84.84 0 01.23.566.839.839 0 01-.217.57c-.032.035-.067.068-.101.101a8849.492 8849.492 0 01-3.674 3.542.547.547 0 01-.079.054l.02.028z" fill="#4D5B68"/></svg>