<svg width="12" height="8" viewBox="0 0 12 8" xmlns="http://www.w3.org/2000/svg">
<path d="M6.00333 5.18112C6.03723 5.13448 6.05319 5.10516 6.07614 5.08162C7.51421 3.64353 8.95259 2.20595 10.3913 0.768878C10.6974 0.46293 11.1392 0.417053 11.4785 0.654185C11.5742 0.721096 11.6548 0.807402 11.7149 0.907482C11.775 1.00756 11.8134 1.11918 11.8276 1.23506C11.8417 1.35095 11.8312 1.4685 11.7969 1.58008C11.7625 1.69166 11.7051 1.79477 11.6282 1.88269C11.6049 1.90927 11.5799 1.93434 11.5548 1.95864C9.91039 3.60221 8.26593 5.24558 6.62143 6.88875C6.25127 7.25865 5.74931 7.25941 5.38022 6.89042C3.72832 5.23965 2.07677 3.58889 0.425577 1.93813C-0.0126841 1.50002 0.125651 0.779818 0.693125 0.56213C1.00491 0.442577 1.29511 0.496809 1.55186 0.714041C1.58075 0.738346 1.60689 0.766297 1.6338 0.793033C3.06153 2.21978 4.48916 3.64662 5.91668 5.07357C5.94161 5.09924 5.96152 5.12916 6.00333 5.18112Z" />
</svg>
