<svg width="137" height="32" viewBox="0 0 137 32" fill="none" xmlns="http://www.w3.org/2000/svg">
<path opacity="0.4" d="M29.3924 0L14.6963 7.2451L0 0V32H29.3924V0ZM26.2673 21.6366V30.1888H14.6963V26.0154L3.12696 30.3942V29.0685L14.6963 24.6897L26.2657 20.3105L26.2673 21.6366ZM26.2673 18.7919L23.2745 19.9244L14.6979 23.1707L3.14022 27.5453L3.12854 27.5148V26.2229L14.6979 21.8438L19.7716 19.9238L26.2673 17.4653V18.7919ZM26.2673 15.9476L15.7598 19.9244L14.6979 20.3264L3.12854 24.7055V23.3795L13.8504 19.3219L14.6963 19.0019L26.2657 14.6228L26.2673 15.9476ZM26.2673 13.223L14.6979 17.6021L10.1552 19.3219L3.12696 21.9822V20.6561L6.65229 19.3219L14.6963 16.2773L26.2657 11.8985L26.2673 13.223ZM26.2673 10.1769L14.6979 14.5557L3.12854 18.9345V9.05661H14.6979V13.2297L26.2673 8.85089V10.1769Z" fill="#DC0000"/>
<path d="M29.3924 0L14.6963 7.2451L0 0V32H29.3924V0ZM26.2673 21.6366V30.1888H14.6963V26.0154L3.12696 30.3942V29.0685L14.6963 24.6897L26.2657 20.3105L26.2673 21.6366ZM26.2673 18.7919L23.2745 19.9244L14.6979 23.1707L3.14022 27.5453L3.12854 27.5148V26.2229L14.6979 21.8438L19.7716 19.9238L26.2673 17.4653V18.7919ZM26.2673 15.9476L15.7598 19.9244L14.6979 20.3264L3.12854 24.7055V23.3795L13.8504 19.3219L14.6963 19.0019L26.2657 14.6228L26.2673 15.9476ZM26.2673 13.223L14.6979 17.6021L10.1552 19.3219L3.12696 21.9822V20.6561L6.65229 19.3219L14.6963 16.2773L26.2657 11.8985L26.2673 13.223ZM26.2673 10.1769L14.6979 14.5557L3.12854 18.9345V9.05661H14.6979V13.2297L26.2673 8.85089V10.1769Z" fill="#DC0000"/>
<path opacity="0.4" d="M32.5193 30.7925H136.998V31.9999H32.5193V30.7925Z" fill="#DC0000"/>
<path d="M32.5193 30.7925H136.998V31.9999H32.5193V30.7925Z" fill="#DC0000"/>
<path opacity="0.4" d="M32.5193 11.8975H136.998V13.1049H32.5193V11.8975Z" fill="#DC0000"/>
<path d="M32.5193 11.8975H136.998V13.1049H32.5193V11.8975Z" fill="#DC0000"/>
<path d="M36.1388 5.08173C36.1556 5.0281 36.178 4.96775 36.2057 4.89888C36.236 4.82831 36.2799 4.76398 36.3352 4.70932C36.4021 4.6449 36.4818 4.59412 36.5694 4.55998C36.6902 4.51571 36.819 4.49499 36.9482 4.49903C37.0707 4.49541 37.1927 4.51455 37.3077 4.55541C37.3941 4.58824 37.4734 4.63618 37.5416 4.69682C37.6003 4.74982 37.6484 4.81272 37.6837 4.88242C37.7157 4.94557 37.7409 5.01175 37.7588 5.07991L38.8456 8.94581C38.8591 8.97698 38.876 9.0067 38.8958 9.0345C38.903 9.0481 38.9137 9.0597 38.9269 9.06818C38.94 9.07667 38.9552 9.08175 38.971 9.08295C38.9962 9.07917 39.0196 9.06787 39.0379 9.05065C39.0744 9.01275 39.0978 8.96482 39.1048 8.91351L40.2668 4.56364H41.3867L39.9741 9.48646C39.946 9.57789 39.9142 9.67084 39.8779 9.76471C39.8424 9.85839 39.7888 9.94474 39.72 10.0192C39.6451 10.0981 39.5541 10.1613 39.4527 10.2048C39.3189 10.2577 39.1751 10.2825 39.0306 10.2773C38.8941 10.2811 38.7581 10.2604 38.6294 10.2164C38.531 10.1806 38.4412 10.1256 38.3658 10.0548C38.2966 9.98822 38.2401 9.91033 38.1988 9.82474C38.156 9.73636 38.121 9.6446 38.0944 9.55046L37.0662 5.89331C37.0382 5.79092 36.9993 5.74093 36.9491 5.74093C36.9325 5.74125 36.9164 5.74699 36.9035 5.75722C36.8906 5.76745 36.8817 5.78157 36.8781 5.79731C36.8642 5.83511 36.8516 5.86741 36.8405 5.89423L35.8039 9.55137C35.7805 9.63528 35.7511 9.71755 35.7162 9.79762C35.6783 9.88331 35.626 9.96239 35.5615 10.0317C35.4881 10.1086 35.3983 10.1691 35.2982 10.209C35.1637 10.2592 35.02 10.2826 34.8759 10.2776C34.6681 10.2851 34.4633 10.2286 34.2909 10.1164C34.0993 9.95178 33.9699 9.73025 33.9232 9.48676L32.5188 4.56394H33.6388L34.8007 8.91381C34.8118 8.94063 34.8244 8.97476 34.8383 9.01865C34.8425 9.03774 34.8537 9.05475 34.8698 9.06659C34.8859 9.07844 34.9058 9.08435 34.926 9.08326C34.9418 9.08191 34.957 9.07677 34.9702 9.06831C34.9833 9.05984 34.9941 9.04832 35.0015 9.0348C35.0211 9.00686 35.0379 8.97716 35.0517 8.94611L36.1388 5.08173Z" fill="#DC0000"/>
<path d="M45.045 4.50872C45.2527 4.51453 45.4595 4.53613 45.6637 4.57333C45.8731 4.61121 46.0777 4.67078 46.2739 4.751C46.4743 4.83343 46.6571 4.95103 46.813 5.09782C46.964 5.2386 47.086 5.40571 47.1726 5.59032C47.2618 5.77927 47.3304 5.97671 47.3771 6.17942C47.4244 6.38371 47.4539 6.59148 47.4652 6.80053C47.4763 7.01081 47.4819 7.20728 47.4819 7.38993C47.4819 7.57828 47.4749 7.77597 47.4608 7.983C47.4469 8.19059 47.4176 8.39694 47.373 8.60045C47.3291 8.80339 47.2618 9.00098 47.1726 9.18955C47.0862 9.37416 46.9641 9.54119 46.813 9.68174C46.6572 9.82883 46.4744 9.94656 46.2739 10.0289C46.0777 10.1091 45.8731 10.1687 45.6637 10.2065C45.4582 10.2438 45.2499 10.2653 45.0409 10.2708C44.8347 10.2763 44.648 10.2791 44.4809 10.2791C44.3079 10.2791 44.1198 10.2763 43.9165 10.2708C43.7089 10.2651 43.5022 10.2436 43.2981 10.2065C43.0887 10.1687 42.8841 10.1091 42.6879 10.0289C42.2762 9.85726 41.9454 9.54368 41.7602 9.14932C41.6694 8.95423 41.602 8.74972 41.5594 8.5398C41.5183 8.33878 41.4932 8.13501 41.4843 7.93028C41.4757 7.73157 41.4715 7.55136 41.4717 7.38963C41.4717 7.1958 41.4773 6.99537 41.4884 6.78834C41.4993 6.58211 41.5273 6.37706 41.5721 6.17515C41.616 5.97475 41.6832 5.77979 41.7725 5.59397C41.863 5.40629 41.9909 5.23761 42.1488 5.09752C42.3047 4.95065 42.4875 4.83305 42.6879 4.7507C42.8827 4.67083 43.0858 4.61126 43.2937 4.57302C43.4964 4.53568 43.702 4.51408 43.9083 4.50841C44.1116 4.50333 44.3024 4.50069 44.4809 4.50049C44.6535 4.50069 44.8415 4.50343 45.045 4.50872ZM42.6377 7.99123C42.6537 8.14073 42.6803 8.28899 42.7173 8.43496C42.7441 8.54321 42.7818 8.64865 42.83 8.74978C42.8672 8.82585 42.9135 8.89745 42.9679 8.96312C43.0463 9.06649 43.1459 9.15312 43.2605 9.21759C43.3732 9.27992 43.494 9.32738 43.6198 9.3587C43.7542 9.39199 43.8916 9.4124 44.0301 9.41965C44.175 9.42788 44.3228 9.43153 44.4721 9.43153C44.6214 9.43153 44.7691 9.42788 44.9112 9.41965C45.0496 9.41199 45.1871 9.39158 45.3215 9.3587C45.4488 9.32787 45.5712 9.2804 45.6852 9.21759C45.8012 9.15193 45.9033 9.06557 45.986 8.96312C46.0411 8.89631 46.0875 8.82323 46.1242 8.74552C46.1715 8.64403 46.2092 8.53867 46.2369 8.4307C46.2743 8.28479 46.3009 8.1365 46.3165 7.98696C46.3371 7.78849 46.3468 7.5891 46.3455 7.38963C46.3471 7.18083 46.3374 6.97209 46.3165 6.76426C46.3011 6.61328 46.2745 6.46357 46.2369 6.31626C46.2103 6.21005 46.171 6.10717 46.1198 6.00967C46.0818 5.93853 46.037 5.87098 45.986 5.80792C45.8207 5.60781 45.5865 5.47174 45.3259 5.42453C45.0451 5.37214 44.7597 5.34642 44.4736 5.34773C44.1876 5.3459 43.9021 5.37163 43.6214 5.42453C43.3637 5.47325 43.1325 5.60921 42.9695 5.80792C42.8433 5.97869 42.7537 6.17216 42.7062 6.37691C42.6323 6.70954 42.5999 7.04955 42.61 7.38963C42.6079 7.5905 42.6171 7.79134 42.6377 7.99123Z" fill="#DC0000"/>
<path d="M48.3179 5.52622C48.3184 5.40041 48.3295 5.27484 48.351 5.15076C48.3775 5.01197 48.4512 4.88566 48.5603 4.79175C48.6562 4.70028 48.7763 4.63607 48.9075 4.60615C49.0241 4.58031 49.1433 4.56682 49.263 4.56592H52.038C52.1383 4.56592 52.2441 4.56988 52.3558 4.5778C52.4692 4.58643 52.5813 4.60687 52.6901 4.63876C52.8051 4.67259 52.9137 4.72404 53.0118 4.79114C53.1235 4.86978 53.2185 4.96837 53.2918 5.08158C53.4269 5.26295 53.5136 5.47365 53.5443 5.69506C53.5717 5.90391 53.5856 6.11419 53.586 6.3247C53.5857 6.53631 53.5731 6.74773 53.5484 6.95799C53.5211 7.18323 53.4487 7.4012 53.3353 7.59982C53.2944 7.67229 53.2468 7.74113 53.1933 7.80554C53.1323 7.87744 53.0603 7.94002 52.9799 7.99114C52.8833 8.05206 52.7776 8.09831 52.6665 8.12828C52.5249 8.16567 52.3785 8.18332 52.2318 8.1807H51.4796V8.22123L53.7031 10.2144H52.3142L50.3918 8.38245C50.323 8.31455 50.2613 8.24023 50.2077 8.16058C50.1516 8.08656 50.1197 7.99807 50.1159 7.90641V7.77719C50.1145 7.72467 50.1251 7.67248 50.1469 7.62435C50.1687 7.57621 50.2012 7.5333 50.2422 7.49864C50.3465 7.41949 50.4776 7.3807 50.6099 7.38984H51.7147C51.8205 7.3885 51.9258 7.37489 52.0282 7.34931C52.1487 7.31799 52.252 7.24285 52.3164 7.13963C52.3484 7.08676 52.3723 7.02968 52.3874 6.97018C52.4069 6.90019 52.421 6.82888 52.4294 6.75685C52.4376 6.68432 52.4432 6.61321 52.4461 6.54352C52.4486 6.47373 52.4502 6.4143 52.4502 6.36584C52.4569 6.1913 52.4371 6.01676 52.3915 5.84775C52.3639 5.74886 52.3124 5.65769 52.2413 5.58169C52.1592 5.49873 52.0499 5.44593 51.9319 5.43236C51.8293 5.41976 51.726 5.41294 51.6226 5.41194H49.834C49.7811 5.41145 49.7283 5.41553 49.6762 5.42413C49.6248 5.43623 49.5783 5.46286 49.5426 5.50062C49.4899 5.53621 49.4527 5.58941 49.4382 5.64996C49.4294 5.70471 49.4252 5.76004 49.4255 5.81544V10.2138H48.3223L48.3179 5.52622Z" fill="#DC0000"/>
<path d="M55.2058 10.215C55.1074 10.2151 55.0092 10.2049 54.9131 10.1845C54.8214 10.1669 54.7354 10.1281 54.6625 10.0714C54.6079 10.0219 54.5613 9.96482 54.5242 9.90199C54.4729 9.81051 54.4485 9.70724 54.4535 9.60332V4.56592H55.5568V9.06115C55.5568 9.09346 55.5568 9.13247 55.5609 9.17788C55.5632 9.20233 55.5707 9.22606 55.583 9.2476C55.5952 9.26915 55.6118 9.28805 55.6319 9.30313C55.6587 9.31872 55.6866 9.33227 55.7156 9.34367C55.7776 9.36289 55.8427 9.37105 55.9078 9.36774H59.1178V10.215H55.2058Z" fill="#DC0000"/>
<path d="M60.3468 10.215C60.1861 10.224 60.0251 10.202 59.8733 10.1504C59.8111 10.1254 59.751 10.0957 59.6937 10.0617C59.6271 10.0061 59.5719 9.93901 59.5308 9.86388C59.4717 9.7502 59.4443 9.62365 59.4512 9.49665V5.46952C59.4514 5.35872 59.4611 5.24811 59.4803 5.13886C59.5051 5.01546 59.5645 4.90099 59.652 4.80789C59.7172 4.7501 59.7885 4.69903 59.8648 4.65551C59.9917 4.58985 60.1348 4.55927 60.2786 4.56713H62.5694C62.9226 4.55661 63.2739 4.62274 63.5972 4.76065C63.8552 4.8756 64.0879 5.03731 64.2828 5.23699C64.4177 5.38114 64.5291 5.54434 64.613 5.72095C64.6929 5.89164 64.7533 6.07028 64.7929 6.25368C64.8312 6.43448 64.8548 6.6179 64.8636 6.80225C64.8796 7.1492 64.8796 7.49667 64.8636 7.84362C64.8545 8.03845 64.8321 8.23249 64.7967 8.4245C64.7609 8.62351 64.7081 8.81932 64.6388 9.00994C64.5729 9.19342 64.4785 9.36616 64.3589 9.52225C64.2897 9.60573 64.214 9.68397 64.1325 9.75631C64.0318 9.84509 63.9197 9.92099 63.7989 9.98213C63.6507 10.0573 63.4933 10.1143 63.3304 10.1516C63.1305 10.1971 62.9256 10.2188 62.7202 10.2162L60.3468 10.215ZM60.5554 8.98038C60.5554 9.0395 60.5554 9.09467 60.5595 9.14587C60.5639 9.19995 60.5894 9.2504 60.6309 9.28697C60.6639 9.32696 60.7118 9.35297 60.7644 9.3595C60.8143 9.36497 60.8644 9.36771 60.9147 9.36773H62.1858C62.4457 9.3749 62.7047 9.33659 62.9504 9.25467C63.1595 9.17525 63.335 9.03024 63.4485 8.84293C63.543 8.68053 63.6107 8.50492 63.6492 8.3224C63.7216 7.96774 63.7525 7.60638 63.7414 7.24507C63.7414 7.12682 63.7371 7.00309 63.7285 6.87387C63.7205 6.74633 63.7024 6.61958 63.6742 6.49474C63.6461 6.3708 63.6037 6.25028 63.5479 6.13543C63.4931 6.02139 63.4198 5.91654 63.3307 5.82488C63.2499 5.74061 63.1553 5.66968 63.0507 5.6149C62.9486 5.56165 62.8406 5.51973 62.7288 5.48994C62.6194 5.46068 62.5077 5.4403 62.3948 5.42899C62.2892 5.41858 62.1831 5.41319 62.0769 5.41284H60.9317C60.8982 5.41284 60.8566 5.41589 60.8054 5.42076C60.7572 5.42548 60.7111 5.44217 60.6716 5.46922C60.6344 5.50124 60.6058 5.54136 60.5879 5.58625C60.5655 5.63881 60.5541 5.69518 60.5545 5.75204L60.5554 8.98038Z" fill="#DC0000"/>
<path d="M71.0667 4.50872C71.2744 4.51454 71.4813 4.53615 71.6854 4.57333C71.8948 4.61126 72.0994 4.67082 72.2956 4.751C72.4959 4.8335 72.6787 4.95109 72.8348 5.09782C72.9856 5.23868 73.1076 5.40577 73.1943 5.59032C73.2834 5.77937 73.352 5.97678 73.3992 6.17942C73.4461 6.38375 73.4754 6.59151 73.4866 6.80053C73.498 7.01081 73.5036 7.20728 73.5036 7.38993C73.5036 7.57828 73.4966 7.77597 73.4825 7.983C73.4685 8.19057 73.4392 8.39692 73.3947 8.60045C73.3505 8.80332 73.2833 9.00088 73.1943 9.18955C73.1078 9.37409 72.9858 9.54111 72.8348 9.68174C72.6789 9.82877 72.4961 9.94648 72.2956 10.0289C72.0994 10.109 71.8948 10.1686 71.6854 10.2065C71.4799 10.2438 71.2717 10.2653 71.0626 10.2708C70.8562 10.2763 70.6694 10.2791 70.5023 10.2791C70.3298 10.2791 70.1418 10.2763 69.9385 10.2708C69.7309 10.2651 69.524 10.2436 69.3198 10.2065C69.1104 10.1687 68.9058 10.1092 68.7097 10.0289C68.2979 9.85715 67.9671 9.54362 67.7816 9.14932C67.6909 8.95422 67.6236 8.74971 67.5812 8.5398C67.5401 8.33877 67.5148 8.135 67.5057 7.93028C67.4975 7.73157 67.4934 7.55136 67.4934 7.38963C67.4934 7.1958 67.499 6.99537 67.5101 6.78834C67.5209 6.58212 67.5488 6.37707 67.5935 6.17515C67.6375 5.97474 67.7049 5.77978 67.7942 5.59397C67.8848 5.4063 68.0126 5.23762 68.1705 5.09752C68.3264 4.95059 68.5092 4.83298 68.7097 4.7507C68.9045 4.67083 69.1075 4.61127 69.3154 4.57302C69.5182 4.53568 69.7237 4.51408 69.93 4.50841C70.1333 4.50333 70.3241 4.50069 70.5023 4.50049C70.6751 4.50069 70.8632 4.50343 71.0667 4.50872ZM68.6595 7.99123C68.6752 8.14074 68.7016 8.28901 68.7387 8.43496C68.7654 8.54327 68.8033 8.64873 68.8517 8.74978C68.8888 8.82591 68.9351 8.89752 68.9897 8.96312C69.0679 9.06656 69.1676 9.15321 69.2823 9.21759C69.3949 9.27997 69.5157 9.32743 69.6415 9.3587C69.7759 9.39198 69.9133 9.4124 70.0519 9.41965C70.1964 9.42788 70.3445 9.43153 70.4938 9.43153C70.6431 9.43153 70.7905 9.42788 70.9329 9.41965C71.0714 9.41199 71.2088 9.39158 71.3432 9.3587C71.4705 9.32788 71.5929 9.2804 71.7069 9.21759C71.8229 9.15175 71.9251 9.06542 72.008 8.96312C72.0629 8.89628 72.1092 8.8232 72.1457 8.74552C72.1931 8.64409 72.2309 8.53872 72.2587 8.4307C72.2959 8.28478 72.3224 8.1365 72.3379 7.98696C72.3588 7.78851 72.3686 7.58911 72.3673 7.38963C72.3689 7.18082 72.3591 6.97207 72.3379 6.76426C72.3226 6.61329 72.2961 6.46358 72.2587 6.31626C72.232 6.21005 72.1927 6.10717 72.1416 6.00967C72.1033 5.93874 72.0586 5.87122 72.008 5.80792C71.8425 5.60783 71.608 5.47178 71.3473 5.42453C71.0665 5.37212 70.7811 5.3464 70.4951 5.34773C70.209 5.34589 69.9235 5.37161 69.6428 5.42453C69.3851 5.47317 69.1539 5.60915 68.9909 5.80792C68.8646 5.97867 68.7749 6.17214 68.7273 6.37691C68.6541 6.70963 68.6223 7.04962 68.6326 7.38963C68.6302 7.59049 68.6392 7.79132 68.6595 7.99123Z" fill="#DC0000"/>
<path d="M74.3386 10.2149V5.30826C74.3391 5.21399 74.3531 5.12024 74.3803 5.02971C74.4129 4.92845 74.4738 4.83778 74.5561 4.76761C74.642 4.68388 74.7505 4.62507 74.8693 4.59786C74.9725 4.57775 75.0776 4.56755 75.183 4.56738H78.9943V5.41462H75.7178C75.6789 5.41462 75.6426 5.41614 75.6092 5.41889C75.5688 5.42584 75.5328 5.4477 75.5088 5.47984C75.4771 5.50868 75.4565 5.54704 75.4504 5.58864C75.4448 5.62752 75.442 5.66672 75.4419 5.70597V6.93234H78.0335V7.77988H75.4434V10.218L74.3386 10.2149Z" fill="#DC0000"/>
<path d="M86.7273 10.215H85.6225V7.72935H82.5798V10.215H81.4766V4.56592H82.5798V6.88211H85.6225V4.56592H86.7273V10.215Z" fill="#DC0000"/>
<path d="M89.1845 5.13852C89.2578 4.94483 89.3834 4.77355 89.5482 4.64237C89.7312 4.5495 89.935 4.50098 90.1418 4.50098C90.3486 4.50098 90.5523 4.5495 90.7354 4.64237C90.9045 4.7713 91.0333 4.94308 91.1072 5.13852L93.314 10.2146H92.1521L91.5504 8.78622H88.7331L88.1397 10.2146H86.978L89.1845 5.13852ZM89.0172 8.02767H91.2657L90.313 5.72763C90.296 5.68466 90.2739 5.6362 90.2461 5.5783C90.2183 5.52039 90.183 5.49327 90.1457 5.49327C90.1085 5.49327 90.0731 5.52161 90.0453 5.5783C90.0175 5.63498 89.9951 5.68466 89.9784 5.72763L89.0172 8.02767Z" fill="#DC0000"/>
<path d="M99.1656 9.48047C99.177 9.59493 99.1598 9.71036 99.1154 9.81706C99.0711 9.92376 99.0008 10.0186 98.9105 10.0937C98.7329 10.2197 98.5167 10.285 98.2963 10.2793C98.122 10.28 97.9492 10.2499 97.7862 10.1906C97.6011 10.1111 97.4483 9.97496 97.3515 9.80322L94.8855 6.04246C94.8574 6.00304 94.8268 5.96528 94.794 5.92939C94.7835 5.91666 94.7686 5.90809 94.752 5.90531C94.7233 5.9081 94.6966 5.92088 94.6769 5.94128C94.6613 5.9582 94.6495 5.97808 94.6422 5.99964C94.635 6.0212 94.6325 6.04398 94.6349 6.06653V10.2146H93.5651V5.26775C93.559 5.16239 93.5772 5.05704 93.6184 4.95929C93.6595 4.86153 93.7226 4.7738 93.8031 4.70242C93.9887 4.55953 94.2224 4.4878 94.4594 4.50097C94.6686 4.48885 94.8771 4.5335 95.0614 4.62989C95.1935 4.70936 95.3049 4.81707 95.3871 4.9447L97.8701 8.72985C97.8924 8.75686 97.9106 8.7867 97.9244 8.81853C97.9303 8.83384 97.9413 8.84687 97.9556 8.85561C97.9699 8.86436 97.9868 8.86836 98.0036 8.86699C98.0213 8.86957 98.0393 8.8656 98.0541 8.85588C98.0688 8.84615 98.0792 8.83139 98.0832 8.81457C98.0906 8.78687 98.0947 8.75844 98.0955 8.72985V4.56558H99.1656V9.48047Z" fill="#DC0000"/>
<path d="M101.063 10.215C100.902 10.224 100.741 10.202 100.589 10.1504C100.527 10.1254 100.467 10.0957 100.41 10.0617C100.343 10.006 100.288 9.93896 100.247 9.86388C100.188 9.75012 100.16 9.62361 100.167 9.49665V5.46952C100.167 5.35872 100.177 5.24811 100.196 5.13886C100.221 5.01553 100.28 4.90109 100.368 4.80789C100.433 4.75011 100.505 4.69904 100.581 4.65551C100.708 4.58985 100.851 4.55927 100.995 4.56713H103.285C103.638 4.55659 103.99 4.62272 104.313 4.76065C104.571 4.87559 104.804 5.0373 104.999 5.23699C105.134 5.3813 105.245 5.54447 105.329 5.72095C105.409 5.8916 105.469 6.07026 105.509 6.25368C105.547 6.43445 105.571 6.61788 105.58 6.80225C105.588 6.98511 105.592 7.16004 105.592 7.32705C105.592 7.48309 105.588 7.65528 105.58 7.84362C105.57 8.03844 105.548 8.23247 105.513 8.4245C105.477 8.62348 105.424 8.81928 105.355 9.00994C105.289 9.19353 105.195 9.3663 105.075 9.52225C105.006 9.60566 104.93 9.6839 104.849 9.75631C104.748 9.84509 104.636 9.92099 104.515 9.98213C104.367 10.0574 104.209 10.1143 104.046 10.1516C103.847 10.1971 103.642 10.2188 103.437 10.2162L101.063 10.215ZM101.272 8.98038C101.272 9.0395 101.272 9.09467 101.276 9.14587C101.28 9.19995 101.306 9.2504 101.347 9.28697C101.38 9.32696 101.428 9.35297 101.481 9.3595C101.531 9.36497 101.581 9.36771 101.631 9.36773H102.902C103.162 9.3749 103.421 9.33659 103.667 9.25467C103.876 9.17499 104.051 9.03002 104.164 8.84293C104.259 8.6806 104.326 8.50496 104.365 8.3224C104.437 7.96773 104.468 7.60636 104.457 7.24507C104.457 7.12682 104.452 7.00309 104.444 6.87387C104.436 6.74635 104.418 6.6196 104.39 6.49474C104.362 6.3708 104.319 6.25028 104.263 6.13543C104.209 6.02131 104.135 5.91645 104.046 5.82488C103.965 5.74053 103.87 5.66959 103.766 5.6149C103.664 5.5616 103.556 5.51968 103.444 5.48994C103.335 5.46068 103.223 5.4403 103.11 5.42899C103.004 5.41856 102.898 5.41317 102.792 5.41284H101.647C101.614 5.41284 101.572 5.41589 101.521 5.42076C101.473 5.42548 101.427 5.44217 101.387 5.46922C101.35 5.50124 101.321 5.54136 101.303 5.58625C101.281 5.63877 101.269 5.69516 101.27 5.75204L101.272 8.98038Z" fill="#DC0000"/>
<path d="M110.074 10.215V5.41316H107.792V4.56592H113.468V5.41316H111.177V10.215H110.074Z" fill="#DC0000"/>
<path d="M117.291 4.50872C117.499 4.51453 117.706 4.53613 117.91 4.57333C118.119 4.61121 118.324 4.67078 118.52 4.751C118.721 4.83343 118.903 4.95103 119.059 5.09782C119.21 5.23852 119.332 5.40565 119.419 5.59032C119.508 5.77931 119.577 5.97674 119.624 6.17942C119.671 6.38372 119.7 6.59148 119.712 6.80053C119.723 7.01081 119.728 7.20728 119.728 7.38993C119.728 7.57828 119.721 7.77597 119.707 7.983C119.693 8.19057 119.664 8.39691 119.619 8.60045C119.575 8.8034 119.508 9.00098 119.419 9.18955C119.333 9.37422 119.211 9.54127 119.059 9.68174C118.904 9.82883 118.721 9.94656 118.52 10.0289C118.324 10.1091 118.119 10.1687 117.91 10.2065C117.705 10.2438 117.496 10.2653 117.288 10.2708C117.081 10.2763 116.894 10.2791 116.727 10.2791C116.539 10.2789 116.351 10.2761 116.163 10.2708C115.955 10.2651 115.749 10.2436 115.544 10.2065C115.335 10.1687 115.13 10.1091 114.934 10.0289C114.522 9.85718 114.192 9.54364 114.006 9.14932C113.916 8.95417 113.848 8.74967 113.806 8.5398C113.765 8.33878 113.739 8.13501 113.731 7.93028C113.722 7.73157 113.718 7.55136 113.718 7.38963C113.718 7.1958 113.724 6.99537 113.735 6.78834C113.746 6.58211 113.774 6.37707 113.818 6.17515C113.862 5.97472 113.929 5.77974 114.019 5.59397C114.109 5.4063 114.237 5.23762 114.395 5.09752C114.551 4.95065 114.734 4.83305 114.934 4.7507C115.129 4.67082 115.332 4.61126 115.54 4.57302C115.743 4.53572 115.948 4.51411 116.155 4.50841C116.358 4.50333 116.549 4.50069 116.727 4.50049C116.899 4.50069 117.087 4.50343 117.291 4.50872ZM114.884 7.99123C114.9 8.1407 114.927 8.28895 114.963 8.43496C114.99 8.54318 115.028 8.64862 115.076 8.74978C115.113 8.82592 115.16 8.89753 115.214 8.96312C115.293 9.0665 115.392 9.15313 115.507 9.21759C115.62 9.27997 115.741 9.32743 115.866 9.3587C116.001 9.39201 116.138 9.41242 116.277 9.41965C116.422 9.42788 116.569 9.43153 116.719 9.43153C116.868 9.43153 117.016 9.42788 117.158 9.41965C117.296 9.41196 117.434 9.39155 117.568 9.3587C117.695 9.32782 117.818 9.28035 117.931 9.21759C118.048 9.15185 118.15 9.06551 118.233 8.96312C118.288 8.89629 118.334 8.82321 118.371 8.74552C118.418 8.64403 118.456 8.53867 118.483 8.4307C118.521 8.28479 118.547 8.13651 118.563 7.98696C118.583 7.78849 118.593 7.5891 118.592 7.38963C118.593 7.18083 118.584 6.97209 118.563 6.76426C118.547 6.61328 118.521 6.46357 118.483 6.31626C118.457 6.21005 118.417 6.10717 118.366 6.00967C118.328 5.93867 118.283 5.87115 118.233 5.80792C118.067 5.60768 117.833 5.4716 117.572 5.42453C117.291 5.37212 117.006 5.3464 116.72 5.34773C116.434 5.34585 116.148 5.37158 115.867 5.42453C115.61 5.47308 115.378 5.60907 115.215 5.80792C115.089 5.97873 114.999 6.17218 114.952 6.37691C114.878 6.70963 114.847 7.04962 114.857 7.38963C114.855 7.59049 114.864 7.79132 114.884 7.99123Z" fill="#DC0000"/>
<path d="M123.971 4.50872C124.178 4.51454 124.385 4.53615 124.589 4.57333C124.799 4.61126 125.003 4.67082 125.2 4.751C125.4 4.8335 125.583 4.95109 125.739 5.09782C125.89 5.23868 126.012 5.40577 126.098 5.59032C126.187 5.77932 126.256 5.97675 126.303 6.17942C126.35 6.38372 126.379 6.59148 126.391 6.80053C126.402 7.01081 126.408 7.20728 126.408 7.38993C126.408 7.57828 126.401 7.77597 126.387 7.983C126.373 8.19057 126.343 8.39691 126.299 8.60045C126.255 8.80332 126.187 9.00088 126.098 9.18955C126.012 9.37409 125.89 9.54111 125.739 9.68174C125.583 9.82877 125.4 9.94648 125.2 10.0289C125.003 10.109 124.799 10.1686 124.589 10.2065C124.384 10.2438 124.176 10.2653 123.967 10.2708C123.76 10.2763 123.573 10.2791 123.406 10.2791C123.234 10.2791 123.046 10.2763 122.843 10.2708C122.635 10.2652 122.428 10.2437 122.224 10.2065C122.014 10.1687 121.81 10.1092 121.614 10.0289C121.202 9.85718 120.871 9.54364 120.686 9.14932C120.595 8.95422 120.528 8.74971 120.485 8.5398C120.444 8.33876 120.419 8.135 120.41 7.93028C120.402 7.73157 120.397 7.55136 120.397 7.38963C120.397 7.1958 120.403 6.99537 120.414 6.78834C120.425 6.58212 120.453 6.37707 120.498 6.17515C120.542 5.97475 120.609 5.77978 120.698 5.59397C120.789 5.4063 120.917 5.23762 121.075 5.09752C121.23 4.95059 121.413 4.83298 121.614 4.7507C121.809 4.67082 122.012 4.61126 122.219 4.57302C122.422 4.53568 122.628 4.51408 122.834 4.50841C123.037 4.50333 123.228 4.50069 123.406 4.50049C123.579 4.50069 123.767 4.50343 123.971 4.50872ZM121.562 7.99123C121.578 8.14074 121.604 8.28901 121.641 8.43496C121.668 8.54326 121.706 8.64872 121.755 8.74978C121.792 8.82591 121.838 8.89752 121.892 8.96312C121.971 9.06656 122.07 9.15321 122.185 9.21759C122.298 9.27997 122.419 9.32743 122.544 9.3587C122.679 9.39199 122.816 9.4124 122.955 9.41965C123.099 9.42788 123.247 9.43153 123.397 9.43153C123.546 9.43153 123.693 9.42788 123.836 9.41965C123.974 9.41199 124.112 9.39158 124.246 9.3587C124.373 9.32788 124.496 9.2804 124.61 9.21759C124.802 9.10683 124.955 8.94219 125.048 8.74552C125.096 8.64409 125.134 8.53872 125.161 8.4307C125.199 8.28478 125.225 8.1365 125.241 7.98696C125.262 7.78851 125.271 7.58911 125.27 7.38963C125.272 7.18082 125.262 6.97207 125.241 6.76426C125.225 6.61329 125.199 6.46358 125.161 6.31626C125.135 6.21005 125.095 6.10717 125.044 6.00967C125.006 5.93866 124.961 5.87113 124.911 5.80792C124.745 5.60775 124.511 5.47167 124.25 5.42453C123.969 5.37212 123.684 5.3464 123.398 5.34773C123.112 5.34588 122.826 5.37161 122.546 5.42453C122.288 5.47317 122.057 5.60915 121.894 5.80792C121.767 5.97866 121.678 6.17214 121.63 6.37691C121.557 6.70963 121.525 7.04962 121.535 7.38963C121.533 7.59049 121.542 7.79132 121.562 7.99123Z" fill="#DC0000"/>
<path d="M127.995 10.215C127.897 10.2151 127.799 10.2049 127.703 10.1845C127.611 10.1671 127.524 10.1283 127.451 10.0714C127.396 10.0218 127.35 9.96474 127.313 9.90199C127.261 9.81055 127.237 9.70727 127.242 9.60333V4.56592H128.345V9.06115C128.345 9.09346 128.346 9.13247 128.349 9.17788C128.352 9.20233 128.359 9.22606 128.371 9.24761C128.384 9.26915 128.4 9.28805 128.42 9.30313C128.447 9.31872 128.475 9.33227 128.504 9.34367C128.566 9.36289 128.631 9.37105 128.696 9.36774H131.906V10.215H127.995Z" fill="#DC0000"/>
<path d="M132.066 9.3675H135.31C135.417 9.37366 135.525 9.34986 135.619 9.29893C135.686 9.25774 135.743 9.20086 135.782 9.13345C135.817 9.07097 135.84 9.00247 135.849 8.93169C135.856 8.87274 135.861 8.81342 135.861 8.75402C135.861 8.69715 135.855 8.64043 135.844 8.58457C135.832 8.52244 135.806 8.46343 135.769 8.41116C135.723 8.34764 135.665 8.29289 135.598 8.24964C135.504 8.19032 135.401 8.1454 135.293 8.11646L132.986 7.4155C132.947 7.4054 132.91 7.39329 132.873 7.37924C132.811 7.35658 132.751 7.32958 132.693 7.29847C132.621 7.26055 132.551 7.21883 132.484 7.17352C132.411 7.12442 132.346 7.06446 132.292 6.99585C132.226 6.92132 132.172 6.83693 132.134 6.74594C132.095 6.65572 132.065 6.56255 132.042 6.46739C132.02 6.37579 132.006 6.28263 132 6.18884C131.995 6.09741 131.992 6.01136 131.992 5.9307C131.993 5.74885 132.014 5.56763 132.055 5.39006C132.102 5.19312 132.211 5.01529 132.368 4.88141C132.501 4.75133 132.669 4.66042 132.853 4.61931C133.01 4.58605 133.169 4.56849 133.33 4.56689H136.698V5.41413H133.706C133.626 5.41438 133.546 5.42121 133.468 5.43455C133.385 5.44909 133.308 5.48681 133.247 5.54305C133.178 5.60167 133.132 5.68158 133.117 5.76918C133.105 5.83858 133.098 5.90877 133.096 5.97916C133.089 6.13159 133.14 6.28123 133.241 6.39905C133.341 6.51687 133.483 6.59444 133.64 6.61672L135.779 7.27013C135.95 7.32021 136.116 7.38235 136.277 7.45604C136.4 7.51204 136.514 7.58548 136.616 7.67394C136.702 7.75078 136.773 7.84245 136.824 7.94427C136.873 8.03964 136.911 8.13976 136.937 8.24293C136.961 8.33707 136.978 8.43283 136.987 8.52941C136.996 8.62084 137 8.69886 137 8.76346C136.999 8.94633 136.981 9.12875 136.946 9.30838C136.91 9.49265 136.828 9.66569 136.707 9.81245C136.591 9.97596 136.42 10.0957 136.223 10.1513C136.039 10.1951 135.851 10.2168 135.663 10.216H132.066V9.3675Z" fill="#DC0000"/>
<path d="M32.5193 17.4998C32.5208 17.1812 32.549 16.8632 32.6036 16.549C32.6705 16.1974 32.8569 15.8774 33.1333 15.6395C33.3759 15.408 33.6798 15.2452 34.0117 15.169C34.3071 15.1035 34.609 15.0692 34.912 15.0669H41.9422C42.1966 15.0669 42.4643 15.0776 42.7471 15.0974C43.0342 15.1181 43.3181 15.1692 43.5937 15.2498C43.8853 15.3364 44.1605 15.4676 44.4091 15.6383C44.692 15.8378 44.9329 16.0876 45.1187 16.3743C45.459 16.8344 45.6771 17.3681 45.7538 17.9286C45.8232 18.4578 45.8585 18.9906 45.8595 19.524C45.8588 20.0601 45.8272 20.5957 45.7648 21.1283C45.6953 21.6986 45.512 22.2506 45.2251 22.7536C45.1215 22.9374 45.001 23.1119 44.8652 23.275C44.7107 23.4571 44.5286 23.6155 44.3251 23.745C44.0805 23.8998 43.8126 24.0171 43.5309 24.0927C43.1724 24.1877 42.8016 24.2325 42.4299 24.2259H40.5242V24.3283L46.1563 29.3791H42.641L37.7707 24.7379C37.5965 24.5659 37.4405 24.3776 37.3047 24.1759C37.1624 23.9884 37.0813 23.7642 37.0718 23.532V23.2053C37.0679 23.0723 37.0944 22.9403 37.1494 22.8183C37.2043 22.6964 37.2863 22.5876 37.3897 22.4997C37.6537 22.2989 37.9859 22.2004 38.3212 22.2236H41.1164C41.3843 22.2201 41.6508 22.1857 41.9103 22.1212C42.2158 22.0418 42.4777 21.8514 42.641 21.5897C42.7222 21.4559 42.7828 21.3113 42.821 21.1606C42.8706 20.9829 42.9061 20.8017 42.927 20.6187C42.9481 20.4347 42.9622 20.2541 42.9693 20.0772C42.9763 19.9001 42.9797 19.7499 42.9797 19.6274C42.9961 19.1866 42.9461 18.7459 42.8314 18.319C42.7611 18.0684 42.6306 17.8373 42.4504 17.6446C42.2427 17.4345 41.9661 17.3003 41.6675 17.2648C41.4076 17.233 41.146 17.2159 40.8841 17.2136H36.3521C36.2172 17.2121 36.0825 17.2223 35.9496 17.2441C35.819 17.2746 35.701 17.3424 35.6109 17.4386C35.4772 17.5287 35.3829 17.6634 35.3461 17.8168C35.3243 17.9553 35.3137 18.0953 35.3145 18.2355V29.3791H32.5196L32.5193 17.4998Z" fill="#DC0000"/>
<path d="M56.6905 14.9234C57.2166 14.9382 57.7406 14.9929 58.2578 15.087C58.7886 15.183 59.3072 15.3338 59.8046 15.5369C60.312 15.746 60.7751 16.0439 61.1704 16.4155C61.5527 16.7722 61.8616 17.1956 62.0808 17.6632C62.3071 18.1422 62.481 18.6427 62.5994 19.1565C62.7188 19.6742 62.7927 20.2007 62.8204 20.7303C62.8488 21.2624 62.8629 21.7602 62.8627 22.2236C62.8627 22.7009 62.845 23.2018 62.8097 23.7264C62.7747 24.2522 62.7008 24.7749 62.5887 25.2905C62.477 25.8048 62.3065 26.3057 62.0805 26.7838C61.8616 27.2513 61.5526 27.6744 61.1701 28.0306C60.7752 28.4029 60.3121 28.701 59.8042 28.9098C59.307 29.1134 58.7884 29.2643 58.2575 29.3599C57.7366 29.4541 57.2089 29.5086 56.6792 29.523C56.1569 29.537 55.684 29.5439 55.2606 29.5437C54.8229 29.5437 54.3463 29.5368 53.8309 29.523C53.3051 29.5083 52.7813 29.4537 52.2643 29.3599C51.7334 29.2643 51.2148 29.1134 50.7176 28.9098C49.6744 28.475 48.8365 27.6805 48.3674 26.6814C48.1375 26.1874 47.9668 25.6696 47.8589 25.1381C47.7551 24.629 47.6917 24.1129 47.6695 23.5945C47.6485 23.0904 47.6379 22.6338 47.6379 22.2246C47.6379 21.7337 47.652 21.2258 47.6802 20.7008C47.7079 20.178 47.7787 19.6583 47.892 19.1465C48.0038 18.6388 48.1743 18.1448 48.4003 17.6739C48.63 17.1988 48.9538 16.7716 49.3533 16.4164C49.7482 16.0445 50.2113 15.7466 50.7188 15.5378C51.2126 15.3358 51.7271 15.185 52.2539 15.088C52.7674 14.9935 53.2879 14.9387 53.8104 14.9243C54.3256 14.9109 54.8096 14.9041 55.2625 14.9039C55.6991 14.9031 56.1752 14.9096 56.6905 14.9234ZM50.5922 23.745C50.6324 24.1239 50.6996 24.4996 50.7933 24.8696C50.8614 25.1438 50.9572 25.4109 51.0793 25.6671C51.1734 25.8604 51.2907 26.0424 51.4287 26.2093C51.6273 26.471 51.8796 26.6903 52.1699 26.8536C52.4554 27.0116 52.7616 27.1318 53.0803 27.2111C53.4201 27.2949 53.7676 27.346 54.1179 27.3635C54.4847 27.3838 54.8587 27.3939 55.2401 27.3939C55.6214 27.3939 55.992 27.3838 56.3518 27.3635C56.702 27.3449 57.0494 27.2939 57.3894 27.2111C57.7119 27.133 58.0218 27.0127 58.3105 26.8536C58.6045 26.6873 58.8632 26.4686 59.0729 26.2093C59.2125 26.0399 59.33 25.8546 59.4226 25.6574C59.5418 25.4005 59.6369 25.1338 59.7067 24.8604C59.8016 24.4907 59.8689 24.1149 59.9081 23.7359C59.9606 23.2331 59.9852 22.728 59.982 22.2227C59.9859 21.6936 59.9613 21.1646 59.9081 20.638C59.8694 20.2555 59.8021 19.8762 59.7067 19.503C59.639 19.234 59.5395 18.9733 59.4103 18.7262C59.3135 18.5463 59.2 18.3752 59.0713 18.2151C58.6524 17.708 58.0586 17.3633 57.3983 17.2438C56.6865 17.1112 55.963 17.046 55.2382 17.0494C54.5133 17.0447 53.7898 17.1099 53.0784 17.2438C52.4256 17.3672 51.8398 17.7116 51.4269 18.2151C51.1071 18.6477 50.8803 19.1377 50.7599 19.6563C50.5727 20.4991 50.4908 21.3605 50.5162 22.2221C50.5126 22.7307 50.538 23.2391 50.5922 23.745Z" fill="#DC0000"/>
<path d="M76.3314 27.8245C76.2184 28.097 76.109 28.3388 76.0034 28.5498C75.9053 28.7505 75.7728 28.9338 75.6117 29.092C75.4505 29.2455 75.2547 29.3608 75.0397 29.4291C74.7727 29.5102 74.4937 29.5483 74.2139 29.5418C73.914 29.5509 73.6153 29.5022 73.3351 29.3986C73.1159 29.3128 72.9176 29.1839 72.7527 29.0201C72.5954 28.8614 72.4667 28.6784 72.3717 28.4788C72.2729 28.274 72.1823 28.0567 72.0964 27.8245L68.3059 18.2763C68.2668 18.1729 68.2171 18.0734 68.1576 17.9795C68.0869 17.8641 68.0163 17.8063 67.9458 17.8061C67.8328 17.8061 67.7657 17.8709 67.7447 18.0005C67.7235 18.13 67.7131 18.2087 67.7131 18.2352L67.7763 29.3776H64.9811V16.7839C64.9557 16.4017 65.0679 16.0227 65.2986 15.7111C65.4916 15.4735 65.7377 15.2811 66.0186 15.1483C66.2677 15.0314 66.5367 14.9591 66.8125 14.9349C67.0739 14.9148 67.2608 14.9044 67.3741 14.9044C67.7361 14.8961 68.0972 14.9444 68.4433 15.0474C68.7095 15.1305 68.9547 15.2665 69.1633 15.4466C69.3546 15.6177 69.5155 15.818 69.6396 16.0394C69.7681 16.2672 69.8813 16.5028 69.9786 16.7446L73.8111 26.2922C73.8708 26.4218 73.938 26.5481 74.0125 26.6704C74.0756 26.7722 74.1429 26.8228 74.2136 26.8228C74.2843 26.8228 74.3512 26.7713 74.415 26.6704C74.489 26.548 74.556 26.4217 74.6157 26.2922L78.4488 16.7446C78.5705 16.3978 78.7453 16.0706 78.9675 15.7739C79.1377 15.5533 79.3497 15.3659 79.5922 15.2214C79.8072 15.0961 80.044 15.0096 80.2911 14.966C80.5428 14.9241 80.7979 14.9037 81.0534 14.9051C81.6593 14.882 82.258 15.0389 82.7687 15.3546C82.9988 15.5177 83.1819 15.735 83.3004 15.9857C83.419 16.2364 83.4692 16.5122 83.4461 16.787V29.3788H80.6522L80.7368 18.2364C80.7368 18.0462 80.7052 17.9271 80.6421 17.8789C80.5984 17.8399 80.5432 17.8149 80.4842 17.8073C80.4135 17.8073 80.3429 17.8651 80.2724 17.9807C80.2127 18.0746 80.163 18.174 80.1241 18.2775L76.3314 27.8245Z" fill="#DC0000"/>
<path d="M89.6715 16.5179C89.8572 16.0271 90.1751 15.593 90.5926 15.2604C91.0563 15.0252 91.5722 14.9023 92.0961 14.9023C92.6199 14.9023 93.1359 15.0252 93.5996 15.2604C94.028 15.5873 94.354 16.0226 94.5412 16.5179L100.133 29.3788H97.1887L95.6643 25.7604H88.5281L87.0243 29.3788H84.0811L89.6715 16.5179ZM89.2481 23.8364H94.9443L92.5301 18.0112C92.4878 17.9024 92.4313 17.7756 92.3609 17.633C92.2905 17.4904 92.2053 17.4179 92.1065 17.4179C92.0077 17.4179 91.9231 17.4895 91.854 17.633C91.7848 17.7766 91.7277 17.9024 91.6844 18.0112L89.2481 23.8364Z" fill="#DC0000"/>
<path d="M114.956 27.5178C114.956 28.2401 114.74 28.7582 114.309 29.0721C113.859 29.3917 113.312 29.5571 112.753 29.5423C112.312 29.5442 111.874 29.468 111.461 29.3174C110.992 29.1162 110.605 28.7711 110.36 28.3358L104.113 18.8089C104.042 18.7093 103.964 18.6138 103.881 18.5231C103.855 18.4908 103.817 18.469 103.775 18.4621C103.702 18.4693 103.635 18.5019 103.585 18.5535C103.546 18.5963 103.516 18.6466 103.498 18.7012C103.479 18.7558 103.473 18.8134 103.479 18.8705V29.379H100.769V16.8454C100.754 16.5784 100.8 16.3114 100.904 16.0637C101.008 15.816 101.168 15.5937 101.372 15.413C101.842 15.0513 102.433 14.8696 103.033 14.9028C103.563 14.8723 104.091 14.9856 104.557 15.2298C104.892 15.4312 105.174 15.7041 105.383 16.0274L111.672 25.6155C111.729 25.6842 111.775 25.7599 111.81 25.8407C111.825 25.8793 111.853 25.9121 111.889 25.9341C111.926 25.9561 111.968 25.9661 112.011 25.9626C112.056 25.9694 112.101 25.9593 112.139 25.9346C112.176 25.9098 112.203 25.8722 112.212 25.8294C112.231 25.7597 112.241 25.6881 112.244 25.6161V15.0668H114.955L114.956 27.5178Z" fill="#DC0000"/>
<path d="M117.496 29.3791V15.0669H120.291V29.3791H117.496Z" fill="#DC0000"/>
<path d="M126.518 16.5179C126.703 16.0271 127.021 15.593 127.439 15.2604C127.902 15.0252 128.418 14.9023 128.942 14.9023C129.466 14.9023 129.982 15.0252 130.446 15.2604C130.874 15.5873 131.201 16.0227 131.388 16.5179L136.978 29.3788H134.034L132.509 25.7604H125.373L123.87 29.3788H120.927L126.518 16.5179ZM126.094 23.8364H131.789L129.376 18.0112C129.333 17.9024 129.277 17.7756 129.206 17.633C129.135 17.4904 129.05 17.4179 128.954 17.4179C128.857 17.4179 128.769 17.4895 128.699 17.633C128.629 17.7766 128.573 17.9024 128.53 18.0112L126.094 23.8364Z" fill="#DC0000"/>
</svg>
