<svg width="24" height="24" fill="none" xmlns="http://www.w3.org/2000/svg"><path d="M21.61 18.705l-2.735-1.641v-6.845a.819.819 0 00-.39-.703L12.78 6.094V2.81c0-.448-.35-.811-.781-.811-.431 0-.781.363-.781.811v3.283L5.515 9.516a.82.82 0 00-.39.703v6.845l-2.734 1.641a.829.829 0 00-.286 1.109.766.766 0 001.067.296l2.734-1.64 5.703 3.422c.24.144.543.144.782 0l5.703-3.423 2.734 1.641a.766.766 0 001.067-.296.829.829 0 00-.285-1.109zm-10.391 1.078l-4.531-2.719v-5.44l4.53 2.72v5.44zM12 12.938l-4.532-2.72L12 7.5l4.532 2.72L12 12.939zm5.312 4.126l-4.53 2.72v-5.44l4.53-2.72v5.44z"/></svg>