<svg width="24" height="24" fill="none" xmlns="http://www.w3.org/2000/svg"><path d="M9.774 10.441a12.36 12.36 0 003.767 3.764c.024-.02.046-.039.067-.059.172-.171.34-.348.517-.514.747-.702 1.613-.91 2.585-.576.736.253 1.493.439 2.263.555 1.005.151 1.854 1.023 1.992 2.027.022.17.033.34.033.51.003.782.002 1.564.001 2.345 0 1.099-.65 2.025-1.665 2.377a2.648 2.648 0 01-1.207.104 17.296 17.296 0 01-9.287-4.123A17.258 17.258 0 013.013 5.695c-.134-1.247.762-2.435 2-2.65.158-.027.318-.04.48-.042.815-.004 1.63-.004 2.446 0 1.23.007 2.23.839 2.438 2.049.104.609.217 1.213.406 1.802.09.28.204.558.254.846.145.83-.096 1.55-.678 2.157-.188.196-.385.385-.585.584zm9.58 6.846c0-.417.003-.834 0-1.251-.003-.423-.28-.755-.696-.815a12.609 12.609 0 01-2.509-.626c-.322-.117-.617-.043-.862.198-.336.33-.666.664-.999.996-.307.306-.688.358-1.06.142a13.928 13.928 0 01-5.178-5.169c-.217-.374-.166-.752.141-1.06.318-.318.635-.638.957-.953.287-.282.357-.602.217-.98a11.068 11.068 0 01-.597-2.4.821.821 0 00-.832-.728H5.469a.825.825 0 00-.82.917c.104.924.272 1.838.553 2.725 1.474 4.667 4.455 7.985 8.943 9.956 1.345.587 2.758.93 4.214 1.116.519.066 1.023-.296.999-.885-.017-.394-.004-.789-.004-1.183z"/></svg>