<svg width="18" height="14" viewBox="0 0 18 14" xmlns="http://www.w3.org/2000/svg">
<path d="M14.2383 3.23828H12.7617V1.76172C12.7617 1.33984 12.6094 0.982422 12.3047 0.689453C12 0.396484 11.6484 0.25 11.25 0.25H1.51172C1.08984 0.25 0.732422 0.396484 0.439453 0.689453C0.146484 0.982422 0 1.33984 0 1.76172V10.7617C0 11.1602 0.146484 11.5059 0.439453 11.7988C0.732422 12.0918 1.08984 12.2383 1.51172 12.2383H1.65234C1.79297 12.6836 2.05664 13.0469 2.44336 13.3281C2.83008 13.6094 3.26953 13.75 3.76172 13.75C4.23047 13.75 4.6582 13.6094 5.04492 13.3281C5.43164 13.0469 5.69531 12.6836 5.83594 12.2383H12.1641C12.3047 12.6836 12.5684 13.0469 12.9551 13.3281C13.3418 13.6094 13.7695 13.75 14.2383 13.75C14.7305 13.75 15.1699 13.6094 15.5566 13.3281C15.9434 13.0469 16.207 12.6836 16.3477 12.2383H16.4883C16.9102 12.2383 17.2676 12.0918 17.5605 11.7988C17.8535 11.5059 18 11.1602 18 10.7617V8.05469C18 7.65625 17.8477 7.30469 17.543 7L14.2383 3.23828ZM3.76172 12.2383C3.57422 12.2383 3.39844 12.1621 3.23438 12.0098C3.07031 11.8574 2.98828 11.6875 2.98828 11.5C2.98828 11.3125 3.07031 11.1426 3.23438 10.9902C3.39844 10.8379 3.57422 10.7617 3.76172 10.7617C3.94922 10.7617 4.11914 10.8379 4.27148 10.9902C4.42383 11.1426 4.5 11.3125 4.5 11.5C4.5 11.6875 4.42383 11.8574 4.27148 12.0098C4.11914 12.1621 3.94922 12.2383 3.76172 12.2383ZM11.25 10.7617H5.83594C5.69531 10.3164 5.43164 9.95312 5.04492 9.67188C4.6582 9.39062 4.23047 9.25 3.76172 9.25C3.26953 9.25 2.83008 9.39062 2.44336 9.67188C2.05664 9.95312 1.79297 10.3164 1.65234 10.7617H1.51172V7.73828H11.25V10.7617ZM11.25 3.23828V6.26172H1.51172V1.76172H11.25V3.23828ZM14.2383 12.2383C14.0508 12.2383 13.8809 12.1621 13.7285 12.0098C13.5762 11.8574 13.5 11.6875 13.5 11.5C13.5 11.3125 13.5762 11.1426 13.7285 10.9902C13.8809 10.8379 14.0508 10.7617 14.2383 10.7617C14.4258 10.7617 14.6016 10.8379 14.7656 10.9902C14.9297 11.1426 15.0117 11.3125 15.0117 11.5C15.0117 11.6875 14.9297 11.8574 14.7656 12.0098C14.6016 12.1621 14.4258 12.2383 14.2383 12.2383ZM16.4883 10.7617H16.3477C16.207 10.3164 15.9434 9.95312 15.5566 9.67188C15.1699 9.39062 14.7305 9.25 14.2383 9.25C13.6055 9.25 13.1133 9.44922 12.7617 9.84766V4.75H13.1836L16.4883 8.05469V10.7617Z"/>
</svg>
