<svg viewBox="0 0 30 30" fill="none" xmlns="http://www.w3.org/2000/svg">
<path d="M0 14.2979C0.0200355 14.0849 0.0425805 13.8727 0.0601116 13.6597C0.532197 7.98679 4.11385 2.93656 9.41792 0.912319C11.1445 0.251075 12.9858 -0.0562682 14.8328 0.00845664C16.6799 0.0731815 18.4952 0.508661 20.1716 1.28916C20.7351 1.5498 21.0288 2.11788 20.9421 2.76258C20.866 3.32784 20.4243 3.78381 19.8495 3.88587C19.5781 3.93423 19.323 3.87519 19.075 3.76026C18.0604 3.29182 16.9819 2.97738 15.875 2.82728C13.9544 2.56757 12.0795 2.76447 10.2835 3.48862C6.52999 5.0057 4.10915 7.77231 3.06793 11.6631C1.95596 15.8175 2.76647 19.648 5.46969 23.0062C7.31451 25.2987 9.73285 26.6939 12.6436 27.1291C16.0709 27.6416 19.132 26.7281 21.7717 24.4913C24.0275 22.5795 25.3614 20.115 25.8968 17.2058C26.0905 16.1544 26.0927 15.0936 26.089 14.0309C26.089 13.8278 26.0855 13.6189 26.1278 13.422C26.2728 12.7434 26.8566 12.3229 27.5394 12.3813C28.1602 12.436 28.6758 12.9937 28.692 13.683C28.7293 15.2494 28.6967 16.8139 28.3301 18.3482C27.1994 23.0819 24.5284 26.5975 20.1206 28.7162C18.6599 29.4184 17.1062 29.8081 15.4902 29.941C15.273 29.9589 15.0557 29.9802 14.8388 30H13.8683C13.8075 29.988 13.7462 29.9792 13.6845 29.9736C12.8661 29.9405 12.0529 29.8279 11.2562 29.6373C7.78816 28.8042 5.01106 26.9219 2.91172 24.0422C1.30512 21.8377 0.382244 19.3603 0.091417 16.6462C0.056981 16.3246 0.028801 16.0021 0 15.6802V14.2979Z"/>
<path d="M14.2923 15.7242C14.585 15.4636 14.8971 15.2218 15.1688 14.9391C19.3596 10.5668 23.5471 6.19131 27.7313 1.81269C28.0986 1.42863 28.5353 1.27067 29.0506 1.42329C29.5658 1.57591 29.8742 1.94615 29.9728 2.47058C30.0639 2.95387 29.9243 3.37719 29.5799 3.7355C28.3069 5.06259 27.0349 6.39135 25.7641 7.72179C22.2892 11.3543 18.8143 14.9866 15.3394 18.6186C14.9368 19.0397 14.4676 19.2084 13.9113 19.0002C13.7268 18.9287 13.5598 18.8183 13.4217 18.6764C12.1179 17.3296 10.8199 15.9759 9.52759 14.6151C9.11435 14.1814 9.01668 13.5753 9.26243 13.0449C9.6503 12.2068 10.7065 12.0114 11.3489 12.6725C12.2568 13.6055 13.1496 14.551 14.0496 15.4909C14.1464 15.592 14.2453 15.6912 14.3436 15.7914L14.2923 15.7242Z"/>
</svg>
