<svg viewBox="0 0 30 30" fill="none" xmlns="http://www.w3.org/2000/svg">
<path d="M15.0005 1.93035C13.2759 1.89947 11.5636 2.22448 9.97027 2.88509C8.37699 3.5457 6.93702 4.52773 5.7403 5.76983C4.51324 6.96652 3.54267 8.40051 2.88774 9.98443C2.23281 11.5684 1.90722 13.269 1.93082 14.9829C1.90082 16.7063 2.22627 18.4175 2.88685 20.0096C3.54744 21.6017 4.52899 23.0406 5.7703 24.2366C6.96699 25.4637 8.40098 26.4342 9.9849 27.0892C11.5688 27.7441 13.2695 28.0697 14.9833 28.0461C16.7088 28.079 18.4226 27.7556 20.0174 27.096C21.6122 26.4365 23.0538 25.455 24.2521 24.213C25.4795 23.0165 26.4505 21.5826 27.1058 19.9987C27.7611 18.4148 28.087 16.714 28.0637 15C28.0937 13.2765 27.7682 11.5654 27.1077 9.97328C26.4471 8.38116 25.4655 6.94224 24.2242 5.74626C23.0268 4.51672 21.5913 3.5442 20.0054 2.88811C18.4195 2.23201 16.7165 1.90613 15.0005 1.93035ZM4.3562 4.4093C5.73534 2.98663 7.39132 1.86159 9.22202 1.10359C11.0527 0.345594 13.0193 -0.0292991 15.0005 0.00204155C16.9753 -0.0311506 18.936 0.340708 20.7616 1.09466C22.5871 1.84862 24.2388 2.96868 25.6147 4.38573C27.0318 5.76163 28.1518 7.41333 28.9058 9.23889C29.6598 11.0645 30.0316 13.0252 29.9984 15C30.0316 16.9748 29.6598 18.9356 28.9058 20.7611C28.1518 22.5867 27.0318 24.2384 25.6147 25.6143C24.2388 27.0313 22.5871 28.1514 20.7616 28.9053C18.936 29.6593 16.9753 30.0312 15.0005 29.998C13.0256 30.0312 11.0649 29.6593 9.23935 28.9053C7.41379 28.1514 5.7621 27.0313 4.3862 25.6143C2.96915 24.2384 1.84909 22.5867 1.09513 20.7611C0.341174 18.9356 -0.0306824 16.9748 0.00250981 15C-0.0342497 13.0309 0.33313 11.0751 1.08195 9.25352C1.83078 7.43195 2.94514 5.78326 4.3562 4.4093ZM12.8236 20.7978H13.55V13.5409H12.8236C12.725 13.5548 12.6245 13.5457 12.53 13.5141C12.4355 13.4825 12.3497 13.4294 12.2792 13.359C12.2088 13.2885 12.1557 13.2027 12.1241 13.1082C12.0925 13.0137 12.0834 12.9132 12.0973 12.8146V12.3304C12.0834 12.2317 12.0925 12.1312 12.1241 12.0367C12.1557 11.9423 12.2088 11.8564 12.2792 11.786C12.3497 11.7155 12.4355 11.6624 12.53 11.6309C12.6245 11.5993 12.725 11.5901 12.8236 11.604H15.7268C15.8254 11.5901 15.926 11.5993 16.0204 11.6309C16.1149 11.6624 16.2007 11.7155 16.2712 11.786C16.3416 11.8564 16.3947 11.9423 16.4263 12.0367C16.4579 12.1312 16.4671 12.2317 16.4531 12.3304V20.7978H17.1795C17.2781 20.7839 17.3786 20.793 17.4731 20.8246C17.5676 20.8562 17.6534 20.9093 17.7238 20.9797C17.7943 21.0502 17.8474 21.136 17.879 21.2305C17.9105 21.325 17.9197 21.4255 17.9058 21.5241V22.0083C17.9197 22.107 17.9105 22.2075 17.879 22.302C17.8474 22.3964 17.7943 22.4823 17.7238 22.5527C17.6534 22.6231 17.5676 22.6763 17.4731 22.7078C17.3786 22.7394 17.2781 22.7486 17.1795 22.7347H12.8236C12.725 22.7486 12.6245 22.7394 12.53 22.7078C12.4355 22.6763 12.3497 22.6231 12.2792 22.5527C12.2088 22.4823 12.1557 22.3964 12.1241 22.302C12.0925 22.2075 12.0834 22.107 12.0973 22.0083V21.5241C12.0837 21.4256 12.0932 21.3254 12.1249 21.2312C12.1567 21.137 12.2098 21.0514 12.2802 20.9812C12.3506 20.9111 12.4363 20.8582 12.5306 20.8267C12.6249 20.7952 12.7252 20.7861 12.8236 20.7999V20.7978ZM13.6099 6.88825C13.7882 6.69801 14.0036 6.54627 14.2427 6.44236C14.4819 6.33845 14.7397 6.28458 15.0005 6.28405C15.2544 6.28178 15.5062 6.33156 15.7402 6.43032C15.9742 6.52907 16.1854 6.67471 16.361 6.85825C16.5445 7.0338 16.6902 7.24509 16.7889 7.47908C16.8877 7.71307 16.9375 7.96481 16.9352 8.21878C16.9375 8.47275 16.8877 8.72449 16.7889 8.95848C16.6902 9.19248 16.5445 9.40376 16.361 9.57931C16.1854 9.76285 15.9742 9.90849 15.7402 10.0072C15.5062 10.106 15.2544 10.1558 15.0005 10.1535C14.7465 10.1558 14.4948 10.106 14.2608 10.0072C14.0268 9.90849 13.8155 9.76285 13.6399 9.57931C13.4564 9.40376 13.3108 9.19248 13.212 8.95848C13.1132 8.72449 13.0635 8.47275 13.0657 8.21878C13.0611 7.97196 13.107 7.72679 13.2005 7.49834C13.2941 7.2699 13.4335 7.06301 13.6099 6.89039V6.88825Z"/>
</svg>
