<svg width="21" height="15" fill="none" xmlns="http://www.w3.org/2000/svg">
    <path d="M17.116 9.98c.03.02.057.041.083.064a5250.12 5250.12 0 013.077 3.077c.294.295.298.734.012 1.013a.697.697 0 01-.965.01c-.055-.052-.107-.106-.16-.16l-2.952-2.952a.758.758 0 01-.06-.08c-1.544 1.154-3.242 1.546-5.103 1.11-1.453-.342-2.614-1.148-3.47-2.37a5.942 5.942 0 01.879-7.82 5.958 5.958 0 017.877-.1 5.97 5.97 0 01.782 8.208zM17 6.286a4.548 4.548 0 00-4.546-4.554A4.549 4.549 0 007.9 6.28a4.547 4.547 0 004.546 4.554c2.509.007 4.548-2.028 4.554-4.547z"/>
    <rect x=".5" y=".333" width="6" height="1.4" rx=".7"/><rect x=".5" y="10.934" width="6" height="1.4" rx=".7"/><rect x=".5" y="5.633" width="4" height="1.4" rx=".7"/>
</svg>