<svg width="12" height="12" xmlns="http://www.w3.org/2000/svg"><path d="M5.994 12c-1.743-.031-3.201-.666-4.375-1.904A5.71 5.71 0 01.089 7.02c-.302-1.884.164-3.58 1.458-5.037A5.73 5.73 0 014.975.091c1.713-.284 3.27.096 4.636 1.125 1.232.927 1.987 2.15 2.27 3.624.326 1.705-.014 3.29-1.056 4.714-.859 1.173-2.02 1.942-3.476 2.29A5.991 5.991 0 015.994 12zm4.92-6.008c-.01-.15-.016-.307-.031-.463a4.805 4.805 0 00-.81-2.266 4.902 4.902 0 00-4.64-2.138 4.807 4.807 0 00-2.11.759 4.897 4.897 0 00-2.179 4.86c.144.949.53 1.8 1.192 2.52 1.148 1.25 2.59 1.805 4.324 1.596a4.627 4.627 0 002.497-1.106c1.166-.999 1.72-2.266 1.756-3.762z"/><path d="M5.452 4.36V2.748a.545.545 0 111.09-.009c.002.351 0 .703 0 1.055v1.922a.133.133 0 00.043.104c.473.47.945.941 1.416 1.413.17.17.222.367.144.59a.542.542 0 01-.899.196c-.466-.462-.928-.927-1.392-1.39-.075-.076-.15-.152-.227-.227a.564.564 0 01-.175-.42v-1.62z"/></svg>