<svg width="20" height="20" fill="none" xmlns="http://www.w3.org/2000/svg"><path fill-rule="evenodd" clip-rule="evenodd" d="M9.325 8.725a.6.6 0 00-.6.6V15.4a.6.6 0 00.6.6H15.4a.6.6 0 00.6-.6V9.325a.6.6 0 00-.6-.6H9.325zm-2.1.6c0-1.16.94-2.1 2.1-2.1H15.4c1.16 0 2.1.94 2.1 2.1V15.4a2.1 2.1 0 01-2.1 2.1H9.325a2.1 2.1 0 01-2.1-2.1V9.325z"/><path fill-rule="evenodd" clip-rule="evenodd" d="M4.6 4a.6.6 0 00-.6.6v6.075a.6.6 0 00.6.6h.675a.75.75 0 010 1.5H4.6a2.1 2.1 0 01-2.1-2.1V4.6a2.1 2.1 0 012.1-2.1h6.075a2.1 2.1 0 012.1 2.1v.675a.75.75 0 01-1.5 0V4.6a.6.6 0 00-.6-.6H4.6z"/></svg>