<svg viewBox="0 0 15 16" xmlns="http://www.w3.org/2000/svg">
<path d="M14.4698 7.99998C14.4698 8.99429 14.4718 9.9886 14.4698 10.9829C14.4676 11.8025 14.1045 12.4023 13.3878 12.7696C11.7527 13.6077 10.1159 14.4426 8.47733 15.2743C7.88659 15.5755 7.29616 15.5752 6.70602 15.2736C5.06935 14.4383 3.43243 13.6037 1.79526 12.7697C1.17382 12.4525 0.818985 11.9396 0.730015 11.237C0.722034 11.1557 0.71918 11.0739 0.721465 10.9922C0.721465 8.99862 0.721465 7.00491 0.721465 5.01109C0.722665 4.19485 1.0892 3.59979 1.80171 3.23144C2.54333 2.84825 3.28869 2.47255 4.03241 2.09334C4.92992 1.63586 5.82757 1.17832 6.72538 0.720737C7.30316 0.42734 7.88424 0.42581 8.46202 0.719819C10.1109 1.55891 11.7592 2.39923 13.4068 3.24077C13.9761 3.53141 14.3242 3.99767 14.4404 4.63693C14.4608 4.76259 14.4701 4.88986 14.468 5.01721C14.4705 6.01152 14.4711 7.00578 14.4698 7.99998ZM1.9687 5.20628V5.31153C1.9687 7.20316 1.96834 9.09489 1.96764 10.9867C1.96764 11.2891 2.09382 11.5001 2.35773 11.6346C3.86807 12.403 5.37797 13.1724 6.88741 13.9427C6.91127 13.955 6.93558 13.9658 6.96978 13.982V13.8878C6.96978 11.8714 6.97033 9.85485 6.97143 7.83829C6.97143 7.7716 6.94862 7.7407 6.89251 7.71209C5.28154 6.89248 3.67093 6.07174 2.06067 5.24988C2.03441 5.23642 2.00816 5.22464 1.9687 5.20628ZM13.2226 5.20628C13.1867 5.22281 13.1626 5.23321 13.138 5.24545C11.523 6.06873 9.90765 6.89161 8.29188 7.71408C8.23607 7.74253 8.21882 7.77527 8.21882 7.83646C8.22052 9.85311 8.22097 11.8697 8.22017 13.8861V13.9779C8.25947 13.9588 8.28618 13.9464 8.31244 13.9331C9.81608 13.1677 11.3197 12.4021 12.8232 11.6362C13.0963 11.4975 13.2246 11.283 13.2241 10.9713C13.2211 9.08464 13.2206 7.19801 13.2226 5.31138V5.20628ZM9.31766 5.76646C9.29156 5.75116 9.27266 5.74 9.25375 5.73006C7.67989 4.92747 6.10609 4.12463 4.53233 3.32154C4.51436 3.31087 4.49393 3.30525 4.47314 3.30525C4.45234 3.30525 4.43192 3.31087 4.41395 3.32154C3.87863 3.59607 3.34286 3.86968 2.80664 4.14238C2.78983 4.15094 2.77468 4.16272 2.75277 4.17679C2.77528 4.18919 2.79013 4.1979 2.80544 4.20571C4.3844 5.01053 5.96285 5.81577 7.54081 6.62141C7.58582 6.64421 7.61838 6.63778 7.65904 6.61698C8.18776 6.34642 8.71678 6.07643 9.2461 5.807C9.2677 5.79599 9.28841 5.78329 9.31766 5.76692V5.76646ZM12.4445 4.17557C12.4084 4.15538 12.3872 4.14284 12.3653 4.13167C10.8803 3.37467 9.39528 2.61742 7.91035 1.85991C7.69745 1.75115 7.49145 1.75084 7.27915 1.85991C6.83595 2.08936 6.39065 2.31362 5.94625 2.54032C5.92539 2.55087 5.90589 2.56418 5.87813 2.5807C5.90664 2.59676 5.92554 2.60824 5.94505 2.61818C7.5167 3.42005 9.08821 4.22213 10.6596 5.0244C10.6787 5.03562 10.7004 5.04143 10.7224 5.04124C10.7445 5.04105 10.7661 5.03487 10.785 5.02333C11.1861 4.81682 11.5878 4.61154 11.9901 4.40747L12.4445 4.17557Z"/>
</svg>
