<svg width="20" height="20" fill="none" xmlns="http://www.w3.org/2000/svg"><path d="M4.669 6.592h-.642a.67.67 0 01-.662-.472.69.69 0 01.276-.783.682.682 0 01.385-.108H6.67v-.09c.001-.238-.003-.476.005-.714.029-.887.68-1.67 1.56-1.87.159-.035.321-.052.484-.051.856-.005 1.712.002 2.568-.004a2.007 2.007 0 012.026 1.778c.03.274.016.554.021.83v.12h2.66a.68.68 0 01.443.164c.123.106.202.251.224.41.048.357-.153.676-.487.765a.815.815 0 01-.197.023c-.21.003-.42.002-.642.002v.114l.001 8.69c0 .572-.176 1.075-.577 1.493-.391.407-.878.61-1.448.61-2.206.002-4.411.001-6.617 0a2.003 2.003 0 01-2.005-1.775 2.948 2.948 0 01-.018-.345V6.713l-.001-.12zM6 6.595v8.839c0 .415.29.705.71.705l6.585-.001a.83.83 0 00.205-.024c.312-.08.503-.348.503-.698V6.595H6zm6.003-1.37v-.637a.88.88 0 00-.006-.133c-.054-.349-.32-.59-.668-.59-.885-.004-1.77-.004-2.655 0a.662.662 0 00-.658.552c-.011.08-.016.161-.014.242-.002.188 0 .375 0 .566h4.001z"/><path d="M9.332 11.366c0 .672-.002 1.344 0 2.017 0 .238-.083.437-.279.58a.622.622 0 01-.664.064c-.245-.115-.366-.318-.388-.58-.002-.021-.001-.042-.001-.063V9.342c0-.148.035-.285.118-.408a.66.66 0 01.71-.275c.272.07.481.315.5.588.005.08.003.162.003.243v1.876zM10.67 11.365V9.348c0-.22.068-.408.24-.55a.621.621 0 01.679-.107c.258.11.387.316.412.589v4.128c0 .309-.198.576-.485.657a.667.667 0 01-.84-.58c-.008-.107-.005-.215-.005-.322-.001-.6-.002-1.199-.001-1.798z"/></svg>