<svg width="16" height="16" xmlns="http://www.w3.org/2000/svg"><path d="M11.492 5.492h-.984v-.984a.954.954 0 00-.305-.715A.985.985 0 009.5 3.5H3.008a.973.973 0 00-.715.293.973.973 0 00-.293.715v6c0 .265.098.496.293.691a.973.973 0 00.715.293h.094a1.4 1.4 0 00.527.727c.258.187.55.281.879.281.312 0 .597-.094.855-.281a1.4 1.4 0 00.528-.727h4.218a1.4 1.4 0 00.528.727c.258.187.543.281.855.281.328 0 .621-.094.88-.281a1.4 1.4 0 00.526-.727h.094c.281 0 .52-.098.715-.293a.946.946 0 00.293-.691V8.703c0-.265-.102-.5-.305-.703l-2.203-2.508zm-6.984 6a.51.51 0 01-.352-.152.456.456 0 01-.164-.34c0-.125.055-.238.164-.34a.51.51 0 01.352-.152.47.47 0 01.34.152A.47.47 0 015 11a.47.47 0 01-.152.34.47.47 0 01-.34.152zm4.992-.984H5.89a1.4 1.4 0 00-.527-.727 1.421 1.421 0 00-.855-.281c-.328 0-.621.094-.88.281a1.4 1.4 0 00-.526.727h-.094V8.492H9.5v2.016zm0-5.016v2.016H3.008v-3H9.5v.984zm1.992 6a.47.47 0 01-.34-.152A.47.47 0 0111 11a.47.47 0 01.152-.34.47.47 0 01.34-.152.51.51 0 01.352.152c.11.102.164.215.164.34a.456.456 0 01-.164.34.51.51 0 01-.352.152zm1.5-.984h-.094a1.4 1.4 0 00-.527-.727 1.457 1.457 0 00-.879-.281c-.422 0-.75.133-.984.398V6.5h.281l2.203 2.203v1.805z"/></svg>