<svg width="20" height="20" fill="none" xmlns="http://www.w3.org/2000/svg"><path fill-rule="evenodd" clip-rule="evenodd" d="M3.25 11.5a.75.75 0 01.75.75v3a.75.75 0 00.75.75h10.5a.75.75 0 00.75-.75v-3a.75.75 0 011.5 0v3a2.25 2.25 0 01-2.25 2.25H4.75a2.25 2.25 0 01-2.25-2.25v-3a.75.75 0 01.75-.75z"/><path fill-rule="evenodd" clip-rule="evenodd" d="M5.72 7.97a.75.75 0 011.06 0L10 11.19l3.22-3.22a.75.75 0 111.06 1.06l-3.75 3.75a.75.75 0 01-1.06 0L5.72 9.03a.75.75 0 010-1.06z"/><path fill-rule="evenodd" clip-rule="evenodd" d="M10 2.5a.75.75 0 01.75.75v9a.75.75 0 01-1.5 0v-9A.75.75 0 0110 2.5z"/></svg>