<svg width="24" height="24" fill="none" xmlns="http://www.w3.org/2000/svg"><path d="M3 17.842c0-.729.002-1.458 0-2.186a1.002 1.002 0 01.315-.746c3.858-3.856 7.716-7.714 11.572-11.574.194-.195.41-.333.701-.336a.9.9 0 01.67.283c.95.953 1.903 1.905 2.855 2.857l1.592 1.593c.396.398.392.937-.005 1.335-3.865 3.866-7.73 7.732-11.593 11.599a1.069 1.069 0 01-.803.331 318.848 318.848 0 00-4.34.002c-.507.005-.965-.36-.964-.93.001-.742.002-1.485 0-2.228zm15.826-9.445l-3.224-3.224c-.041.038-.073.066-.103.096l-1.824 1.824a42696.81 42696.81 0 01-8.8 8.8.23.23 0 00-.075.173c.002 1.005.003 2.01.002 3.015 0 .037.003.073.005.116h.14c.987 0 1.973-.001 2.96.002a.278.278 0 00.213-.09c2.972-2.975 5.944-5.949 8.917-8.922l1.79-1.79z"/></svg>