<svg width="16" height="14" xmlns="http://www.w3.org/2000/svg"><path d="M8.002.754c1.786 0 3.573.01 5.359-.004 1.121-.008 1.956.774 2.111 1.757.026.164.026.334.026.501l.002 8.097c0 .525-.146 1-.489 1.406-.41.488-.944.736-1.592.736H5.434c-.936 0-1.872-.01-2.807.003a2.072 2.072 0 01-2.124-2.157L.5 3.004c0-.328.024-.65.155-.954C.962 1.334 1.5.896 2.29.773c.111-.015.223-.021.335-.019h5.376zm6.136 3.417l-.082.056-5.616 4c-.302.216-.577.217-.878.002l-5.616-4a3.263 3.263 0 00-.084-.056v6.915c0 .04 0 .08.002.12.017.36.323.652.687.652h10.897a.667.667 0 00.489-.206.732.732 0 00.202-.54c-.001-2.282-.002-4.565 0-6.849v-.094zm-.072-1.644c-.143-.247-.343-.384-.626-.384H2.56a.672.672 0 00-.568.293c-.064.088-.063.088.026.152l5.905 4.21c.059.04.093.042.153 0 1.872-1.338 3.746-2.674 5.62-4.008l.37-.263z"/></svg>