<svg width="16" height="16" xmlns="http://www.w3.org/2000/svg"><path d="M12.833 8v3.852c0 .692-.437 1.267-1.091 1.434a1.366 1.366 0 01-.327.044c-.817.004-1.635.004-2.453.002a.475.475 0 01-.474-.412.482.482 0 01.502-.554c.794-.001 1.589-.002 2.383-.001a.48.48 0 00.493-.516V4.15c0-.313-.204-.516-.516-.516H8.966a.48.48 0 01-.478-.41.484.484 0 01.492-.556c.798-.002 1.596-.004 2.395 0a1.437 1.437 0 011.43 1.185c.019.101.027.204.027.306.001 1.28.002 2.56 0 3.84z"/><path d="M8.266 8.485H3.674a.485.485 0 11-.03-.97H8.281l-.05-.053-1.05-1.054a.483.483 0 01.19-.808.462.462 0 01.482.115c.098.094.192.192.288.288l1.575 1.579c.079.078.16.154.193.264a.47.47 0 01-.118.498c-.642.647-1.287 1.293-1.932 1.937a.459.459 0 01-.481.122.456.456 0 01-.333-.368.467.467 0 01.135-.442l1.045-1.049c.015-.015.033-.027.05-.04a.327.327 0 01-.01-.02z"/></svg>