<svg width="20" height="20" fill="none" xmlns="http://www.w3.org/2000/svg"><path d="M5.167 10.003v4.808c0 .311.167.547.444.621a.81.81 0 00.208.023c.99.002 1.98.002 2.97.002a.6.6 0 01.598.514.606.606 0 01-.421.668.693.693 0 01-.193.026c-.997.001-1.995.004-2.992 0a1.797 1.797 0 01-1.788-1.482 1.949 1.949 0 01-.033-.368c-.002-3.21-.002-6.42-.001-9.63 0-.891.57-1.614 1.426-1.809.113-.026.228-.039.344-.04a598.81 598.81 0 013.065-.001.59.59 0 01.565.402.606.606 0 01-.584.806H5.783a.6.6 0 00-.604.486.893.893 0 00-.012.18v4.794z"/><path d="M13.974 10.606H8.216a.606.606 0 11-.035-1.212h5.79c-.028-.031-.044-.05-.062-.068l-1.311-1.318A.604.604 0 0112.838 7a.575.575 0 01.602.146c.164.158.322.321.482.482l1.841 1.846c.098.098.2.191.244.329a.586.586 0 01-.147.629c-.801.807-1.605 1.612-2.41 2.415a.6.6 0 01-1.005-.241.583.583 0 01.154-.615c.435-.438.87-.876 1.306-1.312l.07-.072z"/></svg>