<svg width="16" height="16" xmlns="http://www.w3.org/2000/svg"><path d="M4.133 8.002v3.847c0 .249.134.438.356.497.054.013.11.02.166.018.792.001 1.584.002 2.377.001a.48.48 0 01.478.412.485.485 0 01-.491.555c-.798 0-1.596.003-2.394 0a1.438 1.438 0 01-1.431-1.185 1.56 1.56 0 01-.026-.295 9843.73 9843.73 0 01-.001-7.704c0-.713.455-1.291 1.141-1.447.09-.02.183-.031.275-.032.818-.002 1.635-.003 2.453-.001a.473.473 0 01.451.321.484.484 0 01-.467.646H4.626a.48.48 0 00-.482.388.715.715 0 00-.01.145v3.834z"/><path d="M11.18 8.485H6.572a.485.485 0 11-.028-.97h4.633l-.05-.055-1.05-1.053a.483.483 0 01.193-.808.46.46 0 01.481.117c.13.126.258.257.386.386l1.473 1.477c.078.078.16.152.194.262a.469.469 0 01-.117.504c-.641.645-1.284 1.29-1.928 1.932a.48.48 0 01-.804-.193.467.467 0 01.123-.492l1.045-1.05.055-.057z"/></svg>