<svg width="24" height="24" fill="none" xmlns="http://www.w3.org/2000/svg"><path d="M3.865 3c.24.05.408.21.574.378 1.141 1.145 2.283 2.288 3.428 3.43l8.931 8.931 3.825 3.823c.168.166.326.333.377.574v.216l-.021.076a.75.75 0 01-.482.529c-.047.018-.096.029-.145.043h-.216c-.24-.05-.407-.21-.574-.378a1309.278 1309.278 0 00-3.116-3.12c-.025-.025-.036-.063-.05-.09a8.214 8.214 0 01-1.548.786c-1.612.606-3.251.735-4.92.263-1.329-.376-2.485-1.065-3.527-1.954-1.09-.93-1.998-2.02-2.766-3.226-.239-.375-.495-.743-.634-1.173v-.216c.036-.094.063-.194.111-.282a14.407 14.407 0 012.61-3.472c.226-.222.462-.434.718-.673-.03-.019-.066-.034-.09-.059L3.378 4.438c-.168-.166-.326-.333-.378-.574v-.216l.022-.076a.749.749 0 01.48-.529c.048-.018.098-.029.146-.043h.217zm3.627 5.554l-.037.027a13.137 13.137 0 00-2.812 3.356c-.031.053-.023.09.006.138.55.924 1.19 1.779 1.938 2.552.805.832 1.703 1.538 2.761 2.026.839.387 1.719.607 2.644.596a6.66 6.66 0 003.211-.866c.023-.013.044-.028.071-.046-.025-.027-.044-.049-.065-.07-.535-.534-1.069-1.07-1.602-1.604-.052-.053-.086-.057-.15-.02a2.933 2.933 0 01-1.974.376c-2.088-.326-3.19-2.649-2.125-4.476.037-.065.031-.099-.02-.15-.595-.59-1.187-1.181-1.777-1.774l-.069-.065zm3.027 3.049c-.207.549.004 1.236.493 1.63.46.369 1.095.383 1.379.243l-1.872-1.873zM21 12.108c-.148.446-.418.826-.662 1.22-.336.536-.71 1.047-1.12 1.53-.28.331-.745.379-1.068.11a.75.75 0 01-.082-1.07c.477-.572.906-1.181 1.282-1.823.027-.046.043-.083.01-.138-.785-1.31-1.73-2.484-2.915-3.456-.856-.7-1.8-1.24-2.876-1.526a6.182 6.182 0 00-2.982-.047.748.748 0 11-.32-1.46c1.989-.446 3.863-.13 5.634.854 1.11.617 2.061 1.432 2.91 2.371a14.895 14.895 0 012.048 2.881c.058.107.095.225.14.338l.001.216z"/></svg>