<svg width="24" height="24" fill="none" xmlns="http://www.w3.org/2000/svg"><path d="M21 12.112c-.152.478-.428.887-.688 1.302-.832 1.333-1.817 2.527-3.018 3.52-.985.814-2.066 1.443-3.29 1.784-1.854.515-3.648.317-5.378-.529-1.047-.511-1.964-1.216-2.791-2.05a15.344 15.344 0 01-2.694-3.677c-.059-.11-.095-.233-.141-.35v-.224c.152-.478.428-.887.688-1.302.83-1.33 1.812-2.523 3.01-3.514.988-.817 2.072-1.448 3.298-1.79 1.854-.515 3.648-.317 5.378.529 1.047.511 1.964 1.216 2.792 2.05a15.34 15.34 0 012.694 3.677c.058.11.094.233.14.35v.224zm-8.912 5.333a5.883 5.883 0 001.326-.174c1.062-.265 2.002-.786 2.857-1.48 1.269-1.029 2.264-2.303 3.09-3.727.034-.056.019-.095-.01-.143a14.222 14.222 0 00-2.014-2.725c-.83-.874-1.756-1.61-2.85-2.096-1.41-.626-2.853-.722-4.322-.25-1.02.327-1.914.892-2.727 1.602-1.128.986-2.036 2.165-2.793 3.473-.032.056-.031.095 0 .151.398.696.851 1.356 1.354 1.974.745.913 1.58 1.72 2.569 2.344 1.053.664 2.188 1.048 3.52 1.051z"/><path d="M12 15.11c-1.654 0-3-1.394-3-3.11 0-1.715 1.345-3.11 3-3.11 1.654-.001 3 1.394 3 3.11 0 1.715-1.345 3.11-3 3.11zm-1.5-3.116c0 .307.086.608.25.865.164.256.397.457.67.575.274.12.576.151.867.092.291-.059.559-.206.77-.422.21-.217.354-.494.413-.795.058-.301.03-.614-.083-.899a1.544 1.544 0 00-.55-.7 1.462 1.462 0 00-1.894.186c-.14.144-.25.315-.327.503-.076.188-.115.39-.115.594z"/></svg>