<svg width="24" height="24" fill="none" xmlns="http://www.w3.org/2000/svg"><path d="M3 13.182a.249.249 0 00.019-.04c.086-.377.368-.612.745-.614.63-.002 1.26 0 1.89 0h2.582c.373 0 .664.239.745.602.106.477-.243.94-.718.943-.468.004-.936 0-1.404 0h-.11v4.616c0 .386-.21.684-.546.781a.724.724 0 01-.649-.124.793.793 0 01-.3-.607c-.004-.158 0-.316 0-.474v-4.191h-1.45c-.416 0-.682-.212-.79-.628-.001-.008-.009-.015-.014-.022v-.242zM21 14.968c-.007.02-.015.04-.02.06-.084.348-.368.589-.715.592-.465.005-.93.002-1.395.002h-.12V18.712c0 .358-.215.657-.534.755-.486.148-.96-.217-.962-.75-.003-.911 0-1.822 0-2.734 0-.09-.005-.18 0-.27.006-.073-.02-.094-.09-.093-.469.003-.937 0-1.405.002a.708.708 0 01-.589-.286.755.755 0 01-.097-.811c.13-.29.361-.446.67-.448 1.506-.004 3.011-.004 4.517-.001.157.001.31.054.436.15a.77.77 0 01.267.387l.037.112v.243zM11.25 7.878v-.135-2.939c0-.372.212-.674.537-.771.49-.147.961.223.962.762.003.983 0 1.966 0 2.948v.135h.112c.467 0 .935-.005 1.403.002.315.005.545.167.67.463a.755.755 0 01-.128.823.673.673 0 01-.539.257c-1.512.002-3.024.002-4.535 0-.401 0-.726-.346-.733-.764-.006-.415.315-.771.717-.778.47-.008.942-.003 1.413-.003h.121zM12.75 15.246v3.449c0 .372-.21.674-.535.772-.48.144-.947-.21-.964-.732v-.038-6.917c0-.372.212-.674.536-.772.493-.149.962.225.963.77.002 1.004.002 2.009 0 3.013v.455zM17.253 8.263V4.804c0-.39.22-.689.569-.78.453-.12.907.231.926.714l.001.075v6.898c0 .36-.183.646-.485.762-.499.193-1.01-.18-1.01-.744-.003-1.124-.003-2.249 0-3.374l-.001-.092zM6.748 7.489v2.696c0 .39-.234.689-.592.771-.445.103-.883-.245-.903-.717l-.001-.065V4.8c0-.366.211-.667.533-.765.486-.15.96.216.962.748.003.903 0 1.805 0 2.707z"/></svg>