<svg width="24" height="24" fill="none" xmlns="http://www.w3.org/2000/svg"><path d="M20.053 5.001c.442 0 .794.279.907.715.168.64-.245 1.262-.851 1.284H3.958c-.397 0-.7-.18-.87-.582-.28-.654.143-1.393.804-1.417.043-.002.086 0 .13 0h16.031zM12 13H3.948c-.441 0-.793-.28-.907-.716-.167-.64.246-1.261.852-1.283h16.151a.91.91 0 01.893.636c.229.65-.191 1.34-.828 1.363H12.001zM3.95 18.999c-.443 0-.794-.277-.91-.713-.168-.639.244-1.262.85-1.286H20.04c.405 0 .712.186.88.602.262.652-.159 1.372-.81 1.397-.043.002-.086 0-.13 0H3.95z"/></svg>