<svg width="18" height="14" xmlns="http://www.w3.org/2000/svg"><path d="M17.053.001c.442 0 .794.279.907.715.168.64-.245 1.262-.851 1.284H.958c-.397 0-.7-.18-.87-.582C-.193.764.23.025.891.001c.043-.002.086 0 .13 0h16.031zM9 8H.948C.506 8 .154 7.72.04 7.284c-.167-.64.246-1.261.852-1.283h16.151a.91.91 0 01.893.636c.229.65-.191 1.34-.828 1.363H9.001zM.95 13.999c-.443 0-.794-.277-.91-.713-.168-.639.244-1.262.85-1.286H17.04c.405 0 .712.186.88.602.262.652-.159 1.372-.81 1.397-.043.002-.086 0-.13 0H.95z"/></svg>