<svg width="18" height="16" fill="none" xmlns="http://www.w3.org/2000/svg"><path d="M8.991 1.787c.189-.181.357-.357.54-.515 1.046-.904 2.26-1.335 3.637-1.26a5.077 5.077 0 014.724 4.11c.343 1.79-.131 3.366-1.406 4.663-2.292 2.331-4.605 4.642-6.91 6.96-.334.337-.812.34-1.145.006A9498.343 9498.343 0 011.48 8.752C.633 7.898.159 6.857.029 5.658-.247 3.105 1.48.668 3.977.133 5.805-.26 7.4.222 8.746 1.53c.083.08.16.167.245.256zM8.99 14.096c.034-.031.053-.047.07-.064 2.118-2.132 4.244-4.256 6.35-6.398.853-.867 1.183-1.936.955-3.134-.262-1.37-1.073-2.313-2.393-2.741-1.316-.426-2.505-.127-3.526.813-.299.275-.576.574-.863.862-.345.346-.818.345-1.164-.002-.274-.275-.54-.557-.822-.824-.992-.943-2.16-1.249-3.47-.883-1.614.45-2.723 2.035-2.53 3.805.091.84.447 1.556 1.042 2.155l6.28 6.32c.023.025.043.055.071.09z"/></svg>