<svg width="16" height="16" fill="none" xmlns="http://www.w3.org/2000/svg"><path d="M7.995 14H4.29a1.59 1.59 0 01-1.563-1.214 1.8 1.8 0 01-.055-.445c-.004-1.981-.005-3.963-.003-5.944 0-.201.076-.36.232-.484 1.581-1.256 3.162-2.514 4.742-3.772.236-.188.482-.188.72 0l4.74 3.772a.584.584 0 01.232.485v5.937c0 .8-.504 1.453-1.261 1.626a1.763 1.763 0 01-.381.037c-.638.003-1.275.001-1.913.001H7.995zm2.14-1.09H11.698c.345 0 .57-.228.57-.58V6.695a.12.12 0 00-.048-.104 4242.98 4242.98 0 01-4.166-3.315c-.037-.03-.06-.035-.102-.002-1.39 1.107-2.78 2.214-4.17 3.319a.11.11 0 00-.047.099l.001 5.65c0 .34.228.57.56.57h1.573v-.102-4.78c0-.341.228-.574.563-.574h3.142c.05 0 .102.005.152.017.253.062.409.277.409.56V12.911zM6.94 8.55v4.355h2.123V8.55H6.94z"/></svg>