<svg width="14" height="16" fill="none" xmlns="http://www.w3.org/2000/svg">
    <path d="M6.992 15.5H2.36a1.986 1.986 0 01-1.954-1.517 2.252 2.252 0 01-.07-.557C.334 10.95.333 8.473.335 5.996a.73.73 0 01.29-.605C2.602 3.821 4.578 2.25 6.553.676c.295-.235.602-.235.899.001l5.926 4.714a.73.73 0 01.29.606v7.422c0 1-.63 1.816-1.577 2.032a2.196 2.196 0 01-.475.046c-.797.005-1.595.002-2.392.002H6.992zm2.675-1.361H11.621c.43 0 .712-.286.712-.726 0-2.348 0-4.697.002-7.045a.15.15 0 00-.061-.13C10.537 4.858 8.8 3.476 7.066 2.094c-.047-.038-.076-.044-.128-.003A3888.754 3888.754 0 011.725 6.24a.138.138 0 00-.058.123c.001 2.354.002 4.708.001 7.062 0 .426.285.714.7.714h1.966v-.128-5.974c0-.428.286-.719.704-.719l3.928.001c.063 0 .127.006.19.021.316.078.51.347.51.7v5.974l.001.125zM5.674 8.686v5.446h2.654V8.686H5.674z"/>
</svg>