<svg width="16" height="16" xmlns="http://www.w3.org/2000/svg"><path d="M7.994 14H4.289a1.59 1.59 0 01-1.563-1.214 1.8 1.8 0 01-.056-.445c-.003-1.981-.004-3.963-.003-5.944 0-.201.076-.36.233-.484C4.48 4.657 6.06 3.399 7.64 2.141c.237-.188.482-.188.72 0l4.74 3.772a.584.584 0 01.232.485v5.937c0 .8-.503 1.453-1.26 1.626a1.763 1.763 0 01-.381.037c-.638.003-1.276.001-1.913.001H7.994zm2.14-1.09h1.562c.346 0 .57-.228.57-.58 0-1.878 0-3.757.002-5.636a.12.12 0 00-.049-.104 4243.03 4243.03 0 01-4.166-3.315c-.038-.03-.06-.035-.102-.002C6.56 4.38 5.17 5.487 3.78 6.592a.11.11 0 00-.046.099v5.65c0 .34.228.57.56.57h1.574v-.102-4.78c0-.341.228-.574.563-.574h3.141c.052 0 .103.005.152.017.253.062.41.277.41.56V12.911zM6.939 8.55v4.355h2.123V8.55H6.939z"/></svg>