<svg width="24" height="24" fill="none" xmlns="http://www.w3.org/2000/svg"><path fill-rule="evenodd" clip-rule="evenodd" d="M16.335 2h-8.67C4.269 2 2.002 4.433 2.002 7.916v8.168C2 19.571 4.262 22 7.666 22h8.668C19.738 22 22 19.57 22 16.084V7.916C22 4.43 19.738 2 16.335 2zm-8.67 1.5h8.67c2.55 0 4.166 1.735 4.166 4.416v8.168c0 2.681-1.616 4.416-4.167 4.416H7.666c-2.55 0-4.165-1.734-4.165-4.416V7.916C3.5 5.24 5.12 3.5 7.666 3.5zM12 7.454a.75.75 0 01.102 1.494l-.112.006a.75.75 0 01-.102-1.493L12 7.454zm-.01 3.173a.75.75 0 01.743.648l.007.102v4.42a.75.75 0 01-1.493.1l-.007-.1v-4.42a.75.75 0 01.75-.75z"/></svg>