<svg  viewBox="0 0 16 16" xmlns="http://www.w3.org/2000/svg">
<path d="M8.00023 1.46518C7.13797 1.44973 6.28178 1.61224 5.48514 1.94255C4.68849 2.27285 3.96851 2.76386 3.37015 3.38492C2.75662 3.98326 2.27134 4.70026 1.94387 5.49222C1.6164 6.28418 1.45361 7.13452 1.46541 7.99143C1.45041 8.85316 1.61313 9.70873 1.94343 10.5048C2.27372 11.3008 2.7645 12.0203 3.38515 12.6183C3.98349 13.2318 4.70049 13.7171 5.49245 14.0446C6.28441 14.372 7.13475 14.5348 7.99166 14.523C8.85441 14.5395 9.71128 14.3778 10.5087 14.048C11.3061 13.7182 12.0269 13.2275 12.626 12.6065C13.2398 12.0083 13.7252 11.2913 14.0529 10.4993C14.3805 9.70738 14.5435 8.85699 14.5318 8C14.5468 7.13827 14.3841 6.2827 14.0538 5.48664C13.7235 4.69058 13.2328 3.97112 12.6121 3.37313C12.0134 2.75836 11.2957 2.2721 10.5027 1.94405C9.70977 1.61601 8.85827 1.45306 8.00023 1.46518ZM2.6781 2.70465C3.36767 1.99331 4.19566 1.4308 5.11101 1.0518C6.02636 0.672797 7.00965 0.48535 8.00023 0.501021C8.98766 0.484425 9.96801 0.670354 10.8808 1.04733C11.7936 1.42431 12.6194 1.98434 13.3074 2.69287C14.0159 3.38082 14.5759 4.20666 14.9529 5.11944C15.3299 6.03223 15.5158 7.01258 15.4992 8C15.5158 8.98742 15.3299 9.96778 14.9529 10.8806C14.5759 11.7933 14.0159 12.6192 13.3074 13.3071C12.6194 14.0157 11.7936 14.5757 10.8808 14.9527C9.96801 15.3296 8.98766 15.5156 8.00023 15.499C7.01281 15.5156 6.03246 15.3296 5.11968 14.9527C4.2069 14.5757 3.38105 14.0157 2.6931 13.3071C1.98457 12.6192 1.42454 11.7933 1.04757 10.8806C0.670587 9.96778 0.484659 8.98742 0.501255 8C0.482875 7.01543 0.666565 6.03755 1.04098 5.12676C1.41539 4.21597 1.97257 3.39163 2.6781 2.70465ZM6.91181 10.8989H7.27498V7.27046H6.91181C6.86249 7.27742 6.81223 7.27283 6.765 7.25704C6.71776 7.24125 6.67484 7.2147 6.63962 7.17948C6.6044 7.14426 6.57785 7.10134 6.56206 7.05411C6.54627 7.00687 6.54168 6.95661 6.54865 6.90729V6.66518C6.54168 6.61587 6.54627 6.5656 6.56206 6.51837C6.57785 6.47113 6.6044 6.42821 6.63962 6.39299C6.67484 6.35777 6.71776 6.33122 6.765 6.31543C6.81223 6.29965 6.86249 6.29505 6.91181 6.30202H8.3634C8.41271 6.29505 8.46298 6.29965 8.51021 6.31543C8.55745 6.33122 8.60037 6.35777 8.63559 6.39299C8.67081 6.42821 8.69736 6.47113 8.71315 6.51837C8.72893 6.5656 8.73353 6.61587 8.72656 6.66518V10.8989H9.08973C9.13904 10.8919 9.1893 10.8965 9.23654 10.9123C9.28378 10.9281 9.3267 10.9546 9.36192 10.9899C9.39714 11.0251 9.42369 11.068 9.43948 11.1152C9.45526 11.1625 9.45986 11.2127 9.45289 11.2621V11.5042C9.45986 11.5535 9.45526 11.6037 9.43948 11.651C9.42369 11.6982 9.39714 11.7411 9.36192 11.7764C9.3267 11.8116 9.28378 11.8381 9.23654 11.8539C9.1893 11.8697 9.13904 11.8743 9.08973 11.8673H6.91181C6.86249 11.8743 6.81223 11.8697 6.765 11.8539C6.71776 11.8381 6.67484 11.8116 6.63962 11.7764C6.6044 11.7411 6.57785 11.6982 6.56206 11.651C6.54627 11.6037 6.54168 11.5535 6.54865 11.5042V11.2621C6.54187 11.2128 6.5466 11.1627 6.56247 11.1156C6.57834 11.0685 6.60491 11.0257 6.64011 10.9906C6.6753 10.9555 6.71816 10.9291 6.7653 10.9134C6.81245 10.8976 6.8626 10.893 6.91181 10.9V10.8989ZM7.30497 3.94412C7.39412 3.84901 7.5018 3.77313 7.62136 3.72118C7.74093 3.66923 7.86987 3.64229 8.00023 3.64202C8.12722 3.64089 8.25309 3.66578 8.37008 3.71516C8.48708 3.76454 8.59272 3.83736 8.6805 3.92913C8.77227 4.0169 8.84509 4.12254 8.89446 4.23954C8.94384 4.35654 8.96873 4.48241 8.9676 4.60939C8.96873 4.73638 8.94384 4.86225 8.89446 4.97924C8.84509 5.09624 8.77227 5.20188 8.6805 5.28966C8.59272 5.38143 8.48708 5.45424 8.37008 5.50362C8.25309 5.553 8.12722 5.57789 8.00023 5.57676C7.87325 5.57789 7.74738 5.553 7.63038 5.50362C7.51339 5.45424 7.40774 5.38143 7.31997 5.28966C7.2282 5.20188 7.15538 5.09624 7.106 4.97924C7.05662 4.86225 7.03173 4.73638 7.03287 4.60939C7.03054 4.48598 7.05348 4.36339 7.10027 4.24917C7.14707 4.13495 7.21673 4.0315 7.30497 3.94519V3.94412Z"/>
</svg>
