<svg width="20" height="20" fill="none" xmlns="http://www.w3.org/2000/svg"><path d="M10 3.465a6.273 6.273 0 00-4.63 1.92A6.313 6.313 0 003.465 9.99a6.273 6.273 0 001.92 4.627 6.314 6.314 0 004.607 1.905 6.272 6.272 0 004.634-1.916A6.312 6.312 0 0016.532 10a6.273 6.273 0 00-1.92-4.627A6.313 6.313 0 0010 3.465zm-5.322 1.24A7.253 7.253 0 0110 2.5a7.228 7.228 0 015.307 2.192A7.229 7.229 0 0117.5 10a7.228 7.228 0 01-2.192 5.307A7.228 7.228 0 0110 17.5a7.23 7.23 0 01-5.307-2.192A7.228 7.228 0 012.501 10a7.203 7.203 0 012.177-5.295zm4.234 8.194h.363V9.27h-.363a.321.321 0 01-.363-.363v-.242a.321.321 0 01.363-.363h1.451a.321.321 0 01.364.363V12.9h.363a.32.32 0 01.363.363v.242a.32.32 0 01-.363.363H8.912a.32.32 0 01-.363-.363v-.242a.321.321 0 01.363-.362v-.001zm.393-6.955a.956.956 0 011.065-.229.93.93 0 01.31.214.93.93 0 01.288.68.932.932 0 01-.287.68.93.93 0 01-.68.288.93.93 0 01-.681-.287.93.93 0 01-.287-.68.905.905 0 01.272-.665z"/></svg>