<svg xmlns="http://www.w3.org/2000/svg">
<path d="M0.000876846 6.89635C0.000876846 5.80688 -0.00157041 4.71727 0.00188469 3.6278C0.0037562 3.0058 0.25353 2.49589 0.776978 2.12117C1.06246 1.91317 1.41108 1.80073 1.76945 1.80105C2.98104 1.79745 4.19263 1.79713 5.40422 1.80008C5.73835 1.80008 6.0008 2.07238 5.99878 2.40577C5.99662 2.73599 5.72928 2.99861 5.39054 2.99889C4.20304 2.99971 3.01545 2.99971 1.82776 2.99889C1.5132 2.99889 1.27293 3.1888 1.21189 3.48515C1.20426 3.5262 1.20084 3.56786 1.20167 3.60955C1.20167 5.80269 1.20167 7.99559 1.20167 10.1883C1.20167 10.4942 1.39702 10.7326 1.68898 10.7899C1.74337 10.7987 1.79855 10.8022 1.85367 10.8005C4.01771 10.8005 6.18176 10.7973 8.34566 10.804C8.74054 10.8053 9.00227 10.5087 9.00068 10.1746C8.99478 8.99291 8.99853 7.81097 8.99809 6.62944C8.99809 6.45915 9.0456 6.30545 9.17085 6.18174C9.33727 6.01739 9.53896 5.95865 9.76858 6.02748C10.0054 6.09853 10.1394 6.26246 10.1871 6.49371C10.1954 6.53933 10.1991 6.58563 10.198 6.63193C10.198 7.8136 10.2031 8.99554 10.1967 10.1769C10.1931 10.8631 9.89541 11.4039 9.28084 11.7686C9.02433 11.9213 8.7281 12.0014 8.42627 11.9995C6.20925 12.0004 3.99223 12.0001 1.77521 11.9987C0.979965 11.9973 0.278004 11.4565 0.0722816 10.6911C0.0266504 10.5172 0.00339509 10.3385 0.00303575 10.1591C-0.00214689 9.07087 0.000876846 7.98361 0.000876846 6.89635Z"/>
<path d="M9.92877 1.19923H9.84528C9.16865 1.19923 8.49203 1.19923 7.81541 1.19923C7.53742 1.19923 7.30823 1.03488 7.22761 0.783037C7.14699 0.531195 7.24316 0.249635 7.46356 0.102014C7.57125 0.0298613 7.69102 -0.000131407 7.82261 6.81597e-06C8.97661 0.00120475 10.1306 0.00157104 11.2845 0.0011103C11.3609 0.0011103 11.4397 -0.00469289 11.5135 0.0102352C11.6509 0.0378503 11.7742 0.110024 11.8627 0.214633C11.9512 0.319243 11.9995 0.449915 11.9995 0.584689C12.0007 1.78944 11.9997 2.99409 11.9966 4.19866C11.9956 4.54988 11.7184 4.80849 11.3674 4.79771C11.0485 4.7879 10.7983 4.51947 10.7977 4.18235C10.7967 3.50505 10.7967 2.82776 10.7977 2.15047V2.06961L10.781 2.05994C10.7579 2.0844 10.7353 2.10942 10.7114 2.13333C8.89272 3.95317 7.074 5.7731 5.25518 7.59313C5.13555 7.71283 4.99936 7.79355 4.82329 7.79784C4.44366 7.80696 4.14667 7.47799 4.2057 7.11709C4.22812 6.97977 4.29519 6.85277 4.39731 6.75426C6.2167 4.93515 8.03581 3.11573 9.85463 1.29598C9.88277 1.27087 9.91243 1.24737 9.94346 1.22563L9.92877 1.19923Z" fill="#357ADE"/>
</svg>
