<svg  fill="none" xmlns="http://www.w3.org/2000/svg"><path d="M11.65 3h.706a.957.957 0 00.1.015 7.81 7.81 0 012.009.373c3.114 1.007 5.223 3.8 5.284 7.006.018.986-.185 1.935-.542 2.856-.434 1.117-1.06 2.13-1.807 3.075-1.34 1.698-2.946 3.132-4.727 4.386-.173.121-.344.245-.56.289h-.222c-.139-.064-.289-.11-.413-.195a20.64 20.64 0 01-.984-.707C9.04 18.98 7.711 17.74 6.587 16.303c-.75-.958-1.38-1.981-1.813-3.113-.54-1.415-.685-2.863-.329-4.338C4.958 6.73 6.2 5.112 8.138 4.002a7.56 7.56 0 012.976-.95c.178-.02.357-.034.535-.052zm.342 16.334l.055-.035c1.38-1.004 2.646-2.126 3.745-3.418.77-.907 1.432-1.88 1.893-2.974.49-1.164.653-2.36.396-3.602-.567-2.746-3.074-4.765-5.977-4.805-1.233-.017-2.383.28-3.417.933-1.674 1.056-2.63 2.555-2.854 4.478-.104.893.035 1.764.34 2.61.375 1.047.953 1.986 1.64 2.866.915 1.174 1.984 2.206 3.149 3.147.337.272.685.533 1.03.8z"/><path d="M15.102 10.502c0 1.656-1.389 2.996-3.1 2.995-1.713-.001-3.1-1.343-3.099-2.999.002-1.662 1.393-3 3.12-2.997 1.694.002 3.08 1.353 3.08 3zm-1.55.002c.001-.398-.16-.78-.45-1.062a1.578 1.578 0 00-1.094-.444c-.852-.005-1.55.666-1.555 1.494-.005.828.686 1.505 1.539 1.508.204.002.407-.036.596-.11.189-.075.36-.185.506-.324.145-.14.26-.305.338-.487.08-.182.12-.378.12-.575z"/></svg>