<svg width="20" height="20" fill="none" xmlns="http://www.w3.org/2000/svg"><path d="M9.708 2.5h.589c.027.006.055.01.083.013a6.51 6.51 0 011.674.31c2.596.84 4.352 3.167 4.403 5.839.016.822-.153 1.612-.451 2.38-.362.93-.883 1.775-1.506 2.562-1.117 1.416-2.455 2.61-3.94 3.655-.143.101-.286.204-.465.241h-.186c-.115-.053-.24-.092-.344-.162a17.25 17.25 0 01-.82-.59c-1.212-.931-2.32-1.965-3.256-3.161-.624-.799-1.15-1.652-1.51-2.595-.45-1.179-.572-2.385-.275-3.614.428-1.77 1.463-3.118 3.078-4.043a6.3 6.3 0 012.48-.791c.148-.017.297-.029.446-.044zm.286 13.612l.045-.03c1.15-.836 2.206-1.77 3.121-2.848.642-.756 1.193-1.567 1.577-2.478.408-.97.545-1.968.331-3.002-.473-2.288-2.563-3.97-4.981-4.004-1.028-.014-1.986.234-2.848.778-1.395.88-2.191 2.128-2.378 3.731-.087.745.03 1.47.282 2.175.314.873.795 1.655 1.367 2.389.763.978 1.654 1.838 2.625 2.622.281.227.571.444.859.667z"/><path d="M12.585 8.751c0 1.38-1.157 2.498-2.584 2.497-1.427-.001-2.583-1.12-2.582-2.5.002-1.385 1.161-2.5 2.6-2.497 1.412.002 2.567 1.128 2.566 2.5zm-1.292.002c.001-.331-.134-.65-.375-.885a1.315 1.315 0 00-.911-.37c-.71-.004-1.292.555-1.296 1.245-.004.69.572 1.255 1.282 1.257a1.327 1.327 0 00.918-.362 1.213 1.213 0 00.382-.885z"/></svg>