<svg width="24" height="24" fill="none" xmlns="http://www.w3.org/2000/svg"><path d="M12.002 4.504c2.144 0 4.288.012 6.431-.004 1.346-.01 2.348.929 2.533 2.108.031.197.031.401.031.602.002 3.238.003 6.477.003 9.716 0 .63-.175 1.2-.586 1.688-.493.584-1.133.882-1.91.882-3.195.002-6.39.002-9.584 0-1.122 0-2.245-.012-3.368.004a2.486 2.486 0 01-2.52-2.11 3.081 3.081 0 01-.028-.478L3 7.205c0-.394.03-.78.186-1.145C3.554 5.2 4.2 4.675 5.149 4.527c.133-.018.268-.025.402-.022 2.15-.002 4.3-.002 6.451 0zm7.364 4.102l-.098.066-6.74 4.801c-.362.259-.693.26-1.054.002l-6.74-4.801a3.908 3.908 0 00-.1-.066v8.298c0 .048 0 .096.002.144a.832.832 0 00.825.782h13.077a.8.8 0 00.586-.247c.177-.181.243-.4.243-.648-.002-2.74-.002-5.479-.001-8.218v-.113zm-.087-1.974c-.171-.296-.41-.46-.75-.46H5.472a.807.807 0 00-.683.35c-.077.106-.076.107.032.184l7.086 5.05c.07.05.112.052.183 0 2.247-1.604 4.495-3.207 6.745-4.808l.443-.316z"/></svg>