<svg fill="none" xmlns="http://www.w3.org/2000/svg">
<path fill-rule="evenodd" clip-rule="evenodd" d="M4.26441 2.2328C5.25335 1.23132 6.5969 0.666748 8.00006 0.666748C9.40323 0.666748 10.7468 1.23132 11.7357 2.2328C12.7243 3.23393 13.2778 4.58954 13.2778 6.00088C13.2778 8.50529 13.8067 10.0545 14.2893 10.9504C14.5317 11.4004 14.7667 11.6939 14.9281 11.8663C15.0089 11.9528 15.0719 12.0094 15.1087 12.0405C15.1271 12.056 15.139 12.0652 15.1434 12.0685C15.1436 12.0687 15.1438 12.0688 15.144 12.0689C15.4398 12.2756 15.5695 12.6498 15.4636 12.9959C15.3564 13.3462 15.0331 13.5854 14.6667 13.5854H1.3334C0.967072 13.5854 0.643704 13.3462 0.536527 12.9959C0.43065 12.6498 0.560287 12.2756 0.85615 12.0689C0.856152 12.0689 0.856154 12.0689 0.856156 12.0689C0.856323 12.0688 0.856504 12.0687 0.856701 12.0685C0.861094 12.0652 0.873012 12.056 0.891435 12.0405C0.928256 12.0094 0.991186 11.9528 1.07207 11.8663C1.23339 11.6939 1.46847 11.4004 1.71083 10.9504C2.19341 10.0545 2.72229 8.50529 2.72229 6.00088C2.72229 4.58954 3.27582 3.23393 4.26441 2.2328ZM12.921 11.9187C12.888 11.8613 12.8549 11.802 12.8219 11.7408C12.1934 10.5738 11.6112 8.7474 11.6112 6.00088C11.6112 5.02484 11.2282 4.09087 10.5498 3.40387C9.87176 2.71722 8.95438 2.33341 8.00006 2.33341C7.04575 2.33341 6.12837 2.71722 5.45032 3.40387C4.77193 4.09087 4.38895 5.02484 4.38895 6.00088C4.38895 8.7474 3.80672 10.5738 3.17818 11.7408C3.14521 11.802 3.11215 11.8613 3.0791 11.9187H12.921Z"/>
</svg>
