<svg width="16" height="16" xmlns="http://www.w3.org/2000/svg"><path d="M13.5 8v2.386c-.002.656-.293 1.136-.866 1.43-1.308.67-2.618 1.338-3.929 2.003-.472.241-.945.241-1.417 0a6043.54 6043.54 0 00-3.928-2.003c-.498-.254-.781-.664-.853-1.226a1.558 1.558 0 01-.006-.196V5.609c0-.653.294-1.13.864-1.424.593-.306 1.19-.607 1.784-.91l2.155-1.098a1.457 1.457 0 011.39-.001c1.318.671 2.637 1.343 3.955 2.017.455.232.734.605.827 1.117.016.1.023.202.022.304.002.795.002 1.59.001 2.386zM3.497 5.765v4.624c0 .242.1.411.312.519 1.208.614 2.416 1.23 3.623 1.846l.066.032v-.076c0-1.613 0-3.226.002-4.84 0-.053-.019-.077-.064-.1L3.572 5.8l-.074-.035zm9.003 0l-.067.031-3.877 1.975c-.045.023-.059.05-.059.098.002 1.613.002 3.227.002 4.84v.073l.073-.036 3.609-1.837a.545.545 0 00.32-.532c-.002-1.51-.002-3.019 0-4.528v-.084zm-3.123.448l-.052-.029L5.55 4.257a.093.093 0 00-.094 0c-.429.22-.857.439-1.286.657-.014.007-.026.016-.043.027l.042.024c1.263.643 2.526 1.288 3.788 1.932.036.018.062.013.095-.003.423-.217.846-.433 1.27-.648.017-.01.033-.02.057-.032zm2.501-1.273l-.063-.035-3.564-1.817a.52.52 0 00-.505 0c-.355.183-.711.363-1.067.544l-.054.033.053.03 3.772 1.925a.098.098 0 00.1-.001c.321-.166.643-.33.964-.493l.364-.186z"/></svg>