<svg width="18" height="14" viewBox="0 0 18 14" xmlns="http://www.w3.org/2000/svg">
<path d="M0 11.8539V2.14728C0.00576 2.11862 0.01422 2.09033 0.018 2.06149C0.13446 0.965293 1.04058 -0.00268075 2.31552 5.5781e-06C6.77172 0.00609459 11.228 0.00716912 15.6843 0.00322917C15.8042 0.000710739 15.9242 0.00819897 16.0429 0.0256152C16.9609 0.17999 17.5633 0.711703 17.8718 1.57563C17.9372 1.75848 17.9584 1.95691 18 2.14871V11.8553C17.9879 11.928 17.9752 12.0007 17.964 12.0738C17.7953 13.1781 16.8397 13.9997 15.7203 13.9997C11.2401 13.9997 6.7599 13.9997 2.2797 13.9997C2.17172 14.0016 2.06377 13.9945 1.95696 13.9786C1.03896 13.8235 0.436678 13.2921 0.127978 12.4282C0.0628175 12.2434 0.04158 12.045 0 11.8539ZM1.50192 6.22942C1.5003 6.26416 1.49778 6.29335 1.49778 6.32255C1.49778 8.09528 1.49778 9.86826 1.49778 11.6415C1.49778 12.1189 1.82916 12.4452 2.30778 12.4452H15.6895C16.173 12.4452 16.502 12.1193 16.5022 11.6357C16.5032 9.86599 16.5032 8.09618 16.5022 6.32631C16.5022 6.29479 16.4995 6.26309 16.4981 6.22996L1.50192 6.22942ZM16.5022 4.66598V4.56569C16.5022 3.83447 16.4988 3.10325 16.5035 2.37203C16.5064 1.89387 16.1447 1.55163 15.6775 1.55234C11.2255 1.55891 6.77346 1.55891 2.32146 1.55234C1.85454 1.55234 1.49346 1.89369 1.4958 2.37221C1.5003 3.10343 1.49688 3.83465 1.49706 4.56605C1.49706 4.59792 1.49976 4.6298 1.50156 4.66598H16.5022Z"/>
</svg>
