<svg width="16" height="16" xmlns="http://www.w3.org/2000/svg"><path d="M6.145 6.701a10.3 10.3 0 003.14 3.137c.019-.017.038-.033.055-.05.143-.142.283-.29.43-.428.623-.585 1.345-.758 2.155-.48.613.21 1.245.366 1.886.462.837.127 1.544.853 1.66 1.69.018.14.028.283.027.425.003.651.002 1.303.001 1.954 0 .915-.542 1.688-1.388 1.98a2.206 2.206 0 01-1.005.088 14.413 14.413 0 01-7.739-3.436A14.38 14.38 0 01.511 2.746 2.05 2.05 0 012.577.503c.68-.004 1.36-.004 2.04-.001 1.024.006 1.857.7 2.03 1.708.087.507.182 1.011.339 1.502.075.234.17.465.212.705.12.69-.08 1.292-.565 1.798-.158.163-.322.32-.488.486zm7.984 5.705c0-.348.002-.696 0-1.043a.666.666 0 00-.581-.679 10.512 10.512 0 01-2.09-.521c-.269-.098-.515-.037-.72.165-.279.274-.554.553-.831.83-.256.254-.574.298-.884.118a11.606 11.606 0 01-4.315-4.308c-.18-.312-.138-.627.118-.883.265-.265.529-.532.797-.794.24-.235.298-.502.18-.816a9.223 9.223 0 01-.496-2.001.684.684 0 00-.694-.607H2.558a.687.687 0 00-.684.764c.087.771.227 1.532.46 2.272 1.23 3.888 3.714 6.654 7.454 8.296 1.12.49 2.298.775 3.511.93.433.055.853-.246.832-.737-.013-.329-.002-.658-.002-.986z"/></svg>