<svg width="18" height="18" fill="none" xmlns="http://www.w3.org/2000/svg"><path d="M15.75 0H2.25A2.252 2.252 0 000 2.25v10.125a2.252 2.252 0 002.25 2.25h3.375v2.953a.42.42 0 00.675.338l4.388-3.29h5.062A2.252 2.252 0 0018 12.374V2.25A2.252 2.252 0 0015.75 0zm1.125 12.375a1.128 1.128 0 01-1.125 1.122H10.31l-.299.225-3.262 2.447v-2.672h-4.5a1.128 1.128 0 01-1.126-1.125V2.25A1.128 1.128 0 012.25 1.125h13.5a1.128 1.128 0 011.125 1.125v10.125z"/><path d="M8.368 8.925h1.355c0-1.259 1.824-1.42 1.824-3.158 0-1.227-1.045-1.94-2.613-1.94a3.394 3.394 0 00-2.891 1.3l1.034.672a2.012 2.012 0 011.74-.82c.82 0 1.333.404 1.333 1.002 0 1.067-1.782 1.365-1.782 2.944zm.683 2.549a.821.821 0 00.842-.832.814.814 0 00-.842-.822.816.816 0 00-.854.822.825.825 0 00.854.832z"/></svg>