<svg viewBox="0 0 13 12" xmlns="http://www.w3.org/2000/svg">
<path fill-rule="evenodd" clip-rule="evenodd" d="M0.8122 1.19775C1.09815 1.19775 1.32997 1.42451 1.32997 1.70424V4.41565H4.10177C4.38773 4.41565 4.61954 4.64241 4.61954 4.92213C4.61954 5.20186 4.38773 5.42862 4.10177 5.42862H0.8122C0.526246 5.42862 0.294434 5.20186 0.294434 4.92213V1.70424C0.294434 1.42451 0.526246 1.19775 0.8122 1.19775Z"/>
<path fill-rule="evenodd" clip-rule="evenodd" d="M6.0827 0.718526C7.25323 0.557428 8.44557 0.772818 9.48008 1.33224C10.5146 1.89167 11.3352 2.76482 11.8183 3.82014C12.3014 4.87546 12.4208 6.05578 12.1585 7.18326C11.8962 8.31073 11.2665 9.32428 10.3641 10.0712C9.46175 10.8181 8.33568 11.2579 7.15558 11.3244C5.97548 11.3908 4.80527 11.0803 3.82127 10.4396C2.83727 9.79885 2.09279 8.86267 1.69999 7.77208C1.60497 7.50825 1.74658 7.21902 2.01629 7.12607C2.28599 7.03312 2.58166 7.17165 2.67668 7.43547C2.99487 8.31893 3.59795 9.0773 4.39506 9.59631C5.19217 10.1153 6.14012 10.3669 7.09608 10.3131C8.05204 10.2592 8.96423 9.90296 9.6952 9.29791C10.4262 8.69286 10.9363 7.87182 11.1488 6.95849C11.3613 6.04516 11.2645 5.08902 10.8732 4.23414C10.4819 3.37925 9.8171 2.67194 8.97908 2.21877C8.14106 1.7656 7.17518 1.59112 6.22698 1.72162C5.27877 1.85212 4.3996 2.28053 3.72194 2.9423C3.71825 2.94591 3.7145 2.94946 3.71069 2.95296L1.16676 5.2913C0.958366 5.48285 0.630693 5.47288 0.434878 5.26903C0.239063 5.06518 0.249257 4.74464 0.457647 4.5531L2.99601 2.21988C3.83179 1.40609 4.91482 0.87926 6.0827 0.718526Z"/>
</svg>
