<svg width="16" height="16" xmlns="http://www.w3.org/2000/svg"><path d="M10.528 5.471a.346.346 0 00-.49 0L5.472 10.04a.346.346 0 00.49.49l4.567-4.568a.346.346 0 000-.49z"/><path fill-rule="evenodd" clip-rule="evenodd" d="M9.945 5.377a.48.48 0 01.678.678l-4.568 4.568a.478.478 0 11-.678-.678l4.568-4.568zm.583.095a.346.346 0 00-.49 0l-4.567 4.567a.346.346 0 00.49.49l4.567-4.568a.346.346 0 000-.49z"/><path d="M9.384 8.577c-.7 0-1.269.57-1.269 1.269 0 .7.57 1.269 1.269 1.269a1.27 1.27 0 000-2.538zm0 1.845a.577.577 0 11.001-1.154.577.577 0 01-.001 1.154z"/><path fill-rule="evenodd" clip-rule="evenodd" d="M7.915 9.846c0-.81.659-1.469 1.469-1.469s1.469.659 1.469 1.469a1.47 1.47 0 01-1.469 1.469 1.47 1.47 0 01-1.469-1.47zm1.092 0a.377.377 0 10.755-.001.377.377 0 00-.755 0zm-.892 0c0-.7.57-1.269 1.269-1.269.7 0 1.269.57 1.269 1.269 0 .7-.57 1.269-1.269 1.269-.7 0-1.269-.57-1.269-1.27zm.692 0a.577.577 0 101.155-.001.577.577 0 00-1.155 0z"/><path d="M6.469 5.09c-.7 0-1.269.57-1.269 1.269 0 .7.57 1.269 1.269 1.269.7 0 1.269-.57 1.269-1.269 0-.7-.57-1.269-1.27-1.269zm0 1.846A.577.577 0 116.47 5.78a.577.577 0 01-.001 1.155z"/><path fill-rule="evenodd" clip-rule="evenodd" d="M5 6.359c0-.81.659-1.469 1.469-1.469s1.469.659 1.469 1.469a1.47 1.47 0 01-1.47 1.469A1.47 1.47 0 015 6.359zm1.092 0a.377.377 0 10.755-.001.377.377 0 00-.755.001zm-.892 0c0-.7.57-1.269 1.269-1.269.7 0 1.269.57 1.269 1.269a1.27 1.27 0 01-2.538 0zm.692 0a.577.577 0 101.155-.001.577.577 0 00-1.155.001z"/><path fill-rule="evenodd" clip-rule="evenodd" d="M13.469 8.75a1.1 1.1 0 010-1.112l.27-.462a1.1 1.1 0 00-.508-1.564l-.49-.214a1.1 1.1 0 01-.654-.9l-.053-.533a1.1 1.1 0 00-1.33-.967l-.523.115a1.1 1.1 0 01-1.058-.344l-.356-.4a1.1 1.1 0 00-1.644 0l-.356.4a1.1 1.1 0 01-1.057.344l-.523-.115a1.1 1.1 0 00-1.33.967l-.053.533a1.1 1.1 0 01-.654.9l-.49.214a1.1 1.1 0 00-.509 1.564l.271.462a1.1 1.1 0 010 1.112l-.27.462a1.1 1.1 0 00.507 1.564l.491.215a1.1 1.1 0 01.654.9l.052.533a1.1 1.1 0 001.33.966l.524-.115a1.1 1.1 0 011.057.344l.356.4a1.1 1.1 0 001.644 0l.356-.4a1.1 1.1 0 011.058-.344l.523.115a1.1 1.1 0 001.33-.966l.053-.533a1.1 1.1 0 01.654-.9l.49-.215a1.1 1.1 0 00.508-1.564l-.27-.462zm.27.462l-.863.506a.1.1 0 01-.046.142l-.49.215a2.1 2.1 0 00-1.248 1.718l-.053.533a.1.1 0 01-.12.087l-.524-.114a2.1 2.1 0 00-2.02.656l-.355.4a.1.1 0 01-.15 0l-.355-.4a2.1 2.1 0 00-2.02-.656l-.523.114a.1.1 0 01-.12-.088l-.053-.532a2.1 2.1 0 00-1.248-1.718l-.49-.215a.1.1 0 01-.047-.142l.27-.462a2.1 2.1 0 000-2.123l-.27-.462a.1.1 0 01.046-.143l.49-.214A2.1 2.1 0 004.8 4.596l.052-.533a.1.1 0 01.121-.088l.523.115a2.1 2.1 0 002.02-.656l.356-.4a.1.1 0 01.149 0l.356.4a2.1 2.1 0 002.02.656l.522-.115a.1.1 0 01.121.088l.053.533a2.1 2.1 0 001.248 1.718l.49.214a.1.1 0 01.046.143l-.27.462a2.1 2.1 0 000 2.123l.27.462.863-.506z"/></svg>