<svg viewBox="0 0 26 32" xmlns="http://www.w3.org/2000/svg">
<path d="M13.0005 31.1353C12.9266 31.1353 12.854 31.1164 12.7895 31.0803C5.27251 26.8723 0.785156 20.1082 0.785156 12.9813V6.1943C0.785109 6.13471 0.797377 6.07576 0.82119 6.02114C0.845002 5.96652 0.879846 5.91741 0.923535 5.87689C0.967112 5.8361 1.01876 5.8049 1.07515 5.78531C1.13153 5.76572 1.1914 5.75817 1.25089 5.76316C6.2671 6.15235 9.99554 4.60554 12.6537 1.03884C12.6957 0.98776 12.7485 0.946622 12.8084 0.918379C12.8682 0.890136 12.9335 0.875488 12.9996 0.875488C13.0658 0.875488 13.1311 0.890136 13.1909 0.918379C13.2507 0.946622 13.3036 0.98776 13.3456 1.03884C16.0059 4.60554 19.7395 6.15149 24.7501 5.76316C24.8097 5.75856 24.8695 5.76634 24.9259 5.78601C24.9822 5.80567 25.0339 5.83679 25.0777 5.87742C25.1214 5.91804 25.1563 5.96728 25.1801 6.02204C25.2039 6.0768 25.216 6.13589 25.2159 6.19559V12.9813C25.1815 16.6096 24.0741 20.1465 22.0332 23.1465C19.7578 26.4483 16.7354 29.1664 13.2115 31.0799C13.1471 31.1161 13.0744 31.1352 13.0005 31.1353ZM1.65002 6.65657V12.9813C1.65002 19.7225 5.88786 26.1463 13.0005 30.206C16.3166 28.3695 19.1619 25.7892 21.3127 22.6678C23.2592 19.8096 24.3164 16.4392 24.351 12.9813V6.65657C19.4645 6.929 15.7382 5.40251 13.0005 2.0036C10.2636 5.40165 6.54127 6.929 1.65002 6.65657Z" fill="#001427"/>
<path d="M13.0005 28.1148C12.9184 28.1148 12.838 28.0914 12.7687 28.0473C6.80116 24.2532 3.37976 18.7617 3.37976 12.9814V8.82182C3.37959 8.71113 3.42187 8.6046 3.49789 8.52415C3.57391 8.4437 3.67789 8.39547 3.7884 8.38938C7.08831 8.28484 10.2465 7.02374 12.7108 4.82657C12.7902 4.75486 12.8935 4.71516 13.0005 4.71516C13.1075 4.71516 13.2108 4.75486 13.2902 4.82657C15.7542 7.02346 18.9119 8.28454 22.2113 8.38938C22.3218 8.39547 22.4258 8.4437 22.5018 8.52415C22.5779 8.6046 22.6201 8.71113 22.62 8.82182V12.9805C22.585 16.0977 21.6285 19.1349 19.871 21.7096C18.1198 24.2582 15.8593 26.4161 13.2323 28.0473C13.163 28.0914 13.0826 28.1148 13.0005 28.1148ZM4.24462 9.22787V12.9814C4.24462 18.3868 7.43165 23.5427 13.0005 27.1682C15.4294 25.6237 17.5217 23.6049 19.1519 21.2326C20.8149 18.7997 21.7212 15.9291 21.7564 12.9822V9.22873C18.5347 9.04161 15.4613 7.81124 13.0005 5.72344C10.5396 7.81093 7.46624 9.04099 4.24462 9.22787Z" fill="#001427"/>
<path d="M11.1738 19.0757C11.0592 19.0756 10.9492 19.0301 10.8681 18.949L8.37037 16.4512C8.2916 16.3697 8.24801 16.2604 8.249 16.1471C8.24998 16.0337 8.29546 15.9252 8.37564 15.845C8.45581 15.7649 8.56427 15.7194 8.67766 15.7184C8.79104 15.7174 8.90027 15.761 8.98183 15.8398L11.1738 18.0326L17.019 12.1866C17.1004 12.1055 17.2106 12.0601 17.3255 12.0603C17.4404 12.0605 17.5505 12.1063 17.6316 12.1877C17.7127 12.269 17.7581 12.3793 17.7579 12.4942C17.7577 12.609 17.7119 12.7191 17.6305 12.8002L11.4796 18.949C11.3985 19.0301 11.2885 19.0756 11.1738 19.0757Z" fill="#001427"/>
</svg>
