<svg width="24" height="24" fill="none" xmlns="http://www.w3.org/2000/svg"><path d="M13.271 12.005c.045.033.076.05.1.075 1.11 1.107 2.217 2.216 3.325 3.324.275.276.375.602.25.976a.915.915 0 01-1.5.366c-.088-.083-.172-.17-.257-.255l-3.11-3.113c-.025-.024-.043-.054-.087-.11-.03.048-.044.081-.067.105l-3.31 3.314c-.194.195-.42.317-.7.312a.868.868 0 01-.813-.51c-.165-.334-.127-.661.093-.963.035-.046.073-.088.114-.128l3.33-3.332a.575.575 0 01.075-.053l-.318-.318-3.099-3.101c-.396-.398-.39-.993.007-1.353a.91.91 0 011.254.023c.696.69 1.387 1.385 2.08 2.078l1.318 1.32.062.058c.019-.03.031-.064.055-.087 1.107-1.11 2.215-2.218 3.323-3.327.272-.27.595-.377.966-.258a.915.915 0 01.363 1.52c-1.116 1.122-2.234 2.241-3.354 3.358-.024.024-.053.043-.1.08z"/></svg>