<svg width="24" height="24" fill="none" xmlns="http://www.w3.org/2000/svg"><path d="M10.797 11.983c-.026-.018-.056-.032-.078-.053A17599.96 17599.96 0 016.271 7.48c-.327-.327-.361-.804-.085-1.155a.858.858 0 011.25-.1l.077.076 4.41 4.41a.769.769 0 01.06.081l.036.007c.018-.028.032-.06.056-.084 1.48-1.482 2.96-2.963 4.442-4.444.328-.328.803-.363 1.155-.087a.857.857 0 01.098 1.254 11933.83 11933.83 0 01-4.486 4.487.573.573 0 00-.09.096c.03.017.065.028.089.051l4.449 4.448c.323.324.357.8.084 1.15a.858.858 0 01-1.326.03l-4.409-4.41c-.024-.023-.044-.05-.074-.084l-.078.075a45501.56 45501.56 0 01-4.448 4.448c-.327.327-.805.36-1.156.084a.858.858 0 01-.027-1.323l4.421-4.42c.022-.022.052-.036.079-.053l-.001-.035z"/></svg>