<svg viewBox="-2 -1 16 16" fill="none" xmlns="http://www.w3.org/2000/svg">
<path d="M6.00658 7.19981C6.77413 7.19981 7.54168 7.2011 8.30923 7.19981C9.18623 7.19793 9.93559 7.5068 10.5367 8.15565C11.0647 8.72573 11.326 9.41057 11.3327 10.1925C11.3364 10.5931 11.3339 10.994 11.3327 11.3947C11.3327 11.7152 11.1078 11.9622 10.7881 11.9969C10.4989 12.0283 10.224 11.8189 10.1627 11.5172C10.1539 11.4652 10.1503 11.4125 10.1519 11.3597C10.1511 10.9781 10.1529 10.5965 10.1511 10.2151C10.1471 9.34794 9.58009 8.62853 8.74801 8.44192C8.61597 8.41403 8.48135 8.40061 8.34647 8.40189C6.7855 8.39915 5.22439 8.40462 3.66341 8.39828C2.80703 8.39483 2.1104 8.97873 1.92008 9.73644C1.88122 9.89946 1.86062 10.0664 1.85868 10.2341C1.84986 10.6229 1.85782 11.0117 1.85498 11.4005C1.85271 11.7162 1.63637 11.9569 1.32778 11.9949C0.999586 12.0353 0.683327 11.7776 0.677926 11.4406C0.669966 10.9466 0.655044 10.4502 0.690863 9.95848C0.760369 9.00278 1.20981 8.25299 1.98703 7.71041C2.48451 7.3631 3.04326 7.20182 3.6465 7.20067C4.43348 7.19884 5.22017 7.19856 6.00658 7.19981Z"/>
<path d="M6.00704 4.17261e-06C7.64277 0.0027401 8.96737 1.3481 8.96353 3.00276C8.95955 4.67225 7.63581 6.00177 5.98046 5.99903C4.36363 5.9963 3.04387 4.64662 3.04543 2.99729C3.04685 1.34032 4.37386 -0.00273176 6.00704 4.17261e-06ZM5.95117 4.80041C6.90123 4.8413 7.74028 4.05566 7.78079 3.09175C7.82343 2.07024 7.0536 1.26515 6.12501 1.20367C5.12435 1.13728 4.2792 1.90925 4.22973 2.9047C4.17927 3.92146 4.94256 4.75707 5.95117 4.80041Z"/>
</svg>
