<svg width="24" height="24" fill="none" xmlns="http://www.w3.org/2000/svg"><path d="M12.008 13.8c1.151 0 2.303.002 3.454 0 1.315-.003 2.44.46 3.341 1.433.792.856 1.184 1.883 1.194 3.056.006.6.002 1.202 0 1.803a.89.89 0 01-.817.903c-.434.047-.846-.267-.938-.72a1.2 1.2 0 01-.016-.235c-.001-.573.001-1.145-.001-1.717-.006-1.301-.857-2.38-2.105-2.66a2.784 2.784 0 00-.602-.06c-2.342-.004-4.683.004-7.025-.006a2.676 2.676 0 00-2.615 2.008c-.058.244-.089.495-.092.746-.013.583-.001 1.166-.005 1.75a.88.88 0 01-.791.891c-.493.061-.967-.326-.975-.831-.012-.741-.034-1.486.02-2.223.104-1.434.778-2.558 1.944-3.372.746-.521 1.584-.763 2.489-.765 1.18-.003 2.36-.003 3.54-.001zM12.009 3c2.453.004 4.44 2.022 4.434 4.504-.006 2.504-1.991 4.499-4.474 4.495-2.426-.005-4.405-2.03-4.403-4.503C7.568 5.01 9.56 2.996 12.01 3zm-.084 7.2c1.425.062 2.683-1.117 2.744-2.562.064-1.533-1.09-2.74-2.483-2.832-1.501-.1-2.77 1.058-2.843 2.551a2.684 2.684 0 002.582 2.844z"/></svg>