<svg width="24" height="24" fill="none" xmlns="http://www.w3.org/2000/svg"><path d="M11.099 7.061v3.099c0 .557-.38.936-.94.936h-6.22c-.557 0-.939-.38-.939-.937V3.942C3 3.38 3.381 3 3.946 3h6.209c.565 0 .945.379.945.943l-.001 3.118zM4.804 4.8v4.492h4.491V4.8H4.804zM13.843 11.096c-.558 0-.937-.38-.937-.939V3.94c0-.558.38-.94.937-.94h6.228c.551 0 .933.383.933.935v6.226c0 .551-.382.935-.932.935h-6.23zm5.357-1.8V4.802h-4.492v4.492H19.2zM7.05 12.903h3.119c.545 0 .93.383.93.927v6.246c0 .537-.386.923-.925.923H3.926c-.539 0-.925-.385-.925-.922v-6.258c0-.53.388-.917.92-.917l3.129.001zM4.8 19.196h4.497v-4.49H4.801v4.49zM16.952 21h-3.13a.89.89 0 01-.916-.921v-6.257a.89.89 0 01.918-.92h6.267c.52 0 .912.387.913.906v6.285c0 .519-.392.904-.913.906-1.046.001-2.092.002-3.139 0zm2.249-1.801v-4.492h-4.49V19.2h4.49z"/></svg>