<svg viewBox="0 0 18 18" xmlns="http://www.w3.org/2000/svg">
<path d="M8.99084 17.496C6.80804 17.496 4.62505 17.4857 2.44206 17.4999C1.09419 17.5089 0.129042 16.4451 0.013542 15.2331C-0.0404335 14.6658 0.0665737 14.1354 0.341169 13.6424C2.5485 9.67746 4.75691 5.71308 6.96638 1.74921C7.38026 1.00645 8.00211 0.562114 8.83552 0.506207C9.78387 0.442509 10.508 0.871063 11.004 1.69973C11.2665 2.13822 11.5049 2.5919 11.754 3.03896C13.7209 6.57038 15.6877 10.102 17.6545 13.6338C18.3305 14.8476 17.9853 16.3894 16.8743 17.1207C16.4846 17.3774 16.0571 17.4957 15.596 17.4955C13.3944 17.4953 11.1926 17.4955 8.99084 17.496ZM8.99443 15.8073C11.1865 15.8073 13.3786 15.8064 15.5706 15.8046C15.6959 15.8062 15.8204 15.7839 15.9378 15.7386C16.3872 15.5516 16.5644 14.9804 16.3194 14.5273C16.1356 14.1874 15.9442 13.8522 15.7565 13.5144C13.7381 9.89064 11.7195 6.26708 9.70064 2.64372C9.65531 2.55821 9.59879 2.47956 9.53268 2.40996C9.15522 2.03186 8.58055 2.13725 8.30596 2.63164C7.14693 4.71195 5.98828 6.79245 4.83001 8.87315C3.78887 10.7432 2.74736 12.6126 1.70547 14.4814C1.6111 14.6491 1.556 14.8256 1.57336 15.0194C1.61846 15.5011 1.94779 15.8062 2.41904 15.8062C4.61065 15.8072 6.80244 15.8076 8.99443 15.8073Z"/>
<path d="M9.78648 8.20304C9.78648 8.75782 9.78799 9.31339 9.78648 9.86739C9.78497 10.2739 9.54114 10.6127 9.19067 10.7039C8.74547 10.8194 8.2929 10.5032 8.22817 10.0302C8.21975 9.97252 8.21527 9.91426 8.21477 9.8559C8.21402 8.74633 8.21402 7.63677 8.21477 6.5272C8.21477 6.11306 8.45653 5.77314 8.81076 5.68119C9.25578 5.56548 9.70853 5.88164 9.77327 6.35461C9.78242 6.42205 9.78696 6.49007 9.78686 6.55817C9.78736 7.10659 9.78724 7.65488 9.78648 8.20304Z"/>
<path d="M8.99699 12.4215C9.43106 12.4202 9.78606 12.8008 9.78662 13.2664C9.78719 13.7319 9.43144 14.1134 8.99813 14.1126C8.56878 14.1126 8.21756 13.7358 8.2134 13.2726C8.20925 12.8094 8.56425 12.4229 8.99699 12.4215Z"/>
</svg>
