<svg width="36" height="24" fill="none" xmlns="http://www.w3.org/2000/svg"><path d="M0 0h36v24H0V0z" fill="#DC0000"/><path d="M4.5 4l.735 1.489 1.643.238-1.188 1.16.28 1.636L4.5 7.75l-1.469.773.28-1.637-1.188-1.159 1.643-.238L4.501 4zM9.367 2l-.044.663.522.41-.644.165-.23.623-.354-.562-.664-.026.425-.51-.18-.64.616.246L9.367 2zM10.867 4.5l-.044.663.522.41-.644.165-.23.623-.354-.562-.664-.026.425-.51-.18-.64.616.246.553-.369zM10.867 7.5l-.044.663.522.41-.644.165-.23.623-.354-.562-.664-.026.425-.51-.18-.64.616.246.553-.369zM8.867 9.5l-.044.663.522.41-.644.165-.23.623-.354-.562-.664-.026.425-.51-.18-.64.616.246.553-.369z" fill="#FFEB41"/></svg>