<svg width="19" height="20" fill="none" xmlns="http://www.w3.org/2000/svg"><path d="M19 5.485c-.05.231-.103.463-.152.694l-.998 4.854c-.077.375-.142.752-.24 1.121-.261.979-1.183 1.681-2.222 1.694-.86.01-1.722.003-2.583.003H6.953c-1.11 0-2.039-.67-2.321-1.689-.079-.283-.105-.581-.146-.874-.095-.677-.185-1.356-.277-2.034l-.275-2.033-.276-2.034-.276-2.034c-.008-.061-.014-.123-.024-.183-.068-.413-.384-.68-.815-.68-.557-.003-1.114 0-1.672 0-.47 0-.73-.193-.86-.638 0-.005-.007-.01-.011-.014v-.24c.008-.023.018-.044.025-.067A.782.782 0 01.597.774C.62.767.642.758.665.75h2.109c.068.012.135.026.203.037.992.151 1.818.983 1.944 1.955.074.574.154 1.148.232 1.722.02.141.02.141.171.141h12.818c.45 0 .731.212.842.636a.097.097 0 00.014.024l.002.22zM5.388 6.15l.013.13.24 1.749.481 3.573c.06.441.378.712.834.712h8.34c.42 0 .731-.247.814-.647.368-1.787.736-3.574 1.102-5.362.01-.05.016-.1.024-.154L5.388 6.15zm.75 13.1c-.193-.043-.391-.07-.579-.131-1.01-.329-1.67-1.306-1.59-2.341.085-1.097.912-1.966 2.027-2.13 1.302-.19 2.524.716 2.691 1.995a2.248 2.248 0 01-.485 1.722 2.352 2.352 0 01-.711.591c-.275.15-.578.244-.89.277a.423.423 0 00-.064.017h-.399zm.988-2.314a.753.753 0 00-.227-.553.794.794 0 00-.564-.231.81.81 0 00-.564.23.77.77 0 00-.228.552c-.001.429.36.78.797.776a.808.808 0 00.556-.23.767.767 0 00.23-.544zm8.511 2.314c-.193-.043-.392-.07-.579-.131-1.01-.328-1.67-1.306-1.59-2.341.085-1.097.912-1.966 2.027-2.13 1.302-.19 2.524.716 2.691 1.995a2.248 2.248 0 01-.485 1.722 2.353 2.353 0 01-.711.591c-.275.15-.578.244-.891.277a.423.423 0 00-.063.017h-.399zm-.594-2.311c0 .204.084.4.232.544a.806.806 0 00.558.227.787.787 0 00.793-.779.788.788 0 00-.796-.767.806.806 0 00-.557.23.765.765 0 00-.23.545z" fill="#001427"/></svg>