<svg width="16" height="16" fill="none" xmlns="http://www.w3.org/2000/svg"><path d="M11.767 10.836c.03.02.06.044.087.069l3.204 3.296c.307.316.311.787.013 1.086a.715.715 0 01-1.005.01c-.057-.055-.111-.113-.167-.17l-3.075-3.164a.822.822 0 01-.063-.085c-1.607 1.236-3.376 1.656-5.315 1.188-1.513-.366-2.723-1.23-3.615-2.539-1.797-2.636-1.398-6.236.916-8.38C5.077-.01 8.592-.05 10.952 2.043c2.452 2.172 2.92 6.04.815 8.794zm-.12-3.958c.006-2.69-2.113-4.873-4.736-4.88-2.615-.007-4.737 2.173-4.744 4.873-.007 2.689 2.112 4.873 4.736 4.879 2.613.007 4.736-2.173 4.743-4.872z" fill="#D0D6DC"/></svg>