<svg width="12" height="12" xmlns="http://www.w3.org/2000/svg"><path d="M4.797 5.983c-.026-.018-.056-.032-.077-.053L.27 1.48C-.055 1.154-.09.677.187.326a.858.858 0 011.25-.1l.077.076 4.41 4.41a.757.757 0 01.06.081l.036.007c.018-.028.032-.06.056-.084 1.48-1.482 2.96-2.963 4.442-4.444.328-.328.803-.363 1.155-.087a.857.857 0 01.098 1.254 12417.547 12417.547 0 01-4.486 4.487.569.569 0 00-.09.096c.03.017.065.028.089.051l4.449 4.448c.323.324.357.8.084 1.15a.858.858 0 01-1.326.03l-4.409-4.41c-.024-.023-.044-.05-.074-.084l-.078.075-4.448 4.448c-.327.327-.805.36-1.156.084a.858.858 0 01-.027-1.323L4.72 6.07c.022-.022.052-.036.079-.053l-.001-.035z"/></svg>