<svg width="72" height="72" viewBox="0 0 72 72" fill="none" xmlns="http://www.w3.org/2000/svg">
<circle cx="36" cy="36" r="36" fill="#DEE5EC"/>
<circle cx="36" cy="36" r="33" fill="#F3F5F6"/>
<mask id="mask0" mask-type="alpha" maskUnits="userSpaceOnUse" x="3" y="3" width="66" height="66">
<g clip-path="url(#clip0)">
<path d="M44.7774 71.9482C44.5086 71.9482 44.2508 71.8414 44.0607 71.6513C43.8706 71.4612 43.7639 71.2034 43.7639 70.9346V17.0948L30.9186 11.7059L20.1318 15.9495V70.9346C20.1318 71.2034 20.025 71.4612 19.8349 71.6513C19.6448 71.8414 19.3871 71.9482 19.1182 71.9482C18.8494 71.9482 18.5917 71.8414 18.4016 71.6513C18.2115 71.4612 18.1047 71.2034 18.1047 70.9346V15.2583C18.1047 15.0547 18.1659 14.8557 18.2805 14.6874C18.3951 14.5191 18.5578 14.3892 18.7473 14.3147L30.5598 9.66775C30.8055 9.57091 31.0794 9.57382 31.323 9.67586L45.1696 15.4863C45.3537 15.5636 45.5108 15.6935 45.6214 15.8597C45.7319 16.026 45.7909 16.2212 45.7909 16.4208V70.9346C45.7909 71.2034 45.6841 71.4612 45.494 71.6513C45.304 71.8414 45.0462 71.9482 44.7774 71.9482Z" fill="#F3F5F6"/>
<path d="M30.9308 71.9475C30.662 71.9475 30.4042 71.8407 30.2141 71.6507C30.024 71.4606 29.9172 71.2028 29.9172 70.934V10.6107C29.9172 10.3419 30.024 10.0841 30.2141 9.89402C30.4042 9.70395 30.662 9.59717 30.9308 9.59717C31.1996 9.59717 31.4573 9.70395 31.6474 9.89402C31.8375 10.0841 31.9443 10.3419 31.9443 10.6107V70.934C31.9443 71.2028 31.8375 71.4606 31.6474 71.6507C31.4573 71.8407 31.1996 71.9475 30.9308 71.9475Z" fill="#F3F5F6"/>
<path d="M61.1406 71.9483C60.8718 71.9483 60.614 71.8415 60.424 71.6514C60.2339 71.4613 60.1271 71.2036 60.1271 70.9347V39.08L50.217 33.3141H44.7774C44.5086 33.3141 44.2508 33.2074 44.0608 33.0173C43.8707 32.8272 43.7639 32.5694 43.7639 32.3006C43.7639 32.0318 43.8707 31.774 44.0608 31.584C44.2508 31.3939 44.5086 31.2871 44.7774 31.2871H50.4906C50.6687 31.2877 50.8435 31.3353 50.9974 31.4249L61.6484 37.6216C61.8022 37.7103 61.9299 37.838 62.0188 37.9917C62.1078 38.1453 62.1548 38.3197 62.1551 38.4972V70.9297C62.1558 71.0633 62.1301 71.1957 62.0794 71.3193C62.0287 71.4429 61.954 71.5553 61.8597 71.65C61.7654 71.7446 61.6534 71.8197 61.53 71.8709C61.4065 71.9221 61.2742 71.9484 61.1406 71.9483Z" fill="#F3F5F6"/>
<path d="M50.4906 71.9483C50.2218 71.9483 49.964 71.8415 49.7739 71.6514C49.5838 71.4613 49.4771 71.2036 49.4771 70.9347V32.3006C49.4771 32.0318 49.5838 31.774 49.7739 31.584C49.964 31.3939 50.2218 31.2871 50.4906 31.2871C50.7594 31.2871 51.0172 31.3939 51.2072 31.584C51.3973 31.774 51.5041 32.0318 51.5041 32.3006V70.9347C51.5041 71.2036 51.3973 71.4613 51.2072 71.6514C51.0172 71.8415 50.7594 71.9483 50.4906 71.9483Z" fill="#F3F5F6"/>
<path d="M-1.7006 71.9479C-1.9694 71.9479 -2.22719 71.8411 -2.41726 71.651C-2.60733 71.461 -2.71411 71.2032 -2.71411 70.9344V39.3685C-2.71411 39.0997 -2.60733 38.8419 -2.41726 38.6518C-2.22719 38.4618 -1.9694 38.355 -1.7006 38.355H19.118C19.3868 38.355 19.6446 38.4618 19.8346 38.6518C20.0247 38.8419 20.1315 39.0997 20.1315 39.3685C20.1315 39.6373 20.0247 39.8951 19.8346 40.0852C19.6446 40.2752 19.3868 40.382 19.118 40.382H-0.687084V70.9344C-0.687084 71.2032 -0.793865 71.461 -0.983936 71.651C-1.17401 71.8411 -1.4318 71.9479 -1.7006 71.9479Z" fill="#F3F5F6"/>
<path d="M3.87914 44.2751H1.72543C1.45663 44.2751 1.19884 44.1683 1.00876 43.9782C0.818694 43.7881 0.711914 43.5304 0.711914 43.2616C0.711914 42.9928 0.818694 42.735 1.00876 42.5449C1.19884 42.3548 1.45663 42.248 1.72543 42.248H3.87914C4.14794 42.248 4.40573 42.3548 4.5958 42.5449C4.78588 42.735 4.89266 42.9928 4.89266 43.2616C4.89266 43.5304 4.78588 43.7881 4.5958 43.9782C4.40573 44.1683 4.14794 44.2751 3.87914 44.2751Z" fill="#F3F5F6"/>
<path d="M9.7869 44.2751H7.63217C7.36337 44.2751 7.10557 44.1683 6.9155 43.9782C6.72543 43.7881 6.61865 43.5304 6.61865 43.2616C6.61865 42.9928 6.72543 42.735 6.9155 42.5449C7.10557 42.3548 7.36337 42.248 7.63217 42.248H9.7869C10.0557 42.248 10.3135 42.3548 10.5036 42.5449C10.6936 42.735 10.8004 42.9928 10.8004 43.2616C10.8004 43.5304 10.6936 43.7881 10.5036 43.9782C10.3135 44.1683 10.0557 44.2751 9.7869 44.2751Z" fill="#F3F5F6"/>
<path d="M15.6926 44.2751H13.5389C13.2701 44.2751 13.0123 44.1683 12.8222 43.9782C12.6322 43.7881 12.5254 43.5304 12.5254 43.2616C12.5254 42.9928 12.6322 42.735 12.8222 42.5449C13.0123 42.3548 13.2701 42.248 13.5389 42.248H15.6926C15.9614 42.248 16.2192 42.3548 16.4093 42.5449C16.5994 42.735 16.7061 42.9928 16.7061 43.2616C16.7061 43.5304 16.5994 43.7881 16.4093 43.9782C16.2192 44.1683 15.9614 44.2751 15.6926 44.2751Z" fill="#F3F5F6"/>
<path d="M3.87914 49.0314H1.72543C1.45663 49.0314 1.19884 48.9246 1.00876 48.7346C0.818694 48.5445 0.711914 48.2867 0.711914 48.0179C0.711914 47.7491 0.818694 47.4913 1.00876 47.3012C1.19884 47.1112 1.45663 47.0044 1.72543 47.0044H3.87914C4.14794 47.0044 4.40573 47.1112 4.5958 47.3012C4.78588 47.4913 4.89266 47.7491 4.89266 48.0179C4.89266 48.2867 4.78588 48.5445 4.5958 48.7346C4.40573 48.9246 4.14794 49.0314 3.87914 49.0314Z" fill="#F3F5F6"/>
<path d="M9.7869 49.0314H7.63217C7.36337 49.0314 7.10557 48.9246 6.9155 48.7346C6.72543 48.5445 6.61865 48.2867 6.61865 48.0179C6.61865 47.7491 6.72543 47.4913 6.9155 47.3012C7.10557 47.1112 7.36337 47.0044 7.63217 47.0044H9.7869C10.0557 47.0044 10.3135 47.1112 10.5036 47.3012C10.6936 47.4913 10.8004 47.7491 10.8004 48.0179C10.8004 48.2867 10.6936 48.5445 10.5036 48.7346C10.3135 48.9246 10.0557 49.0314 9.7869 49.0314Z" fill="#F3F5F6"/>
<path d="M15.6926 49.0314H13.5389C13.2701 49.0314 13.0123 48.9246 12.8222 48.7346C12.6322 48.5445 12.5254 48.2867 12.5254 48.0179C12.5254 47.7491 12.6322 47.4913 12.8222 47.3012C13.0123 47.1112 13.2701 47.0044 13.5389 47.0044H15.6926C15.9614 47.0044 16.2192 47.1112 16.4093 47.3012C16.5994 47.4913 16.7061 47.7491 16.7061 48.0179C16.7061 48.2867 16.5994 48.5445 16.4093 48.7346C16.2192 48.9246 15.9614 49.0314 15.6926 49.0314Z" fill="#F3F5F6"/>
<path d="M3.87914 53.7863H1.72543C1.45663 53.7863 1.19884 53.6795 1.00876 53.4895C0.818694 53.2994 0.711914 53.0416 0.711914 52.7728C0.711914 52.504 0.818694 52.2462 1.00876 52.0561C1.19884 51.8661 1.45663 51.7593 1.72543 51.7593H3.87914C4.14794 51.7593 4.40573 51.8661 4.5958 52.0561C4.78588 52.2462 4.89266 52.504 4.89266 52.7728C4.89266 53.0416 4.78588 53.2994 4.5958 53.4895C4.40573 53.6795 4.14794 53.7863 3.87914 53.7863Z" fill="#F3F5F6"/>
<path d="M9.7869 53.7863H7.63217C7.36337 53.7863 7.10557 53.6795 6.9155 53.4895C6.72543 53.2994 6.61865 53.0416 6.61865 52.7728C6.61865 52.504 6.72543 52.2462 6.9155 52.0561C7.10557 51.8661 7.36337 51.7593 7.63217 51.7593H9.7869C10.0557 51.7593 10.3135 51.8661 10.5036 52.0561C10.6936 52.2462 10.8004 52.504 10.8004 52.7728C10.8004 53.0416 10.6936 53.2994 10.5036 53.4895C10.3135 53.6795 10.0557 53.7863 9.7869 53.7863Z" fill="#F3F5F6"/>
<path d="M15.6926 53.7863H13.5389C13.2701 53.7863 13.0123 53.6795 12.8222 53.4895C12.6322 53.2994 12.5254 53.0416 12.5254 52.7728C12.5254 52.504 12.6322 52.2462 12.8222 52.0561C13.0123 51.8661 13.2701 51.7593 13.5389 51.7593H15.6926C15.9614 51.7593 16.2192 51.8661 16.4093 52.0561C16.5994 52.2462 16.7061 52.504 16.7061 52.7728C16.7061 53.0416 16.5994 53.2994 16.4093 53.4895C16.2192 53.6795 15.9614 53.7863 15.6926 53.7863Z" fill="#F3F5F6"/>
<path d="M3.87914 58.5436H1.72543C1.45663 58.5436 1.19884 58.4369 1.00876 58.2468C0.818694 58.0567 0.711914 57.7989 0.711914 57.5301C0.711914 57.2613 0.818694 57.0035 1.00876 56.8135C1.19884 56.6234 1.45663 56.5166 1.72543 56.5166H3.87914C4.14794 56.5166 4.40573 56.6234 4.5958 56.8135C4.78588 57.0035 4.89266 57.2613 4.89266 57.5301C4.89266 57.7989 4.78588 58.0567 4.5958 58.2468C4.40573 58.4369 4.14794 58.5436 3.87914 58.5436Z" fill="#F3F5F6"/>
<path d="M9.7869 58.5436H7.63217C7.36337 58.5436 7.10557 58.4369 6.9155 58.2468C6.72543 58.0567 6.61865 57.7989 6.61865 57.5301C6.61865 57.2613 6.72543 57.0035 6.9155 56.8135C7.10557 56.6234 7.36337 56.5166 7.63217 56.5166H9.7869C10.0557 56.5166 10.3135 56.6234 10.5036 56.8135C10.6936 57.0035 10.8004 57.2613 10.8004 57.5301C10.8004 57.7989 10.6936 58.0567 10.5036 58.2468C10.3135 58.4369 10.0557 58.5436 9.7869 58.5436Z" fill="#F3F5F6"/>
<path d="M15.6926 58.5436H13.5389C13.2701 58.5436 13.0123 58.4369 12.8222 58.2468C12.6322 58.0567 12.5254 57.7989 12.5254 57.5301C12.5254 57.2613 12.6322 57.0035 12.8222 56.8135C13.0123 56.6234 13.2701 56.5166 13.5389 56.5166H15.6926C15.9614 56.5166 16.2192 56.6234 16.4093 56.8135C16.5994 57.0035 16.7061 57.2613 16.7061 57.5301C16.7061 57.7989 16.5994 58.0567 16.4093 58.2468C16.2192 58.4369 15.9614 58.5436 15.6926 58.5436Z" fill="#F3F5F6"/>
<path d="M3.87914 63.3H1.72543C1.45663 63.3 1.19884 63.1932 1.00876 63.0031C0.818694 62.8131 0.711914 62.5553 0.711914 62.2865C0.711914 62.0177 0.818694 61.7599 1.00876 61.5698C1.19884 61.3797 1.45663 61.2729 1.72543 61.2729H3.87914C4.14794 61.2729 4.40573 61.3797 4.5958 61.5698C4.78588 61.7599 4.89266 62.0177 4.89266 62.2865C4.89266 62.5553 4.78588 62.8131 4.5958 63.0031C4.40573 63.1932 4.14794 63.3 3.87914 63.3Z" fill="#F3F5F6"/>
<path d="M9.7869 63.3H7.63217C7.36337 63.3 7.10557 63.1932 6.9155 63.0031C6.72543 62.8131 6.61865 62.5553 6.61865 62.2865C6.61865 62.0177 6.72543 61.7599 6.9155 61.5698C7.10557 61.3797 7.36337 61.2729 7.63217 61.2729H9.7869C10.0557 61.2729 10.3135 61.3797 10.5036 61.5698C10.6936 61.7599 10.8004 62.0177 10.8004 62.2865C10.8004 62.5553 10.6936 62.8131 10.5036 63.0031C10.3135 63.1932 10.0557 63.3 9.7869 63.3Z" fill="#F3F5F6"/>
<path d="M15.6926 63.3H13.5389C13.2701 63.3 13.0123 63.1932 12.8222 63.0031C12.6322 62.8131 12.5254 62.5553 12.5254 62.2865C12.5254 62.0177 12.6322 61.7599 12.8222 61.5698C13.0123 61.3797 13.2701 61.2729 13.5389 61.2729H15.6926C15.9614 61.2729 16.2192 61.3797 16.4093 61.5698C16.5994 61.7599 16.7061 62.0177 16.7061 62.2865C16.7061 62.5553 16.5994 62.8131 16.4093 63.0031C16.2192 63.1932 15.9614 63.3 15.6926 63.3Z" fill="#F3F5F6"/>
<path d="M3.87914 68.0563H1.72543C1.45663 68.0563 1.19884 67.9496 1.00876 67.7595C0.818694 67.5694 0.711914 67.3116 0.711914 67.0428C0.711914 66.774 0.818694 66.5162 1.00876 66.3261C1.19884 66.1361 1.45663 66.0293 1.72543 66.0293H3.87914C4.14794 66.0293 4.40573 66.1361 4.5958 66.3261C4.78588 66.5162 4.89266 66.774 4.89266 67.0428C4.89266 67.3116 4.78588 67.5694 4.5958 67.7595C4.40573 67.9496 4.14794 68.0563 3.87914 68.0563Z" fill="#F3F5F6"/>
<path d="M9.7869 68.0563H7.63217C7.36337 68.0563 7.10557 67.9496 6.9155 67.7595C6.72543 67.5694 6.61865 67.3116 6.61865 67.0428C6.61865 66.774 6.72543 66.5162 6.9155 66.3261C7.10557 66.1361 7.36337 66.0293 7.63217 66.0293H9.7869C10.0557 66.0293 10.3135 66.1361 10.5036 66.3261C10.6936 66.5162 10.8004 66.774 10.8004 67.0428C10.8004 67.3116 10.6936 67.5694 10.5036 67.7595C10.3135 67.9496 10.0557 68.0563 9.7869 68.0563Z" fill="#F3F5F6"/>
<path d="M15.6926 68.0563H13.5389C13.2701 68.0563 13.0123 67.9496 12.8222 67.7595C12.6322 67.5694 12.5254 67.3116 12.5254 67.0428C12.5254 66.774 12.6322 66.5162 12.8222 66.3261C13.0123 66.1361 13.2701 66.0293 13.5389 66.0293H15.6926C15.9614 66.0293 16.2192 66.1361 16.4093 66.3261C16.5994 66.5162 16.7061 66.774 16.7061 67.0428C16.7061 67.3116 16.5994 67.5694 16.4093 67.7595C16.2192 67.9496 15.9614 68.0563 15.6926 68.0563Z" fill="#F3F5F6"/>
<path d="M27.3582 20.5328C27.0894 20.5328 26.8316 20.426 26.6416 20.2359C26.4515 20.0459 26.3447 19.7881 26.3447 19.5193V17.6068C26.3447 17.338 26.4515 17.0802 26.6416 16.8901C26.8316 16.7 27.0894 16.5933 27.3582 16.5933C27.627 16.5933 27.8848 16.7 28.0749 16.8901C28.265 17.0802 28.3717 17.338 28.3717 17.6068V19.5193C28.3717 19.7881 28.265 20.0459 28.0749 20.2359C27.8848 20.426 27.627 20.5328 27.3582 20.5328Z" fill="#F3F5F6"/>
<path d="M22.7364 21.711C22.4676 21.711 22.2098 21.6042 22.0197 21.4142C21.8297 21.2241 21.7229 20.9663 21.7229 20.6975V18.785C21.7229 18.5162 21.8297 18.2584 22.0197 18.0683C22.2098 17.8783 22.4676 17.7715 22.7364 17.7715C23.0052 17.7715 23.263 17.8783 23.4531 18.0683C23.6431 18.2584 23.7499 18.5162 23.7499 18.785V20.6975C23.7499 20.9663 23.6431 21.2241 23.4531 21.4142C23.263 21.6042 23.0052 21.711 22.7364 21.711Z" fill="#F3F5F6"/>
<path d="M27.3582 28.1563C27.0894 28.1563 26.8316 28.0495 26.6416 27.8595C26.4515 27.6694 26.3447 27.4116 26.3447 27.1428V25.2303C26.3447 24.9615 26.4515 24.7037 26.6416 24.5136C26.8316 24.3236 27.0894 24.2168 27.3582 24.2168C27.627 24.2168 27.8848 24.3236 28.0749 24.5136C28.265 24.7037 28.3717 24.9615 28.3717 25.2303V27.1428C28.3717 27.4116 28.265 27.6694 28.0749 27.8595C27.8848 28.0495 27.627 28.1563 27.3582 28.1563Z" fill="#F3F5F6"/>
<path d="M22.7364 29.335C22.4676 29.335 22.2098 29.2283 22.0197 29.0382C21.8297 28.8481 21.7229 28.5903 21.7229 28.3215V26.409C21.7229 26.1402 21.8297 25.8824 22.0197 25.6924C22.2098 25.5023 22.4676 25.3955 22.7364 25.3955C23.0052 25.3955 23.263 25.5023 23.4531 25.6924C23.6431 25.8824 23.7499 26.1402 23.7499 26.409V28.3215C23.7499 28.5903 23.6431 28.8481 23.4531 29.0382C23.263 29.2283 23.0052 29.335 22.7364 29.335Z" fill="#F3F5F6"/>
<path d="M27.3582 35.7834C27.0894 35.7834 26.8316 35.6766 26.6416 35.4866C26.4515 35.2965 26.3447 35.0387 26.3447 34.7699V32.8534C26.3447 32.5846 26.4515 32.3268 26.6416 32.1367C26.8316 31.9466 27.0894 31.8398 27.3582 31.8398C27.627 31.8398 27.8848 31.9466 28.0749 32.1367C28.265 32.3268 28.3717 32.5846 28.3717 32.8534V34.7699C28.3717 35.0387 28.265 35.2965 28.0749 35.4866C27.8848 35.6766 27.627 35.7834 27.3582 35.7834Z" fill="#F3F5F6"/>
<path d="M22.7364 36.9591C22.4676 36.9591 22.2098 36.8523 22.0197 36.6622C21.8297 36.4721 21.7229 36.2143 21.7229 35.9455V34.033C21.7229 33.7642 21.8297 33.5065 22.0197 33.3164C22.2098 33.1263 22.4676 33.0195 22.7364 33.0195C23.0052 33.0195 23.263 33.1263 23.4531 33.3164C23.6431 33.5065 23.7499 33.7642 23.7499 34.033V35.9455C23.7499 36.2143 23.6431 36.4721 23.4531 36.6622C23.263 36.8523 23.0052 36.9591 22.7364 36.9591Z" fill="#F3F5F6"/>
<path d="M27.3582 43.4019C27.0894 43.4019 26.8316 43.2952 26.6416 43.1051C26.4515 42.915 26.3447 42.6572 26.3447 42.3884V40.4759C26.3447 40.2071 26.4515 39.9493 26.6416 39.7593C26.8316 39.5692 27.0894 39.4624 27.3582 39.4624C27.627 39.4624 27.8848 39.5692 28.0749 39.7593C28.265 39.9493 28.3717 40.2071 28.3717 40.4759V42.3884C28.3717 42.6572 28.265 42.915 28.0749 43.1051C27.8848 43.2952 27.627 43.4019 27.3582 43.4019Z" fill="#F3F5F6"/>
<path d="M22.7364 44.5806C22.4676 44.5806 22.2098 44.4738 22.0197 44.2838C21.8297 44.0937 21.7229 43.8359 21.7229 43.5671V41.6546C21.7229 41.3858 21.8297 41.128 22.0197 40.938C22.2098 40.7479 22.4676 40.6411 22.7364 40.6411C23.0052 40.6411 23.263 40.7479 23.4531 40.938C23.6431 41.128 23.7499 41.3858 23.7499 41.6546V43.5671C23.7499 43.8359 23.6431 44.0937 23.4531 44.2838C23.263 44.4738 23.0052 44.5806 22.7364 44.5806Z" fill="#F3F5F6"/>
<path d="M27.3582 51.0259C27.0894 51.0259 26.8316 50.9192 26.6416 50.7291C26.4515 50.539 26.3447 50.2812 26.3447 50.0124V48.0999C26.3447 47.8311 26.4515 47.5733 26.6416 47.3833C26.8316 47.1932 27.0894 47.0864 27.3582 47.0864C27.627 47.0864 27.8848 47.1932 28.0749 47.3833C28.265 47.5733 28.3717 47.8311 28.3717 48.0999V50.0124C28.3717 50.2812 28.265 50.539 28.0749 50.7291C27.8848 50.9192 27.627 51.0259 27.3582 51.0259Z" fill="#F3F5F6"/>
<path d="M22.7364 52.2021C22.4676 52.2021 22.2098 52.0954 22.0197 51.9053C21.8297 51.7152 21.7229 51.4574 21.7229 51.1886V49.2782C21.7229 49.0094 21.8297 48.7516 22.0197 48.5615C22.2098 48.3714 22.4676 48.2646 22.7364 48.2646C23.0052 48.2646 23.263 48.3714 23.4531 48.5615C23.6431 48.7516 23.7499 49.0094 23.7499 49.2782V51.1886C23.7499 51.4574 23.6431 51.7152 23.4531 51.9053C23.263 52.0954 23.0052 52.2021 22.7364 52.2021Z" fill="#F3F5F6"/>
<path d="M27.3582 58.6495C27.0894 58.6495 26.8316 58.5427 26.6416 58.3526C26.4515 58.1626 26.3447 57.9048 26.3447 57.636V55.7235C26.3447 55.4547 26.4515 55.1969 26.6416 55.0068C26.8316 54.8167 27.0894 54.71 27.3582 54.71C27.627 54.71 27.8848 54.8167 28.0749 55.0068C28.265 55.1969 28.3717 55.4547 28.3717 55.7235V57.636C28.3717 57.9048 28.265 58.1626 28.0749 58.3526C27.8848 58.5427 27.627 58.6495 27.3582 58.6495Z" fill="#F3F5F6"/>
<path d="M22.7364 59.8282C22.4676 59.8282 22.2098 59.7214 22.0197 59.5313C21.8297 59.3413 21.7229 59.0835 21.7229 58.8147V56.9022C21.7229 56.6334 21.8297 56.3756 22.0197 56.1855C22.2098 55.9955 22.4676 55.8887 22.7364 55.8887C23.0052 55.8887 23.263 55.9955 23.4531 56.1855C23.6431 56.3756 23.7499 56.6334 23.7499 56.9022V58.8147C23.7499 59.0835 23.6431 59.3413 23.4531 59.5313C23.263 59.7214 23.0052 59.8282 22.7364 59.8282Z" fill="#F3F5F6"/>
<path d="M27.3582 66.2723C27.0894 66.2723 26.8316 66.1656 26.6416 65.9755C26.4515 65.7854 26.3447 65.5276 26.3447 65.2588V63.3514C26.3447 63.0826 26.4515 62.8248 26.6416 62.6347C26.8316 62.4447 27.0894 62.3379 27.3582 62.3379C27.627 62.3379 27.8848 62.4447 28.0749 62.6347C28.265 62.8248 28.3717 63.0826 28.3717 63.3514V65.2639C28.3704 65.5318 28.263 65.7883 28.0731 65.9773C27.8832 66.1663 27.6262 66.2723 27.3582 66.2723Z" fill="#F3F5F6"/>
<path d="M22.7364 67.4518C22.4676 67.4518 22.2098 67.345 22.0197 67.1549C21.8297 66.9649 21.7229 66.7071 21.7229 66.4383V64.5247C21.7229 64.2559 21.8297 63.9982 22.0197 63.8081C22.2098 63.618 22.4676 63.5112 22.7364 63.5112C23.0052 63.5112 23.263 63.618 23.4531 63.8081C23.6431 63.9982 23.7499 64.2559 23.7499 64.5247V66.4372C23.7501 66.5704 23.7239 66.7023 23.6731 66.8254C23.6222 66.9485 23.5476 67.0603 23.4534 67.1546C23.3593 67.2488 23.2475 67.3235 23.1245 67.3745C23.0015 67.4255 22.8696 67.4518 22.7364 67.4518Z" fill="#F3F5F6"/>
<path d="M34.3512 19.5669C34.0824 19.5669 33.8246 19.4601 33.6345 19.27C33.4444 19.08 33.3376 18.8222 33.3376 18.5534V16.6429C33.3376 16.3741 33.4444 16.1163 33.6345 15.9262C33.8246 15.7362 34.0824 15.6294 34.3512 15.6294C34.62 15.6294 34.8778 15.7362 35.0678 15.9262C35.2579 16.1163 35.3647 16.3741 35.3647 16.6429V18.5534C35.3647 18.8222 35.2579 19.08 35.0678 19.27C34.8778 19.4601 34.62 19.5669 34.3512 19.5669Z" fill="#F3F5F6"/>
<path d="M37.7738 20.8594C37.505 20.8594 37.2472 20.7526 37.0571 20.5626C36.867 20.3725 36.7603 20.1147 36.7603 19.8459V17.9344C36.7603 17.6656 36.867 17.4078 37.0571 17.2177C37.2472 17.0277 37.505 16.9209 37.7738 16.9209C38.0426 16.9209 38.3004 17.0277 38.4904 17.2177C38.6805 17.4078 38.7873 17.6656 38.7873 17.9344V19.8469C38.787 20.1155 38.6801 20.3731 38.4901 20.5629C38.3 20.7528 38.0424 20.8594 37.7738 20.8594Z" fill="#F3F5F6"/>
<path d="M41.1944 22.1509C40.9256 22.1509 40.6678 22.0441 40.4778 21.8541C40.2877 21.664 40.1809 21.4062 40.1809 21.1374V19.2259C40.1809 18.9571 40.2877 18.6993 40.4778 18.5093C40.6678 18.3192 40.9256 18.2124 41.1944 18.2124C41.4632 18.2124 41.721 18.3192 41.9111 18.5093C42.1012 18.6993 42.208 18.9571 42.208 19.2259V21.1384C42.2077 21.407 42.1008 21.6646 41.9107 21.8544C41.7207 22.0443 41.4631 22.1509 41.1944 22.1509Z" fill="#F3F5F6"/>
<path d="M34.3512 27.1691C34.0824 27.1691 33.8246 27.0623 33.6345 26.8723C33.4444 26.6822 33.3376 26.4244 33.3376 26.1556V24.2401C33.3376 23.9713 33.4444 23.7135 33.6345 23.5234C33.8246 23.3333 34.0824 23.2266 34.3512 23.2266C34.62 23.2266 34.8778 23.3333 35.0678 23.5234C35.2579 23.7135 35.3647 23.9713 35.3647 24.2401V26.1556C35.3647 26.4244 35.2579 26.6822 35.0678 26.8723C34.8778 27.0623 34.62 27.1691 34.3512 27.1691Z" fill="#F3F5F6"/>
<path d="M37.7738 28.4556C37.505 28.4556 37.2472 28.3488 37.0571 28.1588C36.867 27.9687 36.7603 27.7109 36.7603 27.4421V25.5306C36.7603 25.2618 36.867 25.004 37.0571 24.8139C37.2472 24.6239 37.505 24.5171 37.7738 24.5171C38.0426 24.5171 38.3004 24.6239 38.4904 24.8139C38.6805 25.004 38.7873 25.2618 38.7873 25.5306V27.4421C38.7873 27.7109 38.6805 27.9687 38.4904 28.1588C38.3004 28.3488 38.0426 28.4556 37.7738 28.4556Z" fill="#F3F5F6"/>
<path d="M41.1944 29.7471C40.9256 29.7471 40.6678 29.6403 40.4778 29.4503C40.2877 29.2602 40.1809 29.0024 40.1809 28.7336V26.8221C40.1809 26.5533 40.2877 26.2955 40.4778 26.1054C40.6678 25.9154 40.9256 25.8086 41.1944 25.8086C41.4632 25.8086 41.721 25.9154 41.9111 26.1054C42.1012 26.2955 42.208 26.5533 42.208 26.8221V28.7346C42.2077 29.0032 42.1008 29.2608 41.9107 29.4506C41.7207 29.6405 41.4631 29.7471 41.1944 29.7471Z" fill="#F3F5F6"/>
<path d="M34.3512 34.762C34.0824 34.762 33.8246 34.6552 33.6345 34.4651C33.4444 34.2751 33.3376 34.0173 33.3376 33.7485V31.8309C33.3376 31.5621 33.4444 31.3043 33.6345 31.1142C33.8246 30.9242 34.0824 30.8174 34.3512 30.8174C34.62 30.8174 34.8778 30.9242 35.0678 31.1142C35.2579 31.3043 35.3647 31.5621 35.3647 31.8309V33.7434C35.3653 33.8769 35.3396 34.0093 35.289 34.1328C35.2384 34.2564 35.1638 34.3687 35.0696 34.4633C34.9754 34.558 34.8635 34.6331 34.7402 34.6843C34.6169 34.7356 34.4847 34.762 34.3512 34.762Z" fill="#F3F5F6"/>
<path d="M37.7738 36.0528C37.505 36.0528 37.2472 35.946 37.0571 35.756C36.867 35.5659 36.7603 35.3081 36.7603 35.0393V33.1268C36.7603 32.858 36.867 32.6002 37.0571 32.4101C37.2472 32.2201 37.505 32.1133 37.7738 32.1133C38.0426 32.1133 38.3004 32.2201 38.4904 32.4101C38.6805 32.6002 38.7873 32.858 38.7873 33.1268V35.0393C38.7873 35.3081 38.6805 35.5659 38.4904 35.756C38.3004 35.946 38.0426 36.0528 37.7738 36.0528Z" fill="#F3F5F6"/>
<path d="M41.1944 37.3433C40.9256 37.3433 40.6678 37.2365 40.4778 37.0464C40.2877 36.8564 40.1809 36.5986 40.1809 36.3298V34.4183C40.1809 34.1495 40.2877 33.8917 40.4778 33.7016C40.6678 33.5116 40.9256 33.4048 41.1944 33.4048C41.4632 33.4048 41.721 33.5116 41.9111 33.7016C42.1012 33.8917 42.208 34.1495 42.208 34.4183V36.3308C42.2077 36.5994 42.1008 36.857 41.9107 37.0468C41.7207 37.2367 41.4631 37.3433 41.1944 37.3433Z" fill="#F3F5F6"/>
<path d="M34.3512 42.3585C34.0824 42.3585 33.8246 42.2517 33.6345 42.0616C33.4444 41.8716 33.3376 41.6138 33.3376 41.345V39.4325C33.3376 39.1637 33.4444 38.9059 33.6345 38.7158C33.8246 38.5257 34.0824 38.4189 34.3512 38.4189C34.62 38.4189 34.8778 38.5257 35.0678 38.7158C35.2579 38.9059 35.3647 39.1637 35.3647 39.4325V41.345C35.3647 41.6138 35.2579 41.8716 35.0678 42.0616C34.8778 42.2517 34.62 42.3585 34.3512 42.3585Z" fill="#F3F5F6"/>
<path d="M37.7738 43.65C37.505 43.65 37.2472 43.5432 37.0571 43.3531C36.867 43.1631 36.7603 42.9053 36.7603 42.6365V40.724C36.7603 40.4552 36.867 40.1974 37.0571 40.0073C37.2472 39.8172 37.505 39.7104 37.7738 39.7104C38.0426 39.7104 38.3004 39.8172 38.4904 40.0073C38.6805 40.1974 38.7873 40.4552 38.7873 40.724V42.6365C38.7873 42.9053 38.6805 43.1631 38.4904 43.3531C38.3004 43.5432 38.0426 43.65 37.7738 43.65Z" fill="#F3F5F6"/>
<path d="M41.1944 44.9405C40.9256 44.9405 40.6678 44.8337 40.4778 44.6436C40.2877 44.4536 40.1809 44.1958 40.1809 43.927V42.0145C40.1809 41.7457 40.2877 41.4879 40.4778 41.2978C40.6678 41.1078 40.9256 41.001 41.1944 41.001C41.4632 41.001 41.721 41.1078 41.9111 41.2978C42.1012 41.4879 42.208 41.7457 42.208 42.0145V43.927C42.208 44.1958 42.1012 44.4536 41.9111 44.6436C41.721 44.8337 41.4632 44.9405 41.1944 44.9405Z" fill="#F3F5F6"/>
<path d="M34.3512 49.9554C34.0824 49.9554 33.8246 49.8487 33.6345 49.6586C33.4444 49.4685 33.3376 49.2107 33.3376 48.9419V47.0345C33.3376 46.7657 33.4444 46.5079 33.6345 46.3178C33.8246 46.1278 34.0824 46.021 34.3512 46.021C34.62 46.021 34.8778 46.1278 35.0678 46.3178C35.2579 46.5079 35.3647 46.7657 35.3647 47.0345V48.947C35.3633 49.2149 35.256 49.4714 35.066 49.6604C34.8761 49.8494 34.6191 49.9555 34.3512 49.9554Z" fill="#F3F5F6"/>
<path d="M37.7738 51.2462C37.505 51.2462 37.2472 51.1394 37.0571 50.9493C36.867 50.7592 36.7603 50.5014 36.7603 50.2326V48.3202C36.7603 48.0514 36.867 47.7936 37.0571 47.6035C37.2472 47.4134 37.505 47.3066 37.7738 47.3066C38.0426 47.3066 38.3004 47.4134 38.4904 47.6035C38.6805 47.7936 38.7873 48.0514 38.7873 48.3202V50.2326C38.7873 50.5014 38.6805 50.7592 38.4904 50.9493C38.3004 51.1394 38.0426 51.2462 37.7738 51.2462Z" fill="#F3F5F6"/>
<path d="M41.1944 52.5367C40.9256 52.5367 40.6678 52.4299 40.4778 52.2398C40.2877 52.0498 40.1809 51.792 40.1809 51.5232V49.6107C40.1809 49.3419 40.2877 49.0841 40.4778 48.894C40.6678 48.7039 40.9256 48.5972 41.1944 48.5972C41.4632 48.5972 41.721 48.7039 41.9111 48.894C42.1012 49.0841 42.208 49.3419 42.208 49.6107V51.5232C42.208 51.792 42.1012 52.0498 41.9111 52.2398C41.721 52.4299 41.4632 52.5367 41.1944 52.5367Z" fill="#F3F5F6"/>
<path d="M34.3512 57.5508C34.0824 57.5508 33.8246 57.4441 33.6345 57.254C33.4444 57.0639 33.3376 56.8061 33.3376 56.5373V54.6248C33.3376 54.356 33.4444 54.0982 33.6345 53.9082C33.8246 53.7181 34.0824 53.6113 34.3512 53.6113C34.62 53.6113 34.8778 53.7181 35.0678 53.9082C35.2579 54.0982 35.3647 54.356 35.3647 54.6248V56.5373C35.3647 56.8061 35.2579 57.0639 35.0678 57.254C34.8778 57.4441 34.62 57.5508 34.3512 57.5508Z" fill="#F3F5F6"/>
<path d="M37.7738 58.8424C37.505 58.8424 37.2472 58.7356 37.0571 58.5455C36.867 58.3554 36.7603 58.0976 36.7603 57.8288V55.9163C36.7603 55.6475 36.867 55.3898 37.0571 55.1997C37.2472 55.0096 37.505 54.9028 37.7738 54.9028C38.0426 54.9028 38.3004 55.0096 38.4904 55.1997C38.6805 55.3898 38.7873 55.6475 38.7873 55.9163V57.8288C38.7873 58.0976 38.6805 58.3554 38.4904 58.5455C38.3004 58.7356 38.0426 58.8424 37.7738 58.8424Z" fill="#F3F5F6"/>
<path d="M41.1944 60.1339C40.9256 60.1339 40.6678 60.0271 40.4778 59.837C40.2877 59.6469 40.1809 59.3891 40.1809 59.1203V57.2078C40.1809 56.939 40.2877 56.6813 40.4778 56.4912C40.6678 56.3011 40.9256 56.1943 41.1944 56.1943C41.4632 56.1943 41.721 56.3011 41.9111 56.4912C42.1012 56.6813 42.208 56.939 42.208 57.2078V59.1203C42.208 59.3891 42.1012 59.6469 41.9111 59.837C41.721 60.0271 41.4632 60.1339 41.1944 60.1339Z" fill="#F3F5F6"/>
<path d="M34.3512 65.147C34.0824 65.147 33.8246 65.0403 33.6345 64.8502C33.4444 64.6601 33.3376 64.4023 33.3376 64.1335V62.221C33.3376 61.9522 33.4444 61.6944 33.6345 61.5044C33.8246 61.3143 34.0824 61.2075 34.3512 61.2075C34.62 61.2075 34.8778 61.3143 35.0678 61.5044C35.2579 61.6944 35.3647 61.9522 35.3647 62.221V64.1335C35.3647 64.4023 35.2579 64.6601 35.0678 64.8502C34.8778 65.0403 34.62 65.147 34.3512 65.147Z" fill="#F3F5F6"/>
<path d="M37.7738 66.4385C37.505 66.4385 37.2472 66.3318 37.0571 66.1417C36.867 65.9516 36.7603 65.6938 36.7603 65.425V63.5125C36.7603 63.2437 36.867 62.9859 37.0571 62.7959C37.2472 62.6058 37.505 62.499 37.7738 62.499C38.0426 62.499 38.3004 62.6058 38.4904 62.7959C38.6805 62.9859 38.7873 63.2437 38.7873 63.5125V65.425C38.7873 65.6938 38.6805 65.9516 38.4904 66.1417C38.3004 66.3318 38.0426 66.4385 37.7738 66.4385Z" fill="#F3F5F6"/>
<path d="M41.1944 67.7296C40.9256 67.7296 40.6678 67.6228 40.4778 67.4327C40.2877 67.2426 40.1809 66.9848 40.1809 66.716V64.8036C40.1809 64.5348 40.2877 64.277 40.4778 64.0869C40.6678 63.8968 40.9256 63.79 41.1944 63.79C41.4632 63.79 41.721 63.8968 41.9111 64.0869C42.1012 64.277 42.208 64.5348 42.208 64.8036V66.716C42.208 66.9848 42.1012 67.2426 41.9111 67.4327C41.721 67.6228 41.4632 67.7296 41.1944 67.7296Z" fill="#F3F5F6"/>
<path d="M54.0135 41.1054C53.7447 41.1054 53.4869 40.9986 53.2969 40.8086C53.1068 40.6185 53 40.3607 53 40.0919V39.0672C53 38.7984 53.1068 38.5406 53.2969 38.3506C53.4869 38.1605 53.7447 38.0537 54.0135 38.0537C54.2823 38.0537 54.5401 38.1605 54.7302 38.3506C54.9203 38.5406 55.027 38.7984 55.027 39.0672V40.0919C55.027 40.3607 54.9203 40.6185 54.7302 40.8086C54.5401 40.9986 54.2823 41.1054 54.0135 41.1054Z" fill="#F3F5F6"/>
<path d="M57.4291 43.2519C57.1602 43.2519 56.9025 43.1451 56.7124 42.955C56.5223 42.765 56.4155 42.5072 56.4155 42.2384V41.2137C56.4155 40.9449 56.5223 40.6871 56.7124 40.497C56.9025 40.307 57.1602 40.2002 57.4291 40.2002C57.6979 40.2002 57.9556 40.307 58.1457 40.497C58.3358 40.6871 58.4426 40.9449 58.4426 41.2137V42.2384C58.4426 42.5072 58.3358 42.765 58.1457 42.955C57.9556 43.1451 57.6979 43.2519 57.4291 43.2519Z" fill="#F3F5F6"/>
<path d="M54.0135 46.1098C53.7447 46.1098 53.4869 46.003 53.2969 45.8129C53.1068 45.6228 53 45.3651 53 45.0962V44.0726C53 43.8038 53.1068 43.546 53.2969 43.3559C53.4869 43.1659 53.7447 43.0591 54.0135 43.0591C54.2823 43.0591 54.5401 43.1659 54.7302 43.3559C54.9203 43.546 55.027 43.8038 55.027 44.0726V45.0973C55.0268 45.3659 54.9199 45.6234 54.7298 45.8133C54.5398 46.0031 54.2821 46.1098 54.0135 46.1098Z" fill="#F3F5F6"/>
<path d="M57.4291 48.2556C57.1602 48.2556 56.9025 48.1488 56.7124 47.9587C56.5223 47.7687 56.4155 47.5109 56.4155 47.2421V46.2225C56.4155 45.9537 56.5223 45.6959 56.7124 45.5058C56.9025 45.3158 57.1602 45.209 57.4291 45.209C57.6979 45.209 57.9556 45.3158 58.1457 45.5058C58.3358 45.6959 58.4426 45.9537 58.4426 46.2225V47.2472C58.4412 47.5151 58.3339 47.7716 58.1439 47.9605C57.954 48.1495 57.697 48.2556 57.4291 48.2556Z" fill="#F3F5F6"/>
<path d="M54.0135 51.1147C53.7447 51.1147 53.4869 51.0079 53.2969 50.8178C53.1068 50.6277 53 50.37 53 50.1012V49.0765C53 48.8077 53.1068 48.5499 53.2969 48.3598C53.4869 48.1698 53.7447 48.063 54.0135 48.063C54.2823 48.063 54.5401 48.1698 54.7302 48.3598C54.9203 48.5499 55.027 48.8077 55.027 49.0765V50.1012C55.027 50.37 54.9203 50.6277 54.7302 50.8178C54.5401 51.0079 54.2823 51.1147 54.0135 51.1147Z" fill="#F3F5F6"/>
<path d="M57.4291 53.2616C57.1602 53.2616 56.9025 53.1549 56.7124 52.9648C56.5223 52.7747 56.4155 52.5169 56.4155 52.2481V51.2235C56.4155 50.9547 56.5223 50.6969 56.7124 50.5068C56.9025 50.3167 57.1602 50.21 57.4291 50.21C57.6979 50.21 57.9556 50.3167 58.1457 50.5068C58.3358 50.6969 58.4426 50.9547 58.4426 51.2235V52.2481C58.4426 52.5169 58.3358 52.7747 58.1457 52.9648C57.9556 53.1549 57.6979 53.2616 57.4291 53.2616Z" fill="#F3F5F6"/>
<path d="M54.0135 56.1215C53.7447 56.1215 53.4869 56.0147 53.2969 55.8247C53.1068 55.6346 53 55.3768 53 55.108V54.0833C53 53.8145 53.1068 53.5567 53.2969 53.3667C53.4869 53.1766 53.7447 53.0698 54.0135 53.0698C54.2823 53.0698 54.5401 53.1766 54.7302 53.3667C54.9203 53.5567 55.027 53.8145 55.027 54.0833V55.108C55.027 55.3768 54.9203 55.6346 54.7302 55.8247C54.5401 56.0147 54.2823 56.1215 54.0135 56.1215Z" fill="#F3F5F6"/>
<path d="M57.4291 58.267C57.1602 58.267 56.9025 58.1602 56.7124 57.9702C56.5223 57.7801 56.4155 57.5223 56.4155 57.2535V56.2288C56.4155 55.96 56.5223 55.7023 56.7124 55.5122C56.9025 55.3221 57.1602 55.2153 57.4291 55.2153C57.6979 55.2153 57.9556 55.3221 58.1457 55.5122C58.3358 55.7023 58.4426 55.96 58.4426 56.2288V57.2535C58.4426 57.5223 58.3358 57.7801 58.1457 57.9702C57.9556 58.1602 57.6979 58.267 57.4291 58.267Z" fill="#F3F5F6"/>
<path d="M54.0135 61.1219C53.7447 61.1219 53.4869 61.0151 53.2969 60.825C53.1068 60.6349 53 60.3772 53 60.1083V59.0877C53 58.8189 53.1068 58.5611 53.2969 58.3711C53.4869 58.181 53.7447 58.0742 54.0135 58.0742C54.2823 58.0742 54.5401 58.181 54.7302 58.3711C54.9203 58.5611 55.027 58.8189 55.027 59.0877V60.1083C55.027 60.3772 54.9203 60.6349 54.7302 60.825C54.5401 61.0151 54.2823 61.1219 54.0135 61.1219Z" fill="#F3F5F6"/>
<path d="M57.4291 63.2724C57.1602 63.2724 56.9025 63.1656 56.7124 62.9755C56.5223 62.7855 56.4155 62.5277 56.4155 62.2589V61.2342C56.4155 60.9654 56.5223 60.7076 56.7124 60.5176C56.9025 60.3275 57.1602 60.2207 57.4291 60.2207C57.6979 60.2207 57.9556 60.3275 58.1457 60.5176C58.3358 60.7076 58.4426 60.9654 58.4426 61.2342V62.2589C58.4426 62.5277 58.3358 62.7855 58.1457 62.9755C57.9556 63.1656 57.6979 63.2724 57.4291 63.2724Z" fill="#F3F5F6"/>
<path d="M54.0135 66.1318C53.7447 66.1318 53.4869 66.025 53.2969 65.8349C53.1068 65.6448 53 65.387 53 65.1182V64.0936C53 63.8248 53.1068 63.567 53.2969 63.3769C53.4869 63.1869 53.7447 63.0801 54.0135 63.0801C54.2823 63.0801 54.5401 63.1869 54.7302 63.3769C54.9203 63.567 55.027 63.8248 55.027 64.0936V65.1182C55.027 65.387 54.9203 65.6448 54.7302 65.8349C54.5401 66.025 54.2823 66.1318 54.0135 66.1318Z" fill="#F3F5F6"/>
<path d="M57.4291 68.2773C57.1602 68.2773 56.9025 68.1705 56.7124 67.9804C56.5223 67.7903 56.4155 67.5325 56.4155 67.2638V66.2391C56.4155 65.9703 56.5223 65.7125 56.7124 65.5224C56.9025 65.3324 57.1602 65.2256 57.4291 65.2256C57.6979 65.2256 57.9556 65.3324 58.1457 65.5224C58.3358 65.7125 58.4426 65.9703 58.4426 66.2391V67.2638C58.4426 67.5325 58.3358 67.7903 58.1457 67.9804C57.9556 68.1705 57.6979 68.2773 57.4291 68.2773Z" fill="#F3F5F6"/>
</g>
</mask>
<g mask="url(#mask0)">
<circle cx="36" cy="36" r="33" fill="#DEE5EC"/>
</g>
<defs>
<clipPath id="clip0">
<rect width="66" height="66" fill="white" transform="translate(3 3)"/>
</clipPath>
</defs>
</svg>
