<svg width="136" height="32" fill="none" xmlns="http://www.w3.org/2000/svg"><path opacity=".4" d="M29.178 0L14.589 7.245 0 0v32h29.178V0zm-3.102 21.637v8.552H14.589v-4.174l-11.485 4.38v-1.326l11.485-4.38 11.485-4.378.002 1.326zm0-2.845l-2.971 1.132-8.514 3.247-11.474 4.374-.011-.03v-1.292l11.485-4.38 5.036-1.92 6.449-2.458v1.327zm0-2.844l-10.431 3.976-1.054.402-11.485 4.38V23.38l10.643-4.058.84-.32 11.485-4.38.002 1.326zm0-2.725l-11.485 4.38-4.51 1.719-6.977 2.66v-1.326l3.5-1.334 7.985-3.045 11.485-4.379.002 1.325zm0-3.046L14.59 14.556 3.106 18.935V9.056H14.59v4.173l11.485-4.38v1.327z" fill="#4D5B68"/><path d="M29.178 0L14.589 7.245 0 0v32h29.178V0zm-3.102 21.637v8.552H14.589v-4.174l-11.485 4.38v-1.326l11.485-4.38 11.485-4.378.002 1.326zm0-2.845l-2.971 1.132-8.514 3.247-11.474 4.374-.011-.03v-1.292l11.485-4.38 5.036-1.92 6.449-2.458v1.327zm0-2.844l-10.431 3.976-1.054.402-11.485 4.38V23.38l10.643-4.058.84-.32 11.485-4.38.002 1.326zm0-2.725l-11.485 4.38-4.51 1.719-6.977 2.66v-1.326l3.5-1.334 7.985-3.045 11.485-4.379.002 1.325zm0-3.046L14.59 14.556 3.106 18.935V9.056H14.59v4.173l11.485-4.38v1.327z" fill="#4D5B68"/><path opacity=".4" d="M32.282 30.793h103.716V32H32.282v-1.207z" fill="#4D5B68"/><path d="M32.282 30.793h103.716V32H32.282v-1.207z" fill="#4D5B68"/><path opacity=".4" d="M32.282 11.897h103.716v1.208H32.282v-1.208z" fill="#4D5B68"/><path d="M32.282 11.897h103.716v1.208H32.282v-1.208zM35.875 5.081a2.49 2.49 0 01.066-.182.6.6 0 01.129-.19.703.703 0 01.233-.15.996.996 0 01.376-.06.974.974 0 01.356.056c.086.033.165.08.233.142a.64.64 0 01.14.185c.032.063.057.13.075.198l1.08 3.866c.012.03.03.06.049.088a.093.093 0 00.075.048.124.124 0 00.066-.032.246.246 0 00.066-.137l1.154-4.35h1.112l-1.403 4.923c-.028.092-.06.185-.095.278a.786.786 0 01-.157.255.799.799 0 01-.265.185 1.031 1.031 0 01-.42.073 1.125 1.125 0 01-.398-.06.76.76 0 01-.427-.393 1.671 1.671 0 01-.104-.274l-1.02-3.657c-.028-.102-.067-.152-.117-.152a.075.075 0 00-.045.016.071.071 0 00-.025.04l-.037.097-1.03 3.657a1.88 1.88 0 01-.087.246.846.846 0 01-.153.234.739.739 0 01-.261.178c-.134.05-.277.073-.42.068a.995.995 0 01-.58-.16 1.108 1.108 0 01-.365-.63L32.28 4.564h1.112l1.154 4.35c.01.026.023.06.037.104.004.02.015.037.031.048a.086.086 0 00.1.002.094.094 0 00.031-.033.519.519 0 00.05-.09l1.08-3.864zM44.716 4.508c.207.006.412.028.615.065.207.038.41.098.605.178.2.082.38.2.535.347.15.14.272.307.358.492.088.189.156.386.203.59.047.203.076.411.087.62a8.804 8.804 0 01-.004 1.182 4.218 4.218 0 01-.088.618c-.043.203-.11.4-.199.59a1.596 1.596 0 01-.357.492 1.74 1.74 0 01-.535.347c-.194.08-.398.14-.605.177-.204.037-.411.059-.619.065a20.854 20.854 0 01-1.116 0 4.026 4.026 0 01-.614-.065 2.993 2.993 0 01-.605-.177 1.768 1.768 0 01-.921-.88c-.09-.195-.157-.4-.2-.61a3.908 3.908 0 01-.074-.609 11.238 11.238 0 01.004-1.142c.01-.206.038-.411.083-.613.043-.2.11-.395.199-.581.09-.188.217-.357.373-.497a1.75 1.75 0 01.536-.347c.193-.08.395-.139.6-.177.202-.038.406-.06.611-.065a22.595 22.595 0 011.128 0zm-2.39 3.483c.017.15.043.298.08.444.026.108.064.213.112.315.036.076.082.147.136.213.078.103.177.19.291.254.112.063.232.11.357.141.133.034.27.054.407.061a7.703 7.703 0 00.875 0 2.22 2.22 0 00.407-.06c.126-.031.248-.079.36-.142.116-.065.218-.152.3-.254.054-.067.1-.14.137-.218.047-.101.084-.207.112-.315a3.11 3.11 0 00.079-.443c.02-.199.03-.398.029-.598a5.857 5.857 0 00-.03-.625 3.11 3.11 0 00-.078-.448 1.275 1.275 0 00-.25-.508 1.102 1.102 0 00-.655-.384 4.47 4.47 0 00-.846-.077 4.386 4.386 0 00-.846.077 1.099 1.099 0 00-.647.384 1.55 1.55 0 00-.261.569 4.135 4.135 0 00-.096 1.012c-.002.201.007.402.028.602zM47.965 5.525c0-.125.012-.25.033-.375a.632.632 0 01.208-.359.735.735 0 01.345-.186c.115-.025.234-.039.352-.04h2.755c.1 0 .205.004.316.012.112.009.224.03.332.061a1.056 1.056 0 01.597.443c.134.181.22.392.25.613a4.948 4.948 0 01.005 1.263 1.72 1.72 0 01-.212.642c-.04.073-.088.141-.14.206a.938.938 0 01-.213.185c-.096.061-.2.108-.31.138a1.57 1.57 0 01-.432.052h-.747v.04l2.207 1.994h-1.379l-1.908-1.832a1.444 1.444 0 01-.183-.222.454.454 0 01-.09-.254v-.13a.352.352 0 01.125-.278.54.54 0 01.365-.109h1.096c.105-.001.21-.015.312-.04a.479.479 0 00.286-.21.625.625 0 00.07-.17c.02-.07.033-.14.042-.213a3.015 3.015 0 00.02-.39 1.746 1.746 0 00-.058-.519.644.644 0 00-.149-.266.513.513 0 00-.307-.15 2.72 2.72 0 00-.307-.02H49.47a.907.907 0 00-.156.012.265.265 0 00-.133.077.251.251 0 00-.104.15 1.03 1.03 0 00-.012.165v4.398H47.97l-.005-4.688zM54.803 10.214c-.098 0-.195-.01-.29-.03a.582.582 0 01-.25-.113.728.728 0 01-.136-.17.559.559 0 01-.07-.298V4.565h1.094V9.06c0 .033 0 .072.005.117a.176.176 0 00.07.125c.027.016.054.03.083.04.062.02.126.028.191.025h3.187v.847h-3.884zM59.906 10.214c-.16.01-.319-.013-.47-.064a1.282 1.282 0 01-.178-.09.685.685 0 01-.162-.197.716.716 0 01-.079-.367V5.469c0-.111.01-.222.03-.33a.681.681 0 01.17-.332c.065-.058.135-.109.21-.152a.795.795 0 01.412-.089h2.274c.35-.01.7.056 1.02.194.256.115.487.277.68.476.135.144.245.308.328.484.08.17.14.35.18.533.037.18.06.364.07.549.015.346.015.694 0 1.04-.01.196-.032.39-.067.582a3.572 3.572 0 01-.157.585c-.065.184-.159.356-.278.513a2.128 2.128 0 01-.225.234 1.58 1.58 0 01-.33.225 2.018 2.018 0 01-.466.17 2.56 2.56 0 01-.605.065l-2.357-.002zm.208-1.234c0 .059 0 .114.004.165.004.054.03.105.07.141.033.04.08.066.133.073.05.005.1.008.15.008h1.261c.258.007.515-.031.759-.113a.988.988 0 00.495-.412c.093-.162.16-.338.199-.52.072-.355.102-.716.091-1.078 0-.118-.004-.242-.013-.37a2.414 2.414 0 00-.053-.38 1.672 1.672 0 00-.126-.36 1.178 1.178 0 00-.215-.31 1.08 1.08 0 00-.278-.21 1.549 1.549 0 00-.32-.125c-.109-.029-.22-.05-.331-.06a3.3 3.3 0 00-.316-.017h-1.137c-.033 0-.075.003-.125.008a.284.284 0 00-.133.048.302.302 0 00-.083.118.417.417 0 00-.033.165V8.98zM70.548 4.508c.206.006.412.028.614.065.208.038.411.098.606.178.199.082.38.2.535.347.15.14.27.308.357.492.088.19.157.387.203.59.047.204.076.411.087.62a8.804 8.804 0 01-.004 1.182 4.26 4.26 0 01-.087.618c-.044.203-.11.4-.199.59a1.603 1.603 0 01-.357.492 1.746 1.746 0 01-.535.347c-.195.08-.398.14-.606.177-.204.037-.41.059-.618.065a20.893 20.893 0 01-1.116 0 4.031 4.031 0 01-.614-.065 2.993 2.993 0 01-.606-.177 1.77 1.77 0 01-.921-.88c-.09-.195-.157-.4-.2-.61a3.933 3.933 0 01-.074-.609 11.344 11.344 0 01.004-1.142c.011-.206.039-.411.083-.613.044-.2.11-.395.2-.581.09-.188.216-.357.373-.497.155-.147.336-.264.535-.347.194-.08.395-.139.601-.177.202-.038.406-.06.61-.065a22.618 22.618 0 011.128 0zm-2.39 3.483c.016.15.042.298.079.444.026.108.064.213.112.315.037.076.083.147.137.213.078.103.177.19.29.254.112.063.232.11.357.141.133.034.27.054.407.061a7.695 7.695 0 00.875 0 2.22 2.22 0 00.407-.06c.127-.031.248-.079.361-.142a1.058 1.058 0 00.436-.472c.047-.101.085-.207.112-.315a3.11 3.11 0 00.079-.443c.02-.199.03-.398.029-.598a5.78 5.78 0 00-.03-.625 3.097 3.097 0 00-.078-.448 1.345 1.345 0 00-.249-.508 1.105 1.105 0 00-.656-.384 4.465 4.465 0 00-.845-.077 4.384 4.384 0 00-.847.077 1.098 1.098 0 00-.647.384 1.55 1.55 0 00-.261.569 4.154 4.154 0 00-.094 1.012c-.003.201.006.402.026.602zM73.796 10.214V5.308c0-.095.014-.188.041-.279a.578.578 0 01.175-.262.653.653 0 01.31-.17c.103-.02.208-.03.312-.03h3.784v.847h-3.253c-.038 0-.074.001-.108.004a.157.157 0 00-.1.061.184.184 0 00-.057.109.853.853 0 00-.009.117v1.227h2.573v.847h-2.571v2.438l-1.097-.003zM86.094 10.214h-1.096V7.73h-3.02v2.485h-1.096V4.565h1.095v2.316h3.02V4.565h1.097v5.65zM88.534 5.138a1.16 1.16 0 01.36-.496 1.296 1.296 0 011.18 0c.167.13.295.3.368.496l2.191 5.076H91.48l-.598-1.428h-2.797l-.589 1.428h-1.153l2.19-5.076zm-.166 2.89H90.6l-.946-2.3a2.444 2.444 0 00-.066-.15c-.028-.058-.063-.085-.1-.085-.037 0-.072.028-.1.085-.027.057-.05.106-.066.15l-.954 2.3zM98.442 9.48a.7.7 0 01-.253.613 1.004 1.004 0 01-.61.186c-.173 0-.345-.03-.506-.089a.905.905 0 01-.432-.387l-2.448-3.76a1.195 1.195 0 00-.09-.114.068.068 0 00-.042-.024.12.12 0 00-.075.036.163.163 0 00-.042.125v4.148h-1.062V5.268a.698.698 0 01.236-.566.975.975 0 01.652-.201 1.14 1.14 0 01.598.129c.13.08.241.187.323.314l2.465 3.786c.022.027.04.056.054.088a.076.076 0 00.03.037c.015.01.032.013.048.012a.072.072 0 00.05-.011.068.068 0 00.03-.042.368.368 0 00.012-.084V4.565h1.062V9.48zM100.325 10.214a1.235 1.235 0 01-.47-.064 1.287 1.287 0 01-.178-.09.692.692 0 01-.162-.197.72.72 0 01-.079-.367V5.469c0-.111.01-.222.03-.33a.683.683 0 01.17-.332c.064-.058.135-.109.21-.152a.796.796 0 01.412-.089h2.273c.351-.01.7.056 1.021.194.256.115.487.277.681.476.133.145.244.308.327.484.08.17.14.35.179.533.038.18.061.364.07.549a10.769 10.769 0 010 1.041 4.362 4.362 0 01-.066.58 3.605 3.605 0 01-.157.586 1.879 1.879 0 01-.278.513 2.061 2.061 0 01-.224.234c-.1.088-.212.164-.332.225a2.002 2.002 0 01-.465.17 2.55 2.55 0 01-.605.065l-2.357-.002zm.208-1.234c0 .059 0 .114.004.165a.207.207 0 00.071.141c.032.04.08.066.132.073.05.005.1.008.149.008h1.262c.258.007.515-.031.759-.113a.993.993 0 00.494-.412 1.75 1.75 0 00.199-.52c.072-.355.102-.716.091-1.078 0-.118-.004-.242-.012-.37a2.427 2.427 0 00-.054-.38 1.648 1.648 0 00-.126-.36 1.174 1.174 0 00-.215-.31 1.103 1.103 0 00-.278-.21 1.564 1.564 0 00-.32-.125 2.049 2.049 0 00-.332-.06 3.273 3.273 0 00-.315-.017h-1.137c-.033 0-.075.003-.125.008a.282.282 0 00-.133.048.303.303 0 00-.083.118.411.411 0 00-.033.165l.002 3.229zM109.271 10.214V5.412h-2.266v-.847h5.635v.847h-2.274v4.802h-1.095zM116.435 4.508c.207.006.412.028.615.065.207.038.411.098.605.178.199.082.381.2.536.347.15.14.271.307.356.492.089.19.157.386.204.59.047.203.076.411.087.62a8.804 8.804 0 01-.004 1.182 4.154 4.154 0 01-.088.618c-.043.203-.11.4-.199.59a1.58 1.58 0 01-.356.492 1.75 1.75 0 01-.536.347c-.194.08-.398.14-.605.177a4.06 4.06 0 01-.618.065 21.004 21.004 0 01-1.117 0 4.034 4.034 0 01-.614-.065 2.972 2.972 0 01-.605-.177 1.77 1.77 0 01-.922-.88c-.09-.195-.156-.4-.199-.61a3.907 3.907 0 01-.074-.609 11.354 11.354 0 01.004-1.142 3.73 3.73 0 01.083-.613c.043-.2.11-.396.199-.581.09-.188.217-.357.373-.497.155-.147.337-.264.536-.347.193-.08.395-.139.601-.177.201-.038.405-.06.61-.065a22.623 22.623 0 011.128 0zm-2.389 3.483c.016.15.042.298.078.444.027.108.065.213.113.315a.992.992 0 00.137.213c.077.103.176.19.29.254.112.063.232.11.357.141.133.034.27.054.407.061a7.723 7.723 0 00.875 0 2.22 2.22 0 00.407-.06 1.46 1.46 0 00.361-.142 1.051 1.051 0 00.436-.472c.047-.101.084-.207.112-.315.037-.145.063-.294.079-.443.02-.199.03-.398.028-.598a5.936 5.936 0 00-.028-.625 3.24 3.24 0 00-.079-.448 1.284 1.284 0 00-.249-.508 1.102 1.102 0 00-.656-.384 4.467 4.467 0 00-.846-.077 4.38 4.38 0 00-.846.077 1.1 1.1 0 00-.648.384c-.125.17-.214.364-.261.569a4.154 4.154 0 00-.094 1.012c-.002.201.006.402.027.602zM123.066 4.508c.206.006.411.028.614.065.208.038.411.098.606.178.199.082.38.2.535.347.15.14.271.308.357.492.088.19.156.386.203.59.047.203.076.411.087.62a8.804 8.804 0 01-.004 1.182 4.287 4.287 0 01-.087.618c-.044.203-.111.4-.199.59a1.603 1.603 0 01-.357.492 1.748 1.748 0 01-.535.347c-.195.08-.398.14-.606.177a4.06 4.06 0 01-.618.065 20.944 20.944 0 01-1.116 0 4.02 4.02 0 01-.614-.065 3 3 0 01-.606-.177 1.768 1.768 0 01-.921-.88c-.09-.195-.157-.4-.199-.61a3.909 3.909 0 01-.075-.609 11.329 11.329 0 01.004-1.142c.011-.206.039-.411.083-.613.044-.2.11-.395.199-.581.09-.188.217-.357.374-.497.154-.147.336-.264.535-.347.193-.08.395-.139.601-.177a3.96 3.96 0 01.61-.065 22.63 22.63 0 011.129 0zm-2.391 3.483c.015.15.042.298.079.444.026.108.064.213.112.315a.992.992 0 00.137.213c.077.103.176.19.29.254.112.063.232.11.357.141.133.034.27.054.407.061a7.723 7.723 0 00.875 0c.137-.007.274-.028.407-.06.126-.031.248-.079.361-.142.191-.11.343-.275.436-.472.047-.101.084-.207.112-.315a3.04 3.04 0 00.078-.443c.021-.199.031-.398.03-.598a5.938 5.938 0 00-.03-.625 3.095 3.095 0 00-.078-.448 1.461 1.461 0 00-.116-.307 1.103 1.103 0 00-.789-.585 4.467 4.467 0 00-.846-.077 4.385 4.385 0 00-.846.077 1.098 1.098 0 00-.647.384c-.126.17-.215.364-.262.569a4.154 4.154 0 00-.094 1.012c-.002.201.007.402.027.602zM127.061 10.214a1.38 1.38 0 01-.29-.03.587.587 0 01-.251-.113.74.74 0 01-.137-.17.557.557 0 01-.07-.298V4.565h1.095V9.06c0 .033.002.072.004.117a.19.19 0 00.022.07c.013.021.029.04.049.055.027.016.054.03.083.04.062.02.126.028.191.025h3.186v.847h-3.882zM131.102 9.367h3.22a.574.574 0 00.307-.069.473.473 0 00.162-.165.537.537 0 00.066-.202.964.964 0 00-.004-.347.464.464 0 00-.075-.173.634.634 0 00-.17-.162 1.085 1.085 0 00-.303-.133l-2.29-.701a1.364 1.364 0 01-.29-.117 2.207 2.207 0 01-.208-.125.838.838 0 01-.191-.178.92.92 0 01-.156-.25 1.716 1.716 0 01-.133-.557 2.59 2.59 0 01.054-.799.965.965 0 01.311-.508 1 1 0 01.481-.262c.156-.033.314-.051.474-.053h3.343v.848h-2.97c-.079 0-.158.007-.236.02a.434.434 0 00-.22.109.385.385 0 00-.129.226c-.012.07-.019.14-.02.21a.604.604 0 00.143.42c.1.117.241.195.396.217l2.124.654c.169.05.334.112.494.186.123.056.236.129.336.217a.927.927 0 01.208.27c.048.096.085.196.112.3.024.094.04.19.05.286.008.091.012.17.012.234a2.933 2.933 0 01-.054.545 1.13 1.13 0 01-.237.504.882.882 0 01-.481.339 2.335 2.335 0 01-.556.065h-3.57v-.849zM32.282 17.499c.002-.319.03-.637.084-.951.066-.352.251-.672.526-.91.24-.231.542-.394.871-.47.294-.066.593-.1.894-.102h6.98c.252 0 .517.01.798.03.285.021.567.072.84.153.29.086.563.218.81.388.28.2.52.45.704.736a3.4 3.4 0 01.63 1.555c.07.529.105 1.062.106 1.595a14.1 14.1 0 01-.094 1.604 4.36 4.36 0 01-.536 1.626 3.498 3.498 0 01-.357.521 2.38 2.38 0 01-.536.47 2.85 2.85 0 01-.789.348c-.356.095-.724.14-1.093.133h-1.892v.102l5.591 5.051h-3.49l-4.834-4.641a3.672 3.672 0 01-.462-.562 1.147 1.147 0 01-.232-.644v-.327a.883.883 0 01.316-.705c.262-.201.592-.3.925-.276h2.774c.266-.004.53-.038.788-.103.304-.08.564-.27.726-.531.08-.134.14-.279.178-.43a3.51 3.51 0 00.106-.541c.02-.184.035-.365.042-.542.007-.177.01-.327.01-.45a4.441 4.441 0 00-.147-1.308c-.07-.25-.2-.482-.378-.674a1.306 1.306 0 00-.777-.38 6.832 6.832 0 00-.778-.051h-4.5a2.283 2.283 0 00-.399.03.668.668 0 00-.336.195.637.637 0 00-.263.378 2.622 2.622 0 00-.031.419v11.143h-2.775v-11.88zM56.277 14.924c.522.014 1.042.07 1.556.163a7.639 7.639 0 011.535.45c.504.21.964.507 1.356.879.38.357.686.78.904 1.247.224.48.397.98.515 1.494.118.517.191 1.044.219 1.574.028.532.042 1.03.042 1.493 0 .477-.018.978-.053 1.503a10.79 10.79 0 01-.22 1.564 6.973 6.973 0 01-.504 1.493 4.05 4.05 0 01-.903 1.247 4.43 4.43 0 01-1.356.88 7.582 7.582 0 01-1.536.45 10.33 10.33 0 01-1.566.162 51.32 51.32 0 01-1.409.021c-.434 0-.907-.007-1.419-.02a10.256 10.256 0 01-1.555-.164 7.582 7.582 0 01-1.536-.45 4.478 4.478 0 01-2.333-2.228 6.957 6.957 0 01-.504-1.544 9.912 9.912 0 01-.188-1.543 28.632 28.632 0 01.01-2.894 9.574 9.574 0 01.21-1.554c.111-.508.28-1.002.505-1.473a4.03 4.03 0 01.946-1.257c.392-.372.852-.67 1.356-.879.49-.202 1-.353 1.524-.45.51-.094 1.026-.149 1.545-.163a49.462 49.462 0 012.86 0zm-6.054 8.821c.04.38.107.755.2 1.125.067.274.162.541.283.797.094.194.21.376.347.543.198.261.448.48.736.644.284.158.588.278.904.357a5.39 5.39 0 001.03.153 20.014 20.014 0 002.218 0c.347-.019.692-.07 1.03-.153.32-.078.627-.198.914-.357.292-.166.549-.385.757-.644.138-.17.255-.355.347-.552a4.62 4.62 0 00.282-.797c.094-.37.16-.746.2-1.125.052-.503.076-1.008.073-1.513.004-.53-.02-1.058-.073-1.585a7.766 7.766 0 00-.2-1.135 3.562 3.562 0 00-.294-.777 2.793 2.793 0 00-1.997-1.482 11.338 11.338 0 00-2.145-.194c-.72-.005-1.438.06-2.144.194a2.783 2.783 0 00-1.64.971 3.926 3.926 0 00-.662 1.442 10.496 10.496 0 00-.242 2.565 13.52 13.52 0 00.076 1.523zM75.774 27.825c-.112.272-.22.514-.326.725-.097.2-.228.384-.388.542-.16.154-.355.27-.568.337-.265.081-.542.12-.82.113a2.303 2.303 0 01-.872-.143 1.698 1.698 0 01-.578-.379 1.976 1.976 0 01-.379-.54 7.492 7.492 0 01-.273-.655l-3.763-9.548a1.638 1.638 0 00-.147-.297c-.07-.116-.14-.174-.21-.174-.112 0-.179.065-.2.195a2.31 2.31 0 00-.031.234l.063 11.143h-2.775V16.784a1.63 1.63 0 01.315-1.073c.191-.237.436-.43.715-.563a2.32 2.32 0 01.788-.213c.26-.02.445-.03.557-.03.36-.009.718.04 1.062.143.264.083.507.219.714.399.19.171.35.371.473.593.128.227.24.463.337.705l3.804 9.547c.06.13.126.256.2.379.063.101.13.152.2.152s.136-.052.2-.152c.073-.123.14-.25.199-.379l3.805-9.547c.12-.347.294-.674.515-.97a2.098 2.098 0 011.314-.808 4.45 4.45 0 01.757-.062 3.006 3.006 0 011.703.45c.228.163.41.38.527.63.118.252.168.527.145.802V29.38h-2.774l.084-11.142c0-.19-.031-.31-.094-.358a.29.29 0 00-.156-.072c-.07 0-.14.058-.21.174-.06.094-.11.193-.148.297l-3.765 9.547zM89.017 16.518c.184-.49.5-.925.915-1.257a3.282 3.282 0 012.985 0c.425.327.748.762.934 1.257l5.55 12.861H96.48l-1.514-3.618h-7.084l-1.493 3.618h-2.921l5.55-12.86zm-.42 7.319h5.654l-2.396-5.825a4.821 4.821 0 00-.168-.379c-.07-.142-.154-.215-.253-.215-.098 0-.182.072-.25.215a6.06 6.06 0 00-.169.379l-2.418 5.825zM114.116 27.518c0 .722-.213 1.24-.641 1.554-.447.32-.991.485-1.545.47a3.667 3.667 0 01-1.282-.225 2.293 2.293 0 01-1.094-.981l-6.201-9.527a3.173 3.173 0 00-.23-.286.175.175 0 00-.106-.06.3.3 0 00-.188.09.411.411 0 00-.105.317V29.38h-2.691V16.845a1.776 1.776 0 01.599-1.432 2.467 2.467 0 011.649-.51c.526-.03 1.05.083 1.513.327.332.201.613.474.82.797l6.243 9.588a.96.96 0 01.137.226.195.195 0 00.199.122.18.18 0 00.127-.028.175.175 0 00.073-.106.906.906 0 00.031-.213v-10.55h2.692v12.452zM116.639 29.378V15.066h2.774v14.312h-2.774zM125.594 16.518c.185-.49.5-.925.915-1.257a3.279 3.279 0 012.985 0c.425.327.749.762.935 1.257l5.549 12.861h-2.922l-1.514-3.618h-7.084l-1.492 3.618h-2.922l5.55-12.86zm-.42 7.319h5.654l-2.397-5.825a4.784 4.784 0 00-.168-.379c-.07-.142-.154-.215-.251-.215-.096 0-.182.072-.252.215-.069.144-.125.27-.168.379l-2.418 5.825z" fill="#4D5B68"/></svg>