<svg width="137" height="32" xmlns="http://www.w3.org/2000/svg"><path d="M27.532 0L13.766 7.245 0 0v32h27.532V0zm-2.927 21.636v8.552H13.766v-4.173L2.93 30.393v-1.326l10.837-4.378 10.837-4.379v1.326h.002zm0-2.844l-2.803 1.132-8.034 3.246-10.826 4.374-.01-.028v-1.291l10.836-4.379 4.754-1.92 6.085-2.458v1.324h-.002zm0-2.845l-9.843 3.977-.996.402L2.93 24.704v-1.326l10.045-4.059.792-.32 10.837-4.378v1.326h.002zm0-2.723l-10.839 4.378-4.255 1.72L2.93 21.98v-1.327l3.302-1.335 7.535-3.045 10.837-4.379v1.329h.002zm0-3.048l-10.839 4.38-10.837 4.38V9.056h10.837v4.173l10.837-4.378v1.324h.002zM35.725 28.677h-1.953V19.56h-4.037v-1.609h10.042v1.61h-4.052v9.116zM44.93 17.829c1.006 0 1.83.081 2.47.245.641.163 1.184.454 1.627.873.444.419.76.98.947 1.686.187.694.28 1.588.28 2.681s-.093 1.992-.28 2.697c-.188.695-.503 1.252-.947 1.67-.444.42-.986.71-1.627.874-.64.163-1.464.245-2.47.245-.995 0-1.814-.082-2.455-.245a3.629 3.629 0 01-1.627-.874c-.443-.418-.759-.975-.946-1.67-.188-.705-.281-1.604-.281-2.697s.093-1.987.28-2.681c.188-.705.504-1.267.947-1.686.444-.419.986-.71 1.627-.873.641-.164 1.46-.245 2.455-.245zm-2.617 2.405c-.454.532-.68 1.558-.68 3.08s.226 2.55.68 3.08c.463.532 1.336.797 2.617.797 1.282 0 2.155-.265 2.618-.797.464-.53.695-1.558.695-3.08s-.231-2.548-.695-3.08c-.463-.53-1.336-.796-2.618-.796-1.281 0-2.154.265-2.617.796zM56.45 17.829c1.005 0 1.828.081 2.469.245.64.163 1.183.454 1.627.873.444.419.76.98.947 1.686.187.694.28 1.588.28 2.681s-.093 1.992-.28 2.697c-.188.695-.503 1.252-.947 1.67-.444.42-.986.71-1.627.874-.64.163-1.464.245-2.47.245-.996 0-1.814-.082-2.455-.245a3.629 3.629 0 01-1.627-.874c-.444-.418-.76-.975-.946-1.67-.188-.705-.281-1.604-.281-2.697s.093-1.987.28-2.681c.188-.705.503-1.267.947-1.686.444-.419.986-.71 1.627-.873.64-.164 1.46-.245 2.455-.245zm-2.619 2.405c-.453.532-.68 1.558-.68 3.08s.227 2.55.68 3.08c.464.532 1.336.797 2.618.797 1.282 0 2.154-.265 2.618-.797.463-.53.695-1.558.695-3.08s-.232-2.548-.695-3.08c-.464-.53-1.336-.796-2.618-.796-1.282 0-2.154.265-2.618.796zM71.207 28.677h-6.744c-1.006 0-1.509-.536-1.509-1.608V17.95h1.952v8.351c0 .307.05.511.148.613.099.102.296.154.592.154h5.56v1.608zM71.635 28.677V27.07h5.738c.65 0 .976-.389.976-1.165 0-.593-.335-.996-1.005-1.21l-4.082-1.334c-.651-.214-1.11-.541-1.376-.98-.256-.45-.384-1.063-.384-1.84 0-.796.197-1.424.591-1.884.395-.47.986-.705 1.775-.705h5.96v1.61h-5.442c-.267 0-.479.086-.636.26-.158.173-.237.444-.237.812 0 .296.054.541.163.735.118.194.364.353.74.475l3.785 1.241c.78.256 1.332.588 1.657.997.335.408.503 1.021.503 1.838 0 .838-.183 1.507-.547 2.008-.355.5-.913.75-1.672.75h-6.507zM84.76 26.272l1.922-7.34c.03-.133.064-.25.104-.352.049-.103.123-.215.221-.338.109-.133.257-.235.444-.306.188-.072.41-.107.666-.107.769 0 1.247.367 1.434 1.103l1.923 7.34c.05.173.123.26.222.26.108 0 .187-.107.237-.322l2.055-8.259h1.982l-2.5 9.347c-.137.511-.315.89-.532 1.134-.217.245-.596.368-1.139.368-.532 0-.912-.117-1.138-.352-.227-.246-.4-.588-.518-1.027l-1.82-6.941c-.039-.195-.103-.292-.191-.292-.08 0-.148.097-.208.292l-1.834 6.94c-.118.45-.29.793-.517 1.028-.217.235-.592.352-1.124.352-.543 0-.927-.123-1.154-.368-.227-.255-.404-.633-.532-1.134l-2.485-9.347h1.982l2.056 8.26c.059.214.133.321.222.321.078 0 .152-.087.221-.26zM101.484 17.829c1.006 0 1.829.081 2.47.245a3.63 3.63 0 011.627.873c.444.419.759.98.947 1.686.187.694.281 1.588.281 2.681s-.094 1.992-.281 2.697c-.188.695-.503 1.252-.947 1.67a3.63 3.63 0 01-1.627.874c-.641.163-1.464.245-2.47.245-.996 0-1.814-.082-2.455-.245a3.629 3.629 0 01-1.627-.874c-.444-.418-.759-.975-.946-1.67-.188-.705-.281-1.604-.281-2.697s.093-1.987.28-2.681c.188-.705.504-1.267.947-1.686.444-.419.986-.71 1.627-.873.64-.164 1.459-.245 2.455-.245zm-2.618 2.405c-.453.532-.68 1.558-.68 3.08s.227 2.55.68 3.08c.464.532 1.336.797 2.618.797 1.282 0 2.155-.265 2.618-.797.463-.53.695-1.558.695-3.08s-.232-2.548-.695-3.08c-.463-.53-1.336-.796-2.618-.796-1.282 0-2.154.265-2.618.796zM109.941 28.677h-1.952V19.56c0-1.072.503-1.609 1.509-1.609h5.221c.926 0 1.587.286 1.981.858.405.562.607 1.405.607 2.529 0 2.39-.799 3.585-2.396 3.585h-1.035V25l3.638 3.677H115l-3.343-3.478c-.325-.358-.488-.659-.488-.904v-.245c0-.225.074-.404.222-.537.158-.132.374-.199.651-.199h2.011c.503 0 .833-.158.991-.475.168-.316.251-.817.251-1.501 0-.654-.098-1.114-.295-1.38-.188-.265-.577-.398-1.169-.398h-3.15c-.296 0-.493.051-.592.153-.098.102-.148.307-.148.613v8.351zM126.807 28.677h-6.744c-1.005 0-1.508-.536-1.508-1.608V17.95h1.952v8.351c0 .307.049.511.148.613.098.102.296.154.591.154h5.561v1.608zM133.184 28.677h-4.274c-1.006 0-1.509-.536-1.509-1.608V19.56c0-1.072.503-1.609 1.509-1.609h4.008c.68 0 1.272.107 1.775.322.503.204.897.475 1.183.812.296.327.527.736.695 1.226.178.49.291.97.34 1.44.059.46.089.981.089 1.563 0 .572-.03 1.093-.089 1.563-.049.47-.157.95-.325 1.44-.158.491-.375.905-.651 1.242-.266.327-.636.598-1.109.812-.464.204-1.011.306-1.642.306zm-.946-9.117h-2.145c-.296 0-.493.051-.591.153-.099.102-.148.307-.148.613v5.976c0 .307.049.511.148.613.098.102.295.154.591.154h2.145c.572 0 1.045-.087 1.419-.261.375-.184.656-.46.844-.827.187-.368.315-.756.384-1.165.069-.409.104-.91.104-1.502s-.035-1.093-.104-1.501a4.036 4.036 0 00-.384-1.165 1.747 1.747 0 00-.844-.812c-.374-.184-.847-.276-1.419-.276zM29.735 31.086H137V32H29.735z" /></svg>