<svg width="171" height="40" fill="none" xmlns="http://www.w3.org/2000/svg"><path opacity=".4" d="M36.687 0L18.344 9.056 0 0v40h36.687V0zm-3.9 27.046v10.69H18.343v-5.217L3.903 37.993v-1.657l14.44-5.474 14.441-5.474.002 1.658zm0-3.556l-3.736 1.416-10.705 4.057L3.92 34.432l-.015-.038v-1.615l14.44-5.474 6.333-2.4 8.108-3.073v1.658zm0-3.555l-13.116 4.97-1.325.503-14.441 5.474v-1.658l13.383-5.072 1.056-.4 14.44-5.473.002 1.655zm0-3.406l-14.441 5.474-5.67 2.15-8.773 3.325V25.82l4.4-1.668 10.04-3.805 14.441-5.474.002 1.656zm0-3.808l-14.441 5.474-14.441 5.473V11.321h14.44v5.216l14.441-5.473v1.657z" fill="#4D5B68"/><path d="M36.687 0L18.344 9.056 0 0v40h36.687V0zm-3.9 27.046v10.69H18.343v-5.217L3.903 37.993v-1.657l14.44-5.474 14.441-5.474.002 1.658zm0-3.556l-3.736 1.416-10.705 4.057L3.92 34.432l-.015-.038v-1.615l14.44-5.474 6.333-2.4 8.108-3.073v1.658zm0-3.555l-13.116 4.97-1.325.503-14.441 5.474v-1.658l13.383-5.072 1.056-.4 14.44-5.473.002 1.655zm0-3.406l-14.441 5.474-5.67 2.15-8.773 3.325V25.82l4.4-1.668 10.04-3.805 14.441-5.474.002 1.656zm0-3.808l-14.441 5.474-14.441 5.473V11.321h14.44v5.216l14.441-5.473v1.657z" fill="#4D5B68"/><path opacity=".4" d="M40.59 38.49h130.407V40H40.59v-1.51z" fill="#4D5B68"/><path d="M40.59 38.49h130.407V40H40.59v-1.51z" fill="#4D5B68"/><path opacity=".4" d="M40.59 14.872h130.407v1.509H40.59v-1.51z" fill="#4D5B68"/><path d="M40.59 14.872h130.407v1.509H40.59v-1.51zM45.108 6.352c.02-.067.048-.142.083-.229a.748.748 0 01.162-.236.885.885 0 01.292-.187c.15-.055.311-.081.473-.076.153-.005.305.02.448.07a.945.945 0 01.292.177.799.799 0 01.178.232c.04.079.071.162.094.247l1.356 4.832a.603.603 0 00.063.111.118.118 0 00.094.06.156.156 0 00.083-.04.308.308 0 00.084-.171l1.45-5.438h1.398l-1.763 6.154c-.035.114-.075.23-.12.348a.981.981 0 01-.197.318 1.01 1.01 0 01-.334.232 1.304 1.304 0 01-.527.09c-.17.005-.34-.02-.5-.076a.96.96 0 01-.538-.49 2.096 2.096 0 01-.13-.342l-1.284-4.571c-.035-.128-.083-.19-.146-.19-.02 0-.04.007-.057.02a.089.089 0 00-.032.05 3.308 3.308 0 01-.047.12L44.69 11.94c-.03.105-.066.208-.11.308a1.058 1.058 0 01-.193.293.93.93 0 01-.329.221 1.373 1.373 0 01-.527.086c-.26.01-.515-.061-.73-.202-.24-.205-.4-.482-.459-.787l-1.753-6.153h1.398l1.45 5.437c.014.034.03.076.047.131.006.024.02.045.04.06a.11.11 0 00.07.021.117.117 0 00.094-.06.655.655 0 00.063-.112l1.357-4.83zM56.224 5.636c.26.007.518.034.772.08.262.048.517.122.762.223.25.103.478.25.673.433.188.176.34.385.449.616.111.236.197.483.255.736.059.256.096.515.11.777a14 14 0 01.02.736c0 .236-.008.483-.026.742-.017.26-.053.517-.11.771-.054.254-.138.501-.25.737-.107.23-.26.44-.448.615a2.194 2.194 0 01-.673.434c-.245.1-.5.175-.762.222a5.118 5.118 0 01-.777.08 26.286 26.286 0 01-1.404 0 5.097 5.097 0 01-.771-.08 3.79 3.79 0 01-.762-.222 2.217 2.217 0 01-1.158-1.1 3.415 3.415 0 01-.25-.761 4.837 4.837 0 01-.094-.762 14.025 14.025 0 01.005-1.427c.013-.258.048-.515.104-.767.055-.25.139-.494.25-.727a1.98 1.98 0 01.47-.62c.195-.184.423-.33.673-.434.243-.1.497-.174.756-.222.253-.047.51-.074.767-.08.254-.007.492-.01.715-.01.215 0 .45.003.704.01zm-3.005 4.353c.02.187.053.372.1.555.033.135.08.267.14.393.047.095.104.185.172.267.098.129.223.237.366.318.14.078.291.137.448.176.168.042.34.067.512.076a9.721 9.721 0 001.1 0c.173-.01.344-.035.512-.076.16-.038.312-.098.454-.176.145-.082.272-.19.376-.318a1.3 1.3 0 00.172-.272c.06-.127.106-.259.14-.394.047-.182.08-.367.1-.554.026-.249.038-.498.036-.747a7.263 7.263 0 00-.036-.782 3.846 3.846 0 00-.1-.56 1.595 1.595 0 00-.313-.635 1.388 1.388 0 00-.823-.48 5.651 5.651 0 00-1.064-.095 5.546 5.546 0 00-1.064.096c-.322.06-.61.23-.814.479a1.93 1.93 0 00-.328.711c-.093.416-.133.84-.12 1.266-.003.251.009.502.034.752zM60.31 6.907c0-.157.014-.314.04-.469a.788.788 0 01.262-.449.925.925 0 01.433-.232c.146-.032.294-.049.444-.05h3.463c.126 0 .258.005.397.015.142.01.282.036.417.076a1.324 1.324 0 01.751.554c.169.226.277.49.316.766.034.262.051.524.052.788 0 .264-.016.528-.047.791a2.14 2.14 0 01-.266.802c-.051.091-.11.177-.178.258-.076.09-.166.168-.266.232-.12.076-.252.133-.391.171-.177.047-.36.069-.543.066h-.939v.05l2.776 2.492h-1.734l-2.4-2.29a1.81 1.81 0 01-.229-.278.564.564 0 01-.115-.317V9.72a.436.436 0 01.158-.348.682.682 0 01.459-.136h1.379c.132-.002.263-.019.391-.05.15-.04.28-.134.36-.263a.777.777 0 00.089-.212c.024-.087.041-.176.052-.266a3.846 3.846 0 00.026-.49 2.172 2.172 0 00-.073-.647.804.804 0 00-.188-.332.646.646 0 00-.386-.187 3.439 3.439 0 00-.386-.025h-2.232c-.066-.001-.133.004-.197.015a.334.334 0 00-.167.095.314.314 0 00-.13.187c-.011.069-.017.138-.016.207v5.498h-1.377l-.006-5.86zM68.906 12.768c-.122 0-.245-.012-.365-.038a.734.734 0 01-.313-.141.909.909 0 01-.172-.212.694.694 0 01-.088-.373V5.707h1.377v5.62c0 .04 0 .088.005.145a.22.22 0 00.088.157c.034.019.069.036.105.05a.691.691 0 00.24.03h4.006v1.06h-4.883zM75.323 12.768c-.2.012-.401-.016-.59-.08a1.627 1.627 0 01-.225-.111.862.862 0 01-.203-.248.892.892 0 01-.1-.459V6.837c0-.139.013-.277.037-.414a.85.85 0 01.214-.414c.082-.072.17-.136.266-.19.158-.082.337-.12.516-.11h2.86c.44-.014.879.07 1.282.241.323.144.613.346.856.596.169.18.308.384.412.605.1.213.175.436.225.666.048.226.077.455.088.685.02.434.02.868 0 1.302-.011.244-.04.486-.083.726-.045.249-.11.494-.197.732-.083.23-.2.445-.35.64-.086.105-.18.203-.282.293a1.985 1.985 0 01-.417.282 2.547 2.547 0 01-.584.212c-.25.057-.506.084-.762.08h-2.963zm.26-1.543c0 .074 0 .143.006.207.005.068.037.13.089.176.041.05.101.083.167.091.062.007.125.01.187.01h1.587c.324.01.647-.039.954-.141.261-.1.48-.28.622-.515.118-.203.202-.422.25-.65.09-.444.13-.895.116-1.347 0-.148-.006-.303-.017-.464a2.998 2.998 0 00-.067-.474 2.076 2.076 0 00-.158-.45 1.467 1.467 0 00-.62-.65 1.96 1.96 0 00-.402-.156 2.623 2.623 0 00-.417-.076 4.177 4.177 0 00-.397-.02h-1.43c-.041 0-.093.003-.157.01a.357.357 0 00-.167.06.376.376 0 00-.105.146.517.517 0 00-.041.208v4.035zM88.704 5.636c.259.007.517.034.772.08.261.048.517.122.762.223.25.103.478.25.673.433.188.176.34.385.448.616.112.236.197.483.256.736.059.256.095.515.11.777.013.262.02.508.02.736 0 .236-.008.483-.026.742a5.29 5.29 0 01-.11.771c-.055.254-.139.501-.25.737-.108.23-.26.44-.448.615-.195.184-.423.331-.673.434-.245.1-.5.175-.762.222a5.116 5.116 0 01-.777.08 26.326 26.326 0 01-1.403 0 5.1 5.1 0 01-.773-.08 3.787 3.787 0 01-.761-.222 2.22 2.22 0 01-1.159-1.1 3.41 3.41 0 01-.25-.761 4.9 4.9 0 01-.094-.762 14.022 14.022 0 01.005-1.427c.014-.258.049-.515.105-.767.055-.25.139-.494.25-.727a1.98 1.98 0 01.47-.62c.194-.184.422-.33.673-.434.243-.1.496-.174.756-.222.253-.047.51-.074.767-.08.254-.007.492-.01.714-.01.216 0 .45.003.705.01zm-3.005 4.353c.02.187.053.372.099.555.033.135.08.267.141.393.046.095.104.185.172.267.098.13.222.237.365.318.141.078.292.137.449.176.168.042.34.067.512.076a9.706 9.706 0 001.1 0 2.79 2.79 0 00.512-.076c.159-.038.311-.098.454-.176a1.327 1.327 0 00.547-.59 2.25 2.25 0 00.142-.394c.046-.182.079-.367.098-.554a6.7 6.7 0 00.037-.747 7.161 7.161 0 00-.037-.782 3.845 3.845 0 00-.099-.56 1.738 1.738 0 00-.146-.383 1.39 1.39 0 00-.991-.731 5.647 5.647 0 00-1.064-.096 5.543 5.543 0 00-1.064.096c-.321.06-.61.23-.813.479-.158.213-.27.455-.33.711-.09.416-.13.84-.117 1.266-.003.251.008.502.033.752zM92.788 12.768V6.635c0-.118.018-.235.052-.348a.722.722 0 01.22-.328.822.822 0 01.39-.212c.129-.025.26-.038.392-.038h4.757v1.059h-4.09c-.049 0-.094.002-.135.005a.198.198 0 00-.126.077.229.229 0 00-.073.136c-.007.048-.01.097-.01.146v1.533h3.234v1.06h-3.232v3.047l-1.38-.004zM108.251 12.768h-1.379V9.661h-3.798v3.107h-1.377V5.707h1.377v2.895h3.798V5.707h1.379v7.061zM111.318 6.423c.091-.242.248-.456.454-.62a1.633 1.633 0 011.482 0c.211.16.371.376.464.62l2.754 6.345h-1.45l-.751-1.786h-3.517l-.74 1.786h-1.45l2.754-6.345zm-.209 3.611h2.806l-1.189-2.875a2.654 2.654 0 00-.083-.186c-.035-.073-.079-.107-.125-.107-.047 0-.091.036-.126.107-.034.07-.062.133-.083.186l-1.2 2.875zM123.776 11.85a.892.892 0 01-.319.766c-.221.158-.491.24-.766.233-.218 0-.434-.037-.637-.111-.231-.1-.422-.27-.543-.484l-3.078-4.701a1.479 1.479 0 00-.114-.142.084.084 0 00-.052-.03.152.152 0 00-.094.045.209.209 0 00-.043.073c-.009.027-.012.056-.009.084v5.185h-1.336V6.584a.892.892 0 01.297-.707c.232-.178.524-.268.82-.251.261-.015.521.04.751.161.165.1.304.234.407.394l3.099 4.731c.028.034.05.071.068.11a.095.095 0 00.098.062.09.09 0 00.1-.066.475.475 0 00.015-.106V5.707h1.336v6.143zM126.144 12.768c-.2.012-.401-.016-.591-.08a1.677 1.677 0 01-.224-.111.877.877 0 01-.204-.248.905.905 0 01-.099-.459V6.837c.001-.139.013-.277.037-.414a.851.851 0 01.214-.414c.081-.072.17-.136.266-.19.158-.082.337-.12.516-.11h2.859c.441-.014.88.069 1.283.241.322.144.613.346.856.596.168.18.307.384.412.605.1.213.175.436.224.666.048.226.078.455.089.685a13.795 13.795 0 010 1.302 5.54 5.54 0 01-.084.726 4.34 4.34 0 01-.197.732c-.081.23-.199.445-.349.64a2.705 2.705 0 01-.282.293 1.99 1.99 0 01-.417.282 2.533 2.533 0 01-.585.212 3.233 3.233 0 01-.761.08h-2.963zm.261-1.543c0 .074 0 .143.005.207.006.068.037.13.089.176.042.05.101.083.167.091.062.007.125.01.187.01h1.587c.324.01.648-.039.954-.141.261-.1.479-.28.621-.515.118-.203.203-.422.25-.65a5.8 5.8 0 00.115-1.347c0-.148-.005-.303-.016-.464a3.032 3.032 0 00-.067-.474 2.061 2.061 0 00-.158-.45 1.463 1.463 0 00-.621-.65 1.947 1.947 0 00-.401-.156 2.644 2.644 0 00-.418-.076 4.144 4.144 0 00-.396-.02h-1.429c-.042 0-.095.003-.158.01a.356.356 0 00-.167.06.39.39 0 00-.105.146.51.51 0 00-.041.208l.002 4.035zM137.391 12.768V6.766h-2.848V5.707h7.084v1.06h-2.859v6.001h-1.377zM146.4 5.636a5.1 5.1 0 01.772.08c.262.048.517.122.762.223.25.103.478.25.673.433.188.176.341.385.449.616.111.236.197.483.255.736.059.256.096.515.11.777.014.262.021.508.021.736 0 .236-.009.483-.027.742a5.29 5.29 0 01-.109.771c-.055.254-.139.501-.25.737-.108.23-.26.44-.449.615a2.204 2.204 0 01-.673.434c-.245.1-.5.175-.762.222a5.104 5.104 0 01-.777.08 26.359 26.359 0 01-1.403 0 5.09 5.09 0 01-.772-.08 3.785 3.785 0 01-.762-.222 2.217 2.217 0 01-1.158-1.1 3.481 3.481 0 01-.251-.761 4.884 4.884 0 01-.093-.762 13.924 13.924 0 01.005-1.427 4.61 4.61 0 01.104-.767 3.35 3.35 0 01.25-.727c.113-.234.273-.445.47-.62.195-.184.423-.33.673-.434.243-.1.497-.174.756-.222.253-.046.51-.073.767-.08.254-.007.492-.01.715-.01.214 0 .449.003.704.01zm-3.005 4.353c.02.187.053.372.099.555.034.135.081.267.141.393.047.095.104.185.173.267.097.129.222.237.365.318.141.078.291.137.449.176.167.042.339.067.512.076a9.71 9.71 0 001.099 0c.173-.01.345-.035.513-.076a1.84 1.84 0 00.453-.176 1.314 1.314 0 00.548-.59c.059-.127.106-.259.141-.394.046-.182.08-.367.099-.554.026-.249.038-.498.036-.747a7.289 7.289 0 00-.036-.782 3.805 3.805 0 00-.099-.56 1.763 1.763 0 00-.146-.383 1.386 1.386 0 00-.992-.731 5.635 5.635 0 00-1.063-.096 5.535 5.535 0 00-1.064.096 1.38 1.38 0 00-.814.479c-.158.213-.27.455-.329.711-.092.416-.131.84-.118 1.266-.003.251.008.502.033.752zM154.737 5.636c.259.007.518.034.772.08.262.048.517.122.762.223.25.103.478.25.673.433.188.176.341.385.449.616.111.236.197.483.255.736.059.256.096.515.11.777a11.339 11.339 0 01-.005 1.478c-.018.26-.055.517-.11.771s-.139.501-.25.737c-.108.23-.26.44-.449.615-.194.184-.423.331-.673.434-.245.1-.5.175-.762.222a5.104 5.104 0 01-.777.08 26.359 26.359 0 01-1.403 0 5.09 5.09 0 01-.772-.08 3.785 3.785 0 01-.762-.222 2.217 2.217 0 01-1.158-1.1 3.424 3.424 0 01-.25-.761 4.888 4.888 0 01-.095-.762 13.924 13.924 0 01.006-1.427 4.61 4.61 0 01.104-.767c.055-.25.139-.494.251-.727a1.98 1.98 0 01.469-.62c.195-.184.423-.33.673-.434.243-.1.497-.174.756-.222.253-.047.51-.074.767-.08.254-.007.492-.01.715-.01.215 0 .45.003.704.01zm-3.006 4.353c.02.187.053.372.099.555.033.135.081.267.141.393.046.095.104.185.172.267.098.13.222.237.365.318.141.078.292.137.449.176.167.042.339.067.512.076a9.695 9.695 0 001.1 0c.172-.01.344-.035.512-.076.159-.038.311-.098.454-.176.24-.139.431-.344.547-.59.06-.127.107-.259.141-.394.047-.182.08-.367.099-.554.026-.248.039-.498.037-.747a7.039 7.039 0 00-.037-.782 3.806 3.806 0 00-.099-.56 1.713 1.713 0 00-.146-.383 1.387 1.387 0 00-.991-.731 5.653 5.653 0 00-1.064-.096 5.549 5.549 0 00-1.064.096c-.321.06-.61.23-.813.479a1.92 1.92 0 00-.329.711c-.092.416-.131.84-.119 1.266-.003.251.009.502.034.752zM159.761 12.768c-.123 0-.245-.012-.365-.038a.735.735 0 01-.315-.141.908.908 0 01-.172-.212.689.689 0 01-.089-.373V5.707h1.377v5.62c0 .04.002.088.005.145a.225.225 0 00.089.157c.033.019.068.036.104.05a.693.693 0 00.24.03h4.007v1.06h-4.881zM164.842 11.71h4.048a.724.724 0 00.386-.087.586.586 0 00.204-.206.686.686 0 00.083-.252 1.253 1.253 0 00-.005-.434.58.58 0 00-.094-.217.818.818 0 00-.214-.202 1.382 1.382 0 00-.381-.167l-2.88-.876a1.723 1.723 0 01-.365-.146c-.09-.047-.177-.1-.261-.156a1.07 1.07 0 01-.24-.222 1.152 1.152 0 01-.197-.313 2.156 2.156 0 01-.167-.696 5.275 5.275 0 01-.01-.323c.001-.227.028-.454.079-.676.058-.246.195-.468.391-.635a1.25 1.25 0 01.605-.328c.195-.042.395-.064.595-.066h4.204v1.06h-3.735a1.81 1.81 0 00-.297.025.548.548 0 00-.276.136.479.479 0 00-.162.282 1.778 1.778 0 00-.026.263.752.752 0 00.181.525.802.802 0 00.498.272l2.67.817c.213.062.421.14.621.232.154.07.297.162.423.272.108.096.196.21.261.338.06.12.108.245.141.373.03.118.051.238.062.359a3.105 3.105 0 01-.052.973c-.044.23-.147.447-.298.63a1.11 1.11 0 01-.604.424 2.957 2.957 0 01-.699.08h-4.489v-1.06zM40.59 21.875c.002-.399.037-.796.105-1.189.084-.44.316-.84.661-1.137.303-.29.682-.493 1.097-.588a5.371 5.371 0 011.123-.127h8.775c.318 0 .652.013 1.005.038.358.026.713.09 1.057.19.364.108.707.272 1.017.486.353.25.654.561.886.92.425.575.697 1.242.793 1.943.086.661.13 1.327.132 1.994-.001.67-.04 1.34-.118 2.005a5.427 5.427 0 01-.674 2.032c-.13.23-.28.448-.45.652-.192.227-.42.425-.673.587-.306.194-.64.34-.992.435a5.02 5.02 0 01-1.374.166h-2.379v.128l7.03 6.314h-4.387l-6.08-5.802a4.6 4.6 0 01-.581-.702 1.43 1.43 0 01-.29-.805v-.409a1.1 1.1 0 01.096-.483c.069-.153.171-.289.3-.398.33-.252.744-.375 1.163-.346h3.489a4.34 4.34 0 00.99-.128c.382-.099.709-.337.913-.664.1-.167.177-.348.224-.536.062-.223.106-.449.133-.678.026-.23.043-.455.052-.677.009-.221.013-.409.013-.562a5.513 5.513 0 00-.185-1.635 2.042 2.042 0 00-.475-.843 1.645 1.645 0 00-.977-.475 8.686 8.686 0 00-.978-.064h-5.657a2.893 2.893 0 00-.503.038.84.84 0 00-.422.243.796.796 0 00-.33.473c-.028.173-.041.348-.04.523v13.93H40.59v-14.85zM70.76 18.655c.656.018 1.31.087 1.956.204.663.12 1.31.309 1.93.563a5.604 5.604 0 011.706 1.098 5.09 5.09 0 011.136 1.56c.282.598.5 1.224.647 1.866.15.647.241 1.305.276 1.967.035.666.053 1.288.053 1.867 0 .597-.022 1.223-.066 1.879a13.41 13.41 0 01-.276 1.955 8.684 8.684 0 01-.635 1.866 5.066 5.066 0 01-1.136 1.559 5.573 5.573 0 01-1.705 1.099 9.57 9.57 0 01-1.93.563c-.65.117-1.31.185-1.97.203-.652.018-1.242.026-1.77.026-.547 0-1.142-.008-1.785-.026a12.98 12.98 0 01-1.956-.204 9.566 9.566 0 01-1.93-.562 5.616 5.616 0 01-2.934-2.786 8.66 8.66 0 01-.635-1.929 12.312 12.312 0 01-.236-1.93 35.59 35.59 0 01.013-3.617c.035-.653.123-1.302.265-1.942a8.47 8.47 0 01.634-1.841 5.044 5.044 0 011.19-1.572 5.588 5.588 0 011.704-1.098 9.683 9.683 0 011.916-.562c.641-.119 1.29-.187 1.943-.205a62.356 62.356 0 013.595-.001zm-7.612 11.027c.05.474.134.943.251 1.406.085.342.205.676.357.996.118.242.264.47.436.678.248.327.563.602.925.806.357.197.739.347 1.137.447.424.104.858.168 1.295.19a25.286 25.286 0 002.788 0 7.04 7.04 0 001.295-.19c.403-.098.79-.248 1.15-.447.367-.208.69-.482.952-.806.174-.212.32-.443.436-.69a5.75 5.75 0 00.355-.996c.118-.462.202-.932.251-1.405.066-.629.096-1.26.092-1.892a18.355 18.355 0 00-.092-1.98 9.655 9.655 0 00-.251-1.42 4.43 4.43 0 00-.37-.97 4.182 4.182 0 00-.424-.64 3.516 3.516 0 00-2.088-1.214 14.327 14.327 0 00-2.696-.243 14.06 14.06 0 00-2.696.243 3.504 3.504 0 00-2.061 1.215c-.4.54-.682 1.153-.833 1.801a13.04 13.04 0 00-.304 3.207 16.79 16.79 0 00.095 1.904zM95.275 34.781c-.141.34-.278.643-.41.907-.122.25-.287.48-.489.677a1.843 1.843 0 01-.713.422 3.284 3.284 0 01-1.031.14 2.91 2.91 0 01-1.097-.178 2.136 2.136 0 01-.727-.474 2.468 2.468 0 01-.476-.676 9.297 9.297 0 01-.343-.818l-4.731-11.935a2.034 2.034 0 00-.185-.371c-.089-.145-.177-.217-.265-.217-.14 0-.225.081-.25.243-.027.162-.04.26-.04.293l.079 13.928h-3.49V20.98a2.028 2.028 0 01.397-1.34c.24-.298.548-.538.899-.704.31-.146.646-.237.99-.267.327-.025.56-.038.702-.038.451-.01.902.05 1.334.179.332.104.638.274.899.499.239.213.44.464.594.74.16.285.302.58.424.882l4.783 11.935c.075.162.158.32.251.472.08.128.163.19.252.19.088 0 .171-.064.25-.19.093-.153.177-.31.251-.472l4.785-11.935c.152-.433.37-.842.647-1.213a2.643 2.643 0 011.652-1.01c.314-.052.633-.078.952-.076a3.799 3.799 0 012.141.562c.287.204.515.475.663.789.148.313.211.658.182 1.001v15.74h-3.487l.106-13.928c0-.238-.04-.387-.119-.447a.362.362 0 00-.197-.09c-.088 0-.176.073-.264.217a1.943 1.943 0 00-.185.371l-4.734 11.934zM111.926 20.648a3.676 3.676 0 011.149-1.572 4.148 4.148 0 013.754 0c.535.409.941.953 1.175 1.572l6.979 16.076h-3.674l-1.903-4.523h-8.907l-1.877 4.523h-3.674l6.978-16.076zm-.529 9.148h7.11l-3.013-7.281a6.02 6.02 0 00-.211-.473c-.088-.179-.195-.27-.318-.27s-.229.09-.315.27c-.086.18-.158.336-.212.473l-3.041 7.281zM143.485 34.397c0 .903-.269 1.55-.807 1.943-.562.4-1.245.607-1.942.588a4.646 4.646 0 01-1.613-.281 2.878 2.878 0 01-1.375-1.227l-7.797-11.909a3.777 3.777 0 00-.29-.357.213.213 0 00-.132-.076.377.377 0 00-.236.114.506.506 0 00-.133.396v13.136h-3.383V21.057a2.186 2.186 0 01.169-.977c.13-.31.33-.588.584-.814a3.115 3.115 0 012.073-.637 3.653 3.653 0 011.903.408c.418.252.77.593 1.03.997l7.851 11.986c.07.085.128.18.171.281.019.048.054.09.099.117.046.027.099.04.152.035a.23.23 0 00.16-.035.213.213 0 00.091-.131c.024-.087.037-.177.04-.267V18.834h3.383l.002 15.563zM146.656 36.724v-17.89h3.489v17.89h-3.489zM157.916 20.648a3.677 3.677 0 011.15-1.572 4.148 4.148 0 013.753 0c.535.409.942.953 1.176 1.572l6.977 16.076h-3.674l-1.903-4.523h-8.907l-1.876 4.523h-3.674l6.978-16.076zm-.528 9.148h7.108l-3.013-7.281a5.668 5.668 0 00-.211-.473c-.088-.179-.194-.27-.315-.27s-.23.09-.318.27c-.087.18-.157.336-.211.473l-3.04 7.281z" fill="#4D5B68"/></svg>