<svg width="630" height="145" xmlns="http://www.w3.org/2000/svg"><g clip-path="url(#clip0)"><path opacity=".4" d="M128.58 0L64.29 32.83 0 0v145h128.58V0zm-13.67 98.04v38.75H64.29v-18.91l-50.61 19.84v-6.01l50.61-19.84 50.61-19.84v6.01h.01zm0-12.89l-13.09 5.13-37.52 14.71-50.56 19.82-.05-.13v-5.85L64.3 98.99l22.2-8.7 28.42-11.14v6h-.01zm0-12.89L68.94 90.28l-4.65 1.82-50.61 19.84v-6.01l46.91-18.39 3.7-1.45 50.61-19.84v6.01h.01zm0-12.34L64.29 79.76l-19.87 7.79L13.68 99.6v-6.01l15.42-6.05 35.19-13.8L114.9 53.9v6.02h.01zm0-13.81L64.29 65.96 13.68 85.8V41.04h50.61v18.91l50.61-19.84v6h.01z"/><path d="M128.58 0L64.29 32.83 0 0v145h128.58V0zm-13.67 98.04v38.75H64.29v-18.91l-50.61 19.84v-6.01l50.61-19.84 50.61-19.84v6.01h.01zm0-12.89l-13.09 5.13-37.52 14.71-50.56 19.82-.05-.13v-5.85L64.3 98.99l22.2-8.7 28.42-11.14v6h-.01zm0-12.89L68.94 90.28l-4.65 1.82-50.61 19.84v-6.01l46.91-18.39 3.7-1.45 50.61-19.84v6.01h.01zm0-12.34L64.29 79.76l-19.87 7.79L13.68 99.6v-6.01l15.42-6.05 35.19-13.8L114.9 53.9v6.02h.01zm0-13.81L64.29 65.96 13.68 85.8V41.04h50.61v18.91l50.61-19.84v6h.01z"/><path opacity=".45" d="M174.8 133.01l.3-32.36c0-.32-.03-.64-.09-.94-.06-.3-.23-.46-.52-.46-.24 0-.49.2-.73.61s-.53.85-.85 1.34l-17.52 28.28c-.28.49-.6.96-.94 1.43-.35.47-.76.89-1.25 1.28s-1.1.7-1.82.94c-.73.24-1.64.36-2.74.36-1.54 0-2.74-.27-3.59-.79-.85-.53-1.47-1.18-1.86-1.95-.39-.77-.62-1.57-.7-2.4-.08-.83-.12-1.55-.12-2.16V90.43h8.03l-.24 31.75c0 .49.02.93.06 1.34.04.41.26.61.67.61.24 0 .45-.14.61-.43.16-.28.35-.59.55-.91l17.18-28.1c1.14-1.86 2.24-3.12 3.32-3.77 1.08-.65 2.35-.97 3.81-.97 1.58 0 2.82.3 3.72.91.89.61 1.54 1.32 1.95 2.13.41.81.65 1.65.73 2.52.08.87.12 1.57.12 2.1v35.4h-8.08zM228.38 133.01h-8.03v-18.73h-22.14v18.73h-8.03V90.43h8.03v17.46h22.14V90.43h8.03v42.58zM252.35 133.01c-1.01 0-2.11-.05-3.28-.15-1.18-.1-2.36-.33-3.56-.67-1.2-.34-2.37-.85-3.53-1.52-1.16-.67-2.22-1.55-3.19-2.64-1.01-1.14-1.81-2.37-2.37-3.71-.57-1.34-.99-2.7-1.28-4.08a29.4 29.4 0 01-.55-4.1c-.08-1.36-.12-2.63-.12-3.8 0-1.5.05-3.01.15-4.53.1-1.52.29-3 .58-4.44.28-1.44.7-2.8 1.25-4.08.55-1.28 1.27-2.44 2.16-3.5 1.05-1.26 2.23-2.24 3.53-2.95 1.3-.71 2.59-1.25 3.89-1.61 1.3-.36 2.51-.59 3.65-.67 1.13-.08 2.09-.12 2.86-.12h17.09v6.39H256.3c-1.18 0-2.31.03-3.41.09-1.09.06-2.12.23-3.07.52-.95.28-1.82.69-2.61 1.22-.79.53-1.49 1.24-2.1 2.13-.65.93-1.21 2.28-1.67 4.04-.47 1.76-.7 4.23-.7 7.39 0 1.58.06 2.95.18 4.11.12 1.15.28 2.14.49 2.95.2.81.43 1.48.67 2.01.24.53.47.95.67 1.28 1.09 1.66 2.59 2.76 4.5 3.28 1.9.53 4.12.79 6.63.79h14.42v6.39h-17.95v-.02zM288.11 133.01v-36.2H271.5v-6.39h41.3v6.39h-16.67V133h-8.02v.01zM315.85 133.01v-36.2c0-.81.06-1.62.18-2.43s.55-1.58 1.28-2.31c.69-.69 1.48-1.13 2.37-1.34.89-.2 1.7-.3 2.43-.3h20.26c.56 0 1.2.01 1.91.03.71.02 1.44.11 2.19.27.75.16 1.5.42 2.25.76.75.35 1.45.84 2.1 1.49.73.69 1.31 1.49 1.73 2.4.42.91.75 1.88.97 2.89.22 1.01.36 2.03.42 3.04.06 1.01.09 1.97.09 2.86 0 .85-.04 1.82-.12 2.89-.08 1.07-.24 2.15-.49 3.22-.24 1.07-.61 2.1-1.09 3.07a7.47 7.47 0 01-2.01 2.49c-.81.65-1.79 1.16-2.92 1.52-1.14.36-2.33.55-3.59.55h-19.95v15.08h-8.01v.02zm23.29-21.48c.89 0 1.81-.06 2.77-.18.95-.12 1.77-.59 2.46-1.4.32-.36.58-.8.76-1.31a10.62 10.62 0 00.6-3.13c.02-.53.03-.99.03-1.4 0-.93-.08-1.97-.24-3.1-.17-1.13-.59-2.05-1.28-2.74-.69-.69-1.52-1.1-2.49-1.25-.97-.14-1.81-.21-2.5-.21h-12.96c-.28 0-.59.01-.91.03-.33.02-.65.19-.97.52-.28.28-.45.6-.49.94-.04.35-.06.7-.06 1.06v12.17h15.28zM368.28 133.01l5.17-9.43-18.19-33.15h8.88l13.44 25.79 12.96-25.79h8.76l-22.32 42.58h-8.7zM434.34 128.38c-.33.81-.64 1.53-.94 2.16a5.6 5.6 0 01-1.13 1.61c-.45.45-.99.78-1.64 1-.65.22-1.44.34-2.37.34-1.02 0-1.86-.14-2.52-.43-.67-.28-1.23-.66-1.67-1.13-.45-.46-.81-1-1.1-1.61-.28-.61-.55-1.26-.79-1.95l-10.89-28.41c-.08-.24-.22-.54-.43-.88-.2-.34-.41-.52-.61-.52-.33 0-.52.19-.58.58-.06.39-.09.62-.09.7l.18 33.15h-8.03V95.54c0-1.38.3-2.44.91-3.19.61-.75 1.3-1.31 2.07-1.67.77-.36 1.53-.58 2.28-.64.75-.06 1.29-.09 1.61-.09 1.22 0 2.24.14 3.07.43.83.28 1.52.68 2.07 1.19.55.51 1 1.09 1.37 1.76.36.67.69 1.37.97 2.1l11.01 28.41c.2.45.4.82.58 1.13.18.3.37.46.58.46.2 0 .39-.15.58-.46.18-.3.38-.68.58-1.13l11.01-28.41c.45-1.22.94-2.18 1.49-2.89s1.14-1.26 1.79-1.64c.65-.38 1.32-.64 2.01-.76.69-.12 1.42-.18 2.19-.18 1.99 0 3.63.45 4.93 1.34 1.3.89 1.95 2.31 1.95 4.26v37.47h-8.03l.24-33.15c0-.57-.09-.92-.27-1.06-.18-.14-.33-.21-.46-.21-.2 0-.41.17-.61.52s-.34.64-.43.88l-10.88 28.37zM468.52 133.01c-.93 0-1.8-.05-2.61-.15-.81-.1-1.56-.5-2.25-1.19-.73-.69-1.18-1.49-1.34-2.4-.16-.91-.24-1.77-.24-2.58V96.51c0-.85.13-1.67.4-2.46.26-.79.62-1.45 1.06-1.98.69-.77 1.51-1.24 2.46-1.4.95-.16 1.83-.24 2.64-.24h27.31v6.39h-22.99c-.36 0-.74.03-1.13.09-.39.06-.74.23-1.07.52-.33.33-.52.67-.58 1.03-.06.36-.09.71-.09 1.03v8.58h25.24v6.39H470.1v9.98c0 .77.2 1.32.61 1.64.24.24.6.39 1.06.46.47.06 1.02.09 1.67.09h22.75v6.39h-27.67v-.01zM539.86 133.01h-8.03v-18.73h-22.14v18.73h-8.03V90.43h8.03v17.46h22.14V90.43h8.03v42.58zM559.51 133.01v-36.2h-16.6v-6.39h41.3v6.39h-16.66V133h-8.04v.01zM597.83 94.75c.77-1.78 1.65-3.03 2.64-3.74.99-.71 2.44-1.06 4.35-1.06 1.82 0 3.25.36 4.29 1.06 1.03.71 1.94 1.96 2.71 3.74l16.06 38.26h-8.45l-4.38-10.77h-20.5l-4.32 10.77h-8.45l16.05-38.26zm-1.22 21.77h16.36l-6.93-17.33c-.12-.32-.28-.7-.49-1.12-.2-.43-.45-.64-.73-.64-.28 0-.53.21-.73.64-.2.43-.37.8-.49 1.12l-6.99 17.33zM175.53 70.42c-.33.82-.65 1.56-.96 2.19a5.99 5.99 0 01-1.14 1.64c-.45.45-1.01.79-1.67 1.02-.66.23-1.46.34-2.41.34-1.03 0-1.89-.15-2.57-.43-.68-.29-1.25-.67-1.7-1.14-.45-.47-.83-1.02-1.11-1.64-.29-.62-.56-1.28-.8-1.98L152.1 41.53c-.08-.25-.23-.55-.43-.9-.21-.35-.41-.53-.62-.53-.33 0-.53.2-.59.59-.06.39-.09.63-.09.71l.19 33.71h-8.16v-38.1c0-1.4.31-2.48.93-3.25.62-.76 1.32-1.33 2.1-1.7.78-.37 1.56-.59 2.32-.65.76-.06 1.31-.09 1.64-.09 1.24 0 2.28.15 3.12.43.84.29 1.55.69 2.1 1.21.56.52 1.02 1.11 1.39 1.79.37.68.7 1.39.99 2.13l11.2 28.89c.21.45.4.83.59 1.14.19.31.38.46.59.46.21 0 .4-.16.59-.46.19-.31.38-.69.59-1.14l11.2-28.89c.45-1.24.96-2.22 1.51-2.94.56-.72 1.16-1.28 1.83-1.67a5.99 5.99 0 012.04-.77c.7-.12 1.44-.19 2.23-.19 2.02 0 3.69.45 5.01 1.36 1.32.91 1.98 2.35 1.98 4.33v38.1h-8.17l.25-33.71c0-.58-.09-.94-.28-1.08-.19-.14-.34-.22-.46-.22-.21 0-.41.18-.62.53-.21.35-.35.65-.43.9l-11.11 28.9zM236.7 75.12l.31-32.91c0-.33-.03-.65-.09-.96-.06-.31-.24-.46-.53-.46-.25 0-.5.21-.74.62-.25.41-.54.87-.87 1.36l-17.81 28.76c-.29.5-.61.98-.96 1.45s-.77.91-1.27 1.3-1.11.71-1.86.96c-.74.25-1.67.37-2.78.37-1.57 0-2.78-.27-3.65-.8-.87-.54-1.5-1.2-1.89-1.98-.39-.78-.63-1.6-.71-2.44-.08-.85-.12-1.58-.12-2.2V31.82h8.16l-.25 32.29c0 .5.02.95.06 1.36.04.41.27.62.68.62.25 0 .45-.14.62-.43.17-.29.35-.6.56-.93l17.47-28.58c1.16-1.9 2.28-3.17 3.38-3.83 1.09-.66 2.39-.99 3.87-.99 1.61 0 2.87.31 3.78.93.91.62 1.57 1.34 1.98 2.16.41.83.66 1.68.74 2.57.08.89.12 1.6.12 2.13v36h-8.2zM252.35 75.12v-36.8c0-.82.06-1.65.19-2.47.12-.82.56-1.61 1.3-2.35.7-.7 1.5-1.15 2.41-1.36.91-.21 1.73-.31 2.47-.31h20.6c.58 0 1.23.01 1.95.03.72.02 1.46.11 2.23.28.76.17 1.53.42 2.29.77.76.35 1.47.86 2.13 1.52.74.7 1.33 1.52 1.76 2.44.43.93.76 1.91.99 2.94.23 1.03.37 2.06.43 3.09.06 1.03.09 2 .09 2.91 0 .87-.04 1.85-.12 2.94-.08 1.09-.25 2.19-.5 3.28-.25 1.09-.62 2.13-1.11 3.12a7.74 7.74 0 01-2.04 2.54c-.83.66-1.82 1.18-2.97 1.55-1.15.37-2.37.56-3.65.56h-20.29v15.34h-8.16v-.02zm23.69-21.83c.91 0 1.85-.06 2.81-.19.97-.12 1.8-.6 2.51-1.42.33-.37.59-.81.77-1.33.19-.52.33-1.04.43-1.58.1-.54.16-1.07.19-1.61.02-.54.03-1.01.03-1.42 0-.95-.08-2-.25-3.15-.17-1.15-.6-2.08-1.3-2.78a4.44 4.44 0 00-2.54-1.27c-.99-.15-1.83-.22-2.54-.22h-13.18c-.29 0-.6.01-.93.03-.33.02-.66.2-.99.53-.29.29-.45.61-.49.96-.04.35-.06.71-.06 1.08v12.37h15.54z"/><path opacity=".4" d="M629.24 139.53H142.26V145h486.98v-5.47z"/><path d="M174.8 133.01l.3-32.36c0-.32-.03-.64-.09-.94-.06-.3-.23-.46-.52-.46-.24 0-.49.2-.73.61s-.53.85-.85 1.34l-17.52 28.28c-.28.49-.6.96-.94 1.43-.35.47-.76.89-1.25 1.28s-1.1.7-1.82.94c-.73.24-1.64.36-2.74.36-1.54 0-2.74-.27-3.59-.79-.85-.53-1.47-1.18-1.86-1.95-.39-.77-.62-1.57-.7-2.4-.08-.83-.12-1.55-.12-2.16V90.43h8.03l-.24 31.75c0 .49.02.93.06 1.34.04.41.26.61.67.61.24 0 .45-.14.61-.43.16-.28.35-.59.55-.91l17.18-28.1c1.14-1.86 2.24-3.12 3.32-3.77 1.08-.65 2.35-.97 3.81-.97 1.58 0 2.82.3 3.72.91.89.61 1.54 1.32 1.95 2.13.41.81.65 1.65.73 2.52.08.87.12 1.57.12 2.1v35.4h-8.08zM228.38 133.01h-8.03v-18.73h-22.14v18.73h-8.03V90.43h8.03v17.46h22.14V90.43h8.03v42.58zM252.35 133.01c-1.01 0-2.11-.05-3.28-.15-1.18-.1-2.36-.33-3.56-.67-1.2-.34-2.37-.85-3.53-1.52-1.16-.67-2.22-1.55-3.19-2.64-1.01-1.14-1.81-2.37-2.37-3.71-.57-1.34-.99-2.7-1.28-4.08a29.4 29.4 0 01-.55-4.1c-.08-1.36-.12-2.63-.12-3.8 0-1.5.05-3.01.15-4.53.1-1.52.29-3 .58-4.44.28-1.44.7-2.8 1.25-4.08.55-1.28 1.27-2.44 2.16-3.5 1.05-1.26 2.23-2.24 3.53-2.95 1.3-.71 2.59-1.25 3.89-1.61 1.3-.36 2.51-.59 3.65-.67 1.13-.08 2.09-.12 2.86-.12h17.09v6.39H256.3c-1.18 0-2.31.03-3.41.09-1.09.06-2.12.23-3.07.52-.95.28-1.82.69-2.61 1.22-.79.53-1.49 1.24-2.1 2.13-.65.93-1.21 2.28-1.67 4.04-.47 1.76-.7 4.23-.7 7.39 0 1.58.06 2.95.18 4.11.12 1.15.28 2.14.49 2.95.2.81.43 1.48.67 2.01.24.53.47.95.67 1.28 1.09 1.66 2.59 2.76 4.5 3.28 1.9.53 4.12.79 6.63.79h14.42v6.39h-17.95v-.02zM288.11 133.01v-36.2H271.5v-6.39h41.3v6.39h-16.67V133h-8.02v.01zM315.85 133.01v-36.2c0-.81.06-1.62.18-2.43s.55-1.58 1.28-2.31c.69-.69 1.48-1.13 2.37-1.34.89-.2 1.7-.3 2.43-.3h20.26c.56 0 1.2.01 1.91.03.71.02 1.44.11 2.19.27.75.16 1.5.42 2.25.76.75.35 1.45.84 2.1 1.49.73.69 1.31 1.49 1.73 2.4.42.91.75 1.88.97 2.89.22 1.01.36 2.03.42 3.04.06 1.01.09 1.97.09 2.86 0 .85-.04 1.82-.12 2.89-.08 1.07-.24 2.15-.49 3.22-.24 1.07-.61 2.1-1.09 3.07a7.47 7.47 0 01-2.01 2.49c-.81.65-1.79 1.16-2.92 1.52-1.14.36-2.33.55-3.59.55h-19.95v15.08h-8.01v.02zm23.29-21.48c.89 0 1.81-.06 2.77-.18.95-.12 1.77-.59 2.46-1.4.32-.36.58-.8.76-1.31a10.62 10.62 0 00.6-3.13c.02-.53.03-.99.03-1.4 0-.93-.08-1.97-.24-3.1-.17-1.13-.59-2.05-1.28-2.74-.69-.69-1.52-1.1-2.49-1.25-.97-.14-1.81-.21-2.5-.21h-12.96c-.28 0-.59.01-.91.03-.33.02-.65.19-.97.52-.28.28-.45.6-.49.94-.04.35-.06.7-.06 1.06v12.17h15.28zM368.28 133.01l5.17-9.43-18.19-33.15h8.88l13.44 25.79 12.96-25.79h8.76l-22.32 42.58h-8.7zM434.34 128.38c-.33.81-.64 1.53-.94 2.16a5.6 5.6 0 01-1.13 1.61c-.45.45-.99.78-1.64 1-.65.22-1.44.34-2.37.34-1.02 0-1.86-.14-2.52-.43-.67-.28-1.23-.66-1.67-1.13-.45-.46-.81-1-1.1-1.61-.28-.61-.55-1.26-.79-1.95l-10.89-28.41c-.08-.24-.22-.54-.43-.88-.2-.34-.41-.52-.61-.52-.33 0-.52.19-.58.58-.06.39-.09.62-.09.7l.18 33.15h-8.03V95.54c0-1.38.3-2.44.91-3.19.61-.75 1.3-1.31 2.07-1.67.77-.36 1.53-.58 2.28-.64.75-.06 1.29-.09 1.61-.09 1.22 0 2.24.14 3.07.43.83.28 1.52.68 2.07 1.19.55.51 1 1.09 1.37 1.76.36.67.69 1.37.97 2.1l11.01 28.41c.2.45.4.82.58 1.13.18.3.37.46.58.46.2 0 .39-.15.58-.46.18-.3.38-.68.58-1.13l11.01-28.41c.45-1.22.94-2.18 1.49-2.89s1.14-1.26 1.79-1.64c.65-.38 1.32-.64 2.01-.76.69-.12 1.42-.18 2.19-.18 1.99 0 3.63.45 4.93 1.34 1.3.89 1.95 2.31 1.95 4.26v37.47h-8.03l.24-33.15c0-.57-.09-.92-.27-1.06-.18-.14-.33-.21-.46-.21-.2 0-.41.17-.61.52s-.34.64-.43.88l-10.88 28.37zM468.52 133.01c-.93 0-1.8-.05-2.61-.15-.81-.1-1.56-.5-2.25-1.19-.73-.69-1.18-1.49-1.34-2.4-.16-.91-.24-1.77-.24-2.58V96.51c0-.85.13-1.67.4-2.46.26-.79.62-1.45 1.06-1.98.69-.77 1.51-1.24 2.46-1.4.95-.16 1.83-.24 2.64-.24h27.31v6.39h-22.99c-.36 0-.74.03-1.13.09-.39.06-.74.23-1.07.52-.33.33-.52.67-.58 1.03-.06.36-.09.71-.09 1.03v8.58h25.24v6.39H470.1v9.98c0 .77.2 1.32.61 1.64.24.24.6.39 1.06.46.47.06 1.02.09 1.67.09h22.75v6.39h-27.67v-.01zM539.86 133.01h-8.03v-18.73h-22.14v18.73h-8.03V90.43h8.03v17.46h22.14V90.43h8.03v42.58zM559.51 133.01v-36.2h-16.6v-6.39h41.3v6.39h-16.66V133h-8.04v.01zM597.83 94.75c.77-1.78 1.65-3.03 2.64-3.74.99-.71 2.44-1.06 4.35-1.06 1.82 0 3.25.36 4.29 1.06 1.03.71 1.94 1.96 2.71 3.74l16.06 38.26h-8.45l-4.38-10.77h-20.5l-4.32 10.77h-8.45l16.05-38.26zm-1.22 21.77h16.36l-6.93-17.33c-.12-.32-.28-.7-.49-1.12-.2-.43-.45-.64-.73-.64-.28 0-.53.21-.73.64-.2.43-.37.8-.49 1.12l-6.99 17.33zM175.53 70.42c-.33.82-.65 1.56-.96 2.19a5.99 5.99 0 01-1.14 1.64c-.45.45-1.01.79-1.67 1.02-.66.23-1.46.34-2.41.34-1.03 0-1.89-.15-2.57-.43-.68-.29-1.25-.67-1.7-1.14-.45-.47-.83-1.02-1.11-1.64-.29-.62-.56-1.28-.8-1.98L152.1 41.53c-.08-.25-.23-.55-.43-.9-.21-.35-.41-.53-.62-.53-.33 0-.53.2-.59.59-.06.39-.09.63-.09.71l.19 33.71h-8.16v-38.1c0-1.4.31-2.48.93-3.25.62-.76 1.32-1.33 2.1-1.7.78-.37 1.56-.59 2.32-.65.76-.06 1.31-.09 1.64-.09 1.24 0 2.28.15 3.12.43.84.29 1.55.69 2.1 1.21.56.52 1.02 1.11 1.39 1.79.37.68.7 1.39.99 2.13l11.2 28.89c.21.45.4.83.59 1.14.19.31.38.46.59.46.21 0 .4-.16.59-.46.19-.31.38-.69.59-1.14l11.2-28.89c.45-1.24.96-2.22 1.51-2.94.56-.72 1.16-1.28 1.83-1.67a5.99 5.99 0 012.04-.77c.7-.12 1.44-.19 2.23-.19 2.02 0 3.69.45 5.01 1.36 1.32.91 1.98 2.35 1.98 4.33v38.1h-8.17l.25-33.71c0-.58-.09-.94-.28-1.08-.19-.14-.34-.22-.46-.22-.21 0-.41.18-.62.53-.21.35-.35.65-.43.9l-11.11 28.9zM236.7 75.12l.31-32.91c0-.33-.03-.65-.09-.96-.06-.31-.24-.46-.53-.46-.25 0-.5.21-.74.62-.25.41-.54.87-.87 1.36l-17.81 28.76c-.29.5-.61.98-.96 1.45s-.77.91-1.27 1.3-1.11.71-1.86.96c-.74.25-1.67.37-2.78.37-1.57 0-2.78-.27-3.65-.8-.87-.54-1.5-1.2-1.89-1.98-.39-.78-.63-1.6-.71-2.44-.08-.85-.12-1.58-.12-2.2V31.82h8.16l-.25 32.29c0 .5.02.95.06 1.36.04.41.27.62.68.62.25 0 .45-.14.62-.43.17-.29.35-.6.56-.93l17.47-28.58c1.16-1.9 2.28-3.17 3.38-3.83 1.09-.66 2.39-.99 3.87-.99 1.61 0 2.87.31 3.78.93.91.62 1.57 1.34 1.98 2.16.41.83.66 1.68.74 2.57.08.89.12 1.6.12 2.13v36h-8.2zM252.35 75.12v-36.8c0-.82.06-1.65.19-2.47.12-.82.56-1.61 1.3-2.35.7-.7 1.5-1.15 2.41-1.36.91-.21 1.73-.31 2.47-.31h20.6c.58 0 1.23.01 1.95.03.72.02 1.46.11 2.23.28.76.17 1.53.42 2.29.77.76.35 1.47.86 2.13 1.52.74.7 1.33 1.52 1.76 2.44.43.93.76 1.91.99 2.94.23 1.03.37 2.06.43 3.09.06 1.03.09 2 .09 2.91 0 .87-.04 1.85-.12 2.94-.08 1.09-.25 2.19-.5 3.28-.25 1.09-.62 2.13-1.11 3.12a7.74 7.74 0 01-2.04 2.54c-.83.66-1.82 1.18-2.97 1.55-1.15.37-2.37.56-3.65.56h-20.29v15.34h-8.16v-.02zm23.69-21.83c.91 0 1.85-.06 2.81-.19.97-.12 1.8-.6 2.51-1.42.33-.37.59-.81.77-1.33.19-.52.33-1.04.43-1.58.1-.54.16-1.07.19-1.61.02-.54.03-1.01.03-1.42 0-.95-.08-2-.25-3.15-.17-1.15-.6-2.08-1.3-2.78a4.44 4.44 0 00-2.54-1.27c-.99-.15-1.83-.22-2.54-.22h-13.18c-.29 0-.6.01-.93.03-.33.02-.66.2-.99.53-.29.29-.45.61-.49.96-.04.35-.06.71-.06 1.08v12.37h15.54zM629.24 139.53H142.26V145h486.98v-5.47z"/></g><defs><clipPath id="clip0"><path d="M0 0h629.25v145H0z"/></clipPath></defs></svg>