<svg id="ehtcroobw5wk1" xmlns="http://www.w3.org/2000/svg" viewBox="0 0 145 145" >
    <g id="ehtcroobw5wk2" clip-path="url(#ehtcroobw5wk5)">
        <g id="ehtcroobw5wk3">
            <path id="ehtcroobw5wk4" d="M94.837 0L47.418 24.214 0 0v106.948h94.837V0zM84.754 72.311v28.581H47.418V86.945L10.09 101.578v-4.433l37.328-14.633L84.747 67.88v4.432h.007zm0-9.507L75.1 66.588l-27.673 10.85-37.292 14.618-.037-.096v-4.314l37.329-14.634L63.8 66.595l20.962-8.216v4.425h-.008zm0-9.507l-33.906 13.29-3.43 1.343L10.09 82.564V78.13l34.6-13.564 2.728-1.07 37.329-14.633v4.433h.007zm0-9.102L47.418 58.83l-14.655 5.745-22.673 8.888V69.03l11.373-4.462 25.955-10.179 37.329-14.633v4.44h.007zm0-10.186L47.418 48.65 10.09 63.284V30.27h37.328v13.947l37.329-14.633v4.425h.007z" stroke="none" stroke-width="1"/>
        </g>
        <clipPath id="ehtcroobw5wk5"><rect id="ehtcroobw5wk6" width="200" height="145" rx="0" ry="0" fill="#FFF" stroke="none" stroke-width="1"/>
        </clipPath>
    </g>
</svg>