<svg width="137" height="32" fill="none" xmlns="http://www.w3.org/2000/svg"><path d="M27.532 0L13.766 7.245 0 0v32h27.532V0zm-2.927 21.636v8.552H13.766v-4.173L2.93 30.393v-1.326l10.837-4.378 10.837-4.379v1.326h.002zm0-2.844l-2.803 1.132-8.034 3.246-10.826 4.374-.01-.028v-1.291l10.836-4.379 4.754-1.92 6.085-2.458v1.324h-.002zm0-2.845l-9.843 3.977-.996.402L2.93 24.704v-1.326l10.045-4.059.792-.32 10.837-4.378v1.326h.002zm0-2.723l-10.839 4.378-4.255 1.72L2.93 21.98v-1.327l3.302-1.335 7.535-3.045 10.837-4.379v1.329h.002zm0-3.048l-10.839 4.38-10.837 4.38V9.056h10.837v4.173l10.837-4.378v1.324h.002zM35.724 28.677h-1.952V19.56h-4.038v-1.61h10.043v1.61h-4.053v9.117zM44.93 17.828c1.006 0 1.829.082 2.47.245.64.164 1.183.455 1.627.874.444.419.759.98.946 1.685.188.695.281 1.589.281 2.682s-.093 1.992-.28 2.697c-.188.694-.503 1.251-.947 1.67a3.63 3.63 0 01-1.627.873c-.641.164-1.464.246-2.47.246-.996 0-1.814-.082-2.455-.246a3.63 3.63 0 01-1.627-.873c-.444-.419-.76-.976-.947-1.67-.187-.705-.28-1.604-.28-2.697s.093-1.987.28-2.682c.188-.705.503-1.266.947-1.685.444-.42.986-.71 1.627-.874.64-.163 1.46-.245 2.455-.245zm-2.618 2.406c-.453.531-.68 1.558-.68 3.08s.227 2.549.68 3.08c.464.531 1.336.797 2.618.797 1.282 0 2.154-.266 2.618-.797.463-.531.695-1.558.695-3.08s-.232-2.549-.695-3.08c-.464-.531-1.336-.797-2.618-.797-1.282 0-2.154.266-2.618.797zM56.449 17.828c1.006 0 1.829.082 2.47.245.64.164 1.183.455 1.627.874.443.419.759.98.946 1.685.187.695.281 1.589.281 2.682s-.094 1.992-.28 2.697c-.188.694-.504 1.251-.948 1.67a3.63 3.63 0 01-1.626.873c-.641.164-1.464.246-2.47.246-.996 0-1.814-.082-2.455-.246a3.63 3.63 0 01-1.627-.873c-.444-.419-.76-.976-.947-1.67-.187-.705-.28-1.604-.28-2.697s.093-1.987.28-2.682c.188-.705.503-1.266.947-1.685.444-.42.986-.71 1.627-.874.64-.163 1.459-.245 2.455-.245zm-2.618 2.406c-.454.531-.68 1.558-.68 3.08s.226 2.549.68 3.08c.463.531 1.336.797 2.618.797 1.282 0 2.154-.266 2.618-.797.463-.531.695-1.558.695-3.08s-.232-2.549-.695-3.08c-.464-.531-1.337-.797-2.618-.797-1.282 0-2.155.266-2.618.797zM71.207 28.677h-6.745c-1.005 0-1.508-.536-1.508-1.609v-9.117h1.952v8.35c0 .307.05.512.148.614.099.102.296.153.591.153h5.562v1.609zM71.634 28.677v-1.609h5.739c.65 0 .976-.388.976-1.165 0-.592-.335-.995-1.006-1.21l-4.082-1.333c-.65-.215-1.109-.542-1.375-.98-.257-.45-.385-1.063-.385-1.84 0-.796.197-1.425.592-1.884.394-.47.986-.705 1.775-.705h5.96v1.609h-5.443c-.266 0-.478.087-.636.26-.157.174-.236.445-.236.812 0 .296.054.542.162.736.119.194.365.352.74.475l3.786 1.241c.779.255 1.331.587 1.657.996.335.409.502 1.022.502 1.839 0 .837-.182 1.507-.547 2.007-.355.5-.912.751-1.671.751h-6.508zM84.759 26.271l1.923-7.34c.03-.132.064-.25.103-.352.05-.102.124-.215.222-.337.109-.133.256-.235.444-.307.187-.071.409-.107.665-.107.77 0 1.248.368 1.435 1.103l1.923 7.34c.049.174.123.26.221.26.109 0 .188-.107.237-.321l2.056-8.26h1.982l-2.5 9.348c-.138.51-.315.889-.532 1.134-.217.245-.597.368-1.139.368-.532 0-.912-.118-1.139-.353-.227-.245-.4-.587-.517-1.026l-1.82-6.942c-.039-.194-.103-.291-.192-.291-.079 0-.148.097-.207.291l-1.834 6.942c-.118.449-.29.791-.517 1.026-.217.235-.592.353-1.124.353-.543 0-.927-.123-1.154-.368-.227-.256-.404-.634-.533-1.134l-2.484-9.347h1.982l2.055 8.259c.06.214.133.322.222.322.08 0 .153-.087.222-.26zM101.484 17.828c1.006 0 1.829.082 2.47.245a3.63 3.63 0 011.627.874c.443.419.759.98.946 1.685.187.695.281 1.589.281 2.682s-.094 1.992-.281 2.697c-.187.694-.503 1.251-.946 1.67-.444.419-.986.71-1.627.873-.641.164-1.464.246-2.47.246-.996 0-1.814-.082-2.455-.246a3.63 3.63 0 01-1.627-.873c-.444-.419-.76-.976-.947-1.67-.187-.705-.28-1.604-.28-2.697s.093-1.987.28-2.682c.188-.705.503-1.266.947-1.685.444-.42.986-.71 1.627-.874.64-.163 1.459-.245 2.455-.245zm-2.618 2.406c-.454.531-.68 1.558-.68 3.08s.226 2.549.68 3.08c.463.531 1.336.797 2.618.797 1.282 0 2.154-.266 2.618-.797.463-.531.695-1.558.695-3.08s-.232-2.549-.695-3.08c-.464-.531-1.336-.797-2.618-.797-1.282 0-2.155.266-2.618.797zM109.941 28.677h-1.952V19.56c0-1.073.503-1.61 1.508-1.61h5.221c.927 0 1.588.287 1.982.859.404.562.606 1.404.606 2.528 0 2.39-.798 3.586-2.396 3.586h-1.035v.076l3.638 3.678h-2.514l-3.342-3.478c-.326-.358-.488-.66-.488-.905v-.245c0-.224.074-.403.221-.536.158-.133.375-.2.651-.2h2.012c.502 0 .833-.157.991-.474.167-.317.251-.817.251-1.502 0-.654-.099-1.113-.296-1.379-.187-.266-.577-.398-1.168-.398h-3.15c-.296 0-.493.05-.592.153-.099.102-.148.306-.148.613v8.351zM126.807 28.677h-6.744c-1.006 0-1.509-.536-1.509-1.609v-9.117h1.953v8.35c0 .307.049.512.147.614.099.102.296.153.592.153h5.561v1.609zM133.184 28.677h-4.274c-1.006 0-1.509-.536-1.509-1.609V19.56c0-1.073.503-1.61 1.509-1.61h4.008c.68 0 1.272.108 1.774.323.503.204.898.474 1.184.812.295.326.527.735.695 1.226.177.49.291.97.34 1.44.059.46.089.98.089 1.563 0 .572-.03 1.093-.089 1.563-.049.47-.158.95-.325 1.44-.158.49-.375.904-.651 1.241-.266.327-.636.598-1.109.813-.464.204-1.011.306-1.642.306zm-.947-9.117h-2.144c-.296 0-.493.05-.592.153-.098.102-.148.306-.148.613v5.976c0 .306.05.51.148.613.099.102.296.153.592.153h2.144c.572 0 1.045-.087 1.42-.26.375-.184.656-.46.843-.828a4.01 4.01 0 00.385-1.165c.069-.408.103-.909.103-1.501 0-.593-.034-1.093-.103-1.502a4.01 4.01 0 00-.385-1.164 1.74 1.74 0 00-.843-.813c-.375-.183-.848-.275-1.42-.275zM29.734 31.085h107.265v.914H29.734z"/></svg>