<svg fill="none" xmlns="http://www.w3.org/2000/svg">
<g clip-path="url(#clip0)">
<path opacity="0.4" d="M128.58 0L64.29 32.83L0 0V145H128.58V0ZM114.91 98.04V136.79H64.29V117.88L13.68 137.72V131.71L64.29 111.87L114.9 92.03V98.04H114.91ZM114.91 85.15L101.82 90.28L64.3 104.99L13.74 124.81L13.69 124.68V118.83L64.3 98.99L86.5 90.29L114.92 79.15V85.15H114.91ZM114.91 72.26L68.94 90.28L64.29 92.1L13.68 111.94V105.93L60.59 87.54L64.29 86.09L114.9 66.25V72.26H114.91ZM114.91 59.92L64.29 79.76L44.42 87.55L13.68 99.6V93.59L29.1 87.54L64.29 73.74L114.9 53.9V59.92H114.91ZM114.91 46.11L64.29 65.96L13.68 85.8V79.79V41.04H64.29V59.95L114.9 40.11V46.11H114.91Z"/>
<path d="M128.58 0L64.29 32.83L0 0V145H128.58V0ZM114.91 98.04V136.79H64.29V117.88L13.68 137.72V131.71L64.29 111.87L114.9 92.03V98.04H114.91ZM114.91 85.15L101.82 90.28L64.3 104.99L13.74 124.81L13.69 124.68V118.83L64.3 98.99L86.5 90.29L114.92 79.15V85.15H114.91ZM114.91 72.26L68.94 90.28L64.29 92.1L13.68 111.94V105.93L60.59 87.54L64.29 86.09L114.9 66.25V72.26H114.91ZM114.91 59.92L64.29 79.76L44.42 87.55L13.68 99.6V93.59L29.1 87.54L64.29 73.74L114.9 53.9V59.92H114.91ZM114.91 46.11L64.29 65.96L13.68 85.8V79.79V41.04H64.29V59.95L114.9 40.11V46.11H114.91Z"/>
<path opacity="0.45" d="M174.8 133.01L175.1 100.65C175.1 100.33 175.07 100.01 175.01 99.71C174.95 99.41 174.78 99.25 174.49 99.25C174.25 99.25 174 99.45 173.76 99.86C173.52 100.27 173.23 100.71 172.91 101.2L155.39 129.48C155.11 129.97 154.79 130.44 154.45 130.91C154.1 131.38 153.69 131.8 153.2 132.19C152.71 132.58 152.1 132.89 151.38 133.13C150.65 133.37 149.74 133.49 148.64 133.49C147.1 133.49 145.9 133.22 145.05 132.7C144.2 132.17 143.58 131.52 143.19 130.75C142.8 129.98 142.57 129.18 142.49 128.35C142.41 127.52 142.37 126.8 142.37 126.19V90.43H150.4L150.16 122.18C150.16 122.67 150.18 123.11 150.22 123.52C150.26 123.93 150.48 124.13 150.89 124.13C151.13 124.13 151.34 123.99 151.5 123.7C151.66 123.42 151.85 123.11 152.05 122.79L169.23 94.69C170.37 92.83 171.47 91.57 172.55 90.92C173.63 90.27 174.9 89.95 176.36 89.95C177.94 89.95 179.18 90.25 180.08 90.86C180.97 91.47 181.62 92.18 182.03 92.99C182.44 93.8 182.68 94.64 182.76 95.51C182.84 96.38 182.88 97.08 182.88 97.61V133.01H174.8Z"/>
<path opacity="0.45" d="M228.38 133.01H220.35V114.28H198.21V133.01H190.18V90.43H198.21V107.89H220.35V90.43H228.38V133.01Z"/>
<path opacity="0.45" d="M252.35 133.01C251.34 133.01 250.24 132.96 249.07 132.86C247.89 132.76 246.71 132.53 245.51 132.19C244.31 131.85 243.14 131.34 241.98 130.67C240.82 130 239.76 129.12 238.79 128.03C237.78 126.89 236.98 125.66 236.42 124.32C235.85 122.98 235.43 121.62 235.14 120.24C234.86 118.86 234.67 117.49 234.59 116.14C234.51 114.78 234.47 113.51 234.47 112.34C234.47 110.84 234.52 109.33 234.62 107.81C234.72 106.29 234.91 104.81 235.2 103.37C235.48 101.93 235.9 100.57 236.45 99.29C237 98.01 237.72 96.85 238.61 95.79C239.66 94.53 240.84 93.55 242.14 92.84C243.44 92.13 244.73 91.59 246.03 91.23C247.33 90.87 248.54 90.64 249.68 90.56C250.81 90.48 251.77 90.44 252.54 90.44H269.63V96.83H256.3C255.12 96.83 253.99 96.86 252.89 96.92C251.8 96.98 250.77 97.15 249.82 97.44C248.87 97.72 248 98.13 247.21 98.66C246.42 99.19 245.72 99.9 245.11 100.79C244.46 101.72 243.9 103.07 243.44 104.83C242.97 106.59 242.74 109.06 242.74 112.22C242.74 113.8 242.8 115.17 242.92 116.33C243.04 117.48 243.2 118.47 243.41 119.28C243.61 120.09 243.84 120.76 244.08 121.29C244.32 121.82 244.55 122.24 244.75 122.57C245.84 124.23 247.34 125.33 249.25 125.85C251.15 126.38 253.37 126.64 255.88 126.64H270.3V133.03H252.35V133.01Z"/>
<path opacity="0.45" d="M288.11 133.01V96.81H271.5V90.42H312.8V96.81H296.13V133H288.11V133.01Z"/>
<path opacity="0.45" d="M315.85 133.01V96.81C315.85 96 315.91 95.19 316.03 94.38C316.15 93.57 316.58 92.8 317.31 92.07C318 91.38 318.79 90.94 319.68 90.73C320.57 90.53 321.38 90.43 322.11 90.43H342.37C342.93 90.43 343.57 90.44 344.28 90.46C344.99 90.48 345.72 90.57 346.47 90.73C347.22 90.89 347.97 91.15 348.72 91.49C349.47 91.84 350.17 92.33 350.82 92.98C351.55 93.67 352.13 94.47 352.55 95.38C352.97 96.29 353.3 97.26 353.52 98.27C353.74 99.28 353.88 100.3 353.94 101.31C354 102.32 354.03 103.28 354.03 104.17C354.03 105.02 353.99 105.99 353.91 107.06C353.83 108.13 353.67 109.21 353.42 110.28C353.18 111.35 352.81 112.38 352.33 113.35C351.84 114.32 351.17 115.16 350.32 115.84C349.51 116.49 348.53 117 347.4 117.36C346.26 117.72 345.07 117.91 343.81 117.91H323.86V132.99H315.85V133.01ZM339.14 111.53C340.03 111.53 340.95 111.47 341.91 111.35C342.86 111.23 343.68 110.76 344.37 109.95C344.69 109.59 344.95 109.15 345.13 108.64C345.31 108.13 345.45 107.62 345.55 107.09C345.65 106.56 345.71 106.04 345.73 105.51C345.75 104.98 345.76 104.52 345.76 104.11C345.76 103.18 345.68 102.14 345.52 101.01C345.35 99.88 344.93 98.96 344.24 98.27C343.55 97.58 342.72 97.17 341.75 97.02C340.78 96.88 339.94 96.81 339.25 96.81H326.29C326.01 96.81 325.7 96.82 325.38 96.84C325.05 96.86 324.73 97.03 324.41 97.36C324.13 97.64 323.96 97.96 323.92 98.3C323.88 98.65 323.86 99 323.86 99.36V111.53H339.14Z"/>
<path opacity="0.45" d="M368.28 133.01L373.45 123.58L355.26 90.43H364.14L377.58 116.22L390.54 90.43H399.3L376.98 133.01H368.28Z"/>
<path opacity="0.45" d="M434.34 128.38C434.01 129.19 433.7 129.91 433.4 130.54C433.1 131.17 432.72 131.71 432.27 132.15C431.82 132.6 431.28 132.93 430.63 133.15C429.98 133.37 429.19 133.49 428.26 133.49C427.24 133.49 426.4 133.35 425.74 133.06C425.07 132.78 424.51 132.4 424.07 131.93C423.62 131.47 423.26 130.93 422.97 130.32C422.69 129.71 422.42 129.06 422.18 128.37L411.29 99.96C411.21 99.72 411.07 99.42 410.86 99.08C410.66 98.74 410.45 98.56 410.25 98.56C409.92 98.56 409.73 98.75 409.67 99.14C409.61 99.53 409.58 99.76 409.58 99.84L409.76 132.99H401.73V95.54C401.73 94.16 402.03 93.1 402.64 92.35C403.25 91.6 403.94 91.04 404.71 90.68C405.48 90.32 406.24 90.1 406.99 90.04C407.74 89.98 408.28 89.95 408.6 89.95C409.82 89.95 410.84 90.09 411.67 90.38C412.5 90.66 413.19 91.06 413.74 91.57C414.29 92.08 414.74 92.66 415.11 93.33C415.47 94 415.8 94.7 416.08 95.43L427.09 123.84C427.29 124.29 427.49 124.66 427.67 124.97C427.85 125.27 428.04 125.43 428.25 125.43C428.45 125.43 428.64 125.28 428.83 124.97C429.01 124.67 429.21 124.29 429.41 123.84L440.42 95.43C440.87 94.21 441.36 93.25 441.91 92.54C442.46 91.83 443.05 91.28 443.7 90.9C444.35 90.52 445.02 90.26 445.71 90.14C446.4 90.02 447.13 89.96 447.9 89.96C449.89 89.96 451.53 90.41 452.83 91.3C454.13 92.19 454.78 93.61 454.78 95.56V133.03H446.75L446.99 99.88C446.99 99.31 446.9 98.96 446.72 98.82C446.54 98.68 446.39 98.61 446.26 98.61C446.06 98.61 445.85 98.78 445.65 99.13C445.45 99.48 445.31 99.77 445.22 100.01L434.34 128.38Z"/>
<path opacity="0.45" d="M468.52 133.01C467.59 133.01 466.72 132.96 465.91 132.86C465.1 132.76 464.35 132.36 463.66 131.67C462.93 130.98 462.48 130.18 462.32 129.27C462.16 128.36 462.08 127.5 462.08 126.69V96.51C462.08 95.66 462.21 94.84 462.48 94.05C462.74 93.26 463.1 92.6 463.54 92.07C464.23 91.3 465.05 90.83 466 90.67C466.95 90.51 467.83 90.43 468.64 90.43H495.95V96.82H472.96C472.6 96.82 472.22 96.85 471.83 96.91C471.44 96.97 471.09 97.14 470.76 97.43C470.43 97.76 470.24 98.1 470.18 98.46C470.12 98.82 470.09 99.17 470.09 99.49V108.07H495.33V114.46H470.1V124.44C470.1 125.21 470.3 125.76 470.71 126.08C470.95 126.32 471.31 126.47 471.77 126.54C472.24 126.6 472.79 126.63 473.44 126.63H496.19V133.02H468.52V133.01Z"/>
<path opacity="0.45" d="M539.86 133.01H531.83V114.28H509.69V133.01H501.66V90.43H509.69V107.89H531.83V90.43H539.86V133.01Z"/>
<path opacity="0.45" d="M559.51 133.01V96.81H542.91V90.42H584.21V96.81H567.55V133H559.51V133.01Z"/>
<path opacity="0.45" d="M597.83 94.75C598.6 92.97 599.48 91.72 600.47 91.01C601.46 90.3 602.91 89.95 604.82 89.95C606.64 89.95 608.07 90.31 609.11 91.01C610.14 91.72 611.05 92.97 611.82 94.75L627.88 133.01H619.43L615.05 122.24H594.55L590.23 133.01H581.78L597.83 94.75ZM596.61 116.52H612.97L606.04 99.19C605.92 98.87 605.76 98.49 605.55 98.07C605.35 97.64 605.1 97.43 604.82 97.43C604.54 97.43 604.29 97.64 604.09 98.07C603.89 98.5 603.72 98.87 603.6 99.19L596.61 116.52Z"/>
<path opacity="0.45" d="M175.53 70.42C175.2 71.24 174.88 71.98 174.57 72.61C174.26 73.25 173.88 73.8 173.43 74.25C172.98 74.7 172.42 75.04 171.76 75.27C171.1 75.5 170.3 75.61 169.35 75.61C168.32 75.61 167.46 75.46 166.78 75.18C166.1 74.89 165.53 74.51 165.08 74.04C164.63 73.57 164.25 73.02 163.97 72.4C163.68 71.78 163.41 71.12 163.17 70.42L152.1 41.53C152.02 41.28 151.87 40.98 151.67 40.63C151.46 40.28 151.26 40.1 151.05 40.1C150.72 40.1 150.52 40.3 150.46 40.69C150.4 41.08 150.37 41.32 150.37 41.4L150.56 75.11H142.4V37.01C142.4 35.61 142.71 34.53 143.33 33.76C143.95 33 144.65 32.43 145.43 32.06C146.21 31.69 146.99 31.47 147.75 31.41C148.51 31.35 149.06 31.32 149.39 31.32C150.63 31.32 151.67 31.47 152.51 31.75C153.35 32.04 154.06 32.44 154.61 32.96C155.17 33.48 155.63 34.07 156 34.75C156.37 35.43 156.7 36.14 156.99 36.88L168.19 65.77C168.4 66.22 168.59 66.6 168.78 66.91C168.97 67.22 169.16 67.37 169.37 67.37C169.58 67.37 169.77 67.21 169.96 66.91C170.15 66.6 170.34 66.22 170.55 65.77L181.75 36.88C182.2 35.64 182.71 34.66 183.26 33.94C183.82 33.22 184.42 32.66 185.09 32.27C185.75 31.88 186.43 31.62 187.13 31.5C187.83 31.38 188.57 31.31 189.36 31.31C191.38 31.31 193.05 31.76 194.37 32.67C195.69 33.58 196.35 35.02 196.35 37V75.1H188.18L188.43 41.39C188.43 40.81 188.34 40.45 188.15 40.31C187.96 40.17 187.81 40.09 187.69 40.09C187.48 40.09 187.28 40.27 187.07 40.62C186.86 40.97 186.72 41.27 186.64 41.52L175.53 70.42Z"/>
<path opacity="0.45" d="M236.7 75.12L237.01 42.21C237.01 41.88 236.98 41.56 236.92 41.25C236.86 40.94 236.68 40.79 236.39 40.79C236.14 40.79 235.89 41 235.65 41.41C235.4 41.82 235.11 42.28 234.78 42.77L216.97 71.53C216.68 72.03 216.36 72.51 216.01 72.98C215.66 73.45 215.24 73.89 214.74 74.28C214.24 74.67 213.63 74.99 212.88 75.24C212.14 75.49 211.21 75.61 210.1 75.61C208.53 75.61 207.32 75.34 206.45 74.81C205.58 74.27 204.95 73.61 204.56 72.83C204.17 72.05 203.93 71.23 203.85 70.39C203.77 69.54 203.73 68.81 203.73 68.19V31.82H211.89L211.64 64.11C211.64 64.61 211.66 65.06 211.7 65.47C211.74 65.88 211.97 66.09 212.38 66.09C212.63 66.09 212.83 65.95 213 65.66C213.17 65.37 213.35 65.06 213.56 64.73L231.03 36.15C232.19 34.25 233.31 32.98 234.41 32.32C235.5 31.66 236.8 31.33 238.28 31.33C239.89 31.33 241.15 31.64 242.06 32.26C242.97 32.88 243.63 33.6 244.04 34.42C244.45 35.25 244.7 36.1 244.78 36.99C244.86 37.88 244.9 38.59 244.9 39.12V75.12H236.7Z"/>
<path opacity="0.45" d="M252.35 75.12V38.32C252.35 37.5 252.41 36.67 252.54 35.85C252.66 35.03 253.1 34.24 253.84 33.5C254.54 32.8 255.34 32.35 256.25 32.14C257.16 31.93 257.98 31.83 258.72 31.83H279.32C279.9 31.83 280.55 31.84 281.27 31.86C281.99 31.88 282.73 31.97 283.5 32.14C284.26 32.31 285.03 32.56 285.79 32.91C286.55 33.26 287.26 33.77 287.92 34.43C288.66 35.13 289.25 35.95 289.68 36.87C290.11 37.8 290.44 38.78 290.67 39.81C290.9 40.84 291.04 41.87 291.1 42.9C291.16 43.93 291.19 44.9 291.19 45.81C291.19 46.68 291.15 47.66 291.07 48.75C290.99 49.84 290.82 50.94 290.57 52.03C290.32 53.12 289.95 54.16 289.46 55.15C288.96 56.14 288.28 56.99 287.42 57.69C286.59 58.35 285.6 58.87 284.45 59.24C283.3 59.61 282.08 59.8 280.8 59.8H260.51V75.14H252.35V75.12ZM276.04 53.29C276.95 53.29 277.89 53.23 278.85 53.1C279.82 52.98 280.65 52.5 281.36 51.68C281.69 51.31 281.95 50.87 282.13 50.35C282.32 49.83 282.46 49.31 282.56 48.77C282.66 48.23 282.72 47.7 282.75 47.16C282.77 46.62 282.78 46.15 282.78 45.74C282.78 44.79 282.7 43.74 282.53 42.59C282.36 41.44 281.93 40.51 281.23 39.81C280.53 39.11 279.68 38.69 278.69 38.54C277.7 38.39 276.86 38.32 276.15 38.32H262.97C262.68 38.32 262.37 38.33 262.04 38.35C261.71 38.37 261.38 38.55 261.05 38.88C260.76 39.17 260.6 39.49 260.56 39.84C260.52 40.19 260.5 40.55 260.5 40.92V53.29H276.04Z"/>
<path opacity="0.4" d="M629.24 139.53H142.26V145H629.24V139.53Z"/>
<path d="M174.8 133.01L175.1 100.65C175.1 100.33 175.07 100.01 175.01 99.71C174.95 99.41 174.78 99.25 174.49 99.25C174.25 99.25 174 99.45 173.76 99.86C173.52 100.27 173.23 100.71 172.91 101.2L155.39 129.48C155.11 129.97 154.79 130.44 154.45 130.91C154.1 131.38 153.69 131.8 153.2 132.19C152.71 132.58 152.1 132.89 151.38 133.13C150.65 133.37 149.74 133.49 148.64 133.49C147.1 133.49 145.9 133.22 145.05 132.7C144.2 132.17 143.58 131.52 143.19 130.75C142.8 129.98 142.57 129.18 142.49 128.35C142.41 127.52 142.37 126.8 142.37 126.19V90.43H150.4L150.16 122.18C150.16 122.67 150.18 123.11 150.22 123.52C150.26 123.93 150.48 124.13 150.89 124.13C151.13 124.13 151.34 123.99 151.5 123.7C151.66 123.42 151.85 123.11 152.05 122.79L169.23 94.69C170.37 92.83 171.47 91.57 172.55 90.92C173.63 90.27 174.9 89.95 176.36 89.95C177.94 89.95 179.18 90.25 180.08 90.86C180.97 91.47 181.62 92.18 182.03 92.99C182.44 93.8 182.68 94.64 182.76 95.51C182.84 96.38 182.88 97.08 182.88 97.61V133.01H174.8Z"/>
<path d="M228.38 133.01H220.35V114.28H198.21V133.01H190.18V90.43H198.21V107.89H220.35V90.43H228.38V133.01Z"/>
<path d="M252.35 133.01C251.34 133.01 250.24 132.96 249.07 132.86C247.89 132.76 246.71 132.53 245.51 132.19C244.31 131.85 243.14 131.34 241.98 130.67C240.82 130 239.76 129.12 238.79 128.03C237.78 126.89 236.98 125.66 236.42 124.32C235.85 122.98 235.43 121.62 235.14 120.24C234.86 118.86 234.67 117.49 234.59 116.14C234.51 114.78 234.47 113.51 234.47 112.34C234.47 110.84 234.52 109.33 234.62 107.81C234.72 106.29 234.91 104.81 235.2 103.37C235.48 101.93 235.9 100.57 236.45 99.29C237 98.01 237.72 96.85 238.61 95.79C239.66 94.53 240.84 93.55 242.14 92.84C243.44 92.13 244.73 91.59 246.03 91.23C247.33 90.87 248.54 90.64 249.68 90.56C250.81 90.48 251.77 90.44 252.54 90.44H269.63V96.83H256.3C255.12 96.83 253.99 96.86 252.89 96.92C251.8 96.98 250.77 97.15 249.82 97.44C248.87 97.72 248 98.13 247.21 98.66C246.42 99.19 245.72 99.9 245.11 100.79C244.46 101.72 243.9 103.07 243.44 104.83C242.97 106.59 242.74 109.06 242.74 112.22C242.74 113.8 242.8 115.17 242.92 116.33C243.04 117.48 243.2 118.47 243.41 119.28C243.61 120.09 243.84 120.76 244.08 121.29C244.32 121.82 244.55 122.24 244.75 122.57C245.84 124.23 247.34 125.33 249.25 125.85C251.15 126.38 253.37 126.64 255.88 126.64H270.3V133.03H252.35V133.01Z"/>
<path d="M288.11 133.01V96.81H271.5V90.42H312.8V96.81H296.13V133H288.11V133.01Z"/>
<path d="M315.85 133.01V96.81C315.85 96 315.91 95.19 316.03 94.38C316.15 93.57 316.58 92.8 317.31 92.07C318 91.38 318.79 90.94 319.68 90.73C320.57 90.53 321.38 90.43 322.11 90.43H342.37C342.93 90.43 343.57 90.44 344.28 90.46C344.99 90.48 345.72 90.57 346.47 90.73C347.22 90.89 347.97 91.15 348.72 91.49C349.47 91.84 350.17 92.33 350.82 92.98C351.55 93.67 352.13 94.47 352.55 95.38C352.97 96.29 353.3 97.26 353.52 98.27C353.74 99.28 353.88 100.3 353.94 101.31C354 102.32 354.03 103.28 354.03 104.17C354.03 105.02 353.99 105.99 353.91 107.06C353.83 108.13 353.67 109.21 353.42 110.28C353.18 111.35 352.81 112.38 352.33 113.35C351.84 114.32 351.17 115.16 350.32 115.84C349.51 116.49 348.53 117 347.4 117.36C346.26 117.72 345.07 117.91 343.81 117.91H323.86V132.99H315.85V133.01ZM339.14 111.53C340.03 111.53 340.95 111.47 341.91 111.35C342.86 111.23 343.68 110.76 344.37 109.95C344.69 109.59 344.95 109.15 345.13 108.64C345.31 108.13 345.45 107.62 345.55 107.09C345.65 106.56 345.71 106.04 345.73 105.51C345.75 104.98 345.76 104.52 345.76 104.11C345.76 103.18 345.68 102.14 345.52 101.01C345.35 99.88 344.93 98.96 344.24 98.27C343.55 97.58 342.72 97.17 341.75 97.02C340.78 96.88 339.94 96.81 339.25 96.81H326.29C326.01 96.81 325.7 96.82 325.38 96.84C325.05 96.86 324.73 97.03 324.41 97.36C324.13 97.64 323.96 97.96 323.92 98.3C323.88 98.65 323.86 99 323.86 99.36V111.53H339.14Z"/>
<path d="M368.28 133.01L373.45 123.58L355.26 90.43H364.14L377.58 116.22L390.54 90.43H399.3L376.98 133.01H368.28Z"/>
<path d="M434.34 128.38C434.01 129.19 433.7 129.91 433.4 130.54C433.1 131.17 432.72 131.71 432.27 132.15C431.82 132.6 431.28 132.93 430.63 133.15C429.98 133.37 429.19 133.49 428.26 133.49C427.24 133.49 426.4 133.35 425.74 133.06C425.07 132.78 424.51 132.4 424.07 131.93C423.62 131.47 423.26 130.93 422.97 130.32C422.69 129.71 422.42 129.06 422.18 128.37L411.29 99.96C411.21 99.72 411.07 99.42 410.86 99.08C410.66 98.74 410.45 98.56 410.25 98.56C409.92 98.56 409.73 98.75 409.67 99.14C409.61 99.53 409.58 99.76 409.58 99.84L409.76 132.99H401.73V95.54C401.73 94.16 402.03 93.1 402.64 92.35C403.25 91.6 403.94 91.04 404.71 90.68C405.48 90.32 406.24 90.1 406.99 90.04C407.74 89.98 408.28 89.95 408.6 89.95C409.82 89.95 410.84 90.09 411.67 90.38C412.5 90.66 413.19 91.06 413.74 91.57C414.29 92.08 414.74 92.66 415.11 93.33C415.47 94 415.8 94.7 416.08 95.43L427.09 123.84C427.29 124.29 427.49 124.66 427.67 124.97C427.85 125.27 428.04 125.43 428.25 125.43C428.45 125.43 428.64 125.28 428.83 124.97C429.01 124.67 429.21 124.29 429.41 123.84L440.42 95.43C440.87 94.21 441.36 93.25 441.91 92.54C442.46 91.83 443.05 91.28 443.7 90.9C444.35 90.52 445.02 90.26 445.71 90.14C446.4 90.02 447.13 89.96 447.9 89.96C449.89 89.96 451.53 90.41 452.83 91.3C454.13 92.19 454.78 93.61 454.78 95.56V133.03H446.75L446.99 99.88C446.99 99.31 446.9 98.96 446.72 98.82C446.54 98.68 446.39 98.61 446.26 98.61C446.06 98.61 445.85 98.78 445.65 99.13C445.45 99.48 445.31 99.77 445.22 100.01L434.34 128.38Z"/>
<path d="M468.52 133.01C467.59 133.01 466.72 132.96 465.91 132.86C465.1 132.76 464.35 132.36 463.66 131.67C462.93 130.98 462.48 130.18 462.32 129.27C462.16 128.36 462.08 127.5 462.08 126.69V96.51C462.08 95.66 462.21 94.84 462.48 94.05C462.74 93.26 463.1 92.6 463.54 92.07C464.23 91.3 465.05 90.83 466 90.67C466.95 90.51 467.83 90.43 468.64 90.43H495.95V96.82H472.96C472.6 96.82 472.22 96.85 471.83 96.91C471.44 96.97 471.09 97.14 470.76 97.43C470.43 97.76 470.24 98.1 470.18 98.46C470.12 98.82 470.09 99.17 470.09 99.49V108.07H495.33V114.46H470.1V124.44C470.1 125.21 470.3 125.76 470.71 126.08C470.95 126.32 471.31 126.47 471.77 126.54C472.24 126.6 472.79 126.63 473.44 126.63H496.19V133.02H468.52V133.01Z"/>
<path d="M539.86 133.01H531.83V114.28H509.69V133.01H501.66V90.43H509.69V107.89H531.83V90.43H539.86V133.01Z"/>
<path d="M559.51 133.01V96.81H542.91V90.42H584.21V96.81H567.55V133H559.51V133.01Z"/>
<path d="M597.83 94.75C598.6 92.97 599.48 91.72 600.47 91.01C601.46 90.3 602.91 89.95 604.82 89.95C606.64 89.95 608.07 90.31 609.11 91.01C610.14 91.72 611.05 92.97 611.82 94.75L627.88 133.01H619.43L615.05 122.24H594.55L590.23 133.01H581.78L597.83 94.75ZM596.61 116.52H612.97L606.04 99.19C605.92 98.87 605.76 98.49 605.55 98.07C605.35 97.64 605.1 97.43 604.82 97.43C604.54 97.43 604.29 97.64 604.09 98.07C603.89 98.5 603.72 98.87 603.6 99.19L596.61 116.52Z"/>
<path d="M175.53 70.42C175.2 71.24 174.88 71.98 174.57 72.61C174.26 73.25 173.88 73.8 173.43 74.25C172.98 74.7 172.42 75.04 171.76 75.27C171.1 75.5 170.3 75.61 169.35 75.61C168.32 75.61 167.46 75.46 166.78 75.18C166.1 74.89 165.53 74.51 165.08 74.04C164.63 73.57 164.25 73.02 163.97 72.4C163.68 71.78 163.41 71.12 163.17 70.42L152.1 41.53C152.02 41.28 151.87 40.98 151.67 40.63C151.46 40.28 151.26 40.1 151.05 40.1C150.72 40.1 150.52 40.3 150.46 40.69C150.4 41.08 150.37 41.32 150.37 41.4L150.56 75.11H142.4V37.01C142.4 35.61 142.71 34.53 143.33 33.76C143.95 33 144.65 32.43 145.43 32.06C146.21 31.69 146.99 31.47 147.75 31.41C148.51 31.35 149.06 31.32 149.39 31.32C150.63 31.32 151.67 31.47 152.51 31.75C153.35 32.04 154.06 32.44 154.61 32.96C155.17 33.48 155.63 34.07 156 34.75C156.37 35.43 156.7 36.14 156.99 36.88L168.19 65.77C168.4 66.22 168.59 66.6 168.78 66.91C168.97 67.22 169.16 67.37 169.37 67.37C169.58 67.37 169.77 67.21 169.96 66.91C170.15 66.6 170.34 66.22 170.55 65.77L181.75 36.88C182.2 35.64 182.71 34.66 183.26 33.94C183.82 33.22 184.42 32.66 185.09 32.27C185.75 31.88 186.43 31.62 187.13 31.5C187.83 31.38 188.57 31.31 189.36 31.31C191.38 31.31 193.05 31.76 194.37 32.67C195.69 33.58 196.35 35.02 196.35 37V75.1H188.18L188.43 41.39C188.43 40.81 188.34 40.45 188.15 40.31C187.96 40.17 187.81 40.09 187.69 40.09C187.48 40.09 187.28 40.27 187.07 40.62C186.86 40.97 186.72 41.27 186.64 41.52L175.53 70.42Z"/>
<path d="M236.7 75.12L237.01 42.21C237.01 41.88 236.98 41.56 236.92 41.25C236.86 40.94 236.68 40.79 236.39 40.79C236.14 40.79 235.89 41 235.65 41.41C235.4 41.82 235.11 42.28 234.78 42.77L216.97 71.53C216.68 72.03 216.36 72.51 216.01 72.98C215.66 73.45 215.24 73.89 214.74 74.28C214.24 74.67 213.63 74.99 212.88 75.24C212.14 75.49 211.21 75.61 210.1 75.61C208.53 75.61 207.32 75.34 206.45 74.81C205.58 74.27 204.95 73.61 204.56 72.83C204.17 72.05 203.93 71.23 203.85 70.39C203.77 69.54 203.73 68.81 203.73 68.19V31.82H211.89L211.64 64.11C211.64 64.61 211.66 65.06 211.7 65.47C211.74 65.88 211.97 66.09 212.38 66.09C212.63 66.09 212.83 65.95 213 65.66C213.17 65.37 213.35 65.06 213.56 64.73L231.03 36.15C232.19 34.25 233.31 32.98 234.41 32.32C235.5 31.66 236.8 31.33 238.28 31.33C239.89 31.33 241.15 31.64 242.06 32.26C242.97 32.88 243.63 33.6 244.04 34.42C244.45 35.25 244.7 36.1 244.78 36.99C244.86 37.88 244.9 38.59 244.9 39.12V75.12H236.7Z"/>
<path d="M252.35 75.12V38.32C252.35 37.5 252.41 36.67 252.54 35.85C252.66 35.03 253.1 34.24 253.84 33.5C254.54 32.8 255.34 32.35 256.25 32.14C257.16 31.93 257.98 31.83 258.72 31.83H279.32C279.9 31.83 280.55 31.84 281.27 31.86C281.99 31.88 282.73 31.97 283.5 32.14C284.26 32.31 285.03 32.56 285.79 32.91C286.55 33.26 287.26 33.77 287.92 34.43C288.66 35.13 289.25 35.95 289.68 36.87C290.11 37.8 290.44 38.78 290.67 39.81C290.9 40.84 291.04 41.87 291.1 42.9C291.16 43.93 291.19 44.9 291.19 45.81C291.19 46.68 291.15 47.66 291.07 48.75C290.99 49.84 290.82 50.94 290.57 52.03C290.32 53.12 289.95 54.16 289.46 55.15C288.96 56.14 288.28 56.99 287.42 57.69C286.59 58.35 285.6 58.87 284.45 59.24C283.3 59.61 282.08 59.8 280.8 59.8H260.51V75.14H252.35V75.12ZM276.04 53.29C276.95 53.29 277.89 53.23 278.85 53.1C279.82 52.98 280.65 52.5 281.36 51.68C281.69 51.31 281.95 50.87 282.13 50.35C282.32 49.83 282.46 49.31 282.56 48.77C282.66 48.23 282.72 47.7 282.75 47.16C282.77 46.62 282.78 46.15 282.78 45.74C282.78 44.79 282.7 43.74 282.53 42.59C282.36 41.44 281.93 40.51 281.23 39.81C280.53 39.11 279.68 38.69 278.69 38.54C277.7 38.39 276.86 38.32 276.15 38.32H262.97C262.68 38.32 262.37 38.33 262.04 38.35C261.71 38.37 261.38 38.55 261.05 38.88C260.76 39.17 260.6 39.49 260.56 39.84C260.52 40.19 260.5 40.55 260.5 40.92V53.29H276.04Z"/>
<path d="M629.24 139.53H142.26V145H629.24V139.53Z"/>
</g>
<defs>
<clipPath id="clip0">
<rect width="629.25" height="145" fill="white"/>
</clipPath>
</defs>
</svg>
