<svg width="148" height="48" fill="none" xmlns="http://www.w3.org/2000/svg"><path opacity=".4" d="M42.613 0L21.307 10.868 0 0v48h42.613V0zm-4.53 32.455v12.828H21.306v-6.26L4.533 45.591v-1.988l16.774-6.569 16.773-6.568.002 1.989zm0-4.267l-4.34 1.699-12.434 4.87-16.756 6.56-.017-.045v-1.938l16.773-6.568 7.356-2.88 9.417-3.688v1.99zm0-4.267l-15.234 5.966-1.54.603-16.773 6.568V35.07l15.544-6.086 1.227-.48 16.773-6.569.002 1.987zm0-4.087l-16.774 6.57-6.586 2.579-10.19 3.99v-1.989l5.111-2.001 11.663-4.567 16.773-6.568.002 1.986zm0-4.569l-16.774 6.569-16.773 6.568V13.585h16.773v6.26l16.773-6.569v1.99z" /><path d="M42.613 0L21.307 10.868 0 0v48h42.613V0zm-4.53 32.455v12.828H21.306v-6.26L4.533 45.591v-1.988l16.774-6.569 16.773-6.568.002 1.989zm0-4.267l-4.34 1.699-12.434 4.87-16.756 6.56-.017-.045v-1.938l16.773-6.568 7.356-2.88 9.417-3.688v1.99zm0-4.267l-15.234 5.966-1.54.603-16.773 6.568V35.07l15.544-6.086 1.227-.48 16.773-6.569.002 1.987zm0-4.087l-16.774 6.57-6.586 2.579-10.19 3.99v-1.989l5.111-2.001 11.663-4.567 16.773-6.568.002 1.986zm0-4.569l-16.774 6.569-16.773 6.568V13.585h16.773v6.26l16.773-6.569v1.99zM47.195 46.172H148V48H47.195v-1.828zM54.997 24.13l3.347-12.234c.051-.22.111-.417.18-.587.086-.17.215-.357.386-.562.19-.221.447-.391.773-.51.326-.12.712-.18 1.158-.18 1.34 0 2.172.614 2.498 1.84l3.347 12.232c.086.29.214.435.386.435.189 0 .326-.18.412-.537l3.579-13.765h3.45L70.162 25.84c-.24.852-.55 1.482-.927 1.89-.378.409-1.039.613-1.983.613-.927 0-1.587-.195-1.982-.587-.395-.409-.695-.979-.901-1.711l-3.167-11.57c-.069-.323-.18-.484-.335-.484-.137 0-.257.161-.36.485l-3.193 11.569c-.206.749-.506 1.32-.901 1.71-.378.393-1.03.588-1.957.588-.944 0-1.614-.204-2.008-.613-.395-.425-.704-1.055-.927-1.89l-4.326-15.578h3.45l3.58 13.765c.102.358.231.537.386.537.137 0 .266-.145.386-.435zM84.627 10.058c1.751 0 3.184.136 4.3.408 1.116.273 2.06.758 2.832 1.456.772.698 1.322 1.634 1.648 2.81.326 1.157.49 2.647.49 4.469 0 1.821-.164 3.32-.49 4.494-.326 1.158-.876 2.086-1.648 2.784-.772.698-1.716 1.183-2.832 1.456-1.116.272-2.549.408-4.3.408-1.733 0-3.158-.136-4.274-.408-1.115-.273-2.06-.758-2.832-1.456-.772-.698-1.322-1.626-1.648-2.784-.326-1.175-.489-2.673-.489-4.494 0-1.822.163-3.312.49-4.47.325-1.175.875-2.111 1.647-2.81.772-.697 1.716-1.182 2.832-1.455 1.116-.272 2.54-.408 4.274-.408zm-4.557 4.01c-.79.885-1.184 2.596-1.184 5.133 0 2.536.394 4.247 1.184 5.133.807.885 2.326 1.328 4.557 1.328 2.232 0 3.75-.443 4.557-1.328.807-.886 1.21-2.597 1.21-5.133 0-2.537-.403-4.248-1.21-5.134-.806-.885-2.325-1.328-4.557-1.328-2.231 0-3.75.443-4.557 1.328zM99.865 28.139h-3.399V12.944c0-1.788.876-2.682 2.627-2.682h9.088c1.614 0 2.764.477 3.45 1.43.704.937 1.056 2.341 1.056 4.214 0 3.984-1.39 5.976-4.171 5.976h-1.802v.128l6.334 6.129h-4.377l-5.819-5.797c-.567-.596-.85-1.098-.85-1.507v-.409c0-.374.129-.672.386-.893.275-.222.653-.332 1.133-.332h3.502c.875 0 1.45-.264 1.725-.792.292-.528.437-1.362.437-2.503 0-1.09-.171-1.856-.514-2.299-.327-.442-1.005-.663-2.034-.663h-5.485c-.515 0-.858.085-1.029.255-.172.17-.258.51-.258 1.021V28.14zM129.741 28.139h-11.74c-1.751 0-2.627-.894-2.627-2.681V10.261h3.399V24.18c0 .511.086.852.258 1.022.171.17.514.255 1.029.255h9.681v2.682zM141.358 28.139h-7.441c-1.751 0-2.627-.894-2.627-2.681V12.944c0-1.788.876-2.682 2.627-2.682h6.977c1.184 0 2.214.179 3.09.536.875.34 1.562.792 2.059 1.354.515.545.919 1.226 1.211 2.043.309.817.506 1.617.592 2.4.103.767.154 1.635.154 2.606 0 .953-.051 1.821-.154 2.604a10.558 10.558 0 01-.567 2.401c-.274.817-.652 1.507-1.133 2.069-.463.545-1.107.996-1.931 1.353-.806.34-1.759.511-2.857.511zm-1.648-15.195h-3.734c-.515 0-.858.085-1.03.255-.171.17-.257.51-.257 1.021v9.96c0 .511.086.852.257 1.022.172.17.515.255 1.03.255h3.734c.995 0 1.819-.144 2.471-.434a3.107 3.107 0 001.468-1.379c.326-.613.549-1.26.669-1.94.121-.682.181-1.516.181-2.503 0-.988-.06-1.822-.181-2.503a6.517 6.517 0 00-.669-1.941 2.978 2.978 0 00-1.468-1.354c-.652-.306-1.476-.46-2.471-.46zM51.52 32.915c1.603 0 2.722.32 3.359.958.644.64.966 1.767.966 3.385 0 1.617-.322 2.745-.966 3.384-.636.64-1.756.959-3.359.959-1.594 0-2.714-.32-3.358-.959-.645-.639-.967-1.767-.967-3.384 0-1.618.322-2.746.967-3.385.644-.639 1.764-.958 3.358-.958zm-2.478 1.662c-.43.485-.645 1.379-.645 2.68 0 1.303.215 2.2.645 2.694.438.485 1.264.728 2.478.728 1.215 0 2.037-.243 2.466-.728.438-.493.657-1.391.657-2.693s-.219-2.196-.657-2.681c-.43-.493-1.251-.74-2.466-.74-1.214 0-2.04.247-2.478.74zM58.362 41.504h-1.153v-7.291c0-.437.104-.744.31-.922.207-.186.508-.279.905-.279h5.23v.922h-4.722c-.231 0-.384.04-.459.121-.074.081-.111.23-.111.45v2.28h3.866v.922h-3.866v3.797zM74.906 33.012v8.492h-1.153v-3.882h-5.068v3.882h-1.153v-8.492h1.153V36.7h5.069v-3.688h1.152zM75.583 41.504l3.296-7.655c.14-.323.298-.558.471-.703.174-.154.413-.231.719-.231.297 0 .537.077.719.23.19.154.35.389.483.704l3.284 7.655H83.34l-.979-2.305h-4.597l-.967 2.305h-1.214zm4.188-7.121l-1.66 3.894h3.903l-1.635-3.894c-.124-.275-.228-.413-.31-.413a.135.135 0 00-.075.025.138.138 0 00-.05.048.715.715 0 00-.061.073.668.668 0 00-.037.085 1.796 1.796 0 01-.075.182zM93.057 33.012v7.521c0 .348-.095.615-.285.8-.181.179-.433.268-.756.268a1.35 1.35 0 01-.644-.146c-.174-.097-.339-.27-.496-.521l-4.09-6.406c-.082-.137-.165-.206-.247-.206-.116 0-.174.081-.174.243v6.939h-1.127v-7.582c0-.356.103-.61.31-.764.214-.162.466-.243.755-.243.48 0 .851.206 1.116.619l4.127 6.453c.09.138.169.207.235.207.1 0 .149-.07.149-.207v-6.975h1.127zM99.213 41.504H95.88c-.397 0-.698-.09-.905-.267-.206-.186-.31-.498-.31-.934v-6.09c0-.437.103-.744.31-.922.207-.186.508-.279.905-.279h3.16c.669 0 1.235.113 1.697.34.463.226.814.546 1.054.958.239.412.409.853.508 1.322.099.47.149 1 .149 1.59 0 .469-.029.897-.087 1.285-.05.389-.149.777-.298 1.165-.14.38-.326.7-.557.958-.232.26-.545.47-.942.631-.388.162-.839.243-1.35.243zm-.52-7.57h-2.305c-.223 0-.376.044-.459.134-.074.08-.111.226-.111.436V40c0 .227.037.38.111.461.075.081.227.122.459.122h2.367c.421 0 .785-.06 1.09-.182a1.87 1.87 0 00.719-.473c.182-.194.322-.441.421-.74.108-.308.178-.61.211-.91.033-.3.05-.651.05-1.056 0-.5-.033-.93-.1-1.285a3.32 3.32 0 00-.359-1.02 1.639 1.639 0 00-.793-.727c-.347-.17-.78-.255-1.301-.255zM110.561 41.504h-1.153v-7.57h-3.507v-.922h8.167v.922h-3.507v7.57zM118.456 32.915c1.603 0 2.723.32 3.359.958.644.64.966 1.767.966 3.385 0 1.617-.322 2.745-.966 3.384-.636.64-1.756.959-3.359.959-1.594 0-2.713-.32-3.358-.959-.644-.639-.966-1.767-.966-3.384 0-1.618.322-2.746.966-3.385.645-.639 1.764-.958 3.358-.958zm-2.478 1.662c-.43.485-.644 1.379-.644 2.68 0 1.303.214 2.2.644 2.694.438.485 1.264.728 2.478.728 1.215 0 2.037-.243 2.467-.728.437-.493.656-1.391.656-2.693s-.219-2.196-.656-2.681c-.43-.493-1.252-.74-2.467-.74-1.214 0-2.04.247-2.478.74zM128.223 32.915c1.603 0 2.722.32 3.358.958.645.64.967 1.767.967 3.385 0 1.617-.322 2.745-.967 3.384-.636.64-1.755.959-3.358.959-1.595 0-2.714-.32-3.359-.959-.644-.639-.966-1.767-.966-3.384 0-1.618.322-2.746.966-3.385.645-.639 1.764-.958 3.359-.958zm-2.479 1.662c-.429.485-.644 1.379-.644 2.68 0 1.303.215 2.2.644 2.694.438.485 1.264.728 2.479.728 1.214 0 2.036-.243 2.466-.728.438-.493.657-1.391.657-2.693s-.219-2.196-.657-2.681c-.43-.493-1.252-.74-2.466-.74-1.215 0-2.041.247-2.479.74zM140.418 41.504h-5.403c-.735 0-1.103-.34-1.103-1.02v-7.472h1.152v7.06c0 .194.038.328.112.4.083.073.227.11.434.11h4.808v.922zM141.036 41.504v-.922h4.845c.612 0 .917-.397.917-1.19a1.22 1.22 0 00-.186-.69c-.124-.195-.384-.356-.78-.486l-3.433-1.116c-.529-.17-.909-.416-1.14-.74-.232-.323-.347-.776-.347-1.358 0-.631.161-1.12.483-1.468.322-.348.818-.522 1.487-.522h4.697v.922h-4.486c-.339 0-.587.085-.744.255-.157.17-.235.449-.235.837 0 .186.012.34.037.46.025.122.099.252.223.389.132.13.318.234.558.315l3.271 1.068c.637.21 1.095.465 1.376.764.281.291.421.748.421 1.37 0 .632-.144 1.141-.433 1.53-.281.388-.736.582-1.364.582h-5.167z"/></svg>