<svg width="113" height="39" fill="none" xmlns="http://www.w3.org/2000/svg"><path d="M34.736.565L17.368 9.143 0 .565v37.883h34.736V.565zm-3.692 25.613v10.125H17.368V31.36L3.697 36.547V34.98l13.671-5.182 13.671-5.181.005 1.562zm0-3.364l-3.536 1.34-10.135 3.842-13.66 5.176-.016-.036v-1.527l13.671-5.181 5.997-2.275 7.68-2.912v1.573zm0-3.37l-12.42 4.71-1.256.477-13.671 5.182V28.24l12.674-4.803.997-.38 13.671-5.181.005 1.568zm0-3.224l-13.676 5.182-5.369 2.035-8.302 3.152V25.02l4.164-1.578 9.507-3.603 13.671-5.182.005 1.563zm0-3.609l-13.676 5.187L3.697 22.98V11.287h13.671v4.943l13.671-5.182.005 1.563zM112.095 19.023H37.317v1.08h74.778v-1.08zM43.184 35.664h-2.347l1.396-2.544-4.911-8.951h2.398l3.63 6.963 3.5-6.963h2.367l-6.033 11.495zM49.871 35.665V24.169h2.17v11.496h-2.17zm11.008 0h-2.794l-4.813-4.388c-.395-.348-.592-.862-.592-1.526 0-.483.187-.909.56-1.283l4.352-4.304h2.695l-4.98 4.714c-.02.021-.072.073-.155.146-.084.078-.135.13-.156.155a3.36 3.36 0 00-.104.146.582.582 0 00-.099.197.84.84 0 00-.026.208c0 .317.224.67.675 1.049l5.437 4.886zM61.533 35.664v-9.771c0-1.148.56-1.724 1.677-1.724h5.717c.592 0 1.085.093 1.485.285.4.193.7.473.903.837.203.368.343.747.42 1.147.079.4.115.872.115 1.423a7.64 7.64 0 01-.114 1.427c-.078.405-.218.79-.42 1.158-.203.369-.505.65-.904.847-.4.197-.893.296-1.485.296h-5.224v4.075h-2.17zm2.17-5.794h4.154c.701 0 1.168-.156 1.402-.467.234-.312.353-.826.353-1.537 0-.712-.12-1.22-.353-1.521-.234-.302-.701-.452-1.402-.452h-3.333c-.327 0-.55.057-.66.166-.109.109-.166.327-.166.66v3.151h.005zM71.092 35.665l4.335-10.333c.208-.493.447-.83.717-1.017.27-.187.66-.28 1.173-.28.494 0 .878.093 1.158.285.28.192.525.53.732 1.012l4.336 10.333h-2.285l-1.184-2.908H74.54l-1.168 2.908h-2.28zm5.898-9.133l-1.89 4.683h4.419l-1.875-4.683c-.119-.317-.228-.478-.327-.478-.098 0-.207.16-.327.478zM84.696 23.183H82.79v-1.807h1.906v1.807zm1.838 12.482h-2.17V24.169h2.17v11.496zm1.578-12.482h-1.905v-1.807h1.905v1.807zM98.922 24.169v11.495h-2.17v-5.057H90.77v5.057H88.6V24.17h2.17v4.715h5.982v-4.715h2.17zM99.644 35.665l4.336-10.333c.207-.493.446-.83.716-1.017.27-.187.659-.28 1.174-.28.493 0 .877.093 1.157.285.281.192.525.53.732 1.012l4.336 10.333h-2.285l-1.183-2.908h-5.535l-1.169 2.908h-2.279zm5.898-9.133l-1.89 4.683h4.419l-1.874-4.683c-.12-.317-.229-.478-.327-.478-.099 0-.208.16-.328.478zM43.173 7.819h-2.902c-.577 0-1.065-.084-1.46-.255-.4-.166-.7-.415-.913-.748a3.266 3.266 0 01-.447-1.09 6.51 6.51 0 01-.13-1.391c0-.53.042-.992.13-1.392.089-.4.234-.758.447-1.09.213-.327.52-.577.914-.748.394-.166.882-.254 1.459-.254h2.793v1.043H40.89c-.847 0-1.428.172-1.745.514-.317.343-.472.982-.472 1.921 0 .94.155 1.584.472 1.921.317.338.898.515 1.745.515h2.284v1.054zM49.155 4.299c.727.062 1.09.597 1.09 1.61 0 .601-.114 1.069-.342 1.406-.229.333-.65.504-1.267.504h-3.557c-.675 0-1.013-.348-1.013-1.044v-4.87c0-.696.338-1.044 1.013-1.044h3.557c1.002 0 1.5.639 1.5 1.906 0 .903-.327 1.397-.981 1.49v.042zM45.38 2.403v1.382h2.643c.29 0 .493-.073.602-.213.11-.14.166-.39.166-.743 0-.311-.057-.545-.171-.696-.114-.15-.317-.228-.602-.228h-2.14c-.197 0-.332.031-.4.099-.067.067-.098.197-.098.4zm0 2.425v1.449c0 .197.031.332.099.4.067.067.197.098.4.098h2.076c.343 0 .587-.072.733-.218.14-.145.212-.39.212-.737 0-.343-.067-.597-.202-.753-.135-.16-.353-.239-.65-.239H45.38zM52.654 7.819h-1.313V.86h1.313V7.82zM57.275 7.819h-1.313V1.905h-2.716V.861h6.75v1.044h-2.72v5.914zM38.63 17.326h-1.313v-6.958h1.313v6.958zM46.066 10.368v6.958h-1.314v-3.064h-3.62v3.064h-1.307v-6.958h1.313v2.85h3.62v-2.85h1.307zM52.914 17.326H50.01c-.576 0-1.064-.083-1.459-.255-.4-.166-.7-.415-.913-.747a3.264 3.264 0 01-.447-1.09c-.088-.4-.13-.863-.13-1.392 0-.53.042-.992.13-1.392.088-.4.234-.758.447-1.09.212-.327.519-.576.913-.748.395-.166.883-.254 1.46-.254h2.793V11.4h-2.176c-.846 0-1.427.172-1.744.515-.317.342-.473.98-.473 1.92s.156 1.584.473 1.922c.317.343.898.514 1.744.514h2.285v1.054zM57.436 17.326h-1.313v-5.914h-2.716v-1.044h6.75v1.044h-2.72v5.914zM60.754 17.326v-5.914c0-.696.338-1.044 1.013-1.044h3.458c.358 0 .66.057.898.171.239.114.426.286.545.51.125.222.208.45.254.695.047.244.068.53.068.862 0 .332-.026.618-.067.867-.047.244-.13.478-.255.7a1.244 1.244 0 01-.545.515c-.239.12-.54.176-.898.176h-3.162v2.467h-1.309v-.005zm1.314-3.51h2.513c.426 0 .706-.094.851-.286.14-.187.213-.498.213-.93 0-.43-.072-.737-.213-.918-.14-.182-.425-.276-.851-.276h-2.02c-.197 0-.332.031-.4.099-.067.067-.098.197-.098.4v1.91h.005zM70.645 17.326h-1.422l.846-1.543-2.97-5.415h1.449l2.196 4.216 2.118-4.216h1.434l-3.65 6.958zM81.793 11.931l-1.78 4.642c-.12.296-.245.514-.38.639-.135.13-.337.192-.618.192-.28 0-.483-.062-.618-.192s-.26-.343-.379-.639l-1.78-4.642c-.058-.15-.115-.228-.167-.228-.072 0-.109.067-.109.208l.031 5.415H74.68v-6.122c0-.607.373-.914 1.121-.914.358 0 .623.078.795.229.171.15.316.374.425.665l1.797 4.641c.078.172.14.26.187.26.047 0 .109-.088.187-.26l1.796-4.641c.115-.291.255-.514.426-.665.171-.15.436-.229.794-.229.748 0 1.122.307 1.122.914v6.122h-1.314l.042-5.415c0-.14-.042-.208-.12-.208-.03 0-.083.072-.145.228zM90.121 16.282v1.044h-4.564c-.675 0-1.012-.348-1.012-1.044v-4.87c0-.696.337-1.044 1.012-1.044h4.523v1.044h-3.728c-.198 0-.333.03-.4.098s-.099.197-.099.4v1.34h4.123v1.043h-4.123v1.49c0 .198.032.333.099.4.067.068.197.099.4.099h3.77zM97.26 10.368v6.958h-1.313v-3.064h-3.619v3.064h-1.314v-6.958h1.314v2.85h3.619v-2.85h1.314zM101.882 17.326h-1.314v-5.914h-2.715v-1.044h6.749v1.044h-2.72v5.914zM108.45 17.326h-1.423l.847-1.543-2.97-5.415h1.448l2.197 4.216 2.118-4.216h1.433l-3.65 6.958zM112.095 37.425H37.317v1.08h74.778v-1.08z"/></svg>