<svg width="38" height="38" xmlns="http://www.w3.org/2000/svg"><path d="M24.08 15.76a7.504 7.504 0 00-.356 1.616c-.08.7-.12 1.406-.116 2.111-.003.565.031 1.13.102 1.69.061.485.17.962.323 1.425a4.054 4.054 0 001.294 1.85 3.165 3.165 0 003.65.17 3.684 3.684 0 001.254-1.413 5.418 5.418 0 00.532-1.663c.103-.725.15-1.457.143-2.19a9.636 9.636 0 00-.542-3.628 4.399 4.399 0 00-.768-1.239 3.032 3.032 0 00-1.05-.76 3.297 3.297 0 00-1.332-.26 3.15 3.15 0 00-1.913.583 3.623 3.623 0 00-1.22 1.704v.004zm1.856.315a1.333 1.333 0 011.308-1.034 1.246 1.246 0 011.026.467c.286.405.467.875.527 1.367.117.77.17 1.548.157 2.326.013.81-.038 1.621-.15 2.424a3.235 3.235 0 01-.52 1.422 1.299 1.299 0 01-2.03.018 3.165 3.165 0 01-.528-1.409 14.92 14.92 0 01-.156-2.393 10.196 10.196 0 01.366-3.184"/><path d="M33.533 7.131l-.013-5.454a.456.456 0 00-.779-.32l-2.61 2.6a18.685 18.685 0 10-11.053 33.71c.67-.001 1.34-.038 2.007-.11v-.006a1.327 1.327 0 100-2.656v-.032a15.99 15.99 0 117.133-29l-2.753 2.74a.454.454 0 00.322.776l6.103.014h1.19a.455.455 0 00.457-.456l-.004-1.806z"/><path d="M12.831 19.468a3.93 3.93 0 00-.933-.746c.352-.311.651-.677.887-1.084.216-.41.323-.869.31-1.332a2.85 2.85 0 00-.213-1.103 2.567 2.567 0 00-.635-.901 2.897 2.897 0 00-.99-.594 3.676 3.676 0 00-1.26-.206 4.01 4.01 0 00-1.431.244c-.396.144-.76.364-1.072.649a3.08 3.08 0 00-.656.85c-.14.263-.217.554-.224.85a.933.933 0 00.233.673.7.7 0 00.523.252.945.945 0 00.43-.092.518.518 0 00.26-.26c.077-.203.166-.418.267-.646.08-.198.184-.385.31-.558.118-.152.27-.272.446-.35.226-.096.47-.14.716-.132a1.284 1.284 0 011.019.431 1.68 1.68 0 01-.096 2.233c-.31.278-.713.428-1.13.42h-.291a1.11 1.11 0 00-.762.233.769.769 0 00-.257.602.8.8 0 00.214.593.816.816 0 00.605.214c.056 0 .186-.01.384-.03.199-.02.35-.032.442-.032a1.602 1.602 0 011.269.517c.323.402.485.91.455 1.424.008.378-.084.75-.266 1.08-.16.29-.393.532-.677.7a1.68 1.68 0 01-.85.234 1.449 1.449 0 01-1.201-.517 5.402 5.402 0 01-.795-1.604.583.583 0 00-.242-.307.669.669 0 00-.384-.128.89.89 0 00-.665.275.999.999 0 00-.267.727c.017.307.093.607.224.886.163.379.387.729.662 1.037.313.35.692.633 1.115.835a3.411 3.411 0 001.53.334 3.916 3.916 0 001.534-.292c.45-.186.86-.46 1.201-.807.333-.337.593-.737.766-1.177.173-.436.26-.9.26-1.368a3.072 3.072 0 00-.193-1.099 2.878 2.878 0 00-.573-.933M21.483 18.606a3 3 0 00-1.004-.784 2.838 2.838 0 00-1.25-.276 2.672 2.672 0 00-1.274.303c-.412.232-.77.55-1.05.933-.03-1.013.18-2.02.613-2.936.16-.258.374-.477.63-.64.223-.15.483-.23.751-.234.3-.005.593.095.827.283.242.195.423.455.52.75.068.223.199.421.377.571a.873.873 0 00.556.205.699.699 0 00.562-.26.872.872 0 00.222-.583 2.11 2.11 0 00-.35-1.103 2.789 2.789 0 00-1.05-.963 3.232 3.232 0 00-1.607-.389 3.581 3.581 0 00-1.688.389 3.477 3.477 0 00-1.26 1.149 5.773 5.773 0 00-.798 1.919 11.3 11.3 0 00-.278 2.625 8.887 8.887 0 00.46 3.05 3.94 3.94 0 001.329 1.883c.6.431 1.326.655 2.065.637a3.511 3.511 0 001.867-.5c.55-.338.995-.823 1.283-1.4a4.27 4.27 0 00.46-1.984 4.456 4.456 0 00-.233-1.446 3.645 3.645 0 00-.666-1.199h-.014zm-1.47 4.361a1.423 1.423 0 01-1.189.64 1.487 1.487 0 01-1.253-.7 2.932 2.932 0 01-.499-1.75c-.01-.393.075-.783.246-1.137a1.83 1.83 0 01.648-.742c.25-.166.544-.255.844-.257.304-.001.6.093.847.269.271.197.481.466.606.777.155.386.23.8.22 1.215a2.772 2.772 0 01-.466 1.681M28.075 32.488a1.328 1.328 0 10.011 2.653 1.328 1.328 0 00-.012-2.652M33.6 27.207a1.328 1.328 0 10.01 2.655 1.328 1.328 0 00-.01-2.655zM36.337 19.935a1.327 1.327 0 10.012 2.654 1.327 1.327 0 00-.011-2.654z"/></svg>