<svg width="16" height="16" viewBox="0 0 16 16" fill="none" xmlns="http://www.w3.org/2000/svg">
<path d="M2 11.2358V4.76477C2.00384 4.74567 2.00948 4.7268 2.012 4.70758C2.08964 3.97678 2.69372 3.33146 3.54368 3.33326C6.51448 3.33732 9.48532 3.33803 12.4562 3.3354C12.5362 3.33373 12.6161 3.33872 12.6952 3.35033C13.3072 3.45324 13.7089 3.80772 13.9146 4.38367C13.9581 4.50557 13.9723 4.63786 14 4.76573V11.2368C13.992 11.2853 13.9834 11.3337 13.976 11.3824C13.8636 12.1186 13.2265 12.6664 12.4802 12.6664C9.4934 12.6664 6.5066 12.6664 3.5198 12.6664C3.44781 12.6676 3.37585 12.6629 3.30464 12.6523C2.69264 12.5489 2.29112 12.1947 2.08532 11.6187C2.04188 11.4955 2.02772 11.3632 2 11.2358ZM3.00128 7.4862C3.0002 7.50936 2.99852 7.52882 2.99852 7.54828C2.99852 8.73011 2.99852 9.91209 2.99852 11.0942C2.99852 11.4125 3.21944 11.6301 3.53852 11.6301H12.4597C12.782 11.6301 13.0014 11.4128 13.0015 11.0904C13.0021 9.91058 13.0021 8.7307 13.0015 7.55079C13.0015 7.52978 12.9997 7.50864 12.9987 7.48656L3.00128 7.4862ZM13.0015 6.4439V6.37704C13.0015 5.88956 12.9992 5.40209 13.0023 4.91461C13.0042 4.59583 12.7632 4.36767 12.4516 4.36815C9.48364 4.37253 6.51564 4.37253 3.54764 4.36815C3.23636 4.36815 2.99564 4.59571 2.9972 4.91473C3.0002 5.40221 2.99792 5.88968 2.99804 6.37728C2.99804 6.39853 2.99984 6.41979 3.00104 6.4439H13.0015Z" fill="#5E5E5E"/>
</svg>
