<svg width="12" height="12" viewBox="0 0 12 12" fill="none" xmlns="http://www.w3.org/2000/svg">
<path d="M5.99419 12C4.25101 11.9686 2.79251 11.3338 1.61869 10.0957C0.789512 9.21967 0.274782 8.18767 0.0882372 7.01989C-0.212853 5.13577 0.252524 3.44006 1.54721 1.98301C2.45048 0.965586 3.59868 0.320086 4.97545 0.091479C6.68827 -0.192898 8.24425 0.186816 9.61081 1.21567C10.8427 2.14316 11.5983 3.36608 11.8805 4.83996C12.207 6.54484 11.8674 8.1309 10.8251 9.55441C9.96649 10.7268 8.80494 11.4962 7.34936 11.8437C6.90519 11.9499 6.45276 11.9967 5.99419 12ZM10.9131 5.99154C10.9035 5.84194 10.8975 5.68506 10.883 5.5288C10.8109 4.72098 10.5325 3.94263 10.0724 3.26258C9.08469 1.79297 7.33221 0.906299 5.43246 1.12461C4.6756 1.20935 3.9517 1.46994 3.32352 1.88378C1.68296 2.95584 0.855097 4.84298 1.14441 6.74481C1.28841 7.69265 1.67419 8.54389 2.33568 9.2635C3.48427 10.5137 4.92571 11.0685 6.65973 10.8604C7.60974 10.7463 8.44402 10.3642 9.15669 9.75425C10.323 8.75542 10.8777 7.48841 10.9131 5.99154Z" fill="#5E5E5E"/>
<path d="M5.45151 4.36073C5.45151 3.82271 5.45151 3.28469 5.45151 2.74667C5.45151 2.49043 5.60049 2.28116 5.83115 2.20806C6.18722 2.09501 6.53963 2.3569 6.54185 2.73762C6.54395 3.08932 6.54185 3.44103 6.54185 3.79273C6.54185 4.43333 6.54159 5.07393 6.54107 5.71453C6.5403 5.73398 6.54385 5.75337 6.55147 5.77141C6.5591 5.78945 6.57063 5.80573 6.58531 5.81916C7.05816 6.28936 7.53022 6.76022 8.00149 7.23175C8.17089 7.40119 8.22338 7.59928 8.14484 7.82211C8.01157 8.19893 7.53414 8.30306 7.24601 8.01755C6.78024 7.55582 6.318 7.09069 5.85432 6.62707C5.77879 6.55171 5.70365 6.47559 5.62733 6.40098C5.50807 6.28429 5.45204 6.14386 5.45204 5.98145L5.45151 4.36073Z" fill="#5E5E5E"/>
</svg>
