<svg width="16" height="16" viewBox="0 0 16 16" fill="none" xmlns="http://www.w3.org/2000/svg">
<path d="M11.4922 5.49219H10.5078V4.50781C10.5078 4.22656 10.4062 3.98828 10.2031 3.79297C10 3.59766 9.76562 3.5 9.5 3.5H3.00781C2.72656 3.5 2.48828 3.59766 2.29297 3.79297C2.09766 3.98828 2 4.22656 2 4.50781V10.5078C2 10.7734 2.09766 11.0039 2.29297 11.1992C2.48828 11.3945 2.72656 11.4922 3.00781 11.4922H3.10156C3.19531 11.7891 3.37109 12.0312 3.62891 12.2188C3.88672 12.4062 4.17969 12.5 4.50781 12.5C4.82031 12.5 5.10547 12.4062 5.36328 12.2188C5.62109 12.0312 5.79688 11.7891 5.89062 11.4922H10.1094C10.2031 11.7891 10.3789 12.0312 10.6367 12.2188C10.8945 12.4062 11.1797 12.5 11.4922 12.5C11.8203 12.5 12.1133 12.4062 12.3711 12.2188C12.6289 12.0312 12.8047 11.7891 12.8984 11.4922H12.9922C13.2734 11.4922 13.5117 11.3945 13.707 11.1992C13.9023 11.0039 14 10.7734 14 10.5078V8.70312C14 8.4375 13.8984 8.20312 13.6953 8L11.4922 5.49219ZM4.50781 11.4922C4.38281 11.4922 4.26562 11.4414 4.15625 11.3398C4.04688 11.2383 3.99219 11.125 3.99219 11C3.99219 10.875 4.04688 10.7617 4.15625 10.6602C4.26562 10.5586 4.38281 10.5078 4.50781 10.5078C4.63281 10.5078 4.74609 10.5586 4.84766 10.6602C4.94922 10.7617 5 10.875 5 11C5 11.125 4.94922 11.2383 4.84766 11.3398C4.74609 11.4414 4.63281 11.4922 4.50781 11.4922ZM9.5 10.5078H5.89062C5.79688 10.2109 5.62109 9.96875 5.36328 9.78125C5.10547 9.59375 4.82031 9.5 4.50781 9.5C4.17969 9.5 3.88672 9.59375 3.62891 9.78125C3.37109 9.96875 3.19531 10.2109 3.10156 10.5078H3.00781V8.49219H9.5V10.5078ZM9.5 5.49219V7.50781H3.00781V4.50781H9.5V5.49219ZM11.4922 11.4922C11.3672 11.4922 11.2539 11.4414 11.1523 11.3398C11.0508 11.2383 11 11.125 11 11C11 10.875 11.0508 10.7617 11.1523 10.6602C11.2539 10.5586 11.3672 10.5078 11.4922 10.5078C11.6172 10.5078 11.7344 10.5586 11.8438 10.6602C11.9531 10.7617 12.0078 10.875 12.0078 11C12.0078 11.125 11.9531 11.2383 11.8438 11.3398C11.7344 11.4414 11.6172 11.4922 11.4922 11.4922ZM12.9922 10.5078H12.8984C12.8047 10.2109 12.6289 9.96875 12.3711 9.78125C12.1133 9.59375 11.8203 9.5 11.4922 9.5C11.0703 9.5 10.7422 9.63281 10.5078 9.89844V6.5H10.7891L12.9922 8.70312V10.5078Z" fill="#5E5E5E"/>
</svg>
