<svg width="16" height="16" viewBox="0 0 16 16" fill="none" xmlns="http://www.w3.org/2000/svg">
<path d="M12.8328 7.99999C12.8328 9.28401 12.8328 10.5681 12.8328 11.8523C12.8328 12.5439 12.3964 13.1192 11.7415 13.2865C11.6349 13.3141 11.5254 13.3288 11.4154 13.3301C10.5977 13.3338 9.77999 13.3344 8.96224 13.3318C8.84692 13.3324 8.73531 13.291 8.64813 13.2152C8.56096 13.1395 8.50415 13.0346 8.48825 12.92C8.45589 12.6756 8.60031 12.4499 8.83522 12.3846C8.88562 12.3715 8.93754 12.3651 8.98962 12.3658C9.78409 12.3646 10.5786 12.3642 11.3733 12.3646C11.6144 12.3646 11.8072 12.2088 11.8561 11.9759C11.8637 11.934 11.8669 11.8914 11.8658 11.8488C11.8663 9.28276 11.8663 6.71675 11.8658 4.15073C11.8658 3.83789 11.662 3.63492 11.3495 3.63492C10.5549 3.63492 9.76031 3.63492 8.96584 3.63492C8.85062 3.63536 8.73907 3.59433 8.65144 3.51928C8.56381 3.44423 8.50592 3.34014 8.48827 3.22591C8.47063 3.11168 8.4944 2.99489 8.55527 2.89675C8.61614 2.79861 8.71008 2.72563 8.82002 2.69105C8.87181 2.67583 8.92555 2.6683 8.97952 2.66871C9.77798 2.66731 10.5764 2.6651 11.3748 2.66871C12.091 2.67185 12.6687 3.1517 12.8054 3.85395C12.8238 3.95504 12.8325 4.05765 12.8315 4.16039C12.8333 5.43991 12.8337 6.71977 12.8328 7.99999Z" fill="#5E5E5E"/>
<path d="M8.26559 8.48494H3.67397C3.43675 8.48494 3.24778 8.34994 3.18676 8.13847C3.09686 7.8282 3.31842 7.52618 3.64404 7.51536C3.66724 7.51466 3.69044 7.51536 3.71365 7.51536H8.28091C8.25771 7.49069 8.24437 7.47579 8.23033 7.46159C7.88031 7.11043 7.53045 6.75922 7.18074 6.40798C6.91973 6.14449 7.02228 5.70771 7.3711 5.60005C7.55171 5.54442 7.71586 5.58318 7.85344 5.71516C7.95123 5.80896 8.04519 5.90672 8.14089 6.00274C8.66584 6.52925 9.19095 7.05569 9.71621 7.58205C9.79486 7.66049 9.87548 7.73567 9.90935 7.84565C9.96736 8.03466 9.92965 8.20493 9.79149 8.344C9.14861 8.99109 8.50429 9.63663 7.85854 10.2806C7.72363 10.4155 7.55879 10.4561 7.37794 10.4026C7.19709 10.349 7.08202 10.2222 7.04455 10.0354C7.01056 9.86605 7.05696 9.71662 7.17958 9.59314C7.52759 9.24314 7.87621 8.89341 8.22546 8.54395C8.2403 8.52905 8.25782 8.51683 8.27418 8.50322C8.27105 8.49716 8.26826 8.491 8.26559 8.48494Z" fill="#5E5E5E"/>
</svg>
