<svg width="16" height="16" viewBox="0 0 16 16" fill="none" xmlns="http://www.w3.org/2000/svg">
<path d="M4.13326 8.00247C4.13326 9.28452 4.13326 10.5666 4.13326 11.8486C4.13326 12.0978 4.26695 12.2867 4.48889 12.346C4.54323 12.3591 4.59904 12.3652 4.65493 12.3641C5.44712 12.3653 6.23947 12.3656 7.03196 12.3652C7.14759 12.3648 7.25947 12.4063 7.34718 12.4819C7.43488 12.5575 7.49255 12.6623 7.50964 12.7771C7.52674 12.8918 7.50211 13.009 7.44028 13.107C7.37844 13.2051 7.28351 13.2776 7.17285 13.3112C7.12268 13.3252 7.07081 13.332 7.01875 13.3315C6.22076 13.3328 5.42266 13.335 4.62455 13.3315C3.90901 13.3285 3.3311 12.8488 3.19404 12.1467C3.17607 12.0496 3.16738 11.9509 3.16807 11.8521C3.16668 9.28383 3.16629 6.71572 3.16691 4.14781C3.16691 3.43516 3.62249 2.85683 4.308 2.70087C4.39837 2.68025 4.49072 2.66959 4.58339 2.6691C5.4007 2.66653 6.21809 2.66607 7.03556 2.6677C7.13489 2.66704 7.23191 2.69773 7.31291 2.75544C7.39392 2.81314 7.4548 2.89495 7.48696 2.98928C7.51978 3.08231 7.5234 3.18321 7.49734 3.27837C7.47128 3.37354 7.41679 3.4584 7.34121 3.52152C7.24845 3.59927 7.14096 3.63465 7.02037 3.63465C6.22238 3.63465 5.42432 3.63465 4.62618 3.63465C4.38499 3.63465 4.19205 3.79026 4.14358 4.02316C4.13537 4.07088 4.13203 4.11931 4.13361 4.16771C4.13315 5.44596 4.13303 6.72422 4.13326 8.00247Z" fill="#5E5E5E"/>
<path d="M11.1793 8.48467H11.089C9.58368 8.48467 8.07834 8.48467 6.57297 8.48467C6.33631 8.48467 6.14742 8.34884 6.08655 8.1369C5.99738 7.82649 6.21954 7.52516 6.54514 7.51503C6.56636 7.51433 6.58769 7.51503 6.60891 7.51503H11.1775C11.1543 7.49013 11.1414 7.47476 11.1272 7.46044C10.7775 7.10918 10.4279 6.75792 10.0782 6.40666C9.81779 6.14339 9.92157 5.706 10.2705 5.59927C10.4511 5.54398 10.6154 5.58286 10.7523 5.71566C10.8828 5.84229 11.0096 5.97299 11.138 6.10184C11.6287 6.59432 12.1195 7.08657 12.6106 7.57858C12.689 7.65691 12.7704 7.73128 12.8053 7.84115C12.866 8.03238 12.8285 8.20394 12.6882 8.34465C12.047 8.99038 11.4043 9.63439 10.7603 10.2767C10.4982 10.5385 10.062 10.4342 9.95577 10.084C9.8993 9.89775 9.94174 9.73061 10.0794 9.59188C10.4272 9.24139 10.7756 8.89156 11.1245 8.54239C11.1384 8.52773 11.1525 8.51237 11.1793 8.48467Z" fill="#5E5E5E"/>
</svg>
