<svg width="16" height="16" viewBox="0 0 16 16" fill="none" xmlns="http://www.w3.org/2000/svg">
<path d="M7.99353 13.9994H6.50894C5.76908 13.9994 5.02909 14.0008 4.2891 13.9994C3.53683 13.9974 2.91663 13.519 2.72581 12.7862C2.68884 12.6409 2.67017 12.4913 2.67027 12.3411C2.66668 10.3595 2.66575 8.37835 2.66745 6.39746C2.66745 6.19556 2.74347 6.03699 2.89987 5.913C4.48095 4.65653 6.06143 3.39924 7.64132 2.14112C7.87796 1.9527 8.1233 1.95296 8.3607 2.1419C9.9411 3.39872 11.5215 4.65566 13.1019 5.91274C13.2585 6.03713 13.3334 6.19621 13.3333 6.39799C13.3327 8.37696 13.3327 10.356 13.3333 12.335C13.3333 13.1358 12.8296 13.7876 12.0723 13.9609C11.9488 13.9891 11.8188 13.997 11.6917 13.9977C11.0541 14.0013 10.4163 13.9994 9.77861 13.9994H7.99353ZM10.1336 12.9109H10.2059C10.7029 12.9109 11.1999 12.9109 11.6968 12.9109C12.0416 12.9109 12.2664 12.6825 12.2664 12.3306C12.2664 10.4518 12.2668 8.57301 12.2676 6.69416C12.269 6.67401 12.2652 6.65383 12.2567 6.6356C12.2482 6.61737 12.2352 6.60173 12.219 6.5902C10.8296 5.48606 9.44095 4.38109 8.05304 3.27529C8.01528 3.24517 7.99212 3.2398 7.95065 3.27254C6.56129 4.38017 5.17107 5.48654 3.78 6.59164C3.76454 6.60261 3.75215 6.6175 3.74402 6.63486C3.7359 6.65222 3.73233 6.67143 3.73367 6.69063C3.73469 8.57375 3.73507 10.4569 3.73482 12.3401C3.73482 12.6806 3.9625 12.911 4.29397 12.9114C4.79523 12.9119 5.29649 12.9119 5.79775 12.9114H5.8675V12.8089C5.8675 11.2159 5.8675 9.62286 5.8675 8.02971C5.8675 7.68758 6.09582 7.45477 6.43062 7.45464C7.47784 7.45464 8.52512 7.45486 9.57243 7.4553C9.62354 7.45476 9.67453 7.46039 9.72435 7.47206C9.97724 7.53425 10.1332 7.74925 10.1332 8.0322C10.1332 9.62517 10.1332 11.2182 10.1332 12.8114L10.1336 12.9109ZM6.93909 8.54914V12.9055H9.06204V8.54914H6.93909Z" fill="#5E5E5E"/>
</svg>
