<svg width="16" height="16" viewBox="0 0 16 16" fill="none" xmlns="http://www.w3.org/2000/svg">
<path d="M13.4993 7.99999C13.4993 8.79543 13.5009 9.59088 13.4993 10.3863C13.4975 11.042 13.207 11.5219 12.6337 11.8157C11.3256 12.4861 10.0162 13.1541 8.7053 13.8195C8.23271 14.0604 7.76036 14.0602 7.28826 13.8189C5.97892 13.1507 4.66938 12.483 3.35964 11.8158C2.86249 11.562 2.57863 11.1517 2.50745 10.5896C2.50106 10.5245 2.49878 10.4591 2.50061 10.3938C2.50061 8.7989 2.50061 7.20393 2.50061 5.60888C2.50157 4.95588 2.7948 4.47983 3.36481 4.18515C3.9581 3.8786 4.55439 3.57804 5.14937 3.27467C5.86737 2.90869 6.5855 2.54266 7.30374 2.17659C7.76597 1.94187 8.23083 1.94065 8.69306 2.17586C10.0122 2.84713 11.3308 3.51938 12.6489 4.19262C13.1043 4.42513 13.3828 4.79813 13.4758 5.30954C13.4921 5.41007 13.4995 5.51189 13.4979 5.61377C13.4999 6.40922 13.5003 7.20462 13.4993 7.99999ZM3.4984 5.76503V5.84922C3.4984 7.36253 3.49811 8.87591 3.49755 10.3894C3.49755 10.6313 3.59849 10.8001 3.80962 10.9076C5.0179 11.5224 6.22581 12.1379 7.43337 12.7542C7.45245 12.764 7.4719 12.7727 7.49927 12.7856V12.7102C7.49927 11.0971 7.4997 9.48388 7.50058 7.87063C7.50058 7.81728 7.48234 7.79256 7.43745 7.76967C6.14867 7.11398 4.86018 6.45739 3.57197 5.79991C3.55097 5.78914 3.52996 5.77971 3.4984 5.76503ZM12.5015 5.76503C12.4728 5.77824 12.4535 5.78657 12.4338 5.79636C11.1418 6.45499 9.84956 7.11329 8.55694 7.77126C8.51229 7.79403 8.49849 7.82021 8.49849 7.86916C8.49985 9.48249 8.50021 11.0957 8.49957 12.7089V12.7823C8.53102 12.767 8.55238 12.7571 8.57339 12.7465C9.7763 12.1342 10.9792 11.5217 12.182 10.909C12.4005 10.798 12.5031 10.6264 12.5027 10.377C12.5003 8.86771 12.4999 7.35841 12.5015 5.8491V5.76503ZM9.37757 6.21317C9.35669 6.20093 9.34156 6.192 9.32644 6.18404C8.06735 5.54198 6.80831 4.89971 5.5493 4.25723C5.53493 4.2487 5.51858 4.2442 5.50195 4.2442C5.48531 4.2442 5.46898 4.2487 5.4546 4.25723C5.02634 4.47686 4.59773 4.69575 4.16875 4.9139C4.15531 4.92075 4.14318 4.93018 4.12566 4.94144C4.14366 4.95135 4.15554 4.95832 4.16779 4.96457C5.43095 5.60843 6.69372 6.25262 7.95608 6.89713C7.99209 6.91536 8.01814 6.91022 8.05067 6.89358C8.47365 6.67714 8.89686 6.46114 9.32032 6.2456C9.3376 6.23679 9.35416 6.22663 9.37757 6.21354V6.21317ZM11.8791 4.94046C11.8501 4.9243 11.8332 4.91427 11.8157 4.90533C10.6277 4.29974 9.43967 3.69393 8.25172 3.08793C8.0814 3.00092 7.9166 3.00067 7.74676 3.08793C7.3922 3.27149 7.03596 3.45089 6.68044 3.63225C6.66375 3.6407 6.64815 3.65135 6.62594 3.66456C6.64875 3.67741 6.66387 3.68659 6.67948 3.69454C7.9368 4.33604 9.19401 4.9777 10.4511 5.61952C10.4664 5.62849 10.4837 5.63314 10.5014 5.63299C10.519 5.63284 10.5363 5.6279 10.5514 5.61867C10.8723 5.45346 11.1937 5.28923 11.5155 5.12598L11.8791 4.94046Z" fill="#5E5E5E"/>
</svg>
