<svg width="16" height="16" viewBox="0 0 16 16" fill="none" xmlns="http://www.w3.org/2000/svg">
<path d="M8.61378 7.38782H8.68356C9.5679 7.38782 10.4522 7.38782 11.3366 7.38782C11.4884 7.38782 11.6299 7.41965 11.7542 7.51076C11.9551 7.65797 12.0447 7.9185 11.9784 8.16242C11.9461 8.28098 11.8786 8.387 11.7848 8.46656C11.6911 8.54612 11.5755 8.59551 11.4532 8.60825C11.4099 8.61254 11.3662 8.61413 11.3224 8.61413C10.4413 8.6145 9.56005 8.6145 8.6787 8.61413H8.61331V8.67742C8.61331 9.56571 8.61331 10.454 8.61331 11.3423C8.61331 11.5469 8.55212 11.7275 8.38808 11.8578C8.19359 12.0124 7.97462 12.0425 7.74818 11.9404C7.51324 11.8345 7.39404 11.6417 7.38797 11.3865C7.3819 11.1312 7.38601 10.873 7.38592 10.6164C7.38592 9.97084 7.38592 9.32525 7.38592 8.67966V8.61329H7.32305C6.43559 8.61329 5.54814 8.61329 4.66069 8.61329C4.50029 8.61329 4.35242 8.57595 4.22509 8.47448C4.03545 8.32391 3.95474 8.06282 4.02518 7.8274C4.09674 7.58796 4.30608 7.41368 4.54934 7.3924C4.59418 7.38848 4.63939 7.38689 4.68451 7.3868C5.56262 7.3868 6.44073 7.3868 7.31884 7.3868H7.38601V7.32463C7.38601 6.43633 7.38601 5.54803 7.38601 4.65974C7.38601 4.45503 7.44654 4.2744 7.61021 4.14362C7.80582 3.98717 8.0261 3.95693 8.25403 4.06082C8.48823 4.1678 8.60901 4.36047 8.61153 4.61633C8.6163 5.15607 8.6135 5.6959 8.61359 6.23573C8.61359 6.59816 8.61359 6.96063 8.61359 7.32313L8.61378 7.38782Z" fill="#5E5E5E"/>
</svg>
