<svg width="16" height="16" viewBox="0 0 16 16" fill="none" xmlns="http://www.w3.org/2000/svg">
<path d="M10.5282 5.47147C10.3931 5.33633 10.1739 5.33633 10.0388 5.47147L5.47111 10.0392C5.33597 10.1743 5.33597 10.3934 5.47111 10.5286C5.53868 10.5961 5.62725 10.6299 5.71579 10.6299C5.80434 10.6299 5.89293 10.5962 5.96048 10.5286L10.5282 5.96089C10.6634 5.82573 10.6634 5.60664 10.5282 5.47147Z" fill="#5E5E5E"/>
<path fill-rule="evenodd" clip-rule="evenodd" d="M9.94454 5.37722C10.1317 5.19002 10.4353 5.19001 10.6225 5.37723C10.8097 5.56447 10.8097 5.86798 10.6225 6.05521L6.05482 10.6229C6.05481 10.6229 6.0548 10.6229 6.05479 10.6229C5.96121 10.7165 5.83825 10.7633 5.71582 10.7633C5.59335 10.7633 5.47043 10.7165 5.37686 10.6229C5.18965 10.4357 5.18965 10.1321 5.37686 9.94493L9.94454 5.37722ZM10.5282 5.4715C10.3931 5.33636 10.174 5.33636 10.0388 5.4715L5.47114 10.0392C5.336 10.1744 5.336 10.3935 5.47114 10.5286C5.53871 10.5962 5.62728 10.63 5.71582 10.63C5.80437 10.63 5.89296 10.5962 5.96051 10.5286L10.5282 5.96092C10.6634 5.82576 10.6634 5.60667 10.5282 5.4715Z" fill="#5E5E5E"/>
<path d="M9.38399 8.5769C8.68434 8.5769 8.11511 9.14613 8.11511 9.84578C8.11511 10.5454 8.68434 11.1147 9.38399 11.1147C10.0836 11.1147 10.6529 10.5454 10.6529 9.84578C10.6529 9.14613 10.0836 8.5769 9.38399 8.5769ZM9.38399 10.4225C9.06597 10.4225 8.80722 10.1638 8.80722 9.84578C8.80722 9.52776 9.06594 9.26903 9.38399 9.26903C9.70201 9.26903 9.96073 9.52776 9.96073 9.84578C9.96073 10.1638 9.70201 10.4225 9.38399 10.4225Z" fill="#5E5E5E"/>
<path fill-rule="evenodd" clip-rule="evenodd" d="M7.91516 9.84583C7.91516 9.03572 8.57393 8.37695 9.38404 8.37695C10.1941 8.37695 10.8529 9.03572 10.8529 9.84583C10.8529 10.6559 10.1941 11.3147 9.38404 11.3147C8.57393 11.3147 7.91516 10.6559 7.91516 9.84583ZM9.00727 9.84583C9.00727 10.0534 9.17646 10.2226 9.38404 10.2226C9.5916 10.2226 9.76078 10.0534 9.76078 9.84583C9.76078 9.63826 9.5916 9.46908 9.38404 9.46908C9.17644 9.46908 9.00727 9.63827 9.00727 9.84583ZM8.11516 9.84583C8.11516 9.14618 8.68438 8.57695 9.38404 8.57695C10.0837 8.57695 10.6529 9.14618 10.6529 9.84583C10.6529 10.5455 10.0837 11.1147 9.38404 11.1147C8.68438 11.1147 8.11516 10.5455 8.11516 9.84583ZM8.80727 9.84583C8.80727 10.1639 9.06601 10.4226 9.38404 10.4226C9.70206 10.4226 9.96078 10.1639 9.96078 9.84583C9.96078 9.52781 9.70206 9.26908 9.38404 9.26908C9.06599 9.26908 8.80727 9.52781 8.80727 9.84583Z" fill="#5E5E5E"/>
<path d="M6.46883 5.09009C5.76917 5.09009 5.19995 5.65931 5.19995 6.35896C5.19995 7.05862 5.76917 7.62784 6.46883 7.62784C7.16848 7.62784 7.7377 7.05862 7.7377 6.35896C7.7377 5.65931 7.16848 5.09009 6.46883 5.09009ZM6.46883 6.93571C6.1508 6.93571 5.89206 6.67699 5.89206 6.35896C5.89206 6.04094 6.15078 5.78222 6.46883 5.78222C6.78685 5.78222 7.04557 6.04094 7.04557 6.35896C7.04557 6.67699 6.78685 6.93571 6.46883 6.93571Z" fill="#5E5E5E"/>
<path fill-rule="evenodd" clip-rule="evenodd" d="M5 6.35901C5 5.5489 5.65877 4.89014 6.46888 4.89014C7.27898 4.89014 7.93775 5.5489 7.93775 6.35901C7.93775 7.16912 7.27898 7.82789 6.46888 7.82789C5.65877 7.82789 5 7.16912 5 6.35901ZM6.09211 6.35901C6.09211 6.56657 6.2613 6.73576 6.46888 6.73576C6.67644 6.73576 6.84562 6.56658 6.84562 6.35901C6.84562 6.15145 6.67644 5.98227 6.46888 5.98227C6.26128 5.98227 6.09211 6.15145 6.09211 6.35901ZM5.2 6.35901C5.2 5.65936 5.76922 5.09014 6.46888 5.09014C7.16853 5.09014 7.73775 5.65936 7.73775 6.35901C7.73775 7.05866 7.16853 7.62789 6.46888 7.62789C5.76922 7.62789 5.2 7.05866 5.2 6.35901ZM5.89211 6.35901C5.89211 6.67703 6.15085 6.93576 6.46888 6.93576C6.7869 6.93576 7.04562 6.67703 7.04562 6.35901C7.04562 6.04099 6.7869 5.78227 6.46888 5.78227C6.15083 5.78227 5.89211 6.04099 5.89211 6.35901Z" fill="#5E5E5E"/>
<path fill-rule="evenodd" clip-rule="evenodd" d="M13.4686 8.75036C13.2674 8.40694 13.2674 7.98161 13.4686 7.6382L13.7393 7.17614C14.0723 6.60787 13.8346 5.87635 13.2312 5.61232L12.7406 5.39764C12.376 5.23807 12.1259 4.89398 12.0869 4.49788L12.0343 3.96494C11.9697 3.30949 11.3474 2.85739 10.704 2.99844L10.1809 3.11313C9.79215 3.19838 9.38764 3.06694 9.12321 2.76945L8.76743 2.3692C8.32986 1.87693 7.5607 1.87693 7.12313 2.3692L6.76735 2.76945C6.50291 3.06694 6.0984 3.19838 5.70961 3.11313L5.18652 2.99844C4.54317 2.85739 3.9209 3.30949 3.85625 3.96494L3.80368 4.49788C3.76461 4.89398 3.51461 5.23807 3.14997 5.39764L2.65936 5.61232C2.05597 5.87635 1.81828 6.60787 2.15124 7.17614L2.42196 7.6382C2.62318 7.98162 2.62318 8.40694 2.42196 8.75036L2.15124 9.21241C1.81828 9.78069 2.05597 10.5122 2.65936 10.7762L3.14997 10.9909C3.51461 11.1505 3.76461 11.4946 3.80368 11.8907L3.85625 12.4236C3.9209 13.0791 4.54317 13.5312 5.18652 13.3901L5.70961 13.2754C6.0984 13.1902 6.50291 13.3216 6.76735 13.6191L7.12313 14.0194C7.5607 14.5116 8.32986 14.5116 8.76743 14.0194L9.12321 13.6191C9.38764 13.3216 9.79215 13.1902 10.1809 13.2754L10.704 13.3901C11.3474 13.5312 11.9697 13.0791 12.0343 12.4236L12.0869 11.8907C12.1259 11.4946 12.376 11.1505 12.7406 10.9909L13.2312 10.7762C13.8346 10.5122 14.0723 9.78069 13.7393 9.21241L13.4686 8.75036ZM13.7393 9.21241L12.8765 9.71794C12.9068 9.76961 12.8852 9.83611 12.8303 9.86011L12.3397 10.0748C11.6436 10.3794 11.1663 11.0363 11.0917 11.7925L11.0391 12.3255C11.0333 12.385 10.9767 12.4261 10.9182 12.4133L10.3951 12.2986C9.65287 12.1359 8.88063 12.3868 8.3758 12.9547L8.02002 13.355C7.98024 13.3997 7.91032 13.3997 7.87054 13.355L7.51476 12.9547C7.00993 12.3868 6.23768 12.1359 5.49545 12.2986L4.97235 12.4133C4.91387 12.4261 4.8573 12.385 4.85142 12.3255L4.79885 11.7925C4.72426 11.0363 4.24698 10.3794 3.55085 10.0748L3.06024 9.86011C3.00539 9.83611 2.98378 9.76961 3.01405 9.71794L3.28477 9.25589C3.66891 8.60027 3.66891 7.78828 3.28477 7.13267L3.01405 6.67061C2.98378 6.61895 3.00539 6.55245 3.06024 6.52845L3.55085 6.31376C4.24698 6.00915 4.72426 5.35223 4.79885 4.59604L4.85142 4.0631C4.8573 4.00352 4.91387 3.96242 4.97235 3.97524L5.49545 4.08993C6.23768 4.25267 7.00993 4.00175 7.51476 3.43382L7.87054 3.03356C7.91032 2.98881 7.98024 2.98881 8.02002 3.03356L8.3758 3.43382C8.88063 4.00175 9.65287 4.25267 10.3951 4.08993L10.9182 3.97524C10.9767 3.96242 11.0333 4.00352 11.0391 4.0631L11.0917 4.59604C11.1663 5.35223 11.6436 6.00915 12.3397 6.31376L12.8303 6.52845C12.8852 6.55245 12.9068 6.61895 12.8765 6.67061L12.6058 7.13267C12.2217 7.78828 12.2217 8.60027 12.6058 9.25589L12.8765 9.71794L13.7393 9.21241Z" fill="#5E5E5E"/>
</svg>
