<svg width="153" height="45" viewBox="0 0 153 45" fill="none" xmlns="http://www.w3.org/2000/svg">
<path fill-rule="evenodd" clip-rule="evenodd" d="M0 20.4888V28.5335L16.4422 45L20.4586 40.9777L0 20.4888ZM0 7.7933V15.838L22.8433 38.7151L26.8597 34.6927L0 7.7933ZM33.0098 4.65084V0H22.5923C22.5923 3.77095 21.0861 4.90224 19.7055 4.90224H15.6891V4.52514C15.6891 3.77095 16.3166 2.76536 17.1952 2.76536H18.4504C20.5841 2.51397 20.4586 0.75419 20.5841 0H13.5554C11.1706 0 9.78999 2.01117 8.9114 4.27374L8.78589 4.65084H7.53076V0H0V3.14246L29.2445 32.4302L33.2609 28.4078L24.977 20.1117H33.1353V11.8156H32.5078C31.7547 12.9469 30.4996 13.5754 28.3659 13.7011H24.0984C22.4668 13.7011 21.3372 12.3184 21.3372 10.9358C21.3372 9.55307 22.5923 8.17039 24.6005 8.29609H29.621C31.2527 8.17039 33.0098 6.41061 33.0098 4.65084Z" fill="#DC0000"/>
<path fill-rule="evenodd" clip-rule="evenodd" d="M126.893 6.66201V15.9637H135.052L133.42 22.6257H126.893V32.5559H135.428V39.2179H119.99V0H135.428V6.66201H126.893Z" fill="#001427"/>
<path fill-rule="evenodd" clip-rule="evenodd" d="M108.443 6.66201L106.059 15.9637H102.168L100.411 22.6257H104.427L100.285 39.2179H117.606V32.5559H109.573L112.083 22.6257H115.974L117.606 15.9637H113.715L117.731 0H100.285V6.66201H108.443Z" fill="#001427"/>
<path fill-rule="evenodd" clip-rule="evenodd" d="M40.666 0H53.3428C56.3551 0 58.9909 2.63966 58.9909 5.78212V34.1899C58.9909 37.3324 56.3551 39.2179 53.2173 39.2179H40.666V0ZM47.4437 6.66201H51.2091C51.8366 6.66201 52.2132 7.1648 52.2132 7.6676V31.5503C52.2132 32.0531 51.7111 32.5559 51.2091 32.5559H47.4437V6.66201Z" fill="#001427"/>
<path fill-rule="evenodd" clip-rule="evenodd" d="M68.5296 6.66201V15.9637H76.688L75.0563 22.6257H68.5296V32.5559H77.0645V39.2179H61.752V0H77.0645V6.66201H68.5296Z" fill="#001427"/>
<path fill-rule="evenodd" clip-rule="evenodd" d="M79.8262 0H92.503C95.6408 0 98.2766 2.63966 98.2766 5.78212V39.2179H91.4989V7.6676C91.4989 7.1648 90.9968 6.66201 90.4948 6.66201H86.6039V39.2179H79.8262V0Z" fill="#001427"/>
<path fill-rule="evenodd" clip-rule="evenodd" d="M138.064 0H144.842V32.5559H153V39.2179H138.064V0Z" fill="#001427"/>
</svg>
