<svg width="16" height="14" viewBox="0 0 16 14" fill="none" xmlns="http://www.w3.org/2000/svg">
<path d="M8.00164 0.753585C9.78815 0.753585 11.5747 0.763336 13.361 0.750068C14.4825 0.741596 15.3172 1.52409 15.472 2.50673C15.4979 2.67123 15.4977 2.84084 15.4977 3.00805C15.4992 5.70707 15.5 8.40599 15.5 11.1048C15.5 11.6304 15.3542 12.1047 15.0114 12.5115C14.6006 12.9988 14.0671 13.2469 13.4194 13.2469C10.7575 13.2482 8.09551 13.2482 5.43356 13.2469C4.498 13.2469 3.56245 13.2365 2.62705 13.2498C1.53718 13.2657 0.685899 12.494 0.527327 11.4913C0.508934 11.3594 0.500838 11.2263 0.503108 11.0931C0.501799 8.39687 0.500764 5.70062 0.5 3.00437C0.5 2.67586 0.524382 2.35423 0.654807 2.0497C0.961805 1.33418 1.50036 0.896016 2.29125 0.772607C2.40208 0.757861 2.51393 0.751662 2.62575 0.754065C4.41788 0.752892 6.20984 0.752732 8.00164 0.753585ZM14.1383 4.17148C14.1008 4.1969 14.0784 4.21129 14.0565 4.2268L8.4402 8.22785C8.13811 8.44318 7.86254 8.44366 7.5616 8.22913C5.6895 6.8956 3.81752 5.56197 1.94564 4.22823C1.92241 4.21225 1.89785 4.19626 1.86234 4.1734V11.0885C1.86234 11.1285 1.86234 11.1684 1.86365 11.2082C1.88149 11.5674 2.18669 11.8601 2.55096 11.8601C6.18322 11.8609 9.81553 11.8609 13.4479 11.8601C13.5396 11.8612 13.6305 11.8433 13.7147 11.8078C13.7989 11.7723 13.8745 11.7198 13.9365 11.6539C14.0838 11.5033 14.1395 11.3209 14.1393 11.1144C14.1377 8.83152 14.1373 6.54856 14.1383 4.26548V4.17148ZM14.066 2.52672C13.9231 2.28038 13.7235 2.14306 13.4402 2.14306C9.81362 2.14242 6.1872 2.14242 2.56094 2.14306C2.31924 2.14306 2.13121 2.24537 1.99179 2.43576C1.92764 2.52352 1.92862 2.52432 2.0183 2.58826C3.98695 3.99063 5.95521 5.39359 7.92309 6.79713C7.98151 6.83885 8.01636 6.84029 8.07577 6.79713C9.94841 5.46009 11.822 4.12449 13.6965 2.79032L14.066 2.52672Z" fill="#4D5B68"/>
</svg>
