<svg width="16" height="16" viewBox="0 0 16 16" fill="none" xmlns="http://www.w3.org/2000/svg">
<path d="M6.14488 6.70111C6.95074 7.96208 8.02212 9.0325 9.28444 9.83785C9.304 9.82143 9.32275 9.80501 9.33969 9.78858C9.48342 9.64571 9.62304 9.49856 9.77072 9.35979C10.393 8.77481 11.1153 8.60171 11.925 8.87975C12.5383 9.09081 13.1696 9.24566 13.811 9.34238C14.6484 9.46851 15.3555 10.1954 15.4708 11.0318C15.4894 11.1727 15.4986 11.3147 15.4983 11.4568C15.501 12.1083 15.4997 12.7596 15.4994 13.4111C15.4994 14.3265 14.9575 15.0987 14.1114 15.3917C13.7835 15.5052 13.4479 15.5206 13.1058 15.4787C10.2397 15.1337 7.54348 13.9366 5.36697 12.0426C3.19046 10.1487 1.63407 7.64527 0.899692 4.85717C0.717329 4.16424 0.587429 3.45859 0.511092 2.74619C0.399264 1.70631 1.14571 0.716675 2.17683 0.537996C2.309 0.515296 2.44282 0.503541 2.57694 0.502851C3.25667 0.499347 3.93641 0.499073 4.61614 0.502029C5.64133 0.508105 6.47445 1.20164 6.64761 2.20999C6.73428 2.71745 6.82851 3.22114 6.98589 3.71185C7.06088 3.94571 7.15544 4.17678 7.19754 4.41671C7.31841 5.10778 7.11745 5.70885 6.63281 6.21451C6.47543 6.37775 6.31147 6.53508 6.14488 6.70111ZM14.1287 12.4057C14.1287 12.0582 14.1308 11.7105 14.1287 11.363C14.1261 11.0108 13.8957 10.7345 13.548 10.6843C12.8351 10.5824 12.1346 10.4076 11.4575 10.1625C11.1894 10.0651 10.9431 10.1264 10.7388 10.3276C10.4593 10.6023 10.1843 10.8807 9.90689 11.1573C9.65084 11.4123 9.33344 11.4555 9.02263 11.276C7.20006 10.224 5.76199 8.78811 4.7084 6.96847C4.5275 6.65644 4.57026 6.34145 4.82598 6.08542C5.09108 5.82003 5.35469 5.553 5.62291 5.29056C5.86269 5.05621 5.92123 4.78902 5.80381 4.47452C5.56393 3.82815 5.39729 3.15699 5.307 2.47358C5.25915 2.11573 4.97448 1.86741 4.61318 1.86709C3.92807 1.86632 3.24286 1.86632 2.55753 1.86709C2.46061 1.86688 2.36474 1.88718 2.27624 1.92665C2.18773 1.96611 2.1086 2.02384 2.04405 2.09605C1.9795 2.16825 1.931 2.25329 1.90173 2.34556C1.87246 2.43783 1.86309 2.53525 1.87423 2.6314C1.96074 3.40195 2.10052 4.16298 2.3347 4.9025C3.56337 8.79129 6.04775 11.5568 9.78782 13.1991C10.9082 13.6887 12.086 13.9742 13.2994 14.1289C13.7317 14.184 14.1519 13.8826 14.1313 13.3917C14.1177 13.0631 14.1287 12.7342 14.1287 12.4057Z" fill="#4D5B68"/>
</svg>
