<svg width="16" height="16" viewBox="0 0 16 16" fill="none" xmlns="http://www.w3.org/2000/svg">
<path d="M7.99274 15.5C5.81376 15.4607 3.99063 14.6673 2.52336 13.1196C1.48689 12.0246 0.843478 10.7346 0.610296 9.27487C0.233933 6.91972 0.815655 4.80008 2.43402 2.97876C3.56311 1.70698 4.99836 0.900107 6.71932 0.614349C8.86033 0.258878 10.8053 0.73352 12.5135 2.01959C14.0533 3.17895 14.9978 4.7076 15.3506 6.54996C15.7587 8.68105 15.3343 10.6636 14.0314 12.443C12.9581 13.9085 11.5062 14.8702 9.6867 15.3047C9.13148 15.4374 8.56596 15.4959 7.99274 15.5ZM14.1414 7.98942C14.1294 7.80243 14.1219 7.60632 14.1037 7.411C14.0136 6.40122 13.6656 5.42829 13.0905 4.57822C11.8559 2.74121 9.66526 1.63287 7.29057 1.90576C6.3445 2.01169 5.43962 2.33742 4.65439 2.85473C2.60371 4.19481 1.56887 6.55372 1.93051 8.93101C2.11051 10.1158 2.59274 11.1799 3.4196 12.0794C4.85534 13.6421 6.65714 14.3356 8.82466 14.0754C10.0122 13.9329 11.055 13.4553 11.9459 12.6928C13.4037 11.4443 14.0972 9.86051 14.1414 7.98942Z" fill="#4D5B68"/>
<path d="M7.31439 5.95091C7.31439 5.27839 7.31439 4.60586 7.31439 3.93333C7.31439 3.61303 7.50061 3.35145 7.78894 3.26008C8.23403 3.11877 8.67454 3.44613 8.67732 3.92203C8.67994 4.36166 8.67732 4.80128 8.67732 5.24091C8.67732 6.04166 8.67699 6.84241 8.67633 7.64316C8.67537 7.66748 8.67981 7.69171 8.68934 7.71426C8.69888 7.73681 8.71329 7.75716 8.73164 7.77395C9.32269 8.36169 9.91277 8.95027 10.5019 9.53969C10.7136 9.75149 10.7792 9.9991 10.681 10.2776C10.5145 10.7487 9.91768 10.8788 9.55752 10.5219C8.9753 9.94477 8.3975 9.36337 7.8179 8.78384C7.72348 8.68964 7.62956 8.59449 7.53416 8.50122C7.38508 8.35536 7.31505 8.17982 7.31505 7.97681L7.31439 5.95091Z" fill="#4D5B68"/>
</svg>
