<svg width="24" height="24" viewBox="0 0 24 24" fill="none" xmlns="http://www.w3.org/2000/svg">
<path d="M10.7966 11.9827C10.7708 11.9652 10.7413 11.9514 10.7195 11.9295C9.23643 10.4473 7.75342 8.96459 6.27051 7.48149C5.94368 7.15433 5.90977 6.67711 6.18642 6.32572C6.49184 5.93775 7.0722 5.89117 7.43514 6.22583C7.46202 6.25053 7.48734 6.27663 7.51329 6.30243C8.98317 7.77239 10.4529 9.24246 11.9225 10.7126C11.9447 10.7381 11.9651 10.765 11.9837 10.7931L12.0187 10.8003C12.0372 10.772 12.0513 10.7394 12.0745 10.7159C13.5547 9.23428 15.0355 7.75311 16.5167 6.27241C16.8449 5.94416 17.3203 5.90946 17.6721 6.18519C17.7648 6.25842 17.8413 6.35002 17.8969 6.45422C17.9525 6.55843 17.986 6.67301 17.9952 6.79076C18.0044 6.90851 17.9892 7.02691 17.9505 7.13851C17.9119 7.25011 17.8505 7.35251 17.7704 7.43929C17.7473 7.46399 17.7235 7.48774 17.6991 7.51166C16.228 8.9835 14.7563 10.4552 13.284 11.9267C13.2508 11.9549 13.2209 11.9868 13.1949 12.0218C13.2245 12.0388 13.2595 12.0502 13.2826 12.0733C14.7663 13.5553 16.2492 15.0379 17.7315 16.5212C18.0554 16.8452 18.0894 17.3201 17.8164 17.6709C17.7434 17.7638 17.652 17.8406 17.548 17.8965C17.444 17.9524 17.3295 17.9862 17.2118 17.9957C17.0941 18.0053 16.9756 17.9904 16.8639 17.9521C16.7522 17.9137 16.6497 17.8527 16.5627 17.7728C16.538 17.7498 16.5142 17.7259 16.4903 17.7015C15.0204 16.2316 13.5506 14.7616 12.081 13.2916C12.057 13.2677 12.0366 13.2405 12.0072 13.2066C11.9759 13.2366 11.9526 13.259 11.929 13.2819C10.4463 14.7647 8.96353 16.2475 7.48062 17.7301C7.15379 18.0568 6.67644 18.0897 6.32491 17.8136C5.93665 17.5079 5.89101 16.9262 6.22706 16.5631C6.25004 16.5383 6.27395 16.5146 6.29834 16.4907C7.77187 15.017 9.24555 13.5436 10.7194 12.0704C10.7411 12.0486 10.771 12.0352 10.7975 12.018L10.7966 11.9827Z" fill="white"/>
</svg>
