<svg width="10" height="6" viewBox="0 0 10 6" fill="none" xmlns="http://www.w3.org/2000/svg">
<path d="M4.98173 2.16813C4.7482 2.41852 4.52323 2.66863 4.29022 2.90928C3.52821 3.69891 2.7646 4.48686 1.99939 5.27315C1.7678 5.51136 1.45643 5.56547 1.19046 5.41884C0.783722 5.19429 0.710419 4.6417 1.04385 4.29609C1.48557 3.8386 1.92799 3.38192 2.3711 2.92606C3.0672 2.20794 3.76312 1.48965 4.45888 0.771181C4.57629 0.649437 4.7037 0.548931 4.86925 0.514166C5.11835 0.462763 5.32334 0.554747 5.49914 0.73344C5.69543 0.933507 5.88978 1.13574 6.08491 1.33702C7.03323 2.31585 7.98142 3.29422 8.92947 4.27214C9.17883 4.52916 9.23423 4.83514 9.08373 5.13193C8.87524 5.54342 8.34097 5.62283 8.01195 5.28952C7.82901 5.1042 7.64867 4.91549 7.46782 4.72841C6.65962 3.8946 5.85138 3.06079 5.0431 2.22697C5.02961 2.21277 5.01495 2.19978 4.98173 2.16813Z" fill="#4D5B68"/>
</svg>
