<svg width="19" height="20" viewBox="0 0 19 20" fill="none" xmlns="http://www.w3.org/2000/svg">
<path d="M19 5.48513C18.9495 5.71639 18.8967 5.94765 18.848 6.17891C18.515 7.797 18.1825 9.41515 17.8502 11.0334C17.7731 11.4076 17.7078 11.7851 17.6094 12.154C17.3487 13.1325 16.4269 13.8355 15.3883 13.8479C14.5273 13.8583 13.666 13.8509 12.8046 13.8511C10.8541 13.8511 8.90369 13.8511 6.95324 13.8511C5.843 13.8511 4.91438 13.1817 4.63188 12.1623C4.55323 11.8787 4.52663 11.5806 4.48559 11.2881C4.3906 10.6106 4.30094 9.93238 4.20918 9.25432C4.11742 8.57626 4.02528 7.89857 3.93352 7.22051C3.84176 6.54245 3.74981 5.86458 3.65786 5.18671C3.56591 4.50883 3.47415 3.83077 3.38239 3.1529C3.37403 3.09184 3.36833 3.03042 3.35826 2.96956C3.29006 2.5568 2.97431 2.29094 2.54325 2.28909C1.98604 2.28687 1.42883 2.28909 0.871432 2.28909C0.400284 2.28909 0.140962 2.09668 0.0115861 1.6521C0.0100663 1.64674 0.00398956 1.64267 0 1.63804V1.39753C0.0081691 1.37533 0.0176688 1.3535 0.024508 1.33093C0.110505 1.04318 0.301178 0.857427 0.596533 0.773679C0.61971 0.767204 0.642129 0.757955 0.664927 0.75H2.7737C2.84152 0.762211 2.90915 0.775716 2.97735 0.787002C3.96942 0.938154 4.79469 1.76995 4.92084 2.74199C4.99531 3.31552 5.07491 3.88998 5.15318 4.46388C5.17218 4.60541 5.17389 4.60522 5.32417 4.60522H18.1421C18.5926 4.60522 18.8734 4.81718 18.9844 5.2411C18.9878 5.24963 18.9924 5.25766 18.9981 5.26496L19 5.48513ZM5.38838 6.14875C5.39332 6.19852 5.39579 6.2383 5.40111 6.27826C5.48071 6.86141 5.56164 7.44382 5.64048 8.02789C5.80158 9.21898 5.96224 10.4101 6.12246 11.6013C6.18211 12.042 6.49975 12.3133 6.9557 12.3134C9.7356 12.3134 12.5156 12.3134 15.2958 12.3134C15.7168 12.3134 16.0274 12.0661 16.11 11.6659C16.4782 9.87897 16.8455 8.09178 17.2119 6.30435C17.222 6.25495 17.2279 6.20481 17.2364 6.15042L5.38838 6.14875Z" fill="#001427"/>
<path d="M6.13844 19.2498C5.94504 19.2069 5.74651 19.1793 5.55938 19.1185C4.54888 18.7904 3.88908 17.813 3.96925 16.7775C4.05398 15.6806 4.88115 14.812 5.99595 14.6485C7.29788 14.4575 8.52021 15.3635 8.68721 16.6432C8.72789 16.9472 8.70593 17.256 8.62261 17.5517C8.53929 17.8473 8.39628 18.1238 8.20195 18.3649C8.00762 18.6061 7.76586 18.8071 7.49082 18.9562C7.21577 19.1053 6.91296 19.1995 6.60009 19.2334C6.57878 19.2373 6.55781 19.2429 6.53739 19.25L6.13844 19.2498ZM7.12633 16.9355C7.12804 16.8333 7.10886 16.7318 7.06989 16.6368C7.03092 16.5419 6.97295 16.4554 6.89935 16.3825C6.82575 16.3096 6.73799 16.2517 6.64118 16.2121C6.54437 16.1725 6.44045 16.1521 6.33546 16.152C6.23047 16.1519 6.12651 16.1722 6.02963 16.2116C5.93275 16.251 5.84489 16.3088 5.77117 16.3816C5.69744 16.4544 5.63932 16.5407 5.60019 16.6356C5.56106 16.7305 5.5417 16.832 5.54323 16.9342C5.5419 17.3627 5.90286 17.7142 6.33982 17.7105C6.54919 17.7078 6.74906 17.625 6.89631 17.48C7.04356 17.335 7.12637 17.1395 7.1269 16.9355H7.12633Z" fill="#001427"/>
<path d="M15.6374 19.2498C15.444 19.2069 15.2454 19.1793 15.0583 19.1185C14.048 18.7906 13.388 17.813 13.4682 16.7775C13.5529 15.6806 14.3801 14.812 15.4949 14.6485C16.7968 14.4575 18.0191 15.3635 18.1861 16.6432C18.2268 16.9472 18.2048 17.256 18.1215 17.5516C18.0381 17.8472 17.8951 18.1237 17.7008 18.3649C17.5065 18.606 17.2647 18.8071 16.9897 18.9562C16.7147 19.1053 16.4119 19.1995 16.099 19.2334C16.0777 19.2373 16.0567 19.2429 16.0363 19.25L15.6374 19.2498ZM15.0427 16.9385C15.0433 17.1426 15.1266 17.3383 15.2745 17.4828C15.4225 17.6274 15.6231 17.7093 15.8327 17.7105C16.2696 17.7118 16.6277 17.359 16.6258 16.9313C16.6239 16.5102 16.2616 16.1605 15.8302 16.1639C15.6206 16.1659 15.4203 16.2484 15.2728 16.3934C15.1254 16.5385 15.0427 16.7344 15.0427 16.9385Z" fill="#001427"/>
</svg>
