<svg width="10" height="10" viewBox="0 0 10 10" fill="none" xmlns="http://www.w3.org/2000/svg">
<path d="M6.05882 5.00444C6.09649 5.03196 6.12256 5.04615 6.14276 5.06621C7.06657 5.98941 7.99005 6.91299 8.9132 7.83696C9.14236 8.06628 9.22514 8.33859 9.12059 8.64989C8.9427 9.17919 8.27856 9.33871 7.87065 8.95475C7.79774 8.88595 7.72828 8.81357 7.65738 8.74262C6.79324 7.8778 5.92911 7.01308 5.06497 6.14845C5.04478 6.12824 5.02945 6.10331 4.99336 6.0563C4.96801 6.09643 4.95669 6.12437 4.93707 6.14401C4.01803 7.06473 3.09875 7.98525 2.17923 8.90558C2.01696 9.06826 1.82933 9.16987 1.5953 9.16586C1.28521 9.16056 1.05375 9.01623 0.917974 8.7409C0.78062 8.46271 0.81213 8.18982 0.995603 7.93829C1.02453 7.90036 1.05633 7.86471 1.09071 7.83165C2.01538 6.90578 2.94034 5.98029 3.86559 5.05517C3.88521 5.03865 3.90615 5.02374 3.92818 5.0106L3.66306 4.74559C2.80227 3.88412 1.94152 3.02279 1.08082 2.1616C0.750255 1.83009 0.754839 1.33433 1.0867 1.03421C1.23018 0.902897 1.41854 0.831685 1.61294 0.835259C1.80735 0.838832 1.99297 0.916918 2.13154 1.05341C2.71146 1.62829 3.28709 2.20761 3.86458 2.7852L4.96314 3.88479C4.97331 3.89482 4.9839 3.90428 5.01498 3.93352C5.03017 3.90872 5.04077 3.8802 5.06024 3.86071C5.98301 2.93617 6.9063 2.01211 7.83011 1.08853C8.05641 0.862507 8.32511 0.774506 8.63491 0.873543C9.17774 1.04783 9.34144 1.73349 8.93697 2.14039C8.00714 3.07496 7.07554 4.00757 6.14218 4.93822C6.12227 4.95829 6.09778 4.97377 6.05882 5.00444Z" fill="#999999"/>
</svg>
