<svg width="10" height="12" viewBox="0 0 10 12" fill="none" xmlns="http://www.w3.org/2000/svg">
<path d="M9.83282 5.99999C9.83282 7.28401 9.83282 8.5681 9.83282 9.85227C9.83282 10.5439 9.39641 11.1192 8.74145 11.2865C8.63491 11.3141 8.52542 11.3288 8.41537 11.3301C7.5977 11.3338 6.77999 11.3344 5.96224 11.3318C5.84692 11.3324 5.73531 11.291 5.64813 11.2152C5.56096 11.1395 5.50415 11.0346 5.48825 10.92C5.45589 10.6756 5.60031 10.4499 5.83522 10.3846C5.88562 10.3715 5.93754 10.3651 5.98962 10.3658C6.78409 10.3646 7.57863 10.3642 8.37326 10.3646C8.61443 10.3646 8.80723 10.2088 8.85606 9.97587C8.86367 9.93396 8.86694 9.89137 8.86581 9.84878C8.86627 7.28276 8.86627 4.71675 8.86581 2.15073C8.86581 1.83789 8.66199 1.63492 8.34948 1.63492C7.55485 1.63492 6.76031 1.63492 5.96584 1.63492C5.85062 1.63536 5.73907 1.59433 5.65144 1.51928C5.56381 1.44423 5.50592 1.34014 5.48827 1.22591C5.47063 1.11168 5.4944 0.994894 5.55527 0.896753C5.61614 0.798611 5.71008 0.725626 5.82002 0.691054C5.87181 0.675829 5.92555 0.668302 5.97952 0.668709C6.77798 0.667312 7.57643 0.665101 8.37476 0.668709C9.09097 0.671851 9.66867 1.1517 9.80544 1.85395C9.82377 1.95504 9.83251 2.05765 9.83154 2.16039C9.83332 3.43991 9.83374 4.71977 9.83282 5.99999Z" fill="#5E5E5E"/>
<path d="M5.26559 6.48494H0.673973C0.436747 6.48494 0.247779 6.34994 0.186761 6.13847C0.0968592 5.8282 0.318424 5.52618 0.644043 5.51536C0.667244 5.51466 0.690445 5.51536 0.713645 5.51536H5.28091C5.25771 5.49069 5.24437 5.47579 5.23033 5.46159C4.88031 5.11043 4.53045 4.75922 4.18074 4.40798C3.91973 4.14449 4.02228 3.70771 4.3711 3.60005C4.55171 3.54442 4.71586 3.58318 4.85344 3.71516C4.95123 3.80896 5.04519 3.90672 5.14089 4.00274C5.66584 4.52925 6.19095 5.05569 6.71621 5.58205C6.79486 5.66049 6.87548 5.73567 6.90935 5.84565C6.96736 6.03466 6.92965 6.20493 6.79149 6.344C6.14861 6.99109 5.50429 7.63663 4.85854 8.28061C4.72363 8.4155 4.55879 8.45611 4.37794 8.40258C4.19709 8.34904 4.08202 8.22219 4.04455 8.03539C4.01056 7.86605 4.05696 7.71662 4.17958 7.59314C4.52759 7.24314 4.87621 6.89341 5.22546 6.54395C5.2403 6.52905 5.25782 6.51683 5.27418 6.50322C5.27105 6.49716 5.26826 6.491 5.26559 6.48494Z" fill="#5E5E5E"/>
</svg>
