<svg width="14" height="16" viewBox="0 0 14 16" fill="#ff0000" xmlns="http://www.w3.org/2000/svg">
<path d="M1.64706 9.8C1.64706 9.35817 1.27835 9 0.823529 9C0.368707 9 0 9.35817 0 9.8V15.2C0 15.6418 0.368707 16 0.823529 16C1.27835 16 1.64706 15.6418 1.64706 15.2V9.8Z"/>
<path d="M14.0001 0.8C14.0001 0.358172 13.6314 0 13.1766 0C12.7217 0 12.353 0.358172 12.353 0.8V15.2C12.353 15.6418 12.7217 16 13.1766 16C13.6314 16 14.0001 15.6418 14.0001 15.2V0.8Z"/>
<path d="M7.82357 6.8C7.82357 6.35817 7.45487 6 7.00004 6C6.54522 6 6.17651 6.35817 6.17651 6.8V15.2C6.17651 15.6418 6.54522 16 7.00004 16C7.45487 16 7.82357 15.6418 7.82357 15.2V6.8Z"/>
</svg>
