<svg width="24" height="24" viewBox="0 0 24 24" fill="none" xmlns="http://www.w3.org/2000/svg">
<path d="M20.0534 5.00112C20.4949 5.00112 20.8467 5.27971 20.9605 5.7162C21.1276 6.3557 20.7149 6.97792 20.1087 7.00024C20.0871 7.00024 20.0655 7.00024 20.0439 7.00024C14.682 7.00024 9.32001 7.00024 3.95795 7.00024C3.56122 7.00024 3.25888 6.81979 3.0874 6.41809C2.80795 5.76396 3.23145 5.02488 3.89165 5.00064C3.93484 4.9992 3.97804 5.00064 4.02123 5.00064L20.0534 5.00112Z" fill="white"/>
<path d="M12.0006 12.9999C9.31602 12.9999 6.63138 12.9999 3.94668 12.9999C3.50568 12.9999 3.15388 12.7209 3.03964 12.2844C2.87291 11.6446 3.28584 11.0227 3.89205 11.0008C3.91364 11.0008 3.93524 11.0008 3.95684 11.0008H20.0428C20.4657 11.0008 20.7954 11.2362 20.9362 11.637C21.1645 12.2865 20.7449 12.9769 20.108 12.9999C20.0685 13.0014 20.0288 12.9999 19.9892 12.9999H12.0006Z" fill="white"/>
<path d="M3.94968 18.999C3.50738 18.999 3.15558 18.7219 3.04069 18.2863C2.87246 17.6473 3.28386 17.0237 3.88985 16.9999C3.91512 16.9999 3.94039 16.9999 3.96544 16.9999C9.32391 16.9999 14.6824 16.9999 20.0409 16.9999C20.4464 16.9999 20.7535 17.1856 20.9207 17.602C21.1835 18.2537 20.7624 18.9741 20.1112 18.9993C20.0681 19.0009 20.0249 18.9993 19.9817 18.9993L3.94968 18.999Z" fill="white"/>
</svg>
