<svg width="18" height="14" viewBox="0 0 18 14" fill="none" xmlns="http://www.w3.org/2000/svg">
<path d="M17.0534 0.00111992C17.4949 0.00111992 17.8467 0.279715 17.9605 0.716204C18.1276 1.3557 17.7149 1.97792 17.1087 2.00024C17.0871 2.00024 17.0655 2.00024 17.0439 2.00024C11.682 2.00024 6.32001 2.00024 0.957948 2.00024C0.561225 2.00024 0.258876 1.81979 0.0874014 1.41809C-0.192054 0.763956 0.231453 0.024876 0.891651 0.000639896C0.934844 -0.00079987 0.978036 0.000639896 1.02123 0.000639896L17.0534 0.00111992Z" fill="white"/>
<path d="M9.00057 7.99994C6.31602 7.99994 3.63138 7.99994 0.94668 7.99994C0.505685 7.99994 0.153882 7.72087 0.0396378 7.28438C-0.127085 6.64464 0.28584 6.02266 0.892046 6.00083C0.913643 6.00083 0.935239 6.00083 0.956835 6.00083H17.0428C17.4657 6.00083 17.7954 6.23623 17.9362 6.63696C18.1645 7.28654 17.7449 7.97691 17.108 7.99994C17.0685 8.00138 17.0288 7.99994 16.9892 7.99994H9.00057Z" fill="white"/>
<path d="M0.949676 13.999C0.507384 13.999 0.155584 13.7219 0.0406923 13.2863C-0.127543 12.6473 0.283863 12.0237 0.889854 11.9999C0.915122 11.9999 0.940389 11.9999 0.965441 11.9999C6.32391 11.9999 11.6824 11.9999 17.0409 11.9999C17.4464 11.9999 17.7535 12.1856 17.9207 12.602C18.1835 13.2537 17.7624 13.9741 17.1112 13.9993C17.0681 14.0009 17.0249 13.9993 16.9817 13.9993L0.949676 13.999Z" fill="white"/>
</svg>
