<svg width="19" height="16" viewBox="0 0 19 16" fill="none" xmlns="http://www.w3.org/2000/svg">
<path d="M9.49127 1.7871C9.67985 1.60603 9.8475 1.42971 10.0306 1.27161C11.077 0.368372 12.2902 -0.0630358 13.6677 0.0115542C15.9997 0.137959 17.9485 1.82013 18.3915 4.1216C18.7353 5.91176 18.261 7.48802 16.9862 8.78452C14.6936 11.116 12.3809 13.4269 10.0759 15.7457C9.74152 16.082 9.26366 16.0856 8.93138 15.7514C6.61298 13.4195 4.29577 11.0864 1.97976 8.75206C1.13342 7.89798 0.658576 6.85695 0.529022 5.65838C0.252564 3.10486 1.98014 0.66863 4.47675 0.132644C6.30484 -0.259665 7.90041 0.221659 9.24555 1.53126C9.32891 1.61135 9.4066 1.69847 9.49127 1.7871ZM9.48901 14.0958C9.52314 14.0648 9.54219 14.0491 9.55954 14.0316C11.6771 11.9004 13.8026 9.77602 15.9088 7.63435C16.7616 6.76736 17.0918 5.69843 16.8636 4.50043C16.6024 3.13029 15.7915 2.187 14.4715 1.75901C13.1554 1.33311 11.9658 1.63242 10.945 2.57172C10.6461 2.84673 10.3695 3.14623 10.0823 3.43415C9.73718 3.77996 9.26422 3.77902 8.9178 3.4315C8.64398 3.15686 8.37714 2.87501 8.09616 2.60797C7.10367 1.66468 5.93692 1.3593 4.62516 1.72504C3.01224 2.17467 1.90339 3.75966 2.09555 5.52989C2.18701 6.37069 2.54268 7.08622 3.13764 7.68541C5.23189 9.79101 7.32512 11.8978 9.41735 14.0056C9.44092 14.0305 9.46054 14.0597 9.48901 14.0958Z" fill="#001427"/>
</svg>
