<svg width="16" height="12" viewBox="0 0 16 12" fill="none" xmlns="http://www.w3.org/2000/svg">
<path d="M3.06028 5.14279H15.0626C15.4788 5.14279 15.8074 5.35118 15.9429 5.70009C16.1557 6.24848 15.7484 6.83392 15.1393 6.8569C15.0989 6.8583 15.0582 6.85783 15.0177 6.85783H3.04067C3.07422 6.89238 3.09481 6.91489 3.11686 6.936C4.35081 8.12615 5.58488 9.31625 6.81905 10.5063C7.10076 10.7778 7.1883 11.0966 7.04679 11.4569C6.83461 11.9975 6.12578 12.1732 5.66252 11.8068C5.62507 11.7771 5.59007 11.7442 5.55587 11.7109C3.80397 10.022 2.05218 8.33276 0.300503 6.6432C-0.0988924 6.25786 -0.100354 5.74433 0.297258 5.36134C2.0552 3.66594 3.81288 1.9707 5.57029 0.275616C5.95477 -0.0950305 6.52664 -0.090966 6.88097 0.282494C7.02642 0.437556 7.10804 0.638577 7.11042 0.847663C7.11281 1.05675 7.03581 1.25945 6.89393 1.41757C6.86152 1.4529 6.82715 1.48588 6.79279 1.51902C5.56856 2.70011 4.34395 3.88089 3.11896 5.06135C3.09444 5.08136 3.06813 5.09925 3.04035 5.11481L3.06028 5.14279Z" fill="#D0D6DC"/>
</svg>
