<svg width="16" height="16" viewBox="0 0 16 16" fill="none" xmlns="http://www.w3.org/2000/svg">
<path d="M11.7674 10.8357C11.7974 10.8568 11.8262 10.8798 11.8535 10.9046C12.9223 12.0032 13.9906 13.1022 15.0584 14.2014C15.3649 14.5169 15.3693 14.9875 15.0714 15.2867C14.9376 15.4216 14.7583 15.4979 14.571 15.5C14.3837 15.502 14.2029 15.4294 14.0663 15.2975C14.0091 15.2421 13.9547 15.1836 13.8988 15.1261C12.874 14.0718 11.8492 13.0173 10.8244 11.9626C10.8015 11.9357 10.7804 11.9073 10.7611 11.8776C9.15376 13.1138 7.38511 13.534 5.44634 13.0659C3.93267 12.7 2.723 11.8369 1.83097 10.5272C0.0344877 7.89101 0.432986 4.29101 2.74663 2.14757C5.07637 -0.0111769 8.59198 -0.050607 10.9523 2.04152C13.4037 4.21359 13.8713 8.08276 11.7674 10.8357ZM11.6464 6.8779C11.6533 4.18838 9.53424 2.00479 6.91065 1.99867C4.29635 1.99147 2.17382 4.17145 2.16699 6.87051C2.15999 9.56003 4.27902 11.7436 6.9026 11.7497C9.51604 11.7569 11.6394 9.57659 11.6464 6.8779Z" fill="#D0D6DC"/>
</svg>
