<svg width="8" height="8" viewBox="0 0 8 8" fill="none" xmlns="http://www.w3.org/2000/svg">
<path d="M4.61378 3.38782H4.68356C5.5679 3.38782 6.45224 3.38782 7.33658 3.38782C7.48838 3.38782 7.6299 3.41965 7.75424 3.51076C7.95508 3.65797 8.04467 3.9185 7.97844 4.16242C7.94606 4.28098 7.87858 4.387 7.78484 4.46656C7.6911 4.54612 7.57548 4.59551 7.45316 4.60825C7.40991 4.61254 7.36619 4.61413 7.32238 4.61413C6.44128 4.6145 5.56005 4.6145 4.6787 4.61413H4.61331V4.67742C4.61331 5.56571 4.61331 6.45401 4.61331 7.3423C4.61331 7.54692 4.55212 7.72746 4.38808 7.85777C4.19359 8.01245 3.97462 8.0425 3.74818 7.94038C3.51324 7.83453 3.39404 7.64167 3.38797 7.38646C3.3819 7.13125 3.38601 6.87305 3.38592 6.61643C3.38592 5.97084 3.38592 5.32525 3.38592 4.67966V4.61329H3.32305C2.43559 4.61329 1.54814 4.61329 0.660689 4.61329C0.500294 4.61329 0.352415 4.57595 0.225089 4.47448C0.0354547 4.32391 -0.0452559 4.06282 0.0251798 3.8274C0.0967365 3.58796 0.306081 3.41368 0.549336 3.3924C0.594176 3.38848 0.639389 3.38689 0.684509 3.3868C1.56262 3.3868 2.44073 3.3868 3.31884 3.3868H3.38601V3.32463C3.38601 2.43633 3.38601 1.54803 3.38601 0.65974C3.38601 0.455028 3.44654 0.274402 3.61021 0.143622C3.80582 -0.0128287 4.0261 -0.0430744 4.25403 0.0608214C4.48823 0.167798 4.60901 0.360467 4.61153 0.616333C4.6163 1.15607 4.6135 1.6959 4.61359 2.23573C4.61359 2.59816 4.61359 2.96063 4.61359 3.32313L4.61378 3.38782Z" fill="#5E5E5E"/>
</svg>
