<svg width="16" height="18" viewBox="0 0 16 18" fill="#ff0000" xmlns="http://www.w3.org/2000/svg">
<path d="M8.00791 10.7997C9.15924 10.7997 10.3106 10.8017 11.4619 10.7997C12.7774 10.7969 13.9014 11.2602 14.8031 12.2335C15.5952 13.0886 15.987 14.1159 15.9971 15.2887C16.0026 15.8896 15.999 16.4909 15.9971 17.092C15.9971 17.5728 15.6598 17.9433 15.1802 17.9953C14.7464 18.0424 14.334 17.7284 14.2421 17.2759C14.2289 17.1978 14.2235 17.1187 14.2259 17.0396C14.2246 16.4672 14.2274 15.8948 14.2246 15.3226C14.2187 14.0219 13.3682 12.9428 12.1201 12.6629C11.922 12.621 11.7201 12.6009 11.5178 12.6028C9.17629 12.5987 6.83463 12.6069 4.49317 12.5974C3.20859 12.5922 2.16365 13.4681 1.87817 14.6047C1.81988 14.8492 1.78898 15.0996 1.78606 15.3511C1.77284 15.9343 1.78478 16.5175 1.78052 17.1007C1.77711 17.5744 1.4526 17.9353 0.989724 17.9923C0.497426 18.053 0.0230374 17.6664 0.0149355 17.1609C0.00299579 16.4199 -0.0193878 15.6753 0.0343408 14.9377C0.1386 13.5042 0.812764 12.3795 1.97859 11.5656C2.72482 11.0446 3.56294 10.8027 4.4678 10.801C5.64826 10.7983 6.8283 10.7978 8.00791 10.7997Z"/>
<path d="M8.0086 6.25891e-06C10.4622 0.00411015 12.4491 2.02215 12.4433 4.50414C12.4374 7.00838 10.4518 9.00265 7.96873 8.99855C5.54349 8.99445 3.56384 6.96993 3.56619 4.49593C3.56832 2.01048 5.55884 -0.00409764 8.0086 6.25891e-06ZM7.92481 7.20061C9.34989 7.26195 10.6085 6.08349 10.6692 4.63762C10.7332 3.10536 9.57845 1.89773 8.18556 1.8055C6.68458 1.70593 5.41684 2.86388 5.34264 4.35705C5.26696 5.88218 6.41188 7.1356 7.92481 7.20061Z"/>
</svg>
