<svg width="13" height="8" viewBox="0 0 13 8" fill="none" xmlns="http://www.w3.org/2000/svg">
<path d="M10.3275 4.57135H0.795839C0.483158 4.57135 0.247328 4.46422 0.115381 4.23266C-0.0947034 3.86416 0.232653 3.44429 0.735723 3.42876C0.765717 3.42782 0.795711 3.42803 0.825833 3.42803H10.3439C10.3168 3.40479 10.3004 3.38989 10.283 3.37592C9.30311 2.58244 8.3231 1.78904 7.34296 0.995696C7.11911 0.814573 7.04972 0.602186 7.1621 0.361871C7.33074 0.00150175 7.89379 -0.115426 8.26144 0.128953C8.29453 0.150942 8.32516 0.175537 8.35541 0.200027C9.71187 1.29809 11.0682 2.39597 12.4244 3.49368C12.4821 3.54037 12.5441 3.58414 12.5956 3.63489C12.8345 3.87094 12.8102 4.19545 12.541 4.41305C11.8577 4.96524 11.1746 5.51757 10.4917 6.07004C9.77233 6.65211 9.05321 7.23424 8.3343 7.81644C8.10555 8.00153 7.79699 8.05009 7.51945 7.9464C7.09027 7.78601 6.97519 7.33018 7.2925 7.04652C7.31555 7.02567 7.34 7.00639 7.36421 6.9867C8.33662 6.19947 9.30916 5.41235 10.2818 4.62534C10.3015 4.61214 10.3226 4.60049 10.3449 4.59053L10.3275 4.57135Z" fill="#001427"/>
</svg>
