<svg width="60" height="56" fill="none" xmlns="http://www.w3.org/2000/svg"><path d="M51.62 14.163h0L28.37 2.984h0a.853.853 0 00-.74 0h0L4.38 14.163s0 0 0 0a.847.847 0 00-.48.763v27.148c0 .325.187.622.48.763l23.25 11.179.044-.09-.043.09a.853.853 0 00.738 0h0l23.25-11.179a.847.847 0 00.481-.763V14.926a.847.847 0 00-.48-.763zm-17.243 8.875h0a.851.851 0 00-1.135-.395s0 0 0 0L28 25.164l-5.242-2.52-16.052-7.718 7.22-3.472 22.444 10.79v8.91c0 .292.15.563.398.718l.053-.084-.053.084a.851.851 0 00.821.046l5.612-2.699a.847.847 0 00.481-.763v-8.95l6.718-3.23v25.266L28.85 51.904V26.636l5.131-2.467-.043-.09.043.09c.423-.203.6-.71.396-1.131zM5.6 41.542V16.275l16.42 7.894s0 0 0 0l5.13 2.467v25.268L5.6 41.542zM22.01 7.567L28 4.687l21.294 10.239-5.999 2.884a.766.766 0 00-.094-.054L22.011 7.567zm-6.087 2.966l4.163-2.01 21.262 10.223-4.171 2.006-21.254-10.22zm22.147 11.67l3.912-1.88v7.601l-3.912 1.881v-7.602z" stroke-width=".2"/><path d="M36 43c0-6.627 5.373-12 12-12s12 5.373 12 12-5.373 12-12 12-12-5.373-12-12z" fill="#fff"/><path d="M56.4 35.139a1.673 1.673 0 00-1.701-.266l-14.664 5.94a1.673 1.673 0 00-1.034 1.598 1.682 1.682 0 001.12 1.538l2.966 1.036 1.652 5.486a.822.822 0 00.098.208c.006.01.015.016.022.027a.81.81 0 00.23.217c.077.052.163.09.253.112h.011l.005.003c.055.011.11.017.166.017l.015-.003a.81.81 0 00.246-.043c.019-.006.035-.016.053-.024a.815.815 0 00.167-.094l.125-.106 2.21-2.45 3.298 2.564c.29.227.647.35 1.015.351a1.677 1.677 0 001.643-1.341l2.67-13.152a1.672 1.672 0 00-.567-1.618zM45.847 45.246a.817.817 0 00-.222.415l-.254 1.235-.642-2.129 3.327-1.738-2.209 2.217zm6.793 4.355l-3.897-3.03a.817.817 0 00-1.107.099l-.709.784.25-1.221 5.796-5.816a.823.823 0 00-.394-1.379.816.816 0 00-.562.07L43.7 43.454l-3.048-1.12 14.711-5.904L52.641 49.6z"/></svg>