<svg width="57" height="56" fill="none" xmlns="http://www.w3.org/2000/svg"><path d="M7.355 36.258a.219.219 0 00.032.104v1.657c0 .956.778 1.734 1.734 1.734h4.35v.004a5.216 5.216 0 005.21 5.21 5.216 5.216 0 005.21-5.21v-.004h18.26v.004a5.216 5.216 0 005.21 5.21 5.216 5.216 0 005.211-5.21v-.004h2.612a.865.865 0 00.865-.865v-8.69a4.348 4.348 0 00-3.652-4.287l-1.328-5.31a.865.865 0 00.634-.833v-.87a3.476 3.476 0 00-3.472-3.471h-6.088v-1.743c0-.956-.778-1.734-1.734-1.734H9.121c-.956 0-1.734.778-1.734 1.734V35.41c0 .203-.011.375-.021.516l-.002.02c-.009.13-.016.237-.009.31zm1.762-1.711V13.684c0-.002.002-.004.004-.004h31.288c.002 0 .004.002.004.004v24.339h-16.82a5.218 5.218 0 00-4.912-3.476 5.218 5.218 0 00-4.912 3.476H9.121a.004.004 0 01-.004-.004v-1.961 0-.022 0-.011 0-.004 0-.004 0-.004 0-.004 0-.013 0-.009 0-.005 0-.009 0-.005 0-.005 0-.006 0-.005 0-.005 0-.006 0-.005 0-.006 0-.006 0-.005 0-.006 0-.006 0-.006 0-.006 0-.005 0-.006 0-.006 0-.005 0-.006 0-.005 0-.006 0-.005 0-.005 0-.005 0-.005 0-.004 0-.005 0-.009 0-.013 0-.004 0-.004 0-.004 0-.015 0-.007 0-.007 0-.01 0-.644 0-.014 0-.012 0-.004 0-.004 0-.004 0-.004 0-.008 0-.005 0-.01 0-.006 0-.005 0-.006 0-.005 0-.006 0-.006 0-.007 0-.007 0-.007 0-.007 0-.007 0-.002 0-.006 0-.008 0-.007 0-.002 0-.006 0-.007 0-.008 0-.007 0-.006 0-.007 0-.006 0-.006 0-.006 0-.005 0-.005 0-.01 0-.005 0-.009 0-.004 0-.02 0-.021 0-.267zm33.333 3.477h-.307v-6.089s0 0 0 0v-4.35h9.567a2.616 2.616 0 012.462 1.747h-2.464a.865.865 0 00-.865.865v1.739a2.606 2.606 0 002.603 2.602h.873v3.486h-2.045a5.218 5.218 0 00-4.912-3.477 5.218 5.218 0 00-4.912 3.477zm-.307-20.868h6.088c.961 0 1.743.782 1.743 1.743v.004h-7.83v-1.747zm0 8.7v-5.223h7.151l1.306 5.223h-8.457zM18.681 43.238a3.485 3.485 0 01-3.48-3.48 3.484 3.484 0 013.48-3.481 3.484 3.484 0 013.481 3.48 3.484 3.484 0 01-3.48 3.481zm28.681 0a3.485 3.485 0 01-3.48-3.48c0-1.92 1.56-3.481 3.48-3.481s3.48 1.561 3.48 3.48c0 1.92-1.56 3.481-3.48 3.481zm6.957-10.43h-.873a.875.875 0 01-.874-.873v-.873h1.747v1.747z" stroke-width=".1"/><path d="M18.68 38.073c-.928 0-1.684.756-1.684 1.684 0 .929.756 1.684 1.684 1.684.929 0 1.684-.755 1.684-1.684 0-.928-.755-1.684-1.684-1.684z"/><path fill-rule="evenodd" clip-rule="evenodd" d="M16.902 39.757a1.781 1.781 0 013.561 0c0 .982-.798 1.78-1.78 1.78s-1.78-.798-1.78-1.78zm.097 0c0-.928.755-1.684 1.684-1.684.928 0 1.684.756 1.684 1.684 0 .929-.756 1.684-1.684 1.684a1.686 1.686 0 01-1.684-1.684z"/><path d="M47.36 38.073c-.929 0-1.684.756-1.684 1.684 0 .929.755 1.684 1.684 1.684.928 0 1.684-.755 1.684-1.684 0-.928-.756-1.684-1.684-1.684z"/><path fill-rule="evenodd" clip-rule="evenodd" d="M45.582 39.757a1.782 1.782 0 013.561 0 1.781 1.781 0 01-3.561 0zm.097 0c0-.928.755-1.684 1.684-1.684.928 0 1.684.756 1.684 1.684 0 .929-.756 1.684-1.684 1.684a1.686 1.686 0 01-1.684-1.684z"/><path d="M6.802 28.815a1.467 1.467 0 100 2.934h5.803a1.467 1.467 0 100-2.934H6.802zm-4.835-3.868a1.467 1.467 0 100 2.934h10.638a1.467 1.467 0 100-2.934H1.967z" stroke="#fff"/></svg>