<svg width="56" height="56" fill="none" xmlns="http://www.w3.org/2000/svg"><path d="M49.504 4H6.496A2.499 2.499 0 004 6.496v33.792a2.499 2.499 0 002.496 2.496h16.96l-.653 5.225a22.894 22.894 0 00-4.552 2.232.96.96 0 00.533 1.759h18.432a.96.96 0 00.532-1.759 22.894 22.894 0 00-4.551-2.232l-.653-5.225h16.96A2.5 2.5 0 0052 40.288V6.496A2.5 2.5 0 0049.504 4zM6.496 5.92h43.008a.577.577 0 01.576.576v26.688H5.92V6.496a.577.577 0 01.576-.576zm16.896 44.16h-.627c1.526-.614 3.39-1.152 5.235-1.152 1.838 0 3.701.538 5.228 1.152h-9.836zm7.795-2.673a12.913 12.913 0 00-6.373 0l.577-4.623h5.218l.578 4.623zm18.893-7.119a.577.577 0 01-.576.576H6.496a.577.577 0 01-.576-.576v-5.184h44.16v5.184z" /><path d="M36.5 15.485c-.05.231-.103.463-.152.694l-.998 4.854c-.077.375-.142.752-.24 1.121-.261.979-1.183 1.681-2.222 1.694-.86.01-1.722.003-2.583.003h-5.852c-1.11 0-2.039-.67-2.321-1.689-.079-.283-.105-.581-.146-.874-.095-.677-.185-1.356-.277-2.034l-.276-2.034-.275-2.033-.276-2.034c-.008-.061-.014-.123-.024-.183-.068-.413-.384-.68-.815-.68-.557-.003-1.114 0-1.672 0-.47 0-.73-.193-.86-.638 0-.005-.007-.01-.011-.014v-.24c.008-.023.018-.044.024-.067a.782.782 0 01.572-.557c.024-.007.046-.016.069-.024h2.109c.067.012.135.026.203.037.992.151 1.818.983 1.944 1.955.074.573.154 1.148.232 1.722.02.141.02.141.171.141h12.818c.45 0 .731.212.842.636a.098.098 0 00.014.024l.002.22zm-13.612.664l.013.13.24 1.749.482 3.573c.06.441.377.712.833.712h8.34c.42 0 .731-.247.814-.647.368-1.787.736-3.574 1.102-5.362.01-.05.016-.1.024-.154l-11.848-.001zM23.638 29.25c-.193-.043-.392-.07-.579-.131-1.01-.329-1.67-1.306-1.59-2.341.085-1.097.912-1.966 2.027-2.13 1.302-.19 2.524.715 2.691 1.995a2.248 2.248 0 01-.485 1.722 2.352 2.352 0 01-.711.591c-.275.15-.578.244-.89.277a.423.423 0 00-.064.017h-.399zm.988-2.314a.753.753 0 00-.227-.553.793.793 0 00-.564-.231.81.81 0 00-.564.23.768.768 0 00-.228.552c-.001.429.36.78.797.776a.808.808 0 00.556-.23.766.766 0 00.23-.544zM33.137 29.25c-.193-.043-.392-.07-.579-.131-1.01-.328-1.67-1.306-1.59-2.341.085-1.097.912-1.966 2.027-2.13 1.302-.19 2.524.715 2.691 1.995a2.248 2.248 0 01-.485 1.722 2.353 2.353 0 01-.711.591c-.275.15-.578.244-.891.277a.423.423 0 00-.063.017h-.399zm-.594-2.311c0 .204.084.4.232.544a.806.806 0 00.558.227.787.787 0 00.793-.779.788.788 0 00-.796-.767.806.806 0 00-.557.23.765.765 0 00-.23.545z"/></svg>