<svg width="136" height="32" viewBox="0 0 136 32" fill="none" xmlns="http://www.w3.org/2000/svg">
<path opacity="0.4" d="M29.1778 0L14.5891 7.2451L0 0V32H29.1778V0ZM26.0756 21.6366V30.1888H14.5891V26.0154L3.10414 30.3942V29.0685L14.5891 24.6897L26.074 20.3105L26.0756 21.6366ZM26.0756 18.7919L23.1046 19.9244L14.5906 23.1707L3.1173 27.5453L3.10571 27.5148V26.2229L14.5906 21.8438L19.6273 19.9238L26.0756 17.4653V18.7919ZM26.0756 15.9476L15.6448 19.9244L14.5906 20.3264L3.10571 24.7055V23.3795L13.7493 19.3219L14.5891 19.0019L26.074 14.6228L26.0756 15.9476ZM26.0756 13.223L14.5906 17.6021L10.0811 19.3219L3.10414 21.9822V20.6561L6.60374 19.3219L14.5891 16.2773L26.074 11.8985L26.0756 13.223ZM26.0756 10.1769L14.5906 14.5557L3.10571 18.9345V9.05661H14.5906V13.2297L26.0756 8.85089V10.1769Z" fill="#4D5B68"/>
<path d="M29.1778 0L14.5891 7.2451L0 0V32H29.1778V0ZM26.0756 21.6366V30.1888H14.5891V26.0154L3.10414 30.3942V29.0685L14.5891 24.6897L26.074 20.3105L26.0756 21.6366ZM26.0756 18.7919L23.1046 19.9244L14.5906 23.1707L3.1173 27.5453L3.10571 27.5148V26.2229L14.5906 21.8438L19.6273 19.9238L26.0756 17.4653V18.7919ZM26.0756 15.9476L15.6448 19.9244L14.5906 20.3264L3.10571 24.7055V23.3795L13.7493 19.3219L14.5891 19.0019L26.074 14.6228L26.0756 15.9476ZM26.0756 13.223L14.5906 17.6021L10.0811 19.3219L3.10414 21.9822V20.6561L6.60374 19.3219L14.5891 16.2773L26.074 11.8985L26.0756 13.223ZM26.0756 10.1769L14.5906 14.5557L3.10571 18.9345V9.05661H14.5906V13.2297L26.0756 8.85089V10.1769Z" fill="#4D5B68"/>
<path opacity="0.4" d="M32.282 30.7925H135.998V31.9999H32.282V30.7925Z" fill="#4D5B68"/>
<path d="M32.282 30.7925H135.998V31.9999H32.282V30.7925Z" fill="#4D5B68"/>
<path opacity="0.4" d="M32.282 11.8972H135.998V13.1047H32.282V11.8972Z" fill="#4D5B68"/>
<path d="M32.282 11.8972H135.998V13.1047H32.282V11.8972Z" fill="#4D5B68"/>
<path d="M35.8751 5.08149C35.8917 5.02785 35.914 4.96751 35.9415 4.89863C35.9716 4.82807 36.0152 4.76373 36.07 4.70907C36.1365 4.64466 36.2155 4.59387 36.3025 4.55974C36.4225 4.51546 36.5503 4.49475 36.6786 4.49879C36.8001 4.49516 36.9213 4.5143 37.0355 4.55517C37.1212 4.58799 37.1999 4.63593 37.2677 4.69658C37.3259 4.74958 37.3737 4.81248 37.4087 4.88218C37.4405 4.94533 37.4655 5.01151 37.4833 5.07966L38.5622 8.94557C38.5755 8.97673 38.5922 9.00646 38.612 9.03425C38.6191 9.04786 38.6297 9.05946 38.6428 9.06794C38.6558 9.07642 38.6709 9.08151 38.6866 9.08271C38.7116 9.07892 38.7348 9.06763 38.753 9.0504C38.7892 9.01251 38.8125 8.96457 38.8194 8.91326L39.9729 4.56339H41.0847L39.6824 9.48621C39.6545 9.57764 39.6229 9.67059 39.5868 9.76446C39.5516 9.85815 39.4984 9.94449 39.4302 10.0189C39.3558 10.0979 39.2654 10.1611 39.1647 10.2045C39.032 10.2575 38.8892 10.2822 38.7458 10.2771C38.6103 10.2809 38.4753 10.2602 38.3475 10.2161C38.2498 10.1804 38.1607 10.1254 38.0859 10.0546C38.0171 9.98798 37.961 9.91009 37.9201 9.8245C37.8775 9.73611 37.8428 9.64435 37.8164 9.55021L36.7957 5.89307C36.7679 5.79067 36.7293 5.74069 36.6795 5.74069C36.6629 5.74101 36.647 5.74674 36.6342 5.75697C36.6214 5.76721 36.6125 5.78133 36.609 5.79707C36.5952 5.83486 36.5827 5.86717 36.5717 5.89399L35.5426 9.55113C35.5194 9.63503 35.4902 9.7173 35.4555 9.79738C35.4179 9.88307 35.366 9.96215 35.302 10.0314C35.2292 10.1083 35.14 10.1689 35.0406 10.2088C34.9071 10.259 34.7644 10.2823 34.6214 10.2774C34.4151 10.2848 34.2118 10.2284 34.0407 10.1162C33.8505 9.95154 33.722 9.73001 33.6756 9.48652L32.2815 4.5637H33.3933L34.5468 8.91357C34.5577 8.94038 34.5703 8.97452 34.5841 9.0184C34.5883 9.0375 34.5994 9.0545 34.6154 9.06635C34.6313 9.07819 34.6511 9.0841 34.6712 9.08301C34.6868 9.08167 34.7019 9.07653 34.715 9.06806C34.728 9.0596 34.7387 9.04808 34.7461 9.03456C34.7656 9.00662 34.7823 8.97692 34.7959 8.94587L35.8751 5.08149Z" fill="#4D5B68"/>
<path d="M44.7164 4.50847C44.9226 4.51428 45.1279 4.53589 45.3306 4.57308C45.5385 4.61097 45.7416 4.67054 45.9363 4.75076C46.1353 4.83319 46.3167 4.95078 46.4715 5.09758C46.6214 5.23836 46.7425 5.40547 46.8285 5.59007C46.9171 5.77903 46.9851 5.97647 47.0315 6.17918C47.0785 6.38347 47.1077 6.59123 47.1189 6.80028C47.13 7.01057 47.1356 7.20704 47.1356 7.38969C47.1356 7.57803 47.1286 7.77572 47.1146 7.98276C47.1008 8.19034 47.0717 8.3967 47.0274 8.6002C46.9838 8.80315 46.9171 9.00074 46.8285 9.18931C46.7427 9.37391 46.6216 9.54095 46.4715 9.6815C46.3169 9.82859 46.1354 9.94631 45.9363 10.0286C45.7416 10.1088 45.5385 10.1684 45.3306 10.2063C45.1266 10.2435 44.9199 10.265 44.7123 10.2706C44.5076 10.2761 44.3223 10.2788 44.1564 10.2788C43.9847 10.2788 43.798 10.2761 43.5962 10.2706C43.3901 10.2649 43.1849 10.2434 42.9823 10.2063C42.7744 10.1685 42.5713 10.1089 42.3766 10.0286C41.9678 9.85702 41.6395 9.54344 41.4556 9.14908C41.3654 8.95399 41.2986 8.74948 41.2563 8.53956C41.2155 8.33854 41.1905 8.13477 41.1817 7.93003C41.1732 7.73133 41.169 7.55111 41.1692 7.38939C41.1692 7.19556 41.1747 6.99513 41.1858 6.78809C41.1966 6.58187 41.2244 6.37682 41.2688 6.17491C41.3124 5.97451 41.3792 5.77954 41.4678 5.59373C41.5577 5.40605 41.6846 5.23737 41.8413 5.09727C41.9961 4.95041 42.1776 4.83281 42.3766 4.75045C42.5699 4.67058 42.7715 4.61102 42.9779 4.57278C43.1792 4.53544 43.3832 4.51383 43.588 4.50817C43.7898 4.50309 43.9793 4.50045 44.1564 4.50024C44.3278 4.50045 44.5144 4.50319 44.7164 4.50847ZM42.3267 7.99099C42.3426 8.14049 42.3689 8.28875 42.4057 8.43472C42.4323 8.54297 42.4698 8.64841 42.5176 8.74954C42.5545 8.8256 42.6005 8.8972 42.6545 8.96287C42.7323 9.06625 42.8312 9.15288 42.945 9.21735C43.0568 9.27968 43.1768 9.32714 43.3016 9.35845C43.435 9.39174 43.5715 9.41216 43.709 9.41941C43.8528 9.42763 43.9995 9.43129 44.1477 9.43129C44.2959 9.43129 44.4425 9.42763 44.5836 9.41941C44.721 9.41175 44.8574 9.39134 44.9909 9.35845C45.1173 9.32763 45.2388 9.28016 45.3519 9.21735C45.4671 9.15169 45.5685 9.06533 45.6505 8.96287C45.7053 8.89606 45.7514 8.82298 45.7878 8.74527C45.8347 8.64378 45.8721 8.53842 45.8997 8.43045C45.9367 8.28454 45.9631 8.13626 45.9786 7.98672C45.9991 7.78825 46.0087 7.58885 46.0075 7.38939C46.009 7.18058 45.9994 6.97184 45.9786 6.76401C45.9633 6.61304 45.9369 6.46332 45.8997 6.31602C45.8732 6.20981 45.8342 6.10693 45.7834 6.00942C45.7457 5.93828 45.7012 5.87074 45.6505 5.80767C45.4865 5.60756 45.2539 5.47149 44.9953 5.42428C44.7165 5.3719 44.4332 5.34617 44.1492 5.34748C43.8653 5.34566 43.5819 5.37138 43.3032 5.42428C43.0474 5.473 42.8179 5.60897 42.6561 5.80767C42.5308 5.97844 42.4419 6.17192 42.3947 6.37666C42.3213 6.7093 42.2892 7.04931 42.2992 7.38939C42.2971 7.59026 42.3063 7.79109 42.3267 7.99099Z" fill="#4D5B68"/>
<path d="M47.9653 5.52549C47.9658 5.39967 47.9768 5.27411 47.9982 5.15002C48.0246 5.01124 48.0977 4.88492 48.206 4.79101C48.3012 4.69955 48.4205 4.63533 48.5507 4.60541C48.6665 4.57957 48.7848 4.56608 48.9035 4.56519H51.6583C51.7579 4.56519 51.8629 4.56915 51.9738 4.57707C52.0864 4.5857 52.1976 4.60614 52.3057 4.63802C52.4198 4.67186 52.5276 4.72331 52.625 4.7904C52.7359 4.86905 52.8302 4.96764 52.9029 5.08084C53.037 5.26221 53.1231 5.47291 53.1536 5.69433C53.1808 5.90317 53.1946 6.11346 53.195 6.32397C53.1947 6.53557 53.1822 6.747 53.1577 6.95726C53.1305 7.1825 53.0587 7.40047 52.9462 7.59909C52.9055 7.67156 52.8583 7.7404 52.8052 7.8048C52.7446 7.87671 52.6732 7.93929 52.5933 7.9904C52.4974 8.05133 52.3925 8.09758 52.2822 8.12755C52.1416 8.16494 51.9963 8.18259 51.8507 8.17996H51.1039V8.2205L53.3112 10.2136H51.9325L50.0241 8.38172C49.9558 8.31381 49.8946 8.23949 49.8414 8.15985C49.7857 8.08583 49.754 7.99733 49.7502 7.90568V7.77646C49.7489 7.72393 49.7594 7.67175 49.781 7.62362C49.8027 7.57548 49.835 7.53256 49.8756 7.49791C49.9791 7.41875 50.1093 7.37996 50.2406 7.38911H51.3374C51.4424 7.38776 51.5469 7.37416 51.6486 7.34857C51.7682 7.31726 51.8707 7.24212 51.9347 7.1389C51.9665 7.08603 51.9902 7.02895 52.0052 6.96945C52.0246 6.89946 52.0385 6.82815 52.0468 6.75612C52.055 6.68358 52.0605 6.61247 52.0634 6.54278C52.066 6.47299 52.0675 6.41357 52.0675 6.36511C52.0741 6.19057 52.0545 6.01603 52.0092 5.84701C51.9818 5.74813 51.9307 5.65696 51.8601 5.58096C51.7787 5.498 51.6701 5.4452 51.553 5.43162C51.4511 5.41902 51.3486 5.41221 51.2459 5.4112H49.4704C49.4179 5.41072 49.3655 5.4148 49.3137 5.42339C49.2627 5.43549 49.2165 5.46213 49.1812 5.49989C49.1288 5.53547 49.0918 5.58868 49.0774 5.64922C49.0688 5.70398 49.0646 5.75931 49.0649 5.81471V10.213H47.9697L47.9653 5.52549Z" fill="#4D5B68"/>
<path d="M54.803 10.2142C54.7054 10.2144 54.608 10.2041 54.5126 10.1838C54.4214 10.1662 54.3361 10.1274 54.2638 10.0707C54.2096 10.0212 54.1633 9.96408 54.1265 9.90126C54.0756 9.80978 54.0513 9.70651 54.0563 9.60259V4.56519H55.1515V9.06042C55.1515 9.09273 55.1515 9.13174 55.1556 9.17715C55.1579 9.2016 55.1654 9.22533 55.1775 9.24687C55.1896 9.26841 55.2062 9.28731 55.2261 9.3024C55.2526 9.31799 55.2804 9.33154 55.3091 9.34294C55.3707 9.36216 55.4354 9.37032 55.5 9.36701H58.6865V10.2142H54.803Z" fill="#4D5B68"/>
<path d="M59.9064 10.2142C59.7469 10.2232 59.5871 10.2013 59.4364 10.1496C59.3746 10.1246 59.315 10.095 59.2581 10.0609C59.192 10.0054 59.1372 9.93828 59.0964 9.86315C59.0378 9.74947 59.0105 9.62292 59.0174 9.49592V5.46879C59.0176 5.35798 59.0272 5.24738 59.0462 5.13813C59.0709 5.01473 59.1298 4.90026 59.2167 4.80715C59.2815 4.74936 59.3522 4.69829 59.4279 4.65477C59.5539 4.58912 59.696 4.55854 59.8387 4.56639H62.1128C62.4635 4.55588 62.8121 4.62201 63.1331 4.75992C63.3892 4.87486 63.6202 5.03657 63.8137 5.23626C63.9476 5.38041 64.0582 5.54361 64.1414 5.72022C64.2208 5.89091 64.2807 6.06955 64.3201 6.25294C64.3581 6.43375 64.3815 6.61716 64.3903 6.80152C64.4062 7.14847 64.4062 7.49594 64.3903 7.84289C64.3812 8.03772 64.359 8.23176 64.3238 8.42376C64.2883 8.62278 64.2359 8.81859 64.1671 9.00921C64.1017 9.19268 64.008 9.36542 63.8892 9.52152C63.8205 9.60499 63.7454 9.68324 63.6645 9.75557C63.5645 9.84436 63.4532 9.92026 63.3333 9.9814C63.1862 10.0566 63.03 10.1135 62.8683 10.1508C62.6698 10.1964 62.4664 10.2181 62.2625 10.2155L59.9064 10.2142ZM60.1135 8.97965C60.1135 9.03877 60.1135 9.09393 60.1176 9.14513C60.1219 9.19921 60.1472 9.24967 60.1884 9.28624C60.2213 9.32623 60.2688 9.35224 60.321 9.35877C60.3705 9.36423 60.4203 9.36698 60.4701 9.367H61.732C61.99 9.37417 62.2471 9.33586 62.491 9.25393C62.6986 9.17452 62.8728 9.0295 62.9855 8.8422C63.0793 8.6798 63.1465 8.50419 63.1848 8.32167C63.2566 7.96701 63.2873 7.60564 63.2763 7.24433C63.2763 7.12609 63.272 7.00235 63.2634 6.87313C63.2555 6.7456 63.2375 6.61885 63.2095 6.49401C63.1816 6.37007 63.1396 6.24955 63.0842 6.1347C63.0298 6.02065 62.957 5.91581 62.8686 5.82414C62.7883 5.73988 62.6944 5.66895 62.5906 5.61416C62.4893 5.56091 62.3821 5.519 62.271 5.48921C62.1624 5.45995 62.0515 5.43956 61.9395 5.42826C61.8346 5.41784 61.7293 5.41245 61.6239 5.41211H60.487C60.4538 5.41211 60.4125 5.41515 60.3617 5.42003C60.3139 5.42474 60.2681 5.44144 60.2288 5.46849C60.192 5.50051 60.1635 5.54063 60.1458 5.58552C60.1235 5.63807 60.1122 5.69444 60.1126 5.75131L60.1135 8.97965Z" fill="#4D5B68"/>
<path d="M70.548 4.50847C70.7541 4.5143 70.9595 4.5359 71.1621 4.57308C71.37 4.61101 71.5731 4.67058 71.7679 4.75076C71.9667 4.83326 72.1482 4.95085 72.3031 5.09758C72.4529 5.23844 72.5739 5.40553 72.66 5.59007C72.7484 5.77912 72.8166 5.97653 72.8634 6.17918C72.91 6.38351 72.939 6.59126 72.9502 6.80028C72.9615 7.01057 72.9671 7.20704 72.9671 7.38969C72.9671 7.57803 72.9601 7.77572 72.9461 7.98276C72.9322 8.19033 72.9031 8.39667 72.859 8.6002C72.8151 8.80308 72.7483 9.00063 72.66 9.18931C72.5741 9.37385 72.453 9.54087 72.3031 9.6815C72.1484 9.82852 71.9669 9.94624 71.7679 10.0286C71.5731 10.1088 71.37 10.1684 71.1621 10.2063C70.9581 10.2435 70.7514 10.265 70.5439 10.2706C70.339 10.2761 70.1535 10.2788 69.9877 10.2788C69.8164 10.2788 69.6298 10.2761 69.428 10.2706C69.2219 10.2649 69.0165 10.2434 68.8138 10.2063C68.6059 10.1685 68.4028 10.1089 68.2081 10.0286C67.7993 9.85691 67.4709 9.54338 67.2868 9.14908C67.1968 8.95398 67.13 8.74947 67.0878 8.53956C67.047 8.33852 67.022 8.13476 67.013 7.93003C67.0048 7.73133 67.0007 7.55111 67.0007 7.38939C67.0007 7.19556 67.0063 6.99513 67.0173 6.78809C67.028 6.58188 67.0557 6.37683 67.1001 6.17491C67.1438 5.9745 67.2106 5.77954 67.2994 5.59373C67.3892 5.40605 67.5162 5.23737 67.6729 5.09727C67.8276 4.95034 68.0091 4.83273 68.2081 4.75045C68.4015 4.67058 68.6031 4.61102 68.8094 4.57278C69.0107 4.53544 69.2147 4.51383 69.4196 4.50817C69.6214 4.50309 69.8107 4.50045 69.9877 4.50024C70.1592 4.50045 70.3459 4.50319 70.548 4.50847ZM68.1583 7.99099C68.1739 8.1405 68.2001 8.28877 68.2369 8.43472C68.2635 8.54302 68.3011 8.64848 68.3491 8.74954C68.3859 8.82567 68.4319 8.89728 68.4861 8.96287C68.5638 9.06632 68.6627 9.15297 68.7765 9.21735C68.8884 9.27972 69.0083 9.32718 69.1331 9.35845C69.2665 9.39174 69.403 9.41216 69.5405 9.41941C69.684 9.42763 69.831 9.43129 69.9792 9.43129C70.1274 9.43129 70.2738 9.42763 70.4151 9.41941C70.5526 9.41175 70.689 9.39134 70.8225 9.35845C70.9488 9.32763 71.0703 9.28016 71.1835 9.21735C71.2986 9.1515 71.4 9.06518 71.4824 8.96287C71.5369 8.89603 71.5828 8.82296 71.619 8.74527C71.6661 8.64385 71.7037 8.53848 71.7312 8.43045C71.7682 8.28453 71.7944 8.13625 71.8099 7.98672C71.8306 7.78826 71.8403 7.58886 71.839 7.38939C71.8406 7.18058 71.8309 6.97183 71.8099 6.76401C71.7947 6.61305 71.7684 6.46333 71.7312 6.31602C71.7047 6.20981 71.6657 6.10693 71.6149 6.00942C71.577 5.93849 71.5326 5.87098 71.4824 5.80767C71.3181 5.60759 71.0853 5.47154 70.8265 5.42428C70.5478 5.37187 70.2644 5.34615 69.9805 5.34748C69.6965 5.34564 69.4131 5.37137 69.1344 5.42428C68.8786 5.47293 68.6491 5.6089 68.4873 5.80767C68.3619 5.97842 68.2729 6.1719 68.2257 6.37666C68.1529 6.70939 68.1214 7.04937 68.1316 7.38939C68.1293 7.59024 68.1382 7.79107 68.1583 7.99099Z" fill="#4D5B68"/>
<path d="M73.7961 10.2142V5.30753C73.7966 5.21326 73.8105 5.11951 73.8375 5.02897C73.8699 4.92771 73.9303 4.83705 74.012 4.76688C74.0973 4.68314 74.205 4.62433 74.3229 4.59713C74.4254 4.57702 74.5298 4.56681 74.6344 4.56665H78.4179V5.41389H75.1652C75.1267 5.41389 75.0906 5.41541 75.0574 5.41815C75.0173 5.4251 74.9816 5.44697 74.9578 5.47911C74.9263 5.50795 74.9059 5.5463 74.8998 5.58791C74.8943 5.62679 74.8914 5.66599 74.8913 5.70524V6.9316H77.464V7.77915H74.8929V10.2172L73.7961 10.2142Z" fill="#4D5B68"/>
<path d="M86.0945 10.2142H84.9977V7.72861H81.9773V10.2142H80.8821V4.56519H81.9773V6.88137H84.9977V4.56519H86.0945V10.2142Z" fill="#4D5B68"/>
<path d="M88.5336 5.13828C88.6064 4.94459 88.731 4.7733 88.8946 4.64213C89.0764 4.54926 89.2786 4.50073 89.4839 4.50073C89.6892 4.50073 89.8914 4.54926 90.0732 4.64213C90.2411 4.77106 90.3689 4.94283 90.4423 5.13828L92.633 10.2144H91.4795L90.8823 8.78598H88.0855L87.4964 10.2144H86.3433L88.5336 5.13828ZM88.3676 8.02742H90.5996L89.6539 5.72739C89.637 5.68441 89.615 5.63596 89.5875 5.57805C89.5599 5.52015 89.5248 5.49302 89.4878 5.49302C89.4508 5.49302 89.4157 5.52137 89.3882 5.57805C89.3606 5.63474 89.3384 5.68441 89.3217 5.72739L88.3676 8.02742Z" fill="#4D5B68"/>
<path d="M98.4418 9.48023C98.4532 9.59469 98.4361 9.71011 98.3921 9.81682C98.348 9.92352 98.2782 10.0184 98.1887 10.0934C98.0123 10.2195 97.7977 10.2848 97.5789 10.279C97.4059 10.2797 97.2343 10.2497 97.0725 10.1903C96.8888 10.1109 96.7371 9.97472 96.641 9.80297L94.193 6.04221C94.1651 6.00279 94.1347 5.96504 94.1021 5.92915C94.0918 5.91641 94.0769 5.90784 94.0605 5.90507C94.0319 5.90786 94.0054 5.92064 93.9859 5.94103C93.9704 5.95796 93.9587 5.97783 93.9515 5.9994C93.9443 6.02096 93.9418 6.04374 93.9442 6.06629V10.2144H92.8822V5.26751C92.8762 5.16215 92.8943 5.0568 92.9351 4.95904C92.976 4.86129 93.0386 4.77356 93.1185 4.70217C93.3027 4.55928 93.5347 4.48755 93.77 4.50073C93.9776 4.4886 94.1846 4.53326 94.3676 4.62964C94.4987 4.70911 94.6094 4.81682 94.6909 4.94446L97.1558 8.7296C97.1779 8.75662 97.196 8.78646 97.2097 8.81829C97.2156 8.8336 97.2265 8.84662 97.2407 8.85537C97.2549 8.86412 97.2716 8.86811 97.2884 8.86674C97.3059 8.86933 97.3238 8.86536 97.3385 8.85563C97.3531 8.84591 97.3634 8.83115 97.3673 8.81433C97.3747 8.78662 97.3788 8.7582 97.3796 8.7296V4.56534H98.4418V9.48023Z" fill="#4D5B68"/>
<path d="M100.325 10.2142C100.166 10.2232 100.006 10.2013 99.8553 10.1496C99.7936 10.1246 99.7339 10.095 99.677 10.0609C99.6109 10.0053 99.556 9.93823 99.515 9.86315C99.4566 9.74939 99.4295 9.62288 99.4363 9.49592V5.46879C99.4365 5.35798 99.4462 5.24738 99.4652 5.13813C99.4898 5.01479 99.5487 4.90035 99.6353 4.80715C99.7002 4.74938 99.7711 4.69831 99.8468 4.65477C99.9728 4.58912 100.115 4.55854 100.258 4.56639H102.531C102.882 4.55585 103.231 4.62199 103.552 4.75992C103.808 4.87486 104.039 5.03657 104.233 5.23626C104.366 5.38057 104.477 5.54374 104.56 5.72022C104.64 5.89087 104.7 6.06952 104.739 6.25294C104.777 6.43372 104.8 6.61714 104.809 6.80152C104.818 6.98437 104.822 7.15931 104.821 7.32632C104.821 7.48235 104.818 7.65454 104.809 7.84289C104.8 8.0377 104.778 8.23173 104.743 8.42376C104.707 8.62274 104.655 8.81855 104.586 9.00921C104.521 9.19279 104.427 9.36557 104.308 9.52152C104.24 9.60492 104.165 9.68317 104.084 9.75557C103.984 9.84436 103.872 9.92026 103.752 9.9814C103.605 10.0567 103.449 10.1136 103.287 10.1508C103.089 10.1964 102.886 10.2181 102.682 10.2155L100.325 10.2142ZM100.533 8.97965C100.533 9.03877 100.533 9.09393 100.537 9.14513C100.541 9.19921 100.566 9.24967 100.608 9.28624C100.64 9.32623 100.688 9.35224 100.74 9.35877C100.79 9.36423 100.84 9.36698 100.889 9.367H102.151C102.409 9.37417 102.666 9.33586 102.91 9.25393C103.117 9.17426 103.291 9.02929 103.404 8.8422C103.498 8.67986 103.565 8.50423 103.603 8.32167C103.675 7.967 103.705 7.60563 103.694 7.24433C103.694 7.12609 103.69 7.00235 103.682 6.87313C103.674 6.74561 103.656 6.61887 103.628 6.49401C103.6 6.37007 103.558 6.24955 103.502 6.1347C103.448 6.02058 103.375 5.91572 103.287 5.82414C103.206 5.7398 103.112 5.66886 103.009 5.61416C102.907 5.56086 102.8 5.51894 102.689 5.48921C102.581 5.45995 102.47 5.43956 102.357 5.42826C102.253 5.41783 102.147 5.41244 102.042 5.41211H100.905C100.872 5.41211 100.83 5.41515 100.78 5.42003C100.732 5.42474 100.686 5.44144 100.647 5.46849C100.61 5.50051 100.582 5.54063 100.564 5.58552C100.542 5.63804 100.53 5.69443 100.531 5.75131L100.533 8.97965Z" fill="#4D5B68"/>
<path d="M109.271 10.2142V5.41242H107.005V4.56519H112.64V5.41242H110.366V10.2142H109.271Z" fill="#4D5B68"/>
<path d="M116.435 4.50847C116.642 4.51428 116.847 4.53589 117.05 4.57308C117.257 4.61097 117.461 4.67054 117.655 4.75076C117.854 4.83319 118.036 4.95078 118.191 5.09758C118.341 5.23828 118.462 5.40541 118.547 5.59007C118.636 5.77907 118.704 5.97649 118.751 6.17918C118.798 6.38348 118.827 6.59124 118.838 6.80028C118.849 7.01057 118.855 7.20704 118.855 7.38969C118.855 7.57803 118.848 7.77572 118.834 7.98276C118.82 8.19033 118.791 8.39667 118.746 8.6002C118.703 8.80315 118.636 9.00074 118.547 9.18931C118.462 9.37397 118.341 9.54103 118.191 9.6815C118.036 9.82859 117.854 9.94631 117.655 10.0286C117.461 10.1088 117.257 10.1684 117.05 10.2063C116.846 10.2435 116.639 10.265 116.432 10.2706C116.226 10.2761 116.041 10.2788 115.875 10.2788C115.689 10.2786 115.502 10.2759 115.315 10.2706C115.109 10.2649 114.904 10.2434 114.701 10.2063C114.493 10.1685 114.29 10.1089 114.096 10.0286C113.687 9.85693 113.358 9.54339 113.174 9.14908C113.084 8.95393 113.018 8.74943 112.975 8.53956C112.934 8.33854 112.91 8.13477 112.901 7.93003C112.892 7.73133 112.888 7.55111 112.888 7.38939C112.888 7.19556 112.894 6.99513 112.905 6.78809C112.916 6.58187 112.943 6.37682 112.988 6.17491C113.031 5.97447 113.098 5.7795 113.187 5.59373C113.277 5.40606 113.404 5.23738 113.56 5.09727C113.715 4.95041 113.897 4.83281 114.096 4.75045C114.289 4.67058 114.491 4.61102 114.697 4.57278C114.898 4.53547 115.102 4.51387 115.307 4.50817C115.509 4.50309 115.698 4.50045 115.875 4.50024C116.046 4.50045 116.233 4.50319 116.435 4.50847ZM114.046 7.99099C114.062 8.14046 114.088 8.28871 114.124 8.43472C114.151 8.54294 114.189 8.64837 114.237 8.74954C114.273 8.82567 114.319 8.89728 114.374 8.96287C114.451 9.06625 114.55 9.15289 114.664 9.21735C114.776 9.27973 114.896 9.32719 115.021 9.35845C115.154 9.39176 115.291 9.41218 115.428 9.41941C115.572 9.42763 115.719 9.43129 115.867 9.43129C116.015 9.43129 116.162 9.42763 116.303 9.41941C116.44 9.41172 116.577 9.39131 116.71 9.35845C116.836 9.32758 116.958 9.28011 117.071 9.21735C117.186 9.15161 117.288 9.06527 117.37 8.96287C117.424 8.89604 117.47 8.82297 117.507 8.74527C117.554 8.64379 117.591 8.53843 117.619 8.43045C117.656 8.28455 117.682 8.13626 117.698 7.98672C117.718 7.78825 117.728 7.58885 117.726 7.38939C117.728 7.18058 117.718 6.97184 117.698 6.76401C117.682 6.61304 117.656 6.46332 117.619 6.31602C117.592 6.20981 117.553 6.10693 117.502 6.00942C117.465 5.93843 117.42 5.8709 117.37 5.80767C117.206 5.60744 116.973 5.47136 116.714 5.42428C116.435 5.37187 116.152 5.34615 115.868 5.34748C115.584 5.3456 115.301 5.37133 115.022 5.42428C114.766 5.47283 114.536 5.60882 114.374 5.80767C114.249 5.97849 114.16 6.17194 114.113 6.37666C114.04 6.70939 114.009 7.04937 114.019 7.38939C114.017 7.59025 114.025 7.79108 114.046 7.99099Z" fill="#4D5B68"/>
<path d="M123.066 4.50847C123.272 4.5143 123.477 4.5359 123.68 4.57308C123.888 4.61101 124.091 4.67058 124.286 4.75076C124.485 4.83326 124.666 4.95085 124.821 5.09758C124.971 5.23844 125.092 5.40553 125.178 5.59007C125.266 5.77908 125.334 5.9765 125.381 6.17918C125.428 6.38348 125.457 6.59124 125.468 6.80028C125.479 7.01057 125.485 7.20704 125.485 7.38969C125.485 7.57803 125.478 7.77572 125.464 7.98276C125.45 8.19033 125.421 8.39667 125.377 8.6002C125.333 8.80308 125.266 9.00063 125.178 9.18931C125.092 9.37385 124.971 9.54087 124.821 9.6815C124.666 9.82852 124.485 9.94624 124.286 10.0286C124.091 10.1088 123.888 10.1684 123.68 10.2063C123.476 10.2435 123.269 10.265 123.062 10.2706C122.857 10.2761 122.671 10.2788 122.505 10.2788C122.334 10.2788 122.148 10.2761 121.946 10.2706C121.74 10.2649 121.534 10.2434 121.332 10.2063C121.124 10.1685 120.921 10.1089 120.726 10.0286C120.317 9.85693 119.989 9.54339 119.805 9.14908C119.715 8.95398 119.648 8.74946 119.606 8.53956C119.565 8.33852 119.54 8.13476 119.531 7.93003C119.523 7.73133 119.519 7.55111 119.519 7.38939C119.519 7.19556 119.524 6.99513 119.535 6.78809C119.546 6.58188 119.574 6.37683 119.618 6.17491C119.662 5.9745 119.728 5.77954 119.817 5.59373C119.907 5.40606 120.034 5.23738 120.191 5.09727C120.345 4.95034 120.527 4.83273 120.726 4.75045C120.919 4.67058 121.121 4.61102 121.327 4.57278C121.529 4.53544 121.733 4.51383 121.937 4.50817C122.139 4.50309 122.329 4.50045 122.505 4.50024C122.677 4.50045 122.864 4.50319 123.066 4.50847ZM120.675 7.99099C120.69 8.1405 120.717 8.28877 120.754 8.43472C120.78 8.54302 120.818 8.64848 120.866 8.74954C120.902 8.82567 120.948 8.89728 121.003 8.96287C121.08 9.06632 121.179 9.15297 121.293 9.21735C121.405 9.27973 121.525 9.32719 121.65 9.35845C121.783 9.39174 121.92 9.41216 122.057 9.41941C122.201 9.42763 122.348 9.43129 122.496 9.43129C122.644 9.43129 122.79 9.42763 122.932 9.41941C123.069 9.41175 123.206 9.39134 123.339 9.35845C123.465 9.32763 123.587 9.28016 123.7 9.21735C123.891 9.10658 124.043 8.94194 124.136 8.74527C124.183 8.64385 124.22 8.53848 124.248 8.43045C124.285 8.28453 124.311 8.13625 124.326 7.98672C124.347 7.78826 124.357 7.58886 124.356 7.38939C124.357 7.18058 124.347 6.97183 124.326 6.76401C124.311 6.61305 124.285 6.46333 124.248 6.31602C124.221 6.20981 124.182 6.10693 124.132 6.00942C124.094 5.93841 124.049 5.87089 123.999 5.80767C123.835 5.6075 123.602 5.47142 123.343 5.42428C123.064 5.37187 122.781 5.34615 122.497 5.34748C122.213 5.34564 121.93 5.37137 121.651 5.42428C121.395 5.47293 121.166 5.6089 121.004 5.80767C120.878 5.97842 120.789 6.1719 120.742 6.37666C120.669 6.70939 120.638 7.04937 120.648 7.38939C120.646 7.59024 120.655 7.79107 120.675 7.99099Z" fill="#4D5B68"/>
<path d="M127.061 10.2142C126.964 10.2144 126.866 10.2041 126.771 10.1838C126.679 10.1663 126.593 10.1275 126.52 10.0707C126.466 10.0211 126.42 9.96401 126.383 9.90126C126.332 9.80981 126.308 9.70654 126.313 9.60259V4.56519H127.408V9.06042C127.408 9.09273 127.41 9.13174 127.412 9.17715C127.415 9.2016 127.422 9.22533 127.434 9.24687C127.447 9.26842 127.463 9.28731 127.483 9.3024C127.51 9.31799 127.537 9.33154 127.566 9.34294C127.628 9.36216 127.692 9.37032 127.757 9.36701H130.943V10.2142H127.061Z" fill="#4D5B68"/>
<path d="M131.102 9.36701H134.322C134.429 9.37317 134.535 9.34937 134.629 9.29844C134.696 9.25725 134.752 9.20037 134.791 9.13296C134.826 9.07048 134.849 9.00198 134.857 8.93121C134.865 8.87225 134.869 8.81293 134.87 8.75353C134.869 8.69666 134.864 8.63995 134.853 8.58408C134.84 8.52195 134.815 8.46294 134.778 8.41067C134.732 8.34715 134.675 8.2924 134.608 8.24915C134.515 8.18983 134.413 8.14491 134.305 8.11597L132.015 7.41501C131.977 7.40491 131.94 7.3928 131.903 7.37875C131.842 7.35609 131.782 7.3291 131.725 7.29799C131.653 7.26006 131.584 7.21834 131.517 7.17303C131.444 7.12393 131.38 7.06397 131.326 6.99536C131.261 6.92083 131.208 6.83644 131.17 6.74545C131.131 6.65523 131.101 6.56206 131.078 6.4669C131.057 6.3753 131.043 6.28214 131.037 6.18835C131.031 6.09692 131.028 6.01088 131.028 5.93022C131.03 5.74836 131.051 5.56714 131.091 5.38957C131.138 5.19263 131.246 5.0148 131.402 4.88092C131.534 4.75084 131.701 4.65993 131.883 4.61883C132.039 4.58557 132.197 4.568 132.357 4.56641H135.7V5.41364H132.73C132.651 5.41389 132.572 5.42072 132.494 5.43406C132.411 5.4486 132.335 5.48632 132.274 5.54256C132.206 5.60118 132.16 5.6811 132.145 5.76869C132.133 5.83809 132.126 5.90828 132.125 5.97867C132.117 6.1311 132.169 6.28075 132.268 6.39856C132.368 6.51638 132.509 6.59395 132.664 6.61623L134.788 7.26964C134.957 7.31972 135.122 7.38186 135.282 7.45555C135.405 7.51156 135.518 7.585 135.618 7.67345C135.704 7.7503 135.774 7.84196 135.826 7.94378C135.874 8.03915 135.911 8.13928 135.938 8.24244C135.962 8.33658 135.978 8.43235 135.988 8.52892C135.996 8.62035 136 8.69837 136 8.76298C135.999 8.94584 135.981 9.12826 135.946 9.30789C135.911 9.49217 135.829 9.6652 135.709 9.81197C135.594 9.97547 135.424 10.0952 135.228 10.1509C135.046 10.1946 134.86 10.2163 134.672 10.2155H131.102V9.36701Z" fill="#4D5B68"/>
<path d="M32.282 17.4988C32.2835 17.1802 32.3115 16.8622 32.3657 16.548C32.4321 16.1964 32.6171 15.8764 32.8915 15.6386C33.1324 15.407 33.434 15.2442 33.7635 15.168C34.0567 15.1025 34.3564 15.0682 34.6572 15.0659H41.6361C41.8886 15.0659 42.1544 15.0766 42.4351 15.0964C42.7202 15.1172 43.002 15.1683 43.2756 15.2488C43.565 15.3354 43.8382 15.4666 44.085 15.6373C44.3659 15.8368 44.605 16.0866 44.7894 16.3733C45.1272 16.8334 45.3437 17.3672 45.4199 17.9276C45.4888 18.4568 45.5238 18.9897 45.5249 19.5231C45.5241 20.0591 45.4927 20.5947 45.4309 21.1273C45.3619 21.6977 45.1799 22.2496 44.895 22.7526C44.7922 22.9365 44.6726 23.111 44.5378 23.2741C44.3844 23.4561 44.2037 23.6145 44.0016 23.744C43.7588 23.8988 43.4929 24.0161 43.2132 24.0917C42.8573 24.1867 42.4892 24.2315 42.1202 24.2249H40.2285V24.3273L45.8194 29.3781H42.3299L37.495 24.7369C37.3222 24.5649 37.1673 24.3766 37.0325 24.1749C36.8913 23.9875 36.8107 23.7632 36.8013 23.531V23.2043C36.7974 23.0714 36.8237 22.9393 36.8783 22.8173C36.9328 22.6954 37.0142 22.5867 37.1168 22.4988C37.3789 22.2979 37.7087 22.1995 38.0415 22.2226H40.8163C41.0823 22.2191 41.3468 22.1848 41.6044 22.1202C41.9077 22.0409 42.1677 21.8504 42.3299 21.5887C42.4105 21.4549 42.4706 21.3103 42.5085 21.1596C42.5578 20.9819 42.593 20.8007 42.6138 20.6178C42.6346 20.4337 42.6486 20.2532 42.6557 20.0762C42.6626 19.8991 42.6661 19.7489 42.6661 19.6264C42.6823 19.1856 42.6327 18.7449 42.5188 18.318C42.4491 18.0674 42.3195 17.8363 42.1406 17.6436C41.9344 17.4335 41.6598 17.2993 41.3635 17.2639C41.1054 17.232 40.8458 17.215 40.5857 17.2127H36.0868C35.9529 17.2111 35.8192 17.2213 35.6873 17.2431C35.5576 17.2736 35.4405 17.3414 35.351 17.4376C35.2183 17.5277 35.1247 17.6625 35.0881 17.8158C35.0665 17.9544 35.056 18.0944 35.0568 18.2345V29.3781H32.2823L32.282 17.4988Z" fill="#4D5B68"/>
<path d="M56.2768 14.9236C56.799 14.9385 57.3192 14.9932 57.8326 15.0873C58.3596 15.1833 58.8743 15.3341 59.3681 15.5371C59.8719 15.7462 60.3316 16.0441 60.724 16.4157C61.1035 16.7725 61.4101 17.1958 61.6277 17.6634C61.8524 18.1424 62.025 18.6429 62.1426 19.1568C62.2611 19.6744 62.3344 20.2009 62.3619 20.7306C62.3901 21.2627 62.4041 21.7604 62.4039 22.2239C62.4039 22.7011 62.3864 23.2021 62.3513 23.7267C62.3165 24.2524 62.2432 24.7751 62.1319 25.2907C62.021 25.8051 61.8518 26.3059 61.6274 26.784C61.4101 27.2516 61.1034 27.6747 60.7237 28.0308C60.3317 28.4031 59.8719 28.7013 59.3678 28.9101C58.8742 29.1136 58.3594 29.2645 57.8323 29.3602C57.3152 29.4543 56.7914 29.5088 56.2655 29.5232C55.747 29.5373 55.2776 29.5442 54.8573 29.544C54.4228 29.544 53.9497 29.5371 53.4381 29.5232C52.9161 29.5085 52.3961 29.454 51.8829 29.3602C51.3558 29.2645 50.841 29.1136 50.3474 28.9101C49.3119 28.4753 48.4801 27.6808 48.0145 26.6816C47.7862 26.1876 47.6168 25.6698 47.5096 25.1383C47.4066 24.6292 47.3437 24.1132 47.3216 23.5947C47.3007 23.0906 47.2903 22.634 47.2903 22.2248C47.2903 21.7339 47.3043 21.226 47.3323 20.701C47.3597 20.1783 47.43 19.6585 47.5425 19.1467C47.6535 18.639 47.8227 18.1451 48.047 17.6741C48.2751 17.199 48.5965 16.7718 48.9931 16.4167C49.3852 16.0448 49.8448 15.7468 50.3487 15.538C50.8388 15.336 51.3496 15.1852 51.8725 15.0882C52.3823 14.9937 52.899 14.939 53.4177 14.9245C53.9291 14.9111 54.4096 14.9043 54.8592 14.9041C55.2926 14.9033 55.7652 14.9098 56.2768 14.9236ZM50.223 23.7453C50.2629 24.1241 50.3296 24.4999 50.4226 24.8698C50.4903 25.1441 50.5853 25.4112 50.7065 25.6674C50.8 25.8607 50.9164 26.0426 51.0534 26.2096C51.2505 26.4712 51.501 26.6906 51.7892 26.8538C52.0726 27.0118 52.3766 27.132 52.6929 27.2113C53.0302 27.2952 53.3752 27.3462 53.7229 27.3637C54.087 27.384 54.4584 27.3942 54.8369 27.3942C55.2155 27.3942 55.5833 27.384 55.9406 27.3637C56.2881 27.3451 56.6331 27.2941 56.9706 27.2113C57.2907 27.1332 57.5983 27.0129 57.885 26.8538C58.1768 26.6875 58.4336 26.4689 58.6417 26.2096C58.7804 26.0402 58.897 25.8548 58.9889 25.6576C59.1073 25.4007 59.2016 25.134 59.271 24.8607C59.3651 24.491 59.4319 24.1151 59.4709 23.7361C59.523 23.2334 59.5474 22.7283 59.5442 22.223C59.5482 21.6938 59.5237 21.1649 59.4709 20.6382C59.4325 20.2557 59.3657 19.8764 59.271 19.5033C59.2037 19.2342 59.105 18.9736 58.9767 18.7264C58.8806 18.5465 58.768 18.3755 58.6402 18.2154C58.2244 17.7082 57.6349 17.3635 56.9794 17.2441C56.2728 17.1114 55.5546 17.0463 54.835 17.0496C54.1155 17.045 53.3973 17.1101 52.691 17.2441C52.043 17.3674 51.4615 17.7119 51.0515 18.2154C50.7341 18.6479 50.5089 19.138 50.3894 19.6566C50.2036 20.4994 50.1224 21.3608 50.1475 22.2224C50.144 22.731 50.1692 23.2394 50.223 23.7453Z" fill="#4D5B68"/>
<path d="M75.7741 27.8248C75.6619 28.0972 75.5534 28.339 75.4485 28.5501C75.3511 28.7508 75.2197 28.934 75.0597 29.0923C74.8997 29.2457 74.7053 29.3611 74.4919 29.4293C74.2268 29.5104 73.9499 29.5485 73.6721 29.5421C73.3744 29.5511 73.0779 29.5024 72.7997 29.3989C72.5821 29.313 72.3852 29.1841 72.2216 29.0203C72.0655 28.8616 71.9376 28.6787 71.8433 28.4791C71.7453 28.2743 71.6553 28.057 71.5701 27.8248L67.8073 18.2766C67.7685 18.1731 67.7191 18.0737 67.66 17.9797C67.5898 17.8643 67.5197 17.8065 67.4497 17.8063C67.3376 17.8063 67.271 17.8711 67.2501 18.0008C67.2291 18.1303 67.2188 18.2089 67.2188 18.2354L67.2815 29.3778H64.5067V16.7842C64.4815 16.4019 64.5929 16.023 64.8219 15.7114C65.0135 15.4737 65.2578 15.2813 65.5367 15.1485C65.7839 15.0316 66.051 14.9593 66.3248 14.9352C66.5842 14.915 66.7697 14.9047 66.8822 14.9047C67.2416 14.8964 67.6 14.9446 67.9436 15.0476C68.2079 15.1308 68.4513 15.2668 68.6584 15.4469C68.8482 15.618 69.008 15.8182 69.1312 16.0396C69.2588 16.2675 69.3712 16.503 69.4678 16.7448L73.2723 26.2924C73.3315 26.4221 73.3982 26.5484 73.4722 26.6706C73.5349 26.7724 73.6016 26.823 73.6718 26.823C73.742 26.823 73.8084 26.7715 73.8717 26.6706C73.9452 26.5482 74.0117 26.4219 74.071 26.2924L77.8761 16.7448C77.9969 16.3981 78.1704 16.0709 78.391 15.7742C78.56 15.5536 78.7704 15.3661 79.0111 15.2216C79.2246 15.0964 79.4597 15.0098 79.7049 14.9662C79.9548 14.9244 80.2081 14.904 80.4617 14.9053C81.0632 14.8822 81.6575 15.0391 82.1645 15.3548C82.3929 15.5179 82.5746 15.7352 82.6923 15.9859C82.81 16.2366 82.8598 16.5125 82.8369 16.7872V29.379H80.0634L80.1474 18.2366C80.1474 18.0465 80.116 17.9273 80.0534 17.8792C80.01 17.8401 79.9553 17.8151 79.8967 17.8075C79.8265 17.8075 79.7564 17.8653 79.6864 17.981C79.6272 18.0748 79.5778 18.1743 79.5391 18.2778L75.7741 27.8248Z" fill="#4D5B68"/>
<path d="M89.0171 16.5181C89.2015 16.0274 89.5171 15.5933 89.9315 15.2607C90.3918 15.0255 90.904 14.9026 91.424 14.9026C91.944 14.9026 92.4562 15.0255 92.9166 15.2607C93.3419 15.5876 93.6655 16.0229 93.8513 16.5181L99.4019 29.3791H96.4795L94.9663 25.7606H87.8821L86.3893 29.3791H83.4675L89.0171 16.5181ZM88.5969 23.8367H94.2515L91.8549 18.0115C91.8129 17.9027 91.7568 17.7759 91.6869 17.6333C91.6171 17.4906 91.5325 17.4181 91.4344 17.4181C91.3363 17.4181 91.2523 17.4897 91.1837 17.6333C91.1151 17.7768 91.0583 17.9027 91.0154 18.0115L88.5969 23.8367Z" fill="#4D5B68"/>
<path d="M114.116 27.5178C114.116 28.2401 113.903 28.7582 113.475 29.0721C113.028 29.3917 112.484 29.5572 111.93 29.5423C111.492 29.5442 111.057 29.468 110.648 29.3174C110.182 29.1162 109.798 28.7711 109.554 28.3358L103.353 18.8089C103.282 18.7093 103.205 18.6138 103.123 18.5231C103.096 18.4908 103.059 18.469 103.017 18.4621C102.945 18.4693 102.878 18.5019 102.829 18.5535C102.79 18.5963 102.76 18.6466 102.742 18.7012C102.724 18.7558 102.718 18.8134 102.724 18.8705V29.379H100.033V16.8454C100.018 16.5784 100.064 16.3114 100.167 16.0637C100.271 15.816 100.43 15.5937 100.632 15.413C101.098 15.0513 101.685 14.8696 102.281 14.9028C102.807 14.8723 103.331 14.9856 103.794 15.2298C104.126 15.4312 104.407 15.7041 104.614 16.0274L110.857 25.6155C110.913 25.6842 110.959 25.7599 110.994 25.8407C111.009 25.8793 111.037 25.9121 111.072 25.9341C111.108 25.9561 111.151 25.9661 111.193 25.9626C111.238 25.9694 111.283 25.9593 111.32 25.9346C111.357 25.9098 111.383 25.8722 111.393 25.8294C111.412 25.7597 111.422 25.6881 111.424 25.6161V15.0668H114.116L114.116 27.5178Z" fill="#4D5B68"/>
<path d="M116.639 29.3781V15.0659H119.413V29.3781H116.639Z" fill="#4D5B68"/>
<path d="M125.594 16.5181C125.779 16.0273 126.094 15.5932 126.509 15.2607C126.969 15.0255 127.481 14.9026 128.001 14.9026C128.521 14.9026 129.034 15.0255 129.494 15.2607C129.919 15.5876 130.243 16.0229 130.429 16.5181L135.978 29.3791H133.056L131.542 25.7606H124.458L122.966 29.3791H120.044L125.594 16.5181ZM125.174 23.8367H130.828L128.431 18.0115C128.389 17.9027 128.333 17.7759 128.263 17.6333C128.193 17.4906 128.109 17.4181 128.012 17.4181C127.916 17.4181 127.83 17.4897 127.76 17.6333C127.691 17.7768 127.635 17.9027 127.592 18.0115L125.174 23.8367Z" fill="#4D5B68"/>
</svg>
