<svg width="171" height="40" viewBox="0 0 171 40" fill="none" xmlns="http://www.w3.org/2000/svg">
<path opacity="0.4" d="M36.6868 0L18.3436 9.05638L0 0V40H36.6868V0ZM32.7862 27.0457V37.736H18.3436V32.5192L3.903 37.9928V36.3356L18.3436 30.8621L32.7842 25.3882L32.7862 27.0457ZM32.7862 23.4899L29.0507 24.9055L18.3456 28.9634L3.91955 34.4316L3.90497 34.3935V32.7787L18.3456 27.3048L24.6784 24.9048L32.7862 21.8316V23.4899ZM32.7862 19.9345L19.671 24.9055L18.3456 25.408L3.90497 30.8819V29.2244L17.2877 24.1524L18.3436 23.7524L32.7842 18.2785L32.7862 19.9345ZM32.7862 16.5288L18.3456 22.0027L12.6755 24.1524L3.903 27.4777V25.8202L8.30323 24.1524L18.3436 20.3467L32.7842 14.8731L32.7862 16.5288ZM32.7862 12.7211L18.3456 18.1947L3.90497 23.6682V11.3208H18.3456V16.5371L32.7862 11.0636V12.7211Z" fill="#4D5B68"/>
<path d="M36.6868 0L18.3436 9.05638L0 0V40H36.6868V0ZM32.7862 27.0457V37.736H18.3436V32.5192L3.903 37.9928V36.3356L18.3436 30.8621L32.7842 25.3882L32.7862 27.0457ZM32.7862 23.4899L29.0507 24.9055L18.3456 28.9634L3.91955 34.4316L3.90497 34.3935V32.7787L18.3456 27.3048L24.6784 24.9048L32.7862 21.8316V23.4899ZM32.7862 19.9345L19.671 24.9055L18.3456 25.408L3.90497 30.8819V29.2244L17.2877 24.1524L18.3436 23.7524L32.7842 18.2785L32.7862 19.9345ZM32.7862 16.5288L18.3456 22.0027L12.6755 24.1524L3.903 27.4777V25.8202L8.30323 24.1524L18.3436 20.3467L32.7842 14.8731L32.7862 16.5288ZM32.7862 12.7211L18.3456 18.1947L3.90497 23.6682V11.3208H18.3456V16.5371L32.7862 11.0636V12.7211Z" fill="#4D5B68"/>
<path opacity="0.4" d="M40.5898 38.4907H170.997V40.0001H40.5898V38.4907Z" fill="#4D5B68"/>
<path d="M40.5898 38.4907H170.997V40.0001H40.5898V38.4907Z" fill="#4D5B68"/>
<path opacity="0.4" d="M40.5898 14.8716H170.997V16.3809H40.5898V14.8716Z" fill="#4D5B68"/>
<path d="M40.5898 14.8716H170.997V16.3809H40.5898V14.8716Z" fill="#4D5B68"/>
<path d="M45.1075 6.35205C45.1284 6.285 45.1564 6.20957 45.1911 6.12347C45.2288 6.03527 45.2837 5.95485 45.3526 5.88652C45.4362 5.806 45.5356 5.74253 45.645 5.69986C45.7958 5.64451 45.9565 5.61862 46.1178 5.62366C46.2706 5.61914 46.423 5.64306 46.5665 5.69414C46.6743 5.73517 46.7733 5.7951 46.8585 5.8709C46.9317 5.93715 46.9918 6.01578 47.0358 6.1029C47.0758 6.18184 47.1072 6.26457 47.1296 6.34976L48.4861 11.1821C48.503 11.2211 48.524 11.2583 48.5488 11.293C48.5577 11.31 48.5711 11.3245 48.5875 11.3351C48.6039 11.3457 48.6229 11.3521 48.6425 11.3536C48.6741 11.3488 48.7033 11.3347 48.7261 11.3132C48.7716 11.2658 48.8008 11.2059 48.8096 11.1418L50.2599 5.70443H51.6579L49.8947 11.858C49.8596 11.9722 49.8198 12.0884 49.7745 12.2058C49.7302 12.3229 49.6634 12.4308 49.5775 12.5239C49.484 12.6225 49.3703 12.7015 49.2438 12.7559C49.0769 12.822 48.8973 12.853 48.717 12.8465C48.5466 12.8513 48.3769 12.8254 48.2162 12.7703C48.0934 12.7256 47.9814 12.6569 47.8872 12.5684C47.8008 12.4852 47.7302 12.3878 47.6788 12.2808C47.6253 12.1703 47.5817 12.0556 47.5484 11.9379L46.2651 7.36652C46.2301 7.23852 46.1816 7.17605 46.119 7.17605C46.0981 7.17644 46.0781 7.18361 46.062 7.1964C46.0459 7.20919 46.0347 7.22685 46.0303 7.24652C46.013 7.29376 45.9972 7.33414 45.9834 7.36766L44.6895 11.9391C44.6602 12.044 44.6236 12.1468 44.58 12.2469C44.5327 12.354 44.4674 12.4529 44.3869 12.5395C44.2954 12.6356 44.1832 12.7113 44.0583 12.7612C43.8904 12.8239 43.711 12.8531 43.5311 12.8469C43.2718 12.8562 43.0162 12.7857 42.801 12.6454C42.5619 12.4396 42.4004 12.1627 42.342 11.8583L40.5891 5.70481H41.987L43.4374 11.1421C43.4512 11.1757 43.4669 11.2183 43.4842 11.2732C43.4896 11.2971 43.5035 11.3183 43.5236 11.3331C43.5437 11.3479 43.5686 11.3553 43.5938 11.354C43.6135 11.3523 43.6324 11.3458 43.6488 11.3353C43.6653 11.3247 43.6787 11.3103 43.688 11.2934C43.7125 11.2585 43.7334 11.2213 43.7506 11.1825L45.1075 6.35205Z" fill="#4D5B68"/>
<path d="M56.224 5.63577C56.4833 5.64304 56.7415 5.67004 56.9963 5.71654C57.2577 5.76389 57.513 5.83835 57.7579 5.93863C58.008 6.04167 58.2362 6.18866 58.4309 6.37215C58.6193 6.54813 58.7716 6.75702 58.8796 6.98777C58.991 7.22397 59.0766 7.47077 59.1349 7.72415C59.194 7.97952 59.2308 8.23922 59.2449 8.50054C59.2588 8.76339 59.2657 9.00898 59.2657 9.2373C59.2657 9.47273 59.2569 9.71984 59.2393 9.97863C59.2221 10.2381 59.1855 10.4961 59.1298 10.7504C59.075 11.0041 58.991 11.2511 58.8796 11.4868C58.7718 11.7176 58.6195 11.9264 58.4309 12.1021C58.2364 12.2859 58.0082 12.4331 57.7579 12.536C57.513 12.6362 57.2577 12.7107 56.9963 12.7581C56.7398 12.8046 56.4798 12.8315 56.2189 12.8384C55.9615 12.8453 55.7285 12.8487 55.52 12.8487C55.304 12.8487 55.0692 12.8453 54.8155 12.8384C54.5564 12.8313 54.2983 12.8044 54.0436 12.7581C53.7822 12.7108 53.5269 12.6363 53.282 12.536C52.7681 12.3215 52.3552 11.9295 52.124 11.4365C52.0107 11.1927 51.9266 10.937 51.8735 10.6746C51.8221 10.4234 51.7907 10.1686 51.7797 9.91273C51.7689 9.66434 51.7637 9.43907 51.7639 9.23692C51.7639 8.99463 51.7709 8.74409 51.7848 8.4853C51.7984 8.22752 51.8333 7.97121 51.8892 7.71882C51.944 7.46832 52.028 7.22461 52.1394 6.99234C52.2524 6.75774 52.412 6.54689 52.6091 6.37177C52.8037 6.1882 53.0319 6.04119 53.282 5.93825C53.5252 5.83841 53.7786 5.76396 54.0381 5.71615C54.2912 5.66948 54.5477 5.64248 54.8052 5.63539C55.059 5.62904 55.2972 5.62574 55.52 5.62549C55.7353 5.62574 55.97 5.62917 56.224 5.63577ZM53.2194 9.98892C53.2393 10.1758 53.2724 10.3611 53.3187 10.5436C53.3521 10.6789 53.3992 10.8107 53.4593 10.9371C53.5058 11.0322 53.5635 11.1217 53.6315 11.2038C53.7293 11.333 53.8536 11.4413 53.9967 11.5219C54.1374 11.5998 54.2882 11.6591 54.4451 11.6982C54.6128 11.7399 54.7844 11.7654 54.9573 11.7744C55.1382 11.7847 55.3226 11.7893 55.5089 11.7893C55.6953 11.7893 55.8797 11.7847 56.057 11.7744C56.2298 11.7649 56.4014 11.7394 56.5692 11.6982C56.7281 11.6597 56.8808 11.6004 57.0231 11.5219C57.168 11.4398 57.2954 11.3318 57.3986 11.2038C57.4674 11.1203 57.5253 11.0289 57.5711 10.9318C57.6301 10.8049 57.6771 10.6732 57.7118 10.5382C57.7584 10.3559 57.7916 10.1705 57.8111 9.98358C57.8368 9.73549 57.8489 9.48625 57.8473 9.23692C57.8493 8.97591 57.8372 8.71499 57.8111 8.4552C57.7919 8.26648 57.7587 8.07934 57.7118 7.8952C57.6785 7.76244 57.6294 7.63384 57.5656 7.51196C57.5182 7.42304 57.4623 7.3386 57.3986 7.25977C57.1923 7.00964 56.8999 6.83955 56.5747 6.78054C56.2242 6.71505 55.8679 6.6829 55.5109 6.68454C55.1539 6.68225 54.7975 6.71441 54.4471 6.78054C54.1255 6.84144 53.8369 7.01139 53.6335 7.25977C53.4759 7.47324 53.3641 7.71508 53.3049 7.97101C53.2125 8.38681 53.1722 8.81182 53.1847 9.23692C53.1821 9.48801 53.1937 9.73905 53.2194 9.98892Z" fill="#4D5B68"/>
<path d="M60.3091 6.90741C60.3097 6.75014 60.3235 6.59318 60.3505 6.43808C60.3836 6.26459 60.4755 6.1067 60.6117 5.98932C60.7314 5.87498 60.8813 5.79472 61.0451 5.75732C61.1906 5.72502 61.3394 5.70816 61.4887 5.70703H64.9524C65.0777 5.70703 65.2097 5.71198 65.3492 5.72189C65.4907 5.73268 65.6306 5.75822 65.7664 5.79808C65.9099 5.84038 66.0455 5.90469 66.1679 5.98856C66.3073 6.08686 66.426 6.2101 66.5174 6.3516C66.686 6.57832 66.7943 6.84169 66.8326 7.11846C66.8667 7.37952 66.8841 7.64237 66.8846 7.90551C66.8842 8.17002 66.8686 8.4343 66.8377 8.69713C66.8036 8.97867 66.7133 9.25113 66.5718 9.49941C66.5206 9.59 66.4613 9.67605 66.3945 9.75655C66.3183 9.84644 66.2285 9.92466 66.1281 9.98855C66.0075 10.0647 65.8756 10.1225 65.7369 10.16C65.5602 10.2067 65.3775 10.2288 65.1943 10.2255H64.2554V10.2762L67.0308 12.7676H65.2972L62.8977 10.4777C62.8118 10.3928 62.7349 10.2999 62.668 10.2004C62.5979 10.1078 62.558 9.99722 62.5533 9.88265V9.72113C62.5516 9.65547 62.5648 9.59024 62.592 9.53007C62.6193 9.4699 62.6599 9.41625 62.7109 9.37293C62.8411 9.27399 63.0048 9.22551 63.1699 9.23693H64.549C64.681 9.23525 64.8124 9.21824 64.9402 9.18627C65.0906 9.14713 65.2195 9.0532 65.2999 8.92417C65.3399 8.85808 65.3698 8.78674 65.3886 8.71236C65.413 8.62488 65.4305 8.53573 65.441 8.4457C65.4512 8.35503 65.4582 8.26614 65.4619 8.17903C65.465 8.09179 65.467 8.01751 65.467 7.95694C65.4753 7.73876 65.4506 7.52059 65.3937 7.30932C65.3592 7.18571 65.2949 7.07175 65.2061 6.97675C65.1038 6.87305 64.9673 6.80705 64.82 6.79008C64.6919 6.77433 64.563 6.76581 64.4339 6.76455H62.2015C62.1355 6.76395 62.0695 6.76905 62.0045 6.77979C61.9403 6.79492 61.8823 6.82821 61.8378 6.87541C61.772 6.91989 61.7255 6.9864 61.7074 7.06208C61.6965 7.13052 61.6912 7.19969 61.6916 7.26894V12.7668H60.3146L60.3091 6.90741Z" fill="#4D5B68"/>
<path d="M68.9065 12.7684C68.7837 12.7685 68.6612 12.7557 68.5413 12.7303C68.4267 12.7083 68.3194 12.6598 68.2284 12.5889C68.1603 12.527 68.1021 12.4557 68.0559 12.3771C67.9918 12.2628 67.9613 12.1337 67.9676 12.0038V5.70703H69.3446V11.3261C69.3446 11.3665 69.3446 11.4152 69.3498 11.472C69.3527 11.5025 69.3621 11.5322 69.3773 11.5591C69.3926 11.5861 69.4134 11.6097 69.4384 11.6286C69.4718 11.648 69.5067 11.665 69.5428 11.6792C69.6203 11.7033 69.7016 11.7134 69.7828 11.7093H73.7894V12.7684H68.9065Z" fill="#4D5B68"/>
<path d="M75.3234 12.7683C75.1228 12.7796 74.9219 12.7521 74.7324 12.6876C74.6548 12.6564 74.5799 12.6193 74.5082 12.5767C74.4252 12.5072 74.3562 12.4234 74.3049 12.3295C74.2312 12.1874 74.197 12.0292 74.2056 11.8704V6.83654C74.2059 6.69803 74.218 6.55978 74.2419 6.42321C74.2729 6.26896 74.347 6.12587 74.4562 6.00949C74.5377 5.93725 74.6267 5.87342 74.7218 5.81902C74.8802 5.73695 75.0589 5.69872 75.2383 5.70854H78.0976C78.5386 5.6954 78.977 5.77806 79.3805 5.95045C79.7025 6.09413 79.9931 6.29627 80.2363 6.54587C80.4047 6.72606 80.5437 6.93006 80.6484 7.15083C80.7482 7.36419 80.8235 7.58749 80.873 7.81673C80.9208 8.04274 80.9503 8.272 80.9612 8.50244C80.9812 8.93613 80.9812 9.37047 80.9612 9.80416C80.9498 10.0477 80.9219 10.2902 80.8777 10.5303C80.833 10.779 80.7671 11.0238 80.6807 11.2621C80.5984 11.4914 80.4806 11.7073 80.3312 11.9024C80.2449 12.0068 80.1505 12.1046 80.0487 12.195C79.923 12.306 79.783 12.4009 79.6323 12.4773C79.4473 12.5713 79.2509 12.6425 79.0476 12.6891C78.7981 12.746 78.5423 12.7732 78.2859 12.7699L75.3234 12.7683ZM75.5839 11.2251C75.5839 11.299 75.5839 11.368 75.589 11.432C75.5944 11.4996 75.6262 11.5626 75.678 11.6083C75.7193 11.6583 75.7791 11.6908 75.8447 11.699C75.907 11.7058 75.9696 11.7093 76.0323 11.7093H77.6189C77.9432 11.7183 78.2665 11.6704 78.5732 11.568C78.8343 11.4687 79.0532 11.2874 79.1949 11.0533C79.3129 10.8503 79.3974 10.6308 79.4455 10.4026C79.5358 9.95931 79.5744 9.5076 79.5605 9.05597C79.5605 8.90816 79.5552 8.75349 79.5444 8.59197C79.5345 8.43255 79.5118 8.27411 79.4766 8.11806C79.4416 7.96314 79.3887 7.81249 79.319 7.66892C79.2507 7.52637 79.1592 7.39531 79.0479 7.28073C78.947 7.17539 78.829 7.08673 78.6985 7.01825C78.571 6.95169 78.4362 6.89929 78.2966 6.86206C78.1601 6.82549 78.0206 6.8 77.8797 6.78587C77.7479 6.77285 77.6155 6.76612 77.483 6.76568H76.0535C76.0118 6.76568 75.9598 6.76949 75.8959 6.77559C75.8358 6.78148 75.7782 6.80235 75.7289 6.83616C75.6825 6.87618 75.6467 6.92634 75.6245 6.98244C75.5964 7.04814 75.5822 7.1186 75.5827 7.18968L75.5839 11.2251Z" fill="#4D5B68"/>
<path d="M88.7038 5.63577C88.963 5.64306 89.2212 5.67006 89.476 5.71654C89.7374 5.76395 89.9927 5.83841 90.2376 5.93863C90.4877 6.04176 90.7158 6.18874 90.9106 6.37215C91.0989 6.54823 91.2511 6.7571 91.3593 6.98777C91.4705 7.22409 91.5562 7.47085 91.6151 7.72415C91.6737 7.97957 91.7102 8.23926 91.7242 8.50054C91.7384 8.76339 91.7455 9.00898 91.7455 9.2373C91.7455 9.47273 91.7367 9.71984 91.7191 9.97863C91.7016 10.2381 91.665 10.496 91.6095 10.7504C91.5543 11.004 91.4704 11.251 91.3593 11.4868C91.2513 11.7175 91.0991 11.9263 90.9106 12.1021C90.7161 12.2858 90.4879 12.433 90.2376 12.536C89.9927 12.6362 89.7374 12.7106 89.476 12.7581C89.2195 12.8046 88.9596 12.8315 88.6986 12.8384C88.441 12.8453 88.2078 12.8487 87.9993 12.8487C87.7839 12.8487 87.5493 12.8453 87.2956 12.8384C87.0364 12.8313 86.7782 12.8044 86.5234 12.7581C86.2619 12.7108 86.0066 12.6363 85.7618 12.536C85.2478 12.3213 84.8349 11.9294 84.6034 11.4365C84.4901 11.1927 84.4062 10.937 84.3532 10.6746C84.3019 10.4233 84.2704 10.1686 84.259 9.91273C84.2488 9.66434 84.2437 9.43907 84.2437 9.23692C84.2437 8.99463 84.2506 8.74409 84.2645 8.4853C84.278 8.22753 84.3128 7.97122 84.3686 7.71882C84.4235 7.46831 84.5076 7.2246 84.6191 6.99234C84.7321 6.75775 84.8917 6.5469 85.0888 6.37177C85.2833 6.18811 85.5115 6.0411 85.7618 5.93825C86.0049 5.83841 86.2584 5.76396 86.5178 5.71615C86.7709 5.66948 87.0274 5.64248 87.285 5.63539C87.5387 5.62904 87.7768 5.62574 87.9993 5.62549C88.2149 5.62574 88.4498 5.62917 88.7038 5.63577ZM85.6991 9.98892C85.7187 10.1758 85.7517 10.3611 85.798 10.5436C85.8314 10.679 85.8786 10.8108 85.9391 10.9371C85.9853 11.0323 86.0431 11.1218 86.1112 11.2038C86.2089 11.3331 86.3333 11.4414 86.4765 11.5219C86.6171 11.5998 86.7679 11.6592 86.9248 11.6982C87.0926 11.7399 87.2641 11.7654 87.4371 11.7744C87.6175 11.7847 87.8023 11.7893 87.9887 11.7893C88.175 11.7893 88.359 11.7847 88.5367 11.7744C88.7096 11.7649 88.8811 11.7394 89.0489 11.6982C89.2078 11.6597 89.3605 11.6004 89.5028 11.5219C89.6476 11.4396 89.7751 11.3317 89.8787 11.2038C89.9472 11.1202 90.0049 11.0289 90.0505 10.9318C90.1097 10.805 90.1569 10.6733 90.1915 10.5382C90.238 10.3559 90.271 10.1705 90.2904 9.98358C90.3165 9.73551 90.3288 9.48626 90.3271 9.23692C90.3291 8.9759 90.3169 8.71497 90.2904 8.4552C90.2713 8.26649 90.2383 8.07935 90.1915 7.8952C90.1582 7.76244 90.1092 7.63384 90.0454 7.51196C89.9976 7.4233 89.9418 7.3389 89.8787 7.25977C89.6721 7.00967 89.3794 6.8396 89.054 6.78054C88.7035 6.71503 88.3472 6.68287 87.9902 6.68454C87.6332 6.68224 87.2768 6.71439 86.9264 6.78054C86.6048 6.84134 86.3162 7.01131 86.1128 7.25977C85.9551 7.47321 85.8432 7.71506 85.7838 7.97101C85.6924 8.38692 85.6527 8.8119 85.6656 9.23692C85.6626 9.48799 85.6738 9.73903 85.6991 9.98892Z" fill="#4D5B68"/>
<path d="M92.7876 12.7684V6.63508C92.7881 6.51725 92.8056 6.40006 92.8396 6.28689C92.8804 6.16031 92.9563 6.04698 93.0591 5.95927C93.1663 5.8546 93.3017 5.78109 93.4499 5.74708C93.5788 5.72195 93.71 5.70919 93.8416 5.70898H98.5987V6.76803H94.509C94.4605 6.76803 94.4152 6.76994 94.3735 6.77337C94.323 6.78205 94.2781 6.80938 94.2482 6.84956C94.2086 6.8856 94.1829 6.93355 94.1753 6.98556C94.1683 7.03416 94.1648 7.08316 94.1646 7.13222V8.66517H97.3994V9.7246H94.1666V12.7722L92.7876 12.7684Z" fill="#4D5B68"/>
<path d="M108.251 12.7684H106.872V9.66132H103.074V12.7684H101.697V5.70703H103.074V8.60227H106.872V5.70703H108.251V12.7684Z" fill="#4D5B68"/>
<path d="M111.318 6.42291C111.409 6.1808 111.566 5.96669 111.772 5.80272C112 5.68663 112.254 5.62598 112.513 5.62598C112.771 5.62598 113.025 5.68663 113.254 5.80272C113.465 5.96389 113.625 6.1786 113.718 6.42291L116.472 12.7681H115.022L114.271 10.9825H110.754L110.014 12.7681H108.564L111.318 6.42291ZM111.109 10.0343H113.915L112.726 7.15929C112.705 7.10558 112.678 7.04501 112.643 6.97263C112.608 6.90024 112.564 6.86634 112.518 6.86634C112.471 6.86634 112.427 6.90177 112.392 6.97263C112.358 7.04348 112.33 7.10558 112.309 7.15929L111.109 10.0343Z" fill="#4D5B68"/>
<path d="M123.776 11.8503C123.79 11.9934 123.769 12.1377 123.713 12.2711C123.658 12.4045 123.57 12.523 123.457 12.6168C123.236 12.7744 122.966 12.8561 122.691 12.8488C122.473 12.8497 122.257 12.8121 122.054 12.738C121.823 12.6386 121.632 12.4685 121.511 12.2538L118.433 7.55283C118.398 7.50355 118.36 7.45636 118.319 7.41149C118.306 7.39558 118.288 7.38486 118.267 7.3814C118.231 7.38488 118.198 7.40086 118.173 7.42635C118.154 7.4475 118.139 7.47235 118.13 7.49931C118.121 7.52626 118.118 7.55474 118.121 7.58292V12.7681H116.785V6.58445C116.778 6.45275 116.8 6.32106 116.852 6.19887C116.903 6.07667 116.982 5.96701 117.082 5.87778C117.314 5.69917 117.606 5.6095 117.902 5.62597C118.163 5.61082 118.423 5.66664 118.653 5.78711C118.818 5.88645 118.957 6.02109 119.06 6.18064L122.159 10.9121C122.187 10.9458 122.209 10.9831 122.227 11.0229C122.234 11.0421 122.248 11.0583 122.265 11.0693C122.283 11.0802 122.304 11.0852 122.325 11.0835C122.347 11.0867 122.37 11.0818 122.388 11.0696C122.407 11.0574 122.42 11.039 122.425 11.018C122.434 10.9833 122.439 10.9478 122.44 10.9121V5.70673H123.776V11.8503Z" fill="#4D5B68"/>
<path d="M126.144 12.7683C125.944 12.7796 125.743 12.7522 125.553 12.6876C125.476 12.6564 125.401 12.6193 125.329 12.5767C125.246 12.5072 125.177 12.4233 125.125 12.3295C125.052 12.1873 125.018 12.0291 125.026 11.8704V6.83654C125.027 6.69803 125.039 6.55978 125.063 6.42321C125.094 6.26904 125.168 6.12599 125.277 6.00949C125.358 5.93727 125.447 5.87344 125.543 5.81902C125.701 5.73695 125.88 5.69872 126.059 5.70854H128.918C129.359 5.69537 129.798 5.77803 130.201 5.95045C130.523 6.09412 130.814 6.29626 131.057 6.54587C131.225 6.72626 131.364 6.93022 131.469 7.15083C131.569 7.36413 131.644 7.58745 131.693 7.81673C131.741 8.0427 131.771 8.27198 131.782 8.50244C131.793 8.73102 131.798 8.94968 131.797 9.15844C131.797 9.35349 131.793 9.56873 131.782 9.80416C131.77 10.0477 131.742 10.2902 131.698 10.5303C131.654 10.779 131.588 11.0237 131.501 11.2621C131.42 11.4915 131.302 11.7075 131.152 11.9024C131.066 12.0067 130.971 12.1045 130.87 12.195C130.744 12.306 130.604 12.4009 130.453 12.4773C130.268 12.5714 130.072 12.6425 129.868 12.6891C129.619 12.746 129.363 12.7732 129.107 12.7699L126.144 12.7683ZM126.405 11.2251C126.405 11.299 126.405 11.368 126.41 11.432C126.416 11.4996 126.447 11.5626 126.499 11.6083C126.541 11.6583 126.6 11.6908 126.666 11.699C126.728 11.7058 126.791 11.7093 126.853 11.7093H128.44C128.764 11.7183 129.088 11.6704 129.394 11.568C129.655 11.4684 129.873 11.2872 130.015 11.0533C130.133 10.8504 130.218 10.6308 130.265 10.4026C130.356 9.95929 130.394 9.50759 130.38 9.05597C130.38 8.90816 130.375 8.75349 130.364 8.59197C130.354 8.43256 130.332 8.27414 130.297 8.11806C130.262 7.96314 130.209 7.81248 130.139 7.66892C130.071 7.52627 129.979 7.3952 129.868 7.28073C129.767 7.1753 129.649 7.08663 129.518 7.01825C129.391 6.95163 129.256 6.89923 129.117 6.86206C128.98 6.82549 128.84 6.8 128.699 6.78587C128.568 6.77283 128.435 6.7661 128.303 6.76568H126.874C126.832 6.76568 126.779 6.76949 126.716 6.77559C126.656 6.78148 126.598 6.80235 126.549 6.83616C126.503 6.87618 126.467 6.92634 126.444 6.98244C126.416 7.0481 126.402 7.11859 126.403 7.18968L126.405 11.2251Z" fill="#4D5B68"/>
<path d="M137.391 12.7684V6.76608H134.543V5.70703H141.627V6.76608H138.768V12.7684H137.391Z" fill="#4D5B68"/>
<path d="M146.4 5.63577C146.659 5.64304 146.917 5.67004 147.172 5.71654C147.434 5.76389 147.689 5.83835 147.934 5.93863C148.184 6.04167 148.412 6.18866 148.607 6.37215C148.795 6.54803 148.948 6.75694 149.056 6.98777C149.167 7.22402 149.253 7.4708 149.311 7.72415C149.37 7.97953 149.407 8.23923 149.421 8.50054C149.435 8.76339 149.442 9.00898 149.442 9.2373C149.442 9.47273 149.433 9.71984 149.415 9.97863C149.398 10.2381 149.361 10.496 149.306 10.7504C149.251 11.0041 149.167 11.2511 149.056 11.4868C148.948 11.7176 148.796 11.9265 148.607 12.1021C148.412 12.2859 148.184 12.4331 147.934 12.536C147.689 12.6362 147.434 12.7107 147.172 12.7581C146.916 12.8046 146.656 12.8315 146.395 12.8384C146.137 12.8453 145.904 12.8487 145.696 12.8487C145.461 12.8485 145.227 12.845 144.992 12.8384C144.733 12.8313 144.474 12.8044 144.22 12.7581C143.958 12.7108 143.703 12.6363 143.458 12.536C142.944 12.3214 142.531 11.9294 142.3 11.4365C142.187 11.1926 142.103 10.937 142.049 10.6746C141.998 10.4234 141.967 10.1686 141.956 9.91273C141.945 9.66434 141.94 9.43907 141.94 9.23692C141.94 8.99463 141.947 8.74409 141.961 8.4853C141.974 8.22752 142.009 7.97121 142.065 7.71882C142.12 7.46828 142.204 7.22455 142.315 6.99234C142.428 6.75775 142.588 6.54691 142.785 6.37177C142.98 6.1882 143.208 6.04119 143.458 5.93825C143.701 5.83841 143.955 5.76396 144.214 5.71615C144.467 5.66952 144.724 5.64252 144.981 5.63539C145.235 5.62904 145.473 5.62574 145.696 5.62549C145.91 5.62574 146.145 5.62917 146.4 5.63577ZM143.395 9.98892C143.415 10.1758 143.448 10.3611 143.494 10.5436C143.528 10.6789 143.575 10.8106 143.635 10.9371C143.682 11.0323 143.739 11.1218 143.808 11.2038C143.905 11.333 144.03 11.4413 144.173 11.5219C144.314 11.5998 144.464 11.6592 144.622 11.6982C144.789 11.7399 144.961 11.7654 145.134 11.7744C145.315 11.7847 145.499 11.7893 145.685 11.7893C145.872 11.7893 146.056 11.7847 146.233 11.7744C146.406 11.7648 146.578 11.7393 146.746 11.6982C146.904 11.6597 147.057 11.6003 147.199 11.5219C147.344 11.4397 147.472 11.3318 147.575 11.2038C147.644 11.1202 147.701 11.0289 147.747 10.9318C147.806 10.8049 147.853 10.6732 147.888 10.5382C147.934 10.3559 147.968 10.1705 147.987 9.98358C148.013 9.73549 148.025 9.48625 148.023 9.23692C148.025 8.97591 148.013 8.71499 147.987 8.4552C147.968 8.26648 147.935 8.07934 147.888 7.8952C147.855 7.76244 147.805 7.63384 147.742 7.51196C147.694 7.42322 147.638 7.33881 147.575 7.25977C147.369 7.00948 147.076 6.83938 146.75 6.78054C146.4 6.71503 146.044 6.68287 145.687 6.68454C145.33 6.68219 144.973 6.71435 144.623 6.78054C144.301 6.84122 144.012 7.01121 143.809 7.25977C143.651 7.4733 143.539 7.71511 143.48 7.97101C143.388 8.38692 143.349 8.8119 143.362 9.23692C143.359 9.48799 143.37 9.73903 143.395 9.98892Z" fill="#4D5B68"/>
<path d="M154.737 5.63577C154.996 5.64306 155.255 5.67006 155.509 5.71654C155.771 5.76395 156.026 5.83841 156.271 5.93863C156.521 6.04176 156.749 6.18874 156.944 6.37215C157.132 6.54823 157.285 6.75709 157.393 6.98777C157.504 7.22403 157.59 7.47081 157.648 7.72415C157.707 7.97953 157.744 8.23923 157.758 8.50054C157.772 8.76339 157.779 9.00898 157.779 9.2373C157.779 9.47273 157.77 9.71984 157.753 9.97863C157.735 10.2381 157.698 10.496 157.643 10.7504C157.588 11.004 157.504 11.251 157.393 11.4868C157.285 11.7175 157.133 11.9263 156.944 12.1021C156.75 12.2858 156.521 12.433 156.271 12.536C156.026 12.6362 155.771 12.7106 155.509 12.7581C155.253 12.8046 154.993 12.8315 154.732 12.8384C154.474 12.8453 154.241 12.8487 154.033 12.8487C153.817 12.8487 153.583 12.8453 153.329 12.8384C153.07 12.8313 152.812 12.8045 152.557 12.7581C152.295 12.7108 152.04 12.6363 151.795 12.536C151.281 12.3214 150.868 11.9294 150.637 11.4365C150.524 11.1927 150.44 10.937 150.387 10.6746C150.335 10.4233 150.304 10.1686 150.292 9.91273C150.282 9.66434 150.277 9.43907 150.277 9.23692C150.277 8.99463 150.284 8.74409 150.298 8.4853C150.311 8.22753 150.346 7.97122 150.402 7.71882C150.457 7.46831 150.541 7.22461 150.653 6.99234C150.766 6.75775 150.925 6.54691 151.122 6.37177C151.317 6.18811 151.545 6.0411 151.795 5.93825C152.038 5.83841 152.292 5.76396 152.551 5.71615C152.804 5.66948 153.061 5.64248 153.318 5.63539C153.572 5.62904 153.81 5.62574 154.033 5.62549C154.248 5.62574 154.483 5.62917 154.737 5.63577ZM151.731 9.98892C151.751 10.1758 151.784 10.3611 151.83 10.5436C151.863 10.679 151.911 10.8108 151.971 10.9371C152.017 11.0323 152.075 11.1218 152.143 11.2038C152.241 11.3331 152.365 11.4414 152.508 11.5219C152.649 11.5998 152.8 11.6592 152.957 11.6982C153.124 11.7399 153.296 11.7654 153.469 11.7744C153.649 11.7847 153.834 11.7893 154.021 11.7893C154.207 11.7893 154.391 11.7847 154.569 11.7744C154.741 11.7649 154.913 11.7394 155.081 11.6982C155.24 11.6597 155.392 11.6004 155.535 11.5219C155.775 11.3834 155.966 11.1776 156.082 10.9318C156.142 10.805 156.189 10.6733 156.223 10.5382C156.27 10.3558 156.303 10.1705 156.322 9.98358C156.348 9.73551 156.361 9.48626 156.359 9.23692C156.361 8.9759 156.349 8.71497 156.322 8.4552C156.303 8.26649 156.27 8.07935 156.223 7.8952C156.19 7.76244 156.141 7.63385 156.077 7.51196C156.03 7.4232 155.974 7.33879 155.91 7.25977C155.704 7.00956 155.411 6.83946 155.086 6.78054C154.735 6.71503 154.379 6.68287 154.022 6.68454C153.665 6.68223 153.309 6.71439 152.958 6.78054C152.637 6.84134 152.348 7.01131 152.145 7.25977C151.987 7.47321 151.875 7.71505 151.816 7.97101C151.724 8.38692 151.685 8.8119 151.697 9.23692C151.694 9.48799 151.706 9.73903 151.731 9.98892Z" fill="#4D5B68"/>
<path d="M159.761 12.7684C159.638 12.7685 159.516 12.7557 159.396 12.7303C159.281 12.7085 159.172 12.66 159.081 12.5889C159.013 12.5269 158.955 12.4556 158.909 12.3771C158.844 12.2628 158.814 12.1337 158.82 12.0038V5.70703H160.197V11.3261C160.197 11.3665 160.199 11.4152 160.202 11.472C160.205 11.5026 160.215 11.5322 160.23 11.5591C160.245 11.5861 160.266 11.6097 160.291 11.6286C160.324 11.648 160.359 11.665 160.395 11.6792C160.473 11.7033 160.554 11.7134 160.635 11.7093H164.642V12.7684H159.761Z" fill="#4D5B68"/>
<path d="M164.842 11.7093H168.89C169.025 11.717 169.158 11.6872 169.276 11.6235C169.361 11.5721 169.431 11.501 169.48 11.4167C169.524 11.3386 169.552 11.253 169.563 11.1645C169.573 11.0908 169.578 11.0167 169.579 10.9424C169.578 10.8713 169.571 10.8004 169.558 10.7306C169.542 10.6529 169.51 10.5792 169.464 10.5138C169.406 10.4344 169.333 10.366 169.25 10.3119C169.133 10.2378 169.004 10.1816 168.869 10.1454L165.989 9.26926C165.942 9.25663 165.895 9.24149 165.848 9.22392C165.771 9.1956 165.696 9.16186 165.624 9.12297C165.534 9.07556 165.447 9.02342 165.363 8.96678C165.272 8.9054 165.191 8.83045 165.123 8.74469C165.041 8.65153 164.974 8.54604 164.926 8.43231C164.878 8.31953 164.84 8.20306 164.811 8.08411C164.784 7.96962 164.767 7.85316 164.759 7.73592C164.752 7.62164 164.749 7.51408 164.749 7.41326C164.75 7.18594 164.777 6.95942 164.828 6.73745C164.886 6.49128 165.023 6.26899 165.219 6.10164C165.384 5.93904 165.594 5.8254 165.824 5.77402C166.019 5.73245 166.219 5.71049 166.419 5.7085H170.623V6.76754H166.888C166.789 6.76785 166.689 6.77639 166.591 6.79307C166.487 6.81124 166.392 6.85839 166.315 6.92869C166.229 7.00196 166.172 7.10186 166.153 7.21135C166.138 7.29811 166.129 7.38584 166.127 7.47383C166.118 7.66436 166.182 7.85142 166.308 7.99869C166.433 8.14596 166.611 8.24293 166.806 8.27078L169.476 9.08754C169.689 9.15014 169.897 9.22781 170.097 9.31992C170.251 9.38993 170.394 9.48173 170.52 9.5923C170.628 9.68836 170.716 9.80294 170.781 9.93021C170.841 10.0494 170.889 10.1746 170.922 10.3035C170.952 10.4212 170.973 10.5409 170.984 10.6616C170.995 10.7759 171 10.8734 171 10.9542C170.999 11.1828 170.977 11.4108 170.932 11.6354C170.888 11.8657 170.785 12.082 170.634 12.2654C170.489 12.4698 170.276 12.6195 170.03 12.6891C169.801 12.7437 169.566 12.7709 169.331 12.7698H164.842V11.7093Z" fill="#4D5B68"/>
<path d="M40.5898 21.8746C40.5917 21.4764 40.6269 21.0789 40.695 20.6861C40.7786 20.2466 41.0112 19.8466 41.3562 19.5493C41.6591 19.2598 42.0384 19.0564 42.4527 18.9611C42.8213 18.8792 43.1981 18.8364 43.5764 18.8335H52.3512C52.6688 18.8335 53.0029 18.8468 53.3559 18.8716C53.7143 18.8975 54.0687 18.9614 54.4127 19.0621C54.7766 19.1704 55.1201 19.3344 55.4304 19.5478C55.7835 19.7971 56.0842 20.1094 56.3161 20.4678C56.7409 21.0429 57.0131 21.71 57.1088 22.4106C57.1954 23.0721 57.2395 23.7382 57.2408 24.4049C57.2399 25.075 57.2004 25.7444 57.1226 26.4103C57.0359 27.1232 56.8071 27.8131 56.4489 28.4419C56.3196 28.6717 56.1692 28.8898 55.9997 29.0937C55.8069 29.3212 55.5796 29.5192 55.3256 29.6811C55.0203 29.8746 54.6859 30.0212 54.3343 30.1158C53.8867 30.2344 53.4239 30.2905 52.96 30.2823H50.5814V30.4103L57.6112 36.7238H53.2236L47.1445 30.9223C46.9272 30.7072 46.7324 30.4719 46.5629 30.2198C46.3853 29.9854 46.2841 29.7051 46.2722 29.4148V29.0064C46.2674 28.8403 46.3004 28.6752 46.369 28.5228C46.4376 28.3704 46.54 28.2344 46.6689 28.1245C46.9985 27.8735 47.4131 27.7504 47.8316 27.7794H51.3205C51.6549 27.775 51.9876 27.732 52.3114 27.6514C52.6928 27.5522 53.0197 27.3141 53.2236 26.987C53.3249 26.8197 53.4006 26.639 53.4481 26.4506C53.5101 26.2285 53.5544 26.002 53.5805 25.7733C53.6068 25.5432 53.6244 25.3176 53.6333 25.0964C53.642 24.875 53.6463 24.6872 53.6463 24.5341C53.6668 23.9831 53.6044 23.4322 53.4611 22.8986C53.3735 22.5853 53.2105 22.2965 52.9856 22.0556C52.7264 21.7929 52.3811 21.6252 52.0085 21.5809C51.6841 21.5412 51.3575 21.5198 51.0305 21.5169H45.3738C45.2055 21.515 45.0374 21.5277 44.8715 21.555C44.7085 21.5931 44.5612 21.6778 44.4487 21.7981C44.2819 21.9107 44.1641 22.0792 44.1181 22.2708C44.091 22.444 44.0778 22.6191 44.0787 22.7943V36.7238H40.5902L40.5898 21.8746Z" fill="#4D5B68"/>
<path d="M70.7599 18.6548C71.4165 18.6734 72.0706 18.7418 72.7162 18.8594C73.3787 18.9794 74.0259 19.1679 74.6468 19.4217C75.2802 19.6831 75.8582 20.0554 76.3516 20.52C76.8287 20.9659 77.2143 21.4951 77.4879 22.0796C77.7704 22.6783 77.9874 23.3039 78.1353 23.9463C78.2842 24.5933 78.3765 25.2514 78.4111 25.9135C78.4465 26.5786 78.4641 27.2009 78.4639 27.7802C78.4639 28.3767 78.4418 29.0029 78.3977 29.6586C78.354 30.3158 78.2618 30.9692 78.1219 31.6137C77.9824 32.2567 77.7697 32.8827 77.4875 33.4804C77.2143 34.0647 76.8287 34.5936 76.3512 35.0388C75.8583 35.5042 75.2802 35.8769 74.6464 36.1379C74.0257 36.3923 73.3784 36.581 72.7158 36.7005C72.0656 36.8182 71.4069 36.8864 70.7457 36.9044C70.0938 36.9219 69.5036 36.9305 68.9751 36.9303C68.4287 36.9303 67.8339 36.9216 67.1906 36.9044C66.5343 36.8859 65.8805 36.8178 65.2352 36.7005C64.5725 36.581 63.9252 36.3923 63.3046 36.1379C62.0025 35.5944 60.9567 34.6013 60.3712 33.3524C60.0842 32.7348 59.8712 32.0876 59.7365 31.4232C59.6069 30.7868 59.5279 30.1418 59.5001 29.4937C59.4738 28.8636 59.4607 28.2928 59.4607 27.7813C59.4607 27.1677 59.4783 26.5328 59.5135 25.8765C59.548 25.2232 59.6364 24.5735 59.7779 23.9337C59.9174 23.2991 60.1302 22.6816 60.4122 22.0929C60.699 21.4991 61.1031 20.9651 61.6017 20.5211C62.0947 20.0563 62.6727 19.6839 63.3062 19.4228C63.9224 19.1703 64.5647 18.9818 65.2222 18.8606C65.8631 18.7424 66.5128 18.674 67.165 18.656C67.808 18.6392 68.4122 18.6307 68.9774 18.6305C69.5225 18.6294 70.1166 18.6376 70.7599 18.6548ZM63.1482 29.6819C63.1983 30.1555 63.2822 30.6252 63.3992 31.0876C63.4842 31.4304 63.6037 31.7643 63.7561 32.0845C63.8736 32.3262 64.02 32.5536 64.1923 32.7623C64.4401 33.0894 64.755 33.3635 65.1174 33.5676C65.4738 33.7651 65.856 33.9154 66.2537 34.0145C66.6778 34.1193 67.1116 34.1831 67.5488 34.2049C68.0066 34.2303 68.4735 34.243 68.9495 34.243C69.4254 34.243 69.888 34.2303 70.3372 34.2049C70.7742 34.1817 71.2079 34.118 71.6322 34.0145C72.0347 33.9168 72.4216 33.7665 72.7819 33.5676C73.1489 33.3597 73.4718 33.0864 73.7335 32.7623C73.9078 32.5505 74.0544 32.3188 74.17 32.0724C74.3188 31.7512 74.4375 31.4178 74.5246 31.0762C74.643 30.614 74.727 30.1442 74.776 29.6705C74.8415 29.042 74.8723 28.4106 74.8682 27.779C74.8732 27.1176 74.8424 26.4564 74.776 25.7981C74.7277 25.3199 74.6437 24.8458 74.5246 24.3794C74.4401 24.0431 74.316 23.7173 74.1547 23.4084C74.0339 23.1835 73.8922 22.9697 73.7315 22.7695C73.2087 22.1356 72.4675 21.7047 71.6433 21.5554C70.7549 21.3896 69.8519 21.3081 68.9471 21.3124C68.0424 21.3065 67.1393 21.388 66.2513 21.5554C65.4365 21.7096 64.7054 22.1401 64.1899 22.7695C63.7908 23.3102 63.5077 23.9228 63.3574 24.571C63.1237 25.6245 63.0216 26.7013 63.0532 27.7783C63.0488 28.414 63.0805 29.0495 63.1482 29.6819Z" fill="#4D5B68"/>
<path d="M95.2748 34.781C95.1338 35.1216 94.9973 35.4238 94.8655 35.6877C94.743 35.9385 94.5777 36.1676 94.3765 36.3654C94.1753 36.5572 93.931 36.7014 93.6626 36.7867C93.3293 36.8881 92.9811 36.9357 92.6319 36.9277C92.2576 36.9389 91.8847 36.8781 91.535 36.7486C91.2614 36.6413 91.0138 36.4802 90.808 36.2755C90.6117 36.0771 90.451 35.8484 90.3325 35.5989C90.2091 35.3429 90.0961 35.0713 89.9889 34.781L85.2577 22.8458C85.2089 22.7164 85.1469 22.5921 85.0725 22.4747C84.9843 22.3305 84.8961 22.2582 84.8081 22.258C84.6671 22.258 84.5834 22.339 84.5572 22.501C84.5308 22.6629 84.5178 22.7612 84.5178 22.7943L84.5966 36.7223H81.1077V20.9803C81.076 20.5025 81.2161 20.0288 81.504 19.6393C81.7449 19.3422 82.0521 19.1017 82.4027 18.9357C82.7137 18.7896 83.0494 18.6992 83.3937 18.669C83.7199 18.6439 83.9532 18.6309 84.0946 18.6309C84.5465 18.6205 84.9971 18.6808 85.4291 18.8096C85.7614 18.9135 86.0675 19.0835 86.3278 19.3086C86.5666 19.5225 86.7674 19.7728 86.9224 20.0496C87.0827 20.3344 87.2241 20.6288 87.3455 20.9311L92.1291 32.8656C92.2036 33.0277 92.2875 33.1855 92.3805 33.3383C92.4593 33.4656 92.5432 33.5288 92.6315 33.5288C92.7197 33.5288 92.8033 33.4644 92.8828 33.3383C92.9753 33.1853 93.0589 33.0275 93.1334 32.8656L97.9178 20.9311C98.0696 20.4976 98.2878 20.0886 98.5652 19.7178C98.7777 19.442 99.0422 19.2077 99.3449 19.0271C99.6133 18.8705 99.9089 18.7623 100.217 18.7079C100.531 18.6555 100.85 18.63 101.169 18.6317C101.925 18.6029 102.672 18.799 103.31 19.1936C103.597 19.3975 103.825 19.6691 103.973 19.9825C104.121 20.2959 104.184 20.6407 104.155 20.9841V36.7239H100.668L100.774 22.7959C100.774 22.5582 100.734 22.4092 100.655 22.349C100.601 22.3002 100.532 22.2689 100.458 22.2595C100.37 22.2595 100.282 22.3317 100.194 22.4763C100.119 22.5936 100.057 22.7179 100.009 22.8473L95.2748 34.781Z" fill="#4D5B68"/>
<path d="M111.926 20.6479C112.158 20.0344 112.554 19.4918 113.075 19.076C113.654 18.782 114.298 18.6284 114.952 18.6284C115.606 18.6284 116.25 18.782 116.829 19.076C117.364 19.4846 117.77 20.0288 118.004 20.6479L124.983 36.724H121.309L119.406 32.201H110.499L108.622 36.724H104.948L111.926 20.6479ZM111.397 29.796H118.507L115.494 22.5145C115.441 22.3785 115.371 22.22 115.283 22.0418C115.195 21.8635 115.088 21.7728 114.965 21.7728C114.842 21.7728 114.736 21.8623 114.65 22.0418C114.564 22.2212 114.492 22.3785 114.438 22.5145L111.397 29.796Z" fill="#4D5B68"/>
<path d="M143.485 34.3974C143.485 35.3002 143.216 35.9479 142.678 36.3402C142.116 36.7397 141.433 36.9466 140.736 36.9281C140.185 36.9304 139.638 36.8351 139.123 36.6469C138.538 36.3953 138.054 35.964 137.748 35.4199L129.951 23.5113C129.862 23.3867 129.765 23.2674 129.661 23.154C129.629 23.1136 129.581 23.0864 129.529 23.0778C129.439 23.0868 129.354 23.1274 129.293 23.1921C129.243 23.2455 129.206 23.3084 129.183 23.3766C129.16 23.4448 129.153 23.5169 129.16 23.5882V36.7239H125.777V21.0568C125.758 20.7231 125.815 20.3894 125.946 20.0797C126.076 19.7701 126.276 19.4923 126.53 19.2663C127.116 18.8142 127.854 18.5872 128.603 18.6286C129.264 18.5906 129.923 18.7321 130.506 19.0374C130.924 19.2891 131.276 19.6302 131.536 20.0343L139.387 32.0195C139.457 32.1053 139.515 32.2 139.558 32.301C139.577 32.3493 139.612 32.3903 139.657 32.4178C139.703 32.4452 139.756 32.4578 139.809 32.4534C139.865 32.4618 139.922 32.4493 139.969 32.4184C140.016 32.3874 140.048 32.3404 140.06 32.2869C140.084 32.1997 140.097 32.1103 140.1 32.0202V18.8336H143.483L143.485 34.3974Z" fill="#4D5B68"/>
<path d="M146.656 36.7238V18.8335H150.145V36.7238H146.656Z" fill="#4D5B68"/>
<path d="M157.916 20.6479C158.148 20.0343 158.545 19.4917 159.066 19.076C159.645 18.782 160.289 18.6284 160.943 18.6284C161.597 18.6284 162.241 18.782 162.819 19.076C163.354 19.4847 163.761 20.0288 163.995 20.6479L170.972 36.724H167.298L165.395 32.201H156.488L154.612 36.724H150.938L157.916 20.6479ZM157.388 29.796H164.496L161.483 22.5145C161.431 22.3785 161.36 22.22 161.272 22.0418C161.184 21.8635 161.078 21.7728 160.957 21.7728C160.836 21.7728 160.727 21.8623 160.639 22.0418C160.552 22.2212 160.482 22.3785 160.428 22.5145L157.388 29.796Z" fill="#4D5B68"/>
</svg>
