<svg width="14" height="16" viewBox="0 0 14 16" fill="none" xmlns="http://www.w3.org/2000/svg">
<path d="M6.7079 0.5H7.29684C7.32437 0.50571 7.3522 0.509967 7.38022 0.51275C7.95009 0.542768 8.51315 0.647317 9.05404 0.82355C11.6497 1.6625 13.4063 3.98975 13.4574 6.6617C13.4729 7.4837 13.3037 8.2745 13.006 9.04145C12.6442 9.9728 12.1226 10.8167 11.5001 11.6042C10.383 13.0195 9.04536 14.2142 7.56093 15.2588C7.4171 15.3601 7.27421 15.463 7.0949 15.5H6.90892C6.79376 15.4469 6.66838 15.4078 6.56532 15.3379C6.28635 15.1486 6.01187 14.9527 5.74514 14.7479C4.53286 13.817 3.42581 12.7829 2.48925 11.5866C1.86466 10.7884 1.33849 9.93545 0.978619 8.99255C0.528237 7.8131 0.407195 6.60665 0.704299 5.37755C1.13205 3.60755 2.16688 2.25965 3.78212 1.3349C4.54681 0.89705 5.37845 0.63905 6.26186 0.54365C6.41049 0.52745 6.55927 0.515 6.7079 0.5ZM6.99385 14.1121C7.01818 14.096 7.02918 14.0894 7.03941 14.0821C8.1897 13.2458 9.24467 12.3112 10.16 11.234C10.8024 10.4782 11.3534 9.6671 11.7373 8.75585C12.1452 7.78565 12.2816 6.78845 12.068 5.7542C11.5952 3.46595 9.50551 1.7834 7.08699 1.74995C6.05914 1.7357 5.10087 1.9838 4.23885 2.5277C2.844 3.40775 2.0477 4.65635 1.8611 6.25925C1.77446 7.0037 1.89023 7.72925 2.14348 8.43425C2.45654 9.3068 2.93839 10.0892 3.51028 10.8225C4.27342 11.8012 5.16427 12.661 6.13493 13.4449C6.41607 13.672 6.70604 13.889 6.99385 14.1121Z" fill="#4D5B68"/>
<path d="M9.58548 6.75139C9.58548 8.13139 8.42791 9.24874 7.00098 9.24769C5.57404 9.24664 4.41802 8.12824 4.41942 6.74854C4.42066 5.36314 5.5804 4.24894 7.01927 4.25089C8.43086 4.25284 9.58625 5.37859 9.58548 6.75139ZM8.29339 6.75289C8.29425 6.42153 8.15933 6.10335 7.91819 5.86812C7.67706 5.63288 7.34939 5.49978 7.00702 5.49799C6.29673 5.49409 5.71539 6.05299 5.71105 6.74299C5.70671 7.43299 6.28278 7.99774 6.99338 7.99999C7.1635 8.00128 7.33221 7.96998 7.48979 7.9079C7.64736 7.84582 7.79069 7.75419 7.91152 7.63827C8.03235 7.52236 8.1283 7.38445 8.19384 7.2325C8.25937 7.08055 8.29321 6.91755 8.29339 6.75289Z" fill="#4D5B68"/>
</svg>
