<svg width="10" height="8" viewBox="0 0 10 8" fill="none" xmlns="http://www.w3.org/2000/svg">
<path d="M3.67317 5.66976C3.83081 5.49815 3.98 5.33586 4.12908 5.17321L8.04231 0.906674C8.25844 0.670953 8.52792 0.605423 8.78141 0.725641C9.19814 0.923174 9.29809 1.49609 8.97561 1.8479C8.28388 2.60292 7.59165 3.35746 6.89893 4.11153C5.99092 5.10155 5.08321 6.09185 4.1758 7.08243C4.05997 7.20901 3.92894 7.30424 3.75839 7.32734C3.53963 7.35692 3.35856 7.27725 3.21006 7.1146C2.94161 6.82247 2.67335 6.53006 2.40528 6.23737C1.94727 5.73811 1.48938 5.23882 1.0316 4.73948C0.848826 4.54007 0.791708 4.30682 0.862991 4.04411C0.929247 3.79955 1.08187 3.63844 1.32199 3.5755C1.55902 3.51327 1.7627 3.5821 1.92994 3.76266C2.21268 4.06792 2.49324 4.37553 2.7746 4.68197C3.06399 4.99728 3.35297 5.31272 3.64152 5.62827C3.65158 5.63876 3.65992 5.65208 3.67317 5.66976Z" fill="#5E5E5E"/>
</svg>
