<svg width="14" height="16" viewBox="0 0 14 16" fill="none" xmlns="http://www.w3.org/2000/svg">
<path d="M1.66867 4.59215C1.44734 4.59215 1.23657 4.59215 1.02677 4.59215C0.711497 4.59215 0.456082 4.40891 0.365181 4.11968C0.27284 3.82527 0.385665 3.50448 0.640602 3.33741C0.75489 3.26351 0.889444 3.2256 1.02628 3.22875C1.87159 3.22938 2.71696 3.22938 3.56238 3.22875H3.66912C3.66912 3.19515 3.66912 3.16736 3.66912 3.13956C3.67024 2.90136 3.6656 2.66316 3.67344 2.42528C3.70273 1.53827 4.35343 0.755368 5.23411 0.554068C5.39282 0.519785 5.55491 0.502833 5.71742 0.503512C6.57346 0.498644 7.4298 0.506021 8.28552 0.500054C9.41041 0.492203 10.21 1.34153 10.3119 2.27784C10.3418 2.55247 10.3279 2.83164 10.3332 3.10863C10.3332 3.14474 10.3332 3.18102 10.3332 3.22875H10.4324C11.2859 3.22875 12.1394 3.22875 12.993 3.22875C13.156 3.2287 13.3135 3.28676 13.4361 3.39214C13.5587 3.49751 13.6381 3.64302 13.6595 3.80156C13.7075 4.15925 13.5067 4.478 13.1727 4.56688C13.1082 4.58274 13.0419 4.59065 12.9754 4.59043C12.7652 4.59341 12.555 4.59152 12.334 4.59152V4.70568C12.334 7.60239 12.3344 10.499 12.3352 13.3956C12.3352 13.9681 12.1592 14.4715 11.7581 14.8891C11.3669 15.2959 10.88 15.4991 10.3095 15.4992C8.10399 15.5005 5.89848 15.5002 3.69297 15.4983C2.65482 15.4963 1.80774 14.7402 1.68771 13.724C1.67501 13.6096 1.66903 13.4946 1.66979 13.3795C1.66883 10.4903 1.66856 7.60155 1.66899 4.71321L1.66867 4.59215ZM2.99985 4.59545V4.68181C2.99985 7.59925 2.99985 10.5166 2.99985 13.4338C2.99985 13.849 3.2908 14.1387 3.71041 14.1388C5.90493 14.1395 8.09961 14.1392 10.2945 14.138C10.3637 14.1386 10.4326 14.1305 10.4998 14.114C10.8115 14.0338 11.0029 13.7665 11.0029 13.4157C11.0029 10.5037 11.0029 7.59155 11.0029 4.67946V4.5953L2.99985 4.59545ZM9.00328 3.22498C9.00328 3.00986 9.00328 2.79883 9.00328 2.58764C9.00452 2.54327 9.00238 2.49886 8.99688 2.4548C8.94263 2.10622 8.67681 1.8655 8.32905 1.86424C7.44416 1.8611 6.55927 1.8611 5.67438 1.86424C5.34198 1.8655 5.07295 2.09459 5.01582 2.41727C5.00454 2.49743 4.99984 2.57835 5.00174 2.65924C4.99998 2.84657 5.00174 3.03405 5.00174 3.22451L9.00328 3.22498Z" fill="#357ADE"/>
<path d="M6.33144 9.36571C6.33144 10.0381 6.33032 10.7104 6.33144 11.3828C6.33144 11.6208 6.2487 11.8195 6.05298 11.9622C5.84749 12.112 5.61944 12.1349 5.38883 12.0269C5.14398 11.9123 5.02299 11.7089 5.00059 11.4467C4.99883 11.4258 4.99963 11.4048 4.99963 11.3839C4.99963 10.0366 4.99963 8.68931 4.99963 7.34187C4.99963 7.19412 5.03468 7.0572 5.11757 6.93362C5.27409 6.69982 5.55975 6.58959 5.8278 6.65868C6.09986 6.72856 6.30919 6.97429 6.32727 7.24703C6.33255 7.3279 6.33095 7.40908 6.33095 7.49026C6.33148 8.1153 6.33165 8.74045 6.33144 9.36571Z" fill="#357ADE"/>
<path d="M7.66963 9.36536C7.66963 8.693 7.67107 8.02064 7.66963 7.34828C7.66963 7.12846 7.73828 6.94003 7.90968 6.79746C8.11165 6.62835 8.34403 6.5869 8.58873 6.691C8.84671 6.80092 8.97618 7.0074 9.00115 7.27951C9.00226 7.29254 9.00115 7.30558 9.00115 7.31877C9.00115 8.6817 9.00115 10.0447 9.00115 11.4077C9.00115 11.7169 8.80237 11.9843 8.51622 12.0653C8.12013 12.1776 7.70388 11.8915 7.67523 11.4843C7.66755 11.3776 7.67091 11.27 7.67091 11.1628C7.66984 10.5634 7.66941 9.96423 7.66963 9.36536Z" fill="#357ADE"/>
</svg>
