<svg width="10" height="10" viewBox="0 0 10 10" fill="none" xmlns="http://www.w3.org/2000/svg">
<path d="M2.98049 2.09875L3.03272 2.15098C5.0079 4.12622 6.98307 6.10147 8.95825 8.07671C9.1658 8.28428 9.22242 8.55526 9.11024 8.80212C8.93429 9.1904 8.43032 9.2896 8.11494 8.99771C8.09533 8.97971 8.07676 8.96065 8.05787 8.94176L2.08802 2.97171C2.08663 3.00539 2.08578 3.02756 2.08549 3.04964C2.0875 4.27669 2.08963 5.5038 2.09185 6.73096C2.09232 7.01354 1.97112 7.22177 1.71187 7.33701C1.33157 7.50483 0.893098 7.24595 0.847687 6.83216C0.843982 6.79245 0.842409 6.75257 0.842977 6.71271C0.839972 5.01248 0.837181 3.31225 0.834605 1.61203C0.834474 1.5324 0.830071 1.45187 0.839774 1.37322C0.859024 1.22615 0.930217 1.09098 1.04051 0.99208C1.1508 0.893182 1.29294 0.83707 1.44127 0.833868C1.50204 0.832517 1.56289 0.835277 1.62366 0.835376C3.3256 0.838116 5.02784 0.84083 6.73037 0.843517C7.02165 0.843996 7.25289 0.998159 7.34769 1.25373C7.49325 1.64649 7.21379 2.07112 6.79593 2.09131C6.76546 2.09303 6.73516 2.09266 6.70477 2.09253C5.48717 2.09069 4.26954 2.08856 3.05188 2.08613C3.02934 2.08424 3.007 2.08037 2.98512 2.07457L2.98049 2.09875Z" fill="#8A98A7"/>
</svg>
